<?xml version="1.0" encoding="utf-8"?>
<!-- Generator: Adobe Illustrator 25.1.0, SVG Export Plug-In . SVG Version: 6.00 Build 0)  -->
<svg version="1.1" id="Camada_1" xmlns="http://www.w3.org/2000/svg" xmlns:xlink="http://www.w3.org/1999/xlink" x="0px" y="0px"
	 viewBox="0 0 1080 1080" style="enable-background:new 0 0 1080 1080;" xml:space="preserve">
<style type="text/css">
	.st0{fill:#FEFEFE;}
	.st1{fill:#F5E8E0;}
	.st2{fill:#F2E4E1;}
	.st3{fill:#F1E1E1;}
	.st4{fill:#ECDBE2;}
	.st5{fill:#EAD9E2;}
	.st6{fill:#EEDDE1;}
	.st7{fill:#E5DBE6;}
	.st8{fill:#E5DAE6;}
	.st9{fill:#EDDDE2;}
	.st10{fill:#F5E6DF;}
	.st11{fill:#EBDBE3;}
	.st12{fill:#8D598F;}
	.st13{fill:#EFDDE0;}
	.st14{fill:#895A93;}
	.st15{fill:#885A94;}
	.st16{fill:#E8D9E4;}
	.st17{fill:#E7DAE5;}
	.st18{fill:#876095;}
	.st19{fill:#995387;}
	.st20{fill:#E5D9E6;}
	.st21{fill:#E9DCE4;}
	.st22{fill:#E8D8E4;}
	.st23{fill:#94578B;}
	.st24{fill:#C1837F;}
	.st25{fill:#81629A;}
	.st26{fill:#865D96;}
	.st27{fill:#925A8D;}
	.st28{fill:#A45380;}
	.st29{fill:#826099;}
	.st30{fill:#846197;}
	.st31{fill:#8B5891;}
	.st32{fill:#985788;}
	.st33{fill:#E4DAE7;}
	.st34{fill:#845E97;}
	.st35{fill:#8C5892;}
	.st36{fill:#E9DDE5;}
	.st37{fill:#8F568F;}
	.st38{fill:#92558D;}
	.st39{fill:#8C6192;}
	.st40{fill:#B36079;}
	.st41{fill:#A8557E;}
	.st42{fill:#D18F72;}
	.st43{fill:#90578D;}
	.st44{fill:#8E578F;}
	.st45{fill:#95598B;}
	.st46{fill:#9C5585;}
	.st47{fill:#D69C75;}
	.st48{fill:#9C5987;}
	.st49{fill:#A56B89;}
	.st50{fill:#A96081;}
	.st51{fill:#B76277;}
	.st52{fill:#CE9279;}
	.st53{fill:#99658D;}
	.st54{fill:#F0E2E3;}
	.st55{fill:#AC587C;}
	.st56{fill:#BD767A;}
	.st57{fill:#EBDEE4;}
	.st58{fill:#A25F85;}
	.st59{fill:#E2DCE8;}
	.st60{fill:#BC7F82;}
	.st61{fill:#95618E;}
	.st62{fill:#A25782;}
	.st63{fill:#B6697B;}
	.st64{fill:#945C8C;}
	.st65{fill:#BA6775;}
	.st66{fill:#B46F80;}
	.st67{fill:#906291;}
	.st68{fill:#9E5E87;}
	.st69{fill:#C17979;}
	.st70{fill:#BC6A74;}
	.st71{fill:#B37484;}
	.st72{fill:#C1807C;}
	.st73{fill:#A05383;}
	.st74{fill:#D59470;}
	.st75{fill:#95638F;}
	.st76{fill:#D69972;}
	.st77{fill:#BE6C73;}
	.st78{fill:#BC787D;}
	.st79{fill:#AC5E7E;}
	.st80{fill:#AC6F86;}
	.st81{fill:#BC737A;}
	.st82{fill:#8A5994;}
	.st83{fill:#C98577;}
	.st84{fill:#CE8B74;}
	.st85{fill:#A76584;}
	.st86{fill:#C3837C;}
	.st87{fill:#B9767F;}
	.st88{fill:#B86B79;}
	.st89{fill:#985A89;}
	.st90{fill:#B07285;}
	.st91{fill:#D39170;}
	.st92{fill:#A06489;}
	.st93{fill:#D49A76;}
	.st94{fill:#9E5284;}
	.st95{fill:#AB6883;}
	.st96{fill:#CB8875;}
	.st97{fill:#9D678C;}
	.st98{fill:#BB6D77;}
	.st99{fill:#A05784;}
	.st100{fill:#C68077;}
	.st101{fill:#A96D87;}
	.st102{fill:#AF5A7A;}
	.st103{fill:#B9707B;}
	.st104{fill:#D69771;}
	.st105{fill:#9A5F8A;}
	.st106{fill:#AE6B82;}
	.st107{fill:#A45F83;}
	.st108{fill:#A0688B;}
	.st109{fill:#C37C77;}
	.st110{fill:#A26688;}
	.st111{fill:#A66887;}
	.st112{fill:#926390;}
	.st113{fill:#C17072;}
	.st114{fill:#EEE0E3;}
	.st115{fill:#B15C79;}
	.st116{fill:#A95D80;}
	.st117{fill:#D4926E;}
	.st118{fill:#C78A7D;}
	.st119{fill:#A65B81;}
	.st120{fill:#A36185;}
	.st121{fill:#C88376;}
	.st122{fill:#965D8C;}
	.st123{fill:#B86E7B;}
	.st124{fill:#BD7B7D;}
	.st125{fill:#B67380;}
	.st126{fill:#B06D82;}
	.st127{fill:#9C5A87;}
	.st128{fill:#A26A8B;}
	.st129{fill:#A66385;}
	.st130{fill:#B67783;}
	.st131{fill:#B87D85;}
	.st132{fill:#A96B85;}
	.st133{fill:#A05C86;}
	.st134{fill:#B97A82;}
	.st135{fill:#9B628B;}
	.st136{fill:#C4867E;}
	.st137{fill:#A25482;}
	.st138{fill:#A55680;}
	.st139{fill:#845E96;}
	.st140{fill:#875D94;}
	.st141{fill:#B46379;}
	.st142{fill:#B1627C;}
	.st143{fill:#AF5E7B;}
	.st144{fill:#A7577F;}
	.st145{fill:#AB5A7D;}
	.st146{fill:#D09175;}
	.st147{fill:#CF8F74;}
	.st148{fill:#D39371;}
	.st149{fill:#9E5484;}
	.st150{fill:#A96382;}
	.st151{fill:#AD637F;}
	.st152{fill:#A76183;}
	.st153{fill:#AE627E;}
	.st154{fill:#B86678;}
	.st155{fill:#CD8E77;}
	.st156{fill:#CA8D7A;}
	.st157{fill:#D29475;}
	.st158{fill:#D19677;}
	.st159{fill:#AD5C7C;}
	.st160{fill:#BA747C;}
	.st161{fill:#BF7A7B;}
	.st162{fill:#895E93;}
	.st163{fill:#925F8F;}
	.st164{fill:#8C5E91;}
	.st165{fill:#8F5E90;}
	.st166{fill:#98618C;}
	.st167{fill:#A65980;}
	.st168{fill:#B0697F;}
	.st169{fill:#B4677B;}
	.st170{fill:#B56C7D;}
	.st171{fill:#B26C80;}
	.st172{fill:#8A5C92;}
	.st173{fill:#905C8E;}
	.st174{fill:#8D5C90;}
	.st175{fill:#B96977;}
	.st176{fill:#B6707E;}
	.st177{fill:#C17C7B;}
	.st178{fill:#C37F7A;}
	.st179{fill:#D49573;}
	.st180{fill:#D49874;}
	.st181{fill:#AF607C;}
	.st182{fill:#C6857A;}
	.st183{fill:#C98779;}
	.st184{fill:#CC8A76;}
	.st185{fill:#C68279;}
	.st186{fill:#B8737E;}
	.st187{fill:#9F658A;}
	.st188{fill:#AD6680;}
	.st189{fill:#C98A79;}
	.st190{fill:#A95B7F;}
	.st191{fill:#C7887C;}
	.st192{fill:#B1657D;}
</style>
<g>
	<g>
		<path class="st0" d="M610.5,1047.8c-174.2,0-348.5,0-522.7,0.1c-4.8,0-6.2-0.8-6.2-6c0.2-334.5,0.2-669,0-1003.5
			c0-5.4,1.2-6.4,6.5-6.4c301.3,0.2,602.5,0.2,903.8,0c5.1,0,6.5,0.7,6.5,6.3c-0.2,334.5-0.2,669,0,1003.5c0,5-1.2,6.1-6.1,6
			c-38-0.2-76-0.1-114-0.1c0.2-3.2,2.9-2.8,4.8-3.1c3.5-0.6,6.8-1.5,10.1-2.8c9.3-3.6,11-6.3,9.9-16.2c-1-8.7,0.9-17.4-1.2-26.1
			c-1.5-8.7,0.5-17.4-1-26.1c-1-4.5-0.5-9.1-0.7-13.7c-0.2-6.5-0.8-7-6.9-5.1c-6.9,2.2-13.7,4.5-20.6,6.8
			c-19.1,6.3-38.1,13-57.3,19.2c-4.6,1.5-9.2,3.2-14.2,1.7c-10-2.4-19.6-6.1-29.3-9.5c-19-6.7-38-13.3-57.5-18.4
			c-29-10.5-58.6-19.3-87.9-28.9c-1.9-0.6-3.8-1-5.7-1.4c-27.8-8.4-54.9-18.5-82.6-27.3c-25.5-8.1-25.4-8.4-50.5,0
			c-21.4,7.2-43,14.1-64.3,21.6c-6.9,3.5-13.7,3.3-21,0.6c-8-3-16.1-5.8-24.4-7.9c-3.8-0.2-7.2-1.5-10.8-2.6
			c-23.4-7.1-46.1-16.5-69.6-23.2c-1.1-0.3-2.1-0.5-3.2-0.7c-14.1-4.1-28.1-8.3-41.9-13.4c-10.6-3.9-21.5-6.5-32.6-7.1
			c-22.5-1.2-45.1-1.7-66.9,6c-5.8,2-11.6,4-15.8,8.9c-4.3,4.3-2.5,8,1.3,11.2c4.4,3.7,9.6,6.1,15.1,7.9
			c18.8,6.1,37.5,12.1,56.3,18.1c18.7,6.5,37.7,11.8,56.4,18.3c16,5,32,10.2,47.9,15.5c32.2,10.1,64.2,20.8,96.4,30.9
			c4.5,1.4,8.6,0.5,12.8-1c21.1-7.3,42.2-14.6,63.5-21.6c1-0.3,2.1-0.5,3.2-0.7c6.7-1.4,12.7-4.7,19.3-6.4c4.6-1.2,9-1.3,13.5,0.3
			c12.4,4.3,25.1,7.7,37.5,12c33.7,11.5,67.9,21.6,101.6,33c14.2,4.3,28.3,9.1,42.5,13.8c2.7,0.9,7.2,1.5,3.2,6.2
			c-6,3.4-12.8,4.5-19.2,6.6c-23.5,7.7-46.8,15.9-70.4,23.3C615.6,1046.7,613,1046.7,610.5,1047.8z"/>
		<path class="st1" d="M610.5,1047.8c1.8-1.8,4.3-2.1,6.6-2.6c20.6-1.3,41.3,1.1,61.7-1.1c19.3-2,38.6-0.4,57.6-2.8
			c12.6-1.6,25.8-0.4,38.1-5.8c6.9-3,14.7-1.5,22.2-1.5c4.8,0,8.9-1.1,12.9-3.9c6.6-4.5,13.9-7.4,22.2-6.7c10.6,1,20.9-2,31.4-3.1
			c4.5-0.4,7.9-3.7,12-5.3c5.8-1.5,11.8-0.6,17.7-0.9c7.2-0.3,7.7-0.7,8.4-7.8c0.2-2.2,0.1-4.4,1.9-6.1c2.4,2.6,1.1,5.8,1.3,8.8
			c0.5,7.1-0.5,14.3,1.2,21.4c1.4,5.8-3,8.6-7.2,11.1c-6.2,3.7-13.4,4.3-20.3,6.2C789,1047.8,699.8,1047.8,610.5,1047.8z"/>
		<path class="st2" d="M903.3,1000.3c-0.4,16.2,3.3,16-15.9,15.9c-3.9,0-7.9,0-11.8,0c-11.2,4.4-22.5,0.5-33.8,0.1
			c-3.9-0.2-7.9-1.2-11.8-0.2c-10.8,2.7-21.8,2.3-32.7,2.2c-14.3-0.2-28.4,1.2-42.6,2.3c-8.1,0.6-16.2,1-24.2-1.2
			c-5-1.4-10-0.7-15-0.2c-3.4,0.3-7.8,1.4-8.7-4.2c0.8-2.1,0.8-2.1-0.7-2.6c-13.4-4.2-26.7-8.4-40.1-12.6c-1.4-0.4-2.7-1.3-4.1-1.9
			c0.9-4.3,4.7-4.1,7.7-4.5c12.2-1.3,24.5-0.5,36.5-2.8c18.4-3.5,37-1.7,55.5-2.9c11.7-0.8,23.3-3.7,35.1-4.1c2-0.1,3.9-0.9,4.9-2.9
			c4.7,2.5,8.8-0.5,13.2-1.3c7.1,2.4,14.4,3.5,21.9,3.4c14.9-0.3,29.7,0.5,44.6,1c5.6,0.2,10.7-2,16.1-2.9c4-0.7,1.7-6.1,4.5-8.1
			C904.8,981.7,902.6,991.1,903.3,1000.3z"/>
		<path class="st3" d="M801.7,980.5c2.3,5.1-1.8,5-4.6,5.2c-24.4,1.5-48.6,4.7-73.2,4.6c-11.8-0.1-24.1,2.2-36.1,4
			c-5.9,0.9-11.6-1.3-17.4,0.6c-2.8,0.9-6,0.7-8.5,2.8c-3.4,0-6.3-1.6-9.5-2.6c-28.7-9.2-57.5-18.5-86.2-27.8
			c-2-0.7-4.3-0.8-5.9-2.6c2.3-2.9,5.7-3.1,9-3.2c7.5-0.3,14.9-0.4,22.3,1.4c5,1.2,9.9,1,15,0.4c17.4-1.9,34.8-4,52.2-6
			c14.2-1.6,28.6-1.8,42.7-4.2c4.3-1.5,8.8,1.5,13.1-0.3c19.7,4.8,38.7,11.8,57.9,18.4C782.2,974.5,791.7,978.4,801.7,980.5z"/>
		<path class="st4" d="M378.5,909.4c7.6,2.5,15.4,4.5,22.9,7.5c7.4,2.9,14.6,3.7,22,0.3c19.3,1,38.7-0.8,57.9,1
			c22.3,2.1,44.6,3,66.9,3.8c2.7,0.1,5.3,0.6,7.1,2.8c0.1,5.8-4.3,5.9-8.2,6.2c-23.8,1.3-47.6,3.5-71.5,3.1
			c-8.1-0.2-16.1,1.4-24.3,1c-7.4-0.4-14.8,0-22.1-2.3c-3.8-1.2-8.3-1-12.3,0.5c-12.6,0.9-25.2,3.1-37.9,3.2
			c-6.4,0.1-12.7,1.1-19,1.5c-29.3,1.6-58.7,2.7-87.9-1.7c-1.9-0.3-4,0.6-5.8-0.6c-19.1-5.6-38.2-11.1-56.7-18.4
			c1.7-4.6,5.6-4.9,9.7-5.1c20.6-0.7,41.1-3,61.7-3c17.1,0,34.2,0.3,51.3,1.4c12.2,0.8,24.5,2,36.7,1.2
			C372.2,911.6,375.6,911.2,378.5,909.4z"/>
		<path class="st5" d="M378.5,909.4c-1.8,3.9-5.9,5-9.1,5c-24.4-0.1-48.7-2.5-73.1-2.7c-22.1-0.2-44,0.2-65.9,2.7
			c-3,0.4-6.3,0.8-9.2,0c-4.6-1.3-8.1,0.5-11.5,2.9c-16.7-4.3-32.8-10.2-49.2-15.3c-7.1-2.2-14-4.7-20.5-8.5
			c-7.3-4.3-8.7-9.6-4.2-14.6c4.6,1.7,9.3,2.2,14.2,2.2c12.3,0,24.5-0.3,36.7,2c7.2,1.4,14.8-0.6,22.3-0.9
			c9.5-0.3,18.6,3.6,28.1,1.6c0.4-0.1,0.9,0.1,1.3-0.1c17.3-7.7,34.5-0.7,51.7,0.6c1.9,0.1,3.9,1.1,5.2-1.2
			c25.2,6.8,49.3,16.9,74.2,24.5C372.5,908.3,375.3,909.6,378.5,909.4z"/>
		<path class="st6" d="M266.4,935.7c5.1-2.6,10.4-0.4,15.4,0.2c19.9,2.3,39.8,0.1,59.7,1.3c10.1,0.6,19.8-2.8,29.5-2.3
			c13.3,0.6,26.1-3.9,39.4-2.1c2.1,0.3,4.3-0.6,6.4-1c15.6,1.3,31.3,2.6,46.8,4.6c15.4,2,31,2.3,46.5,3.5c15.7,1.2,31.5,2.7,47,5.1
			c44.7,6.7,89.5,7.6,134.4,7.2c3.8,0,8-1,11.3,2c-9.8,0.5-18.9,5.1-29.2,3.1c-6-1.2-12,2.7-18.5,2.6c-10.1-0.1-20,2.9-30.2,2.8
			c-3.8,0-7.5,1.8-11.4,2.2c-10.3,1.3-20.2,0.5-30.4-1.2c-7.4-1.3-15.2-0.8-22.8,1.1c-10.4-3.1-21.2-5.3-31.1-9.6
			c-10.7-4.5-20.2-2.9-30.1,1.3c-2.8,1.2-5.7,2-8.6,2.9c-8.9,0.6-17.7-2.6-26.7-0.9c-1.3,0.2-2.6,0.2-3.9,0
			c-31.3-4.9-62.9-5.6-94.5-6.8c-12.4-0.5-24.8-2.1-37.3-2.2c-4.9,0-9.6,0.4-14.3,1.9C298,946.2,282.2,940.9,266.4,935.7z"/>
		<path class="st7" d="M629,871.1c-1.7-13.7-0.6-27.5-2.5-41.1c-1.2-8.4-0.5-9,7.9-9c20.4,0,40.8,0,61.1,0c3.2,0,5.9-0.4,6.1,4.5
			c0.8,20.5,2.7,41,2.5,61.5c-1.6,1.4-3.4,1.9-5.5,1.9c-15.3-0.1-30.6,0.4-45.9-0.8c-5-0.4-10.1-0.1-15.1-0.8c-7.1-1-8-2.1-8.1-9.1
			C629.6,875.8,630.3,873.3,629,871.1z"/>
		<path class="st8" d="M559.6,820.9c10.1,0,20.2,0.1,30.3,0c3.2,0,4.7,0.8,4.9,4.4c0.8,21.9,1.6,43.7,2.7,65.6
			c0.2,5.2-0.7,7.1-6.5,5.2c-19.5-6.5-39.2-12.7-58.8-18.8c-4.6-1.4-6-3.7-6.1-8.4c-0.3-14.9-1.2-29.7-2.1-44.6
			c-0.3-4.3,2.5-3.4,4.7-3.4C538.9,820.9,549.3,820.9,559.6,820.9z"/>
		<path class="st9" d="M702.8,954.1c-22.6,0-45.2,0.6-67.8-0.2c-13.7-0.5-27.6,0.1-41.1-1.6c-11.3-1.4-22.5-4.7-34.1-5.3
			c-10.8-0.5-21.7-1.7-32.4-3.4c-25.4-4-51.4-2-76.6-7.7c-5.3-1.2-10.8-1.5-16.2-1.5c-6.1-0.1-12.2,0-17.9-2.7
			c4.8-2.4,9.8-1.8,14.6-0.5c11.9,3.1,23.9,1.7,35.9,1.1c11.6-0.6,23.2-0.3,34.8-0.6c11.3-0.3,22.7-0.9,33.9-2.7
			c3.8-0.6,7.8-0.1,11.7,0.2c3.4,0.2,6-0.8,7.6-4c6.3-2.5,12.9-1.7,19.4-1.9c15.5-0.4,31.1,0.2,46.6-0.7
			c15.6,4.8,31.3,9.3,46.7,14.6c15.6,5.3,31.8,9.1,46.9,15.8C711.2,957.5,706.8,953.4,702.8,954.1z"/>
		<path class="st10" d="M706.8,1014.9c2.6,4.2,6.6,2.8,10.1,2c3.5-0.8,7.2-1.4,10.4-0.5c11,3.2,21.9,2.2,33.2,1.3
			c17.2-1.5,34.6-2.1,51.9-1.6c3.7,0.1,7.4,0.1,11.1-1.1c9.9-3.5,20.1-0.7,29.9,0.2c7.5,0.7,14.9,0.5,22.3,0.9
			c-10,9-22.8,7.4-34.6,9c-8.7,1.2-18-1.3-26,4.1c-0.5,0.3-1.5,0.1-1.9,0.5c-7,8.6-16.8,5.8-25.7,6.1c-7,0.2-14,0.3-20.1,4.5
			c-0.8,0.6-2.1,0.8-3.1,0.7c-17.9-0.4-35.7,2.3-53.6,3.2c-28.6,1.5-57.2,2-85.9,2.1c-2.5,0-5.3,1-7.5-1.3
			c26.8-9.1,53.5-18.5,80.6-26.7C700.8,1017.5,703.8,1016.1,706.8,1014.9z"/>
		<path class="st11" d="M621.1,922.5c-4.2,1.9-8.6,2.5-13.2,2.7c-14.8,0.6-29.7-1.4-44.4,1.1c-2.6,0.4-5.5-0.7-8.3-1.1
			c-3.6-1.1-7.3-1.5-11-1.3c-15.8,0.6-31.8,0.2-47.2-1.9c-21.1-2.8-42-1.1-63-2c-3.8-0.2-7.3-1.2-10.7-2.7
			c10.7-5,22.2-7.8,33.3-11.7c13.2-4.6,26.9-8.2,39.8-13.5c11-4.6,21.1-4.2,32.1-0.2c18.1,6.5,36.8,11.5,54.9,18.1
			C595.8,914.3,608.5,918.4,621.1,922.5z"/>
		<path class="st12" d="M494.4,704.8c0,4.9,0,9.7,0,14.6c-0.7,1.2-0.7,2.6-0.5,3.8c0.5,4-1.4,5.7-4.9,8c-12.1,7.9-25.4,8.4-39.1,8.6
			c-7.8,0.1-15.8,0.3-22.7,5.3c-2.7,2-6.5,3.4-9.2-0.7c0-11.9,0-23.8,0-35.6c0.5-4.5,3-7,7.2-8.3c14-4.3,27.9-9.1,42.8-9.4
			c3-0.1,5.6-0.9,8-2.6c2-1.4,4.2-2.2,6.7-2.5c9.6-1.1,11.1,0.2,11.2,9.7C493.9,698.7,493.2,701.8,494.4,704.8z"/>
		<path class="st13" d="M313.9,951.5c1.8-4.5,5.9-4,9.5-3.9c13.1,0.6,26.3-2.1,39.2,2.5c1.4,0.5,3.1,0.1,4.6,0.1
			c31.1,0,62,1.9,92.8,6.1c8.8,1.2,18.1,0.1,27.1,1.8c1.3,0.2,2.6,0.1,3.5,1.3c-9.5,3-19.1,5.9-28.6,9.2
			c-13.8,4.7-27.5,9.7-41.3,14.3c-2.5,0.8-5.2,1.5-8.3,0.5c-32.2-10.5-64.5-20.7-96.8-31C315,952.1,314.4,951.8,313.9,951.5z"/>
		<path class="st14" d="M418.1,744.4c3,2.3,6.8,1.2,8.5-0.7c5.4-6.1,12.9-5.4,19.4-5.6c10.9-0.3,22.2,0.5,32.1-3.5
			c6.5-2.6,16.4-4.5,16.3-15.3c0,4,0,7.9,0,11.9c-1.2,10.7-0.4,21.4-0.4,32.1c0,4-1.2,5.9-5.2,6.8c-5.9,1.2-12.3,2.4-17.6,4.5
			c-8.7,3.5-18.2,4.3-26.3,8.1c-7.7,3.7-16.1,1.7-23.4,5.6c-2.1,1.1-2.6-1.3-2.7-3.2c-0.2-3.9,0.7-7.9-0.6-11.7
			C418.1,763.8,418.1,754.1,418.1,744.4z"/>
		<path class="st15" d="M393.9,715.4c0.1,29.8,0.2,59.6,0.3,89.4c0,3.1-1,4.2-4.1,4.2c-24.1-0.1-48.2-0.1-72.3,0
			c-3.7,0-4.4-1.5-4.3-4.7c0.2-6.8,0.2-13.6,0.3-20.4c16.6-6.7,33.2-13.3,51.2-15.2c8.1-0.9,15.5-4.7,23.3-6.8c3-0.8,2.7-3.7,2.7-6
			c0.1-7,0-14,0-21c0.2-6.2-0.9-12.4,0.9-18.5C392.4,715.6,393,715.3,393.9,715.4z"/>
		<path class="st16" d="M394.3,856.5c2.8,12,0,24.4,2.5,36.5c0.8,3.7,0.4,6.5-5.1,4.6c-24.7-8.2-49.4-16.1-74.2-24
			c-3.4-1.1-3.6-3.3-3.6-6c0-6.8,0-13.6,0-20.4c8.5-3.7,17.2-2.3,25.8-1c5.7,0.8,11.3,2,17,1.6c11.1-0.7,21.7,3.2,32.6,4.2
			C392,852.3,393.4,854.1,394.3,856.5z"/>
		<path class="st17" d="M494.5,856.5c2.5,5.5,0.9,11.2,1.2,16.9c0.2,2.8-2.2,3.5-4.3,4.2c-22.2,7.4-44.4,14.8-66.5,22.3
			c-3,1-4.5,0.5-4.6-2.9c-0.1-1.5-0.8-3-0.9-4.5c-0.5-15.1-0.9-30.1-1.4-45.2c8.9-1,17.9-1.9,26.5,1.9c4.8,2.1,10,1.2,15,1.4
			c9.8,0.4,19.8-1.4,29.3,2.9C490.7,854.4,492.9,855,494.5,856.5z"/>
		<path class="st18" d="M801.8,691.7c0,12.7,0,25.5,0,38.2c-7.8,4.1-15.6,7.7-24.7,7.3c-6.1-0.3-12.2-0.1-18.3,0.9
			c-3.8,0.6-7,1.8-10.2,4c-4.5,3.2-9.4,4.5-14.5,0.8c-0.5-5.3-0.1-10.5-0.2-15.8c0.1-9.5-0.2-19,0.1-28.4c1.8-2.6,4.6-2.2,7.2-2.4
			c7.9-0.5,15.5-2.6,23.2-3.8c11.1-1.7,22.5-3.9,33.9-2.6C799.6,690.2,800.8,690.8,801.8,691.7z"/>
		<path class="st19" d="M265.1,649.1c-7.3,8.1-14.5,16.3-23.3,22.9c-28,20.8-69.1,17.2-90.5-7.8c3.8-4.1,7.2-9.2,14.1-7.8
			c11.7,1.8,23,0.4,33.9-4.1c5.6-2.3,11.4-3.4,17.3-3.2c6.3,0.2,12.2-0.8,17.9-3.3c2-0.9,4.1-1.9,6.3-1.7c4.7,0.5,8.8-0.5,13.1-2.8
			C259.9,638,265.9,642.6,265.1,649.1z"/>
		<path class="st20" d="M286.2,863.4c-16.4-5.4-32.3-9.7-48.9-11.4c-8.7-0.9-17.4-1.5-26.1-1.9c-3.6-0.2-5.2-0.8-5.8-4.9
			c-1-6.6-0.8-13.1-1.1-19.6c-0.2-3.5,1.3-4.6,4.7-4.6c23.7,0.1,47.4,0.1,71.1,0c3.8,0,4.6,1.6,4.9,5.1
			C285.9,838.2,286.4,850.3,286.2,863.4z"/>
		<path class="st21" d="M629,871.1c2,1.7,1.5,4.2,1.2,6.2c-1,6,2.6,8.3,7.3,8c11.3-0.7,22.4,1.8,33.9,1.1
			c10.7-0.7,21.8,0.2,32.7,0.5c1,3.4,1.6,6.8,1.3,10.3c-0.8,10.1,1.3,20,1.4,30.1c0,4.6-0.7,6.3-5.9,4.6
			c-21.7-7.3-43.5-14.4-65.4-21.3c-3.9-1.3-5.4-3.1-5.4-7.4C630.2,892.4,629.5,881.7,629,871.1z"/>
		<path class="st22" d="M295.4,882.9c1.2,5.2-2.2,3.8-5,3.4c-11.4-1.6-22.8-3.3-34.3-4.7c-8.3-1-15.3,5.6-23.9,4.6
			c-1.8-0.2-3.7,0.4-5.7-0.1c-11.4-3-22.9-2.6-34.5-0.8c-1.5,0.2-3.2,0.5-4.6,0.1c-14.4-4.1-29.2-2-43.8-2.5c-3.2-0.1-6.8,0.4-7.9-4
			c1.7-5.3,6.6-6.9,10.9-8.5c14-5.2,28.4-8.5,43.5-8.6c17.3-0.1,34.6-0.7,51.5,4c8.6,2.4,17,5.6,25.5,8.3
			C276.6,877.1,286,880,295.4,882.9z"/>
		<path class="st23" d="M313.8,702.2c0-11.4,0-22.9-0.1-34.3c6.8-7.1,15.9-5.3,24-5.1c9.2,0.2,17.6-1.1,25.6-5.6
			c1.8-1,3.6-1.6,5.6-1.7c5.8-0.1,11.2-1.2,16.4-3.9c2.7-1.4,5.8-2.2,8.3,0.9c0.2,10.5,0.1,21.1,0,31.6c-1.2,3.3-4,4.3-7.1,5.1
			c-13.3,3.3-26.6,6.1-40.6,6.1c-7.6,0-15.7,2.9-23,6.4C319.8,703.3,317,704.7,313.8,702.2z"/>
		<path class="st24" d="M850.6,368.3c-17.3-16-33.6-33.1-50.2-49.9c10.8-2.4,21.5-5.3,32.6-4.9c5.3,0.2,10.4-0.2,15.4-1.9
			c9.3,1.2,18.9-0.2,28,2.7c2.3,0.8,4.8-0.2,7.2-0.3c4.4-0.2,8.8-0.6,12.3,3.1c0.9,9.2-0.4,18.4,0.7,27.5c0,9.7,0,19.3,0,29
			c-3.4-0.8-2.6-3.7-2.7-5.8c-0.3-4.8-0.2-9.6-0.1-14.4c0-3.7-1.7-5.7-5.3-6.2c-1.5-0.2-3-0.6-4.6-0.6c-16.4,0.3-32.7,0.1-49.9-0.3
			c4.1,5.7,9.2,9.5,13.3,14.2C849,362.8,852.2,364.5,850.6,368.3z"/>
		<path class="st25" d="M801.8,764.2c0.1,13.5,0.1,27.1,0.3,40.6c0,3.1-0.9,4.2-4.1,4.2c-21.2-0.2-42.4-0.3-63.6-0.4
			c-1.3-10.1-0.3-20.3-0.6-30.4c4.7-4,10.5-4.9,16.3-5.2c4.4-0.2,8.7-0.5,12.8-2.5c2-1,4.2-1.7,6.4-1.3c9,1.9,16.6-2.3,24.5-5.2
			C796.6,762.9,799.2,762.1,801.8,764.2z"/>
		<path class="st26" d="M418.1,773.5c2.6,3.3,0.9,7.2,1.2,10.8c0.3,3.1,1.1,4.4,3.8,1.8c1.7-1.7,3.7-2.1,6-2.1
			c5.6,0.1,11.2,0.8,15.7-4.3c2.1-2.4,6.3-0.8,9.5-0.9c3.1-0.1,6.8,0.2,8.5-2.5c2.7-4.5,6.7-4.7,10.8-4.1c6.7,0.9,11.4-5.1,18.1-4.6
			c1.9,0.1,1.5-2.8,1.5-4.5c0.1-8.5,0-17.1,0.1-25.6c0-2.1-0.7-4.4,1.2-6.2c0.1,24.5,0.1,49.1,0.3,73.6c0,3.2-1.2,4.1-4.2,4.1
			c-22.8-0.1-45.6-0.1-68.4,0c-3,0-4.4-0.8-4.3-4C418,794.5,418,784,418.1,773.5z"/>
		<path class="st7" d="M734.5,861.8c0-1.8,0-3.5,0-5.3c-2.4-14.9-1.2-16.1,13.5-14.5c12,1.3,24,0.2,36,0.6
			c6.1,0.2,12.3-0.1,17.8,3.4c2,10.9,1.2,22,1.3,32.9c1.3,4.3-2.2,4.1-4.5,4.4c-4.8,0.6-9.6,0.6-14.4-0.1c-10.7-1.4-21.3-1.5-32,0
			c-2,0.3-3.9,0.3-5.9,0.3c-9.7-0.2-11-1.7-11.2-11.5C735.1,868.7,735.9,865.2,734.5,861.8z"/>
		<path class="st27" d="M494.4,704.8c-2.4-4.1-0.9-8.5-1.1-12.8c-0.2-3-1.1-4.4-4.3-4.3c-5,0.1-10.2-1-13.8,4
			c-0.5,0.7-2,1.3-2.9,1.2c-8.4-1.1-16.5,1.4-24.5,3c-8.6,1.7-16.8,5-25.2,7.7c-2.5,0.8-3.1,3.5-4.6,5.2c0-11.4,0-22.9,0-34.3
			c1.6-3.4,4.4-5.5,7.9-6.3c9.5-2.2,18.7-6,28.7-6.2c2.7,0,5-1.2,7.3-2.6c9-5.6,18.9-4,28.7-3.5c2.4,0.1,3,2.1,3.7,4
			C494.4,674.9,494.4,689.9,494.4,704.8z"/>
		<path class="st28" d="M130.8,620.4c0.4-18.3,5-35,17.7-48.8c2.2-2.2,4.8-2.6,7.8-2.1c7.8,1.3,15.3,1.4,22.9-2.2
			c5.3-2.5,11.5,0.1,17.4,0.7c6.3,5.3,13.6,5.1,21.1,3.8c5.1-0.9,10-0.7,14.3,2.6c2.2,1.6,4.9,1.8,7.4,2.3c2.9,0.6,5,1.8,3.9,5.3
			c-1.4,1.8-3.4,1.9-5.4,2c-12,0.5-23.2,4.5-34.4,8.4c-1.2,0.4-2.5,1-3.5,1.8c-10.7,9.3-23.3,10.8-36.9,10
			c-6.5-0.4-13.2,0.6-18.6,5.2c-2.2,1.9-5.1,2.5-7.6,3.9C132.8,613.9,134.6,619.5,130.8,620.4z"/>
		<path class="st29" d="M702.6,740.5c0.1,21.3,0.1,42.6,0.3,63.9c0,3.8-1.4,4.8-5,4.7c-21.7-0.1-43.5-0.1-65.2,0
			c-3.6,0-5.2-0.9-5-4.7c0.3-5.5,0.2-11,0.3-16.4c0.3-1.1,1-2,2-2.5c5.3-2.1,10.8-3.5,16.6-3.3c1.5,0.1,3.5,0.4,4.5-0.6
			c7.5-7,18.3-5.1,26.7-9.9c4.4-2.5,9.6-3.5,14.5-3.6c6.3-0.1,7.5-3.2,7.5-8.7c-0.1-6.1-1.1-12.2,0.9-18.2
			C701.2,740.4,701.8,740.2,702.6,740.5z"/>
		<path class="st30" d="M801.8,764.2c-7.1-0.1-12.7,4.7-19.5,5.9c-1.2,0.2-2.5,2-3.4,1.7c-8.3-2.5-15.7,2-23.4,2.4
			c-7.2,0.4-13.8,3.7-21,3.1c-1.2-11.4-1.2-22.9,0-34.3c5.9,0.1,11.4,0.4,16-5c3-3.5,8.8-2.4,13.1-2.6c11.9-0.7,23.9,0.6,34.9-5.5
			c0.8-0.5,2.1-0.1,3.2-0.1C801.8,741.4,801.8,752.8,801.8,764.2z"/>
		<path class="st31" d="M392.9,735.2c0,8.1-0.1,16.2,0.1,24.3c0.1,3.2-0.9,5.3-4.4,4.7c-3.6-0.7-6.2,1.9-9.2,2.9
			c-11.6,3.8-23.7,5.2-35.5,7.7c-5.2,1.1-10.2,2.7-14.6,5.3c-4.9,3-9.9,4.5-15.5,3.9c-0.6-9.7-0.5-19.3,0-29c6.1-6.7,14.8-8,22.6-11
			c2.8-1.1,6-1.8,9-1.7c13.1,0.3,25.2-4.4,37.5-7.7C386.3,733.6,389.8,732.6,392.9,735.2z"/>
		<path class="st32" d="M392.9,652.1c-3.3-0.1-6.5-0.1-9.2,2.5c-2.5,2.4-6.1,2.1-9.2,2.6c-4.8,0.8-8.9,1.4-13.6,4
			c-5.4,2.9-12.9,5.1-19.9,4c-9.4-1.5-18.4-0.4-27.3,2.8c-0.1-4.6-0.5-9.2-0.1-13.8c0.6-6.9,7-9.5,11.1-13.8c1.9-1.5,3.7-3.1,5.2-5
			c4.1-5.1,9.1-7.8,15.8-7.7c4.6,0.1,8.8-2.5,13.5-2.6c4.4-0.2,8.5-0.5,12.7,1.8c3.8,2,7.7,0.1,11.4-1.3c2.1-0.7,3.9-2.1,6-2.5
			c2.5-0.6,4.4-0.3,4.2,3C393.2,634.7,394.4,643.4,392.9,652.1z"/>
		<path class="st33" d="M394.3,856.5c-2.4-3.7-6.3-2.3-9.6-2.9c-11.3-2.2-22.7-3.3-34.3-4.1c-12.2-0.8-24.3-2.8-36.6-2.2
			c-1.7-6.9-1.1-13.9-1.4-20.9c-0.1-3.8,0.8-5.6,5.1-5.5c23.5,0.2,47,0.1,70.4,0c3,0,5.1,0.4,5.1,4.2
			C392.8,835.6,395.1,846,394.3,856.5z"/>
		<path class="st34" d="M594.7,808.6c-22,0.1-44.1,0.3-66.1,0.5c-2.5,0-3.5-1-3.5-3.5c0.2-8.1,0.3-16.1,0.5-24.2
			c0.3-0.1,0.7-0.2,1-0.3c13.9-1.9,27.6-4.3,40.9-8.9c7.2-2.5,14.7-3.5,21.2-8.2c1.9-1.3,5-2.1,6.6,1.4
			C595,779.8,596.1,794.2,594.7,808.6z"/>
		<path class="st33" d="M494.5,856.5c-15.2-5.4-31.6-1.4-46.5-4.8c-10.1-2.3-20.3-1.2-30-4.4c0-2.2,0-4.4,0-6.6
			c-1.6-2.5,0.3-5.4-1.2-7.9c-0.1-14.4-1.4-11.8,11.6-11.9c18.6-0.2,37.2,0,55.8,0c9.1,0,9.1,0,9.1,9.2c1.8,6.1-0.5,12.4,1.3,18.5
			C494.5,851.3,494.5,853.9,494.5,856.5z"/>
		<path class="st35" d="M205.7,797.2c-0.6-9.2-0.5-18.5,0-27.7c5.9-1.9,12-1.3,18.1-1.8c4.5-0.4,8.4-1.3,12.2-4
			c6.1-4.2,13.8-3.7,20.8-5.1c7-1.4,13.7-2.5,19.4-7.2c2.6-2.2,5.8-3.2,8.9-0.4c0.6,9.2,0,18.4,0.3,27.6c0.1,3.4-1.2,5.4-4.3,6.4
			c-2.1,0.7-4.2,1.2-6.3,1.9c-9,3.1-19.4,1.9-26.9,9.2c-0.4,0.4-1.2,0.7-1.8,0.7c-12,0.8-24,2-35.9,3.9
			C207.5,801.4,206.6,799.2,205.7,797.2z"/>
		<path class="st36" d="M734.5,861.8c2.6,3.8,1.4,8.1,1.2,12.1c-0.4,6.2,3.1,7.3,8,7.7c7.9,0.6,15.6-2,23.6-1.4
			c10,0.7,20.1,1,30.1,1.3c2.2,0.1,5.1,1.1,5.8-2.6c2.8,9.1,0.6,18.5,1.3,27.7c1.4,8.9,0.8,9.2-7.7,10c-16.7,1.7-33.3-0.3-49.9-1.5
			c-3.8-0.3-7.5-0.8-9.7-4.5l0,0c-1.8-6.1,0.5-12.4-1.3-18.5C734.4,882.1,734.4,872,734.5,861.8z"/>
		<path class="st37" d="M284.8,751c-3.7-0.4-6.9,0.2-9.4,3.4c-1.5,2-3.6,2.8-6.1,3.4c-9.1,2.4-18.3,3.9-27.5,5.1
			c-1.1,0.1-2.4,0.1-3.1,0.8c-9.8,9.2-21.6,6-33,5.8c0-9.2,0-18.5,0-27.7c4.5-2.6,9.4-1.8,14.1-1.8c5.2,0.1,9.7-1.1,14.1-4.2
			c6.7-4.6,15.1-4.1,22.6-6.2c6.4-1.8,13.2-1.7,19-6.2c2.6-2,6.9-3.4,9.9,0.7C285.1,733.1,286.3,742.1,284.8,751z"/>
		<path class="st38" d="M284.8,723.3c-4.8,0-9.1,0.6-12.7,4.9c-3.3,3.9-9.1,1.1-13.6,2.9c-9,3.6-19.9,1.5-27.7,9.3
			c-1.7,1.7-4.5,1.5-6.9,1.4c-6.1-0.1-12.1,0-18.2,0c-0.1-6.1-1.8-12.9,0.2-18.2c2.5-6.5,10.6-3.5,16.1-4.8
			c20.9-4.8,38.8-14.7,53.7-30c3-3.1,5.8-6.3,8.7-9.5c0.5,0.3,1,0.7,1.5,1c0,7.3,0,14.7,0,22C284.6,709.3,286.5,716.4,284.8,723.3z"
			/>
		<path class="st39" d="M801.8,691.7c-8.7-0.3-17.4,1.2-26,1.6c-13.9,0.7-27,7.3-41.2,5c-1.6-10.8-0.4-21.6-0.6-32.4
			c4.3-3.9,9.7-4.8,15.2-4.8c15.7,0,31.4,0,47.1-1.1c2-0.1,3.9,0,5.6,1.4C801.8,671.5,801.8,681.6,801.8,691.7z"/>
		<path class="st40" d="M258.7,460.9c7-7.9,14.5-15.4,22.3-22.4c2.5-1.8,5.4-2.3,8.2-1.8c8.6,1.6,17.4,2,25.9,4.3
			c2.7,0.7,5.1,1.2,7.7,0.1c7.6-1.8,15-2.9,21.4,3.5c2,2,5.5,1.1,8.1,2.2c2.5,1.1,4.5,2.7,5.8,5.1c0.9,2.9,0,5.4-2.3,6.9
			c-2.7,1.9-3.8,4.6-5.1,7.3c-3.1,3.7-7.5,3.6-11.5,3c-9.4-1.3-18.5,1-27.8,1c-2.6,0-5.2-0.1-7.5-1.5c-2.3-1.4-4.8-2.2-7.5-1.9
			c-9.3,0.8-18.5-2-27.9-0.7C264.4,466.7,260.8,464.7,258.7,460.9z"/>
		<path class="st41" d="M196.5,569c-4.3-0.3-8.7,0.7-13-1c-1.5-0.6-3-0.3-4.4,0.7c-7.6,5.9-16.1,3.6-24.4,2.3
			c-2.3-0.4-4.2,0-6.3,0.5c9.5-10.7,19.6-20.8,30.3-30.3c4.9-6.6,12.1-6.8,19.3-7c12.6-0.4,25.2,0.7,37.8-0.7
			c1.4-0.3,2.8-0.8,4.2-0.4c2.7,1.9,3.9,4.6,4,7.9c0,2-0.3,4.6-2.4,4.9c-5.5,0.8-9.1,5.1-14.1,6.8c-2.6,0.9-5.2,1.4-3.2,5.2
			c0.9,1.8,0.2,3.9-1,5.6C214.7,566.4,206.8,573.9,196.5,569z"/>
		<path class="st42" d="M683.1,200.8c-11.9-11-23.5-22.3-34.3-34.4c-2-4.6,1.2-5.4,4.2-4.6c12.1,3.1,24.4,1,36.6,1.6
			c3.3,0.2,6.6,0.2,9.8,1c5.7,1.5,11.3,1.4,16.8-0.6c6.8-0.8,12.8,1.5,18.6,4.5c4.4,2.4,9,4.2,13.9,5.2c2.9,1.9,6.5,3.1,8.1,6.6
			c-0.3,6.3-2,8.1-7.7,7.6c-3.5-0.3-7-0.5-10.4-1.1c-4.5-0.8-8.4,0-12.4,2.5c-4.9,3-10.8,2.7-15.9,0.9c-6.2-2.2-10.7-1.5-14.4,4
			c-5,0-9.9-1.1-15.1-0.4C681,196.2,685.2,197.6,683.1,200.8z"/>
		<path class="st43" d="M313.8,702.2c3.4,0.2,6.6,0.1,9-2.9c0.5-0.6,1.5-1.3,2.2-1.3c7.8,0.2,14.2-5.3,21.9-5
			c11.2,0.3,22.3,0,32.9-4.5c4-1.7,9-1.1,13-3.5c1.5,6.7,0.3,13.5,0.7,20.2c-2.3,4.6-7.4,5.3-11.3,7.3c-7.6,4-15.3,7.6-24.7,7.7
			c-11.6,0.1-22.7,4.5-33.8,7.6c-3.4,0.9-6.8,2-10-0.6C313.8,718.9,313.8,710.6,313.8,702.2z"/>
		<path class="st44" d="M313.8,727.3c6.1,1.1,11.8-1.4,17.2-3.1c11.5-3.7,23-6,35.1-6.3c5.9-0.1,10.4-4.7,15.6-7.1
			c3.7-1.7,7.2-3.5,11.2-4.6c1.1,3.1,1,6.1,0.1,9.2c0,6.6,0,13.2-0.1,19.8c-8.3,0.3-16.4,1.6-23.8,5.8c-2.5,1.4-5.2,2.4-8.1,2.1
			c-8.8-0.9-17.5,0.8-25.9,2.9c-7.4,1.9-14.2,5.9-21.3,9C313.8,745.8,313.8,736.5,313.8,727.3z"/>
		<path class="st45" d="M494.4,660c-1.4-1.4-2.6-2.7-5-2.6c-7.4,0.3-14.9-0.6-22.2,1.4c-0.8,0.2-2.1,0.1-2.5,0.7
			c-4.9,7.2-12.9,3.9-19.3,5.8c-9.2,2.7-19.1,3.6-27.3,9.3c0-6.2,0-12.3,0-18.5c1.1-1.6,0.6-3.4,0.6-5.1c0.2-8.6,4.6-13.3,13.3-13.8
			c6.1-0.3,12.3-0.8,18.4-1.1c9.2-0.5,18.4-0.3,27.2-3.8c2.4-1,5.2-0.8,7.8,0.1C497.2,638.6,494.9,649.6,494.4,660z"/>
		<path class="st46" d="M265.1,649.1c-2.1-7.8-7.6-9.7-13.3-4.5c-1.4,1.3-2.7,2.8-4.4,2.1c-6.8-3.1-12.3,0.8-18,3
			c-3.9,1.5-7.8,1-11.7,1.1c-7.5,0.1-14.5,1-21.3,5.1c-5.7,3.4-12.9,1-19.2,2.9c-4.3,1.3-8.5,1.4-12.4-1.3c2-4.2,5.7-4.2,9.4-4.1
			c-0.6-0.4,0.7,0.1,0.6,0.1c-4.9-2.3-4.3-4.9-0.3-7.4c3.1-1.9,6.6-2.2,10.2-2.2c9.8,0.1,18.9-3.5,28.5-4.6c0.9-0.1,1.4-1,2.1-1.6
			c2.1-1.9,4.6-3.5,7.3-4.4c15.1-5,29.2-13.8,46-12.9c7,0.4,12.8-2.1,18.2-6c2.2-1,4.3-2.4,6.7-2.2c2.3,0.2,5.6-0.2,4.7,4
			C287.5,627.5,276.7,638.7,265.1,649.1z"/>
		<path class="st47" d="M782,116.6c25.8-0.1,51.6-0.5,77.5-0.1c17.9,0.3,32.5,15.2,36.3,35.6c-0.6,0.3-1.4,0.8-1.8,0.4
			c-5.9-4.8-13.3-4.8-20.3-6.2c-3.9-0.8-7.8-0.6-11.6-1c-11.2-1.1-22.6-1.4-33.5-4.5c-9.4-2-11-4.5-7.5-12.4
			c-10.9-3.1-21.5-7.3-33.1-7.6C785.2,120.8,782,120.8,782,116.6z"/>
		<path class="st48" d="M393,715.4c0-3.1,0-6.2-0.1-9.2c0-7,0-14.1,0-21.1c0-11,0-22,0-33c0-7.9-0.2-15.7,0.1-23.6
			c0.2-4.7-1.5-5.4-5.2-3.4c-6.8,3.7-13,6.8-21.1,1.4c-3.1-2-9.5-0.3-13.8,1.2c-3.4,1.2-6.5,2.1-10,1.9c-4.9-0.2-8.6,1.8-11.7,5.5
			c-1.7,2.1-3.4,4.6-6.6,5.1c12.3-12.5,24.6-25,36.9-37.5c10.4-10.6,20.9-21.2,31.1-31.5c1.9,0.7,1.5,1.8,1.5,2.5
			c0,45.9,0,91.8,0,137.6c0,1.3-0.2,2.6-0.3,3.9c0,0-0.5,0-0.5,0L393,715.4z"/>
		<path class="st49" d="M801.8,495.2c0,8.4,0,16.7,0,25.1c-4.8,3.2-10.6,3.3-15.8,3.7c-11.8,1-23.4,4.1-35.3,3.5
			c-5.6-0.3-11.4-0.2-16.5-3.2c-0.8-7.7-0.3-15.5-0.3-23.3c4.3-4.3,9.6-5.8,15.5-5.4c5.5,0.4,10.9,0.2,16.2-1.3
			c3.8-1.1,7.8-1.4,11.7-0.9c6.5,0.7,13,1.7,19.6,0.4C798.7,493.4,800.4,494,801.8,495.2z"/>
		<path class="st50" d="M436.3,532.6c-8.2-7.8-16.5-15.4-23.7-24.2c4.5-8,13.2-9.5,20.4-13.3c2-1.1,4.4-1.8,6.8-2.5
			c2.1-0.5,4.3-0.7,6.4-0.6c12.7-1.1,25.1,1.9,37.6,3.1c6.4,1.1,6,6,5.8,10.7c-0.2,4.9-3.4,6.9-7.9,7c-4.1,0.1-7.1,1.8-9.4,5
			c-0.7,1.1-1.6,2.2-2.8,2.7c-10.2,3.5-19.3,10.2-30.3,11.4C438.2,532.2,437.2,532.3,436.3,532.6z"/>
		<path class="st51" d="M323.1,442.4c-2,1.6-3.9,2-6.5,1.3c-11.6-3.2-23.4-5.5-35.6-5.2c11-11.9,22.4-23.3,34.3-34.3
			c2.9-2.1,5.5-0.6,7.5,1.3c2.8,2.6,5.5,2.7,8.9,1.4c3.2-1.3,6.5-2.5,9.9-0.5c2.4,8.8,2.4,8.8,11.9,6.8c0.9-0.2,1.7-0.4,2.6-0.5
			c2-0.2,3.6,0.4,4.2,2.4c0.8,2.4-1,3-2.9,3.3c-0.8,0.2-1.7,0.3-2.1,1.4c0.9,2.6,3.4,2.1,5.4,2.9c2.7,1,5.5,2,4.5,5.9
			c-4.3,3.8-9.4,5.3-15,5.1c-4.9-0.2-9.5,0.4-13.5,3.5c-2.1,1.6-4.9,1.6-7.5,1.9C326.7,439.4,324.6,440.4,323.1,442.4z"/>
		<path class="st52" d="M896.4,224.7c0,16.3,0,32.5,0,48.8c-2.7-0.4-2.4-2.6-2.8-4.5c-0.4-7.6-0.1-15.2-0.2-22.8
			c-0.1-10.8,0-10.8-10.6-12.1c-7.1-7.8-16.4-8.1-25.9-7.5c-4.3,0.3-7.6-1.7-11.2-4.1c-5.7-3.7-12.8-5-18.9-8.3
			c-2.7-1-5.6-1.3-8.1-2.6c-1.6-0.8-3-2-2.9-4c0.1-2,1.8-3,3.4-3.5c4-1.4,8.2-1.1,12.4-0.7c3.5,0.3,6.4-0.1,8.6-3.3
			c2.3-3.3,5.9-3.9,9.4-3.1c5.3,1.2,10.4-0.1,15.5-1.1c1.9-0.8,3.7-2,5.9-2.3c1.4-0.1,2.6,0.4,3.7,1.1c6.1,3.7,11.7,8.5,19.5,8
			c0.8-0.1,1.5,0.8,1.8,1.7C896.3,211.1,895.5,217.9,896.4,224.7z"/>
		<path class="st53" d="M801.8,571.7c0,8.4,0,16.7,0,25.1c-7.2,2.5-14.6,4.8-22.2,3.9c-6.7-0.7-12.9-0.5-19.3,1.9
			c-6.9,2.6-14.3,1.5-21.5,0.9c-2-0.2-3.7-1.2-4.8-3.1c-0.2-9.1-0.4-18.1,0.1-27.2c1.6-1.9,3.9-1.9,6-1.6
			c12.2,1.7,24.4,0.3,36.7,1.2c6,0.4,12-2,18.1-2.2C797.3,570.4,799.7,569.9,801.8,571.7z"/>
		<path class="st54" d="M902,972.6c0,2.4,0,4.8,0,7.2c0,2.1-0.9,3.1-3.1,3.3c-13.6,1.7-27.2,3-41,1.5c-9.1-0.9-18.4-0.4-27.5-0.1
			c-5.4,0.2-10-3-15.3-3c0-0.8,0-1.6,0-2.4c27.3-9.2,54.6-18.4,81.9-27.6c3.9-1.3,5.2,0.1,5.1,3.9C901.9,961.2,902,966.9,902,972.6z
			"/>
		<path class="st55" d="M237.4,534.7c-1.9,2.1-4.5,1.2-6.8,1.3c-14.7,0.3-29.5-0.4-44.2,0.8c-3.6,0.3-4.3,4.3-7.6,4.4
			c11.8-12.9,24.3-25,37-37c4.1-1.9,8.6-1.5,12.9-1.4c3.8,0.1,7.4,0.7,10-2.9c0.8-1.1,2.2-1.4,3.6-0.8c10.4,4,21.5,2.9,32.3,3.9
			c2.6,2,8.2,0.3,7.7,6.1c-1.3,1.7-3.3,2.3-5.2,2.1c-8.2-0.6-15.8,2.8-23.7,3.7c-3.3,0.4-6,1.6-6.6,5.2
			C245.6,526.4,242.8,531.4,237.4,534.7z"/>
		<path class="st56" d="M573.4,350c3.5-4.4,7.5-8.4,11.9-11.9c10-0.3,19.9,1.3,29.7,2.8c9.7,1.5,19.5,2.2,29.3,2.1
			c7.1,1.5,14.8,0.2,21.1,5c1.4,1.1,3.4,0.5,5.1,0.5c2.7,0,5.3,0.3,6.4,3.3c-4.2,6.5-8.7,12.8-15.9,16.6c-5.4,1.3-10.8,0.9-16.2-0.6
			c-5.2-1.4-10.3-1.6-15.5-0.5c-1.7,0.2-3.7,0.5-5.1-0.5c-5-3.4-10.9-3.9-16.4-5.5c-5.5-1.6-10.8-3.1-16.6-2.9
			c-3.2,0.1-6.2-0.6-8.3-3.1C580.4,352.3,576.1,352.6,573.4,350z"/>
		<path class="st57" d="M737.1,910.6c6.5,4.1,14.1,3,21.1,3.6c14,1.3,28.2,1.5,42.4,0.4c6.1-0.5,3-5.1,3.8-8
			c2.9,8.7,0.6,17.6,1.3,26.4c2,5.1-0.5,6.9-5.1,7.2c-6.4,0.4-12.7,0.4-19.1,0.1c-10.8-0.4-21.5,1.1-32.2,1.3
			c-9.9,0.2-11.4-1.6-11.6-11.4c0-3.5,0.8-7-0.6-10.4C737.1,916.8,737.1,913.7,737.1,910.6z"/>
		<path class="st58" d="M475.8,572.1c-5.4-5.4-10.7-10.8-16.1-16.1c1.4-2.4,3.8-2.8,6.2-3.1c8.8-1.1,16.8-4.4,24.8-8.1
			c6.8-3.2,14.2-6,22.1-5.3c4.1,3.5,8.7,4.7,14,3.1c0.6-0.2,1.3-0.2,2-0.2c3.5,0.2,7.8,0.1,8.5,4.4c0.8,4.9-3.6,5.1-7,5.8
			c-0.6,0.1-1.3,0.2-1.7,1.2c6,0.8,11.7-1.2,17.5-1.6c6.6-0.5,10.4,2.7,10.5,8.9c-1.6,1.4-3.3,2.8-4.9,4.2c-2.2,1-4.4,2-6.9,1.8
			c-15.4-1.5-30.4,1.6-45.4,4.2C491.5,572.6,483.6,572.4,475.8,572.1z"/>
		<path class="st59" d="M801.7,846c-19.5-3-39.3,0.3-58.8-2.5c-8.1-1.2-8.4-0.5-8.4,7.8c0,1.8,0,3.5,0,5.3c-2.1-2-1.1-4.5-1.3-6.9
			c-0.5-7.6,0.8-15.3-1.2-22.9c-1-3.9,0.4-6,5.1-5.9c19.3,0.2,38.6,0.2,57.9,0c5-0.1,6.7,2.2,6.6,6.7
			C801.7,833.7,801.7,839.8,801.7,846z"/>
		<path class="st60" d="M850.6,368.3c-2.7-6.3-8.6-9.8-13-14.5c-2.5-2.7-5.8-4.6-8.7-6.8c4.6-4.9,8.1-1.9,11.3-2
			c13.3-0.3,26.5-0.1,39.8-0.1c1.3,0,2.6,0,3.9,0c11.1,0.3,11.2,0.6,11.4,11.4c0.1,5.8-1.3,11.8,1,17.5c0,3.1,0,6.2,0,9.2
			c-3.1-6.1-8.2-5.8-13.9-4.9c-5.1,0.8-10.4-0.2-15.6,0.5c-1,2.6,2.8,4.4,0.8,6.8C861.5,380.3,855.8,374.5,850.6,368.3z"/>
		<path class="st61" d="M702.6,740.5l-0.5,0l-0.5,0c-2.1-2-1.8-4.6-1.9-7.1c-0.3-10.8-0.3-21.6,0-32.5c-0.2-9.6-0.2-19.2,0-28.8
			c-0.1-6.1-0.2-12.2,0-18.3c-0.2-4.6-0.1-9.2-0.1-13.8c0-3.7-1.5-5.8-5.4-5.7c-13,0.1-25.9-1.9-39.2,0.1
			c-8.4,1.3-17.5,1.8-26.3,0.5c-0.6-6-0.3-12.1-0.2-18.1c3.1-3.1,7.5-4.2,11.4-4.3c19.1-0.7,38-4.7,57.2-4.4c1.1,0,2.2,0.2,3.2,0.6
			c1.8,0.6,1.8,2.3,2.3,3.7c0.1,29.8,0.2,59.5,0.3,89.3C702.8,714.7,702.7,727.6,702.6,740.5z"/>
		<path class="st62" d="M346.7,567.5c-7.1,7.8-14.3,15.5-22.4,22.3c-16.1,3.2-32.6,3.6-48.7,6.8c-2.9-1.1-5.8-1.9-8.9-2.3
			c-4.1-0.4-7.1-2.2-7.1-7c0-4.5,3.2-5.2,6.6-5.6c0.9-0.1,1.7-0.3,2.7-0.8c0.1-2-3.8-1.7-2.7-4.2c10.6-1.8,19.8-8.4,31-8.3
			c3.8,0,7.1-1.8,10.5-3.1c4.4-1.4,8.7-3.4,13.5-3.6c6.3,0.4,12.6-0.2,18.8,0.4C343.2,562.4,347.7,561.9,346.7,567.5z"/>
		<path class="st63" d="M507.7,409.4c1.2,0.8,2.4,1.6,3.6,2.3c0.6,0.2,1.1,0.6,1.5,1.1c0.7,1.1,1.3,2.2,2.7,2.7
			c5.7,1.9,6.4,5.9,4.5,10.9c-0.9,2.4-0.5,4.7,0.1,7c0,1.8-0.6,3.3-2,4.6c-2.5,1.8-5.2,2.4-8.2,1.2c-4.9-4.2-9.8-6-16.1-2.5
			c-3.9,2.2-8.5,2.2-12.3-1.3c-1.1-1.1-2.7-1.6-4.3-1.6c-16.5,0.7-31.1-8.5-47.4-8.8c-0.4,0-0.8-0.4-1.1-0.6c-0.5-0.8-0.7-1.9,0-2.3
			c4.1-2.2,6.6-6.4,10.6-8.7c5.6-0.5,11.3-1.7,16.9-0.3c1.1,0.3,2.4,0.4,3.2-0.3c7.9-7.7,18-3.6,26.9-4.2
			C493.2,408,500.7,407.6,507.7,409.4z"/>
		<path class="st64" d="M526.1,781.3c0,0-0.4,0-0.4,0c-0.2-3.9-0.4-7.9-0.4-11.8c0-39.3,0.2-78.7-0.2-118c-0.1-7,1.9-11.8,7.7-15.3
			c1.1-0.7,2.4-1.4,3.7-1.3c16.2,1.2,32.2-1.4,48.3-2c3.4-0.1,7-0.6,10.1,1.6c1.3,5.2,0.4,10.5,0.5,15.7c-3.4,3.6-8,3.8-12.2,3.5
			c-10.6-0.7-19.6,4.4-29.1,7.2c-5.5,1.6-10.6,3.5-16.4,3.7c-8.5,0.3-9.4,1.5-9.4,9.8c0,4.6,0,9.2,0,13.9c0.2,9,0.2,18,0,27.1
			c0.2,9.7,0.2,19.4,0,29c0.3,9.8,0.1,19.7,0.1,29.5C528.2,776.6,528.3,779.3,526.1,781.3z"/>
		<path class="st65" d="M341.5,406.8c-9.1,2.3-18,3.5-26.3-2.6c10.1-11,20.6-21.5,31.6-31.6c10.4,3.7,21.1,5.6,32,7.1
			c4.4,0.6,8.1,3.1,11,6.5c1.9,6.9,1.3,13.1-5.1,17.7c-7.2,1.9-14.7,1.2-22,2C355.8,406.6,348.7,406.8,341.5,406.8z"/>
		<path class="st66" d="M692.3,425.1c-4.5,6.1-10,11.2-15.8,16.2c-11-2.1-22.2-1.6-33.3-1.6c-3.9,0-7.4-0.2-10.7-2.2
			c-4-2-8.6-1-12.7-2.2c-1.6-0.5-3.6-0.2-5-1.2c-4.6-3.4-9.4-3.7-14.8-2c-2.4,0.8-5.2,0.6-7.6-0.9c-1.4-2.1,0.4-2.7,1.7-3.1
			c2.7-1,4.1-2.9,5-5.4c2.2-5,6-6.8,11.4-7.2c14.4-1.2,28.8-1.3,43.2-0.8c3.6,1.1,7.2,1.6,11,1.2c4.7-0.5,9.1,0.1,13,3.2
			c2.9,2.4,6.6,1.6,10.1,2.1C689.8,421.3,693.4,420.7,692.3,425.1z"/>
		<path class="st67" d="M801.8,661.3c-14.4,3.5-29.2,0.5-43.8,2.1c-7.7,0.8-15.7,0.9-23.5,1.9c-1.5-4.7-0.3-9.6-0.7-14.3
			c0.2-3.2-0.5-6.4,0.4-9.6c0.8-0.8,1.8-1.5,2.9-1.4c17.6,1.1,34.6-6.3,52.3-4.4c4.3,0.5,8.8,0.2,12.3,3.3
			C801.8,646.4,801.8,653.9,801.8,661.3z"/>
		<path class="st68" d="M475.8,572.1c1.4-2.4,3.8-1.8,5.9-1.8c14.9,0.2,29.2-3.8,43.8-5.7c8.3-1.1,17.3,0.2,26,0.6
			c-3.2,6.2-8.8,10.2-13.5,15.1c-7.9,8.2-16.1,16.1-24.1,24.3c-2,2-3.3,2.9-5.8,0.4C497.4,593.9,486.6,583.1,475.8,572.1z"/>
		<path class="st69" d="M644.8,344.8c-15.3,0.5-30.2-1.8-45.3-4.4c-4.7-0.8-9.9,0.9-14.3-2.3c7.5-8.3,15.4-16.3,23.7-23.7
			c12.1,0.9,24.2-0.4,36.3,1.1c2.2,0.3,4.3,0.7,6.1,2.1c1.4,1.3,2.2,3.5,4.2,4c5.9,1.5,7.6,5.9,8.1,11.2c-6.3,4.1-11.8,10-20.4,8.2
			C643.4,342.8,645.6,343.1,644.8,344.8z"/>
		<path class="st70" d="M389,385.7c-10.9-4.9-22.5-7-34.3-7.9c-3.6-0.3-5.8-2.6-7.8-5.2c4.8-5.7,10.1-11,15.8-15.8
			c9.5-0.7,19.1-0.2,28.1,2.5c5,1.5,9.9,3.1,14.6,1.9c8.2-2.1,15.3,1.3,22.8,2.9c2.7,7.6-0.3,13.8-4.6,19.8c-2,2.1-4.7,2.7-7.3,2.3
			C407.3,384.7,398.2,384.9,389,385.7z"/>
		<path class="st71" d="M734.6,641.6c-0.1,3.1-0.1,6.1-0.2,9.2c-0.3,0-0.5,0-0.8,0c-0.1-7.9-0.3-15.8-0.3-23.7
			c0-62.1,0.1-124.3,0-186.4c0-4.3,1.2-7.4,4.3-10.3c7.4-6.9,14.5-14,21.7-21.1c13,1.4,25.9,4.1,39,5.1c1.4,0.1,2.5,0.8,3.5,1.6
			c0,6.6,0,13.2,0,19.8c-4,3.7-8.7,3.3-13.6,2.3c-11.7-2.4-23.4-3.2-35,0.2c-3.6,1.1-7.3,1.9-11,1.7c-4.4-0.3-6,1.5-5.7,5.7
			c0.2,3.1-0.1,6.1,0.1,9.2c0,6.9,0.2,13.7-0.1,20.6c0.3,6.1,0.1,12.1,0.1,18.2c0,2.4-0.2,4.8-2,6.7c0,7.9,0,15.8,0,23.7
			c2.8,3.7,1.8,7.9,1.8,12c0.2,7.4,0.2,14.8,0,22.2c-0.2,4.9,1.3,10.1-1.9,14.6c0,9.2,0,18.5,0,27.7c3.5,5.6,1.5,11.8,2,17.7
			c0.2,2.4,0.1,4.8-0.1,7.1C736.1,630.9,737.9,636.5,734.6,641.6z"/>
		<path class="st72" d="M799.1,318.3c-8.9,9.6-17.6,19.3-27.8,27.6c-5.8-1.7-11.8-2.1-17.9-1.9c-4.1,0.1-8.2-0.3-11.7-2.8
			c-4.7-2.6-10.1-4.5-8.4-11.9c0.5-2.3-2.4-3.3-4.5-4.1c-3.4-1.4-5.6-3.5-3.5-7.6c0.7-0.6,1.4-1.4,2.2-1.3c13.1,1,24.6-8.1,37.8-6.3
			c4.2-0.7,8.2-0.8,11.9,1.9c2.1,1.5,4.5,1.3,6.9,1c4-0.5,7.8,0.4,11.6,1.3C797.8,314.7,800.6,314.9,799.1,318.3z"/>
		<path class="st73" d="M130.8,620.4c2.7-2-1.5-8.3,5-7.8c7.6-3.5,15.4-4.3,23.6-1.7c5.6,1.7,11.3-0.1,16.9-0.9c7-1,13.6-1.4,20.7,0
			c8.1,1.5,16.5-0.5,24.7-1.7c2.8-0.4,5.5-1.6,8.4-0.4c0.7,0.3,1.1,0.9,1.2,1.7c-1.8,3.4-5.3,4.5-8.4,6c-6.1,2.9-12.8,4.4-18,9.3
			c-1.5,1.4-3.6,1.3-5.6,1.5c-2.2,0.1-4.6,0.1-6.1,1.9c-5.2,6-12.1,6.4-19.3,5.9c-10.8-1.9-21,1.3-31.2,4c-2.3,0.6-4.5,1.6-7,1.2
			C132.6,633.3,132.8,626.5,130.8,620.4z"/>
		<path class="st74" d="M627.7,116.6c14.9,0,29.9,0,44.8,0c2.6,1.5,5.4,1.4,8.2,1.3c6-0.2,11.8,0.4,16.8,4.2
			c1.8,1.4,4.1,1.4,6.3,1.3c7.9-0.4,13.9,2.7,17.6,9.8c1,1.9,2.4,3.6,3.4,5.6c0.7,2.1,1.7,4.2,0.2,6.3c-5.6,3.8-11.8,2.7-17.8,1.5
			c-6.1-1.2-12.1-1.9-18.2-0.6c-9.8-2.9-19.9-4.3-29.9-5.6c-3.2-0.4-5.2-2.7-4.5-6.1c0.9-4.5-1.4-6.3-5.1-7.5
			c-5.4-1.8-10.4-4.4-16.2-5C630.4,121.6,627.5,120.5,627.7,116.6z"/>
		<path class="st75" d="M734.6,625.7c0-8.3,0-16.7,0-25c9.7,1.6,19.3,3.1,28.7-1.4c1.5-0.7,3.5-1.4,5-1.2
			c11.3,2.1,22.3-1.4,33.5-1.4c0,7.5,0,14.9,0,22.4c-6.5,2.9-13.2,4.4-20.2,3.8c-8.8-0.7-17-0.7-25.5,3.2
			C749.5,629.1,741.7,629.2,734.6,625.7z"/>
		<path class="st76" d="M782,116.6c1,2.1,2.7,2.7,4.8,2.6c10.9-0.4,21,3.2,31,6.9c2.5,0.9,4.7-1,7.1,0.5c-0.1,3.6-6.9,4.3-4.2,9
			c1.6,2.7,4.4,3.4,7.4,3.4c2,1.3,2.7,2.8,1.2,4.9c-3.3,3-7.6,3-11.2,1.9c-10.4-3.1-20.9-1.9-31.4-2.3c-7.7,0.3-15.3-0.3-22.7-2.7
			c-3.6-1.2-6.3-2.9-5.3-6.9c1.5-5.9-2.1-7.5-6.5-8.3c-4.5-0.8-9.1-1.5-13.2-3.7c-2-1.1-4.8-1.9-3.2-5.2
			C751.2,116.6,766.6,116.6,782,116.6z"/>
		<path class="st77" d="M428.6,364.6c-4.5-0.2-9.3,1-13.2-2.5c-0.6-0.5-1.7-0.8-2.4-0.6c-17.4,4.9-33.4-4.2-50.2-4.8
			c4.8-5.7,10.1-10.9,15.7-15.9c3.3-1.8,6.9-0.8,10.3-0.6c16.7,1.2,33.4,3.2,50.2,3.1c1.6,0,3,0.7,4.3,1.4
			c4.2,3.7,8.6,7.1,11.8,11.7c0.9,1.7,1.3,4-0.6,4.5c-8.3,2.3-16.1,8.4-25.4,4C428.9,364.9,428.7,364.7,428.6,364.6z"/>
		<path class="st78" d="M662,367.2c5.4-4.2,7.7-11.7,14.5-14.5c0.9-1.1,2.1-1.6,3.5-1.6c6.3-0.2,12.6-0.7,18.7-2.5
			c1.7-0.5,3.5-0.1,5.1,0.7c2.7,4.7,7,5.1,12,5.8c11.6,1.8,23.6,3.4,33.8,10.2c0.6,0.4,0.7,1.1,0.7,1.7c-3.9,4-7.8,8.1-11.8,12.1
			c-3.1,0.7-6.1,0.1-9-0.9c-3.8-1.2-7.9-2.2-11.6-1.1c-9.2,2.7-18.1-0.1-27.1-0.3c-3.6-0.1-6.8-1.3-9.9-3c-4.4-1.4-9-0.4-13.4-1.1
			C664.3,372.4,660.6,372.1,662,367.2z"/>
		<path class="st79" d="M439.1,493.8c-3.3,3.8-8.5,3.8-12.7,6c-4.9,2.6-9,6.2-13.9,8.6c-2.3-2.4-4.3-2.7-6.6,0.3
			c-1.4,1.8-3.4,3.1-5.1,4.7c-8.4-4.8-17.1-6.4-26.2-1.7c-2,1-4.4-0.2-6.5,0.1c-6.9,1-13.9-0.3-20.6,4.4c-5.2,3.6-12.6,3.2-18.8-0.3
			c-1.2-1.2-0.9-2.8,0.2-3.3c5.3-2.3,9.2-7.2,15.1-8.4c6.6-1.4,9.8-5.2,10.1-12.2c0.3-1.1,0.9-1.9,1.7-2.6c2.4-2.4,5.2-3.9,8.8-3.4
			c8.7,1.2,17.3,1.8,26.1,0.8c4.2-0.5,8.3,0.6,12.3,1.7c5.6,1.4,11.8,0.5,16.7,4.7c1.2,1,2.9,0,4.4-0.6
			C429.3,490.6,434.3,491.3,439.1,493.8z"/>
		<path class="st80" d="M734.6,475.4c0-7,0-14.1,0-21.1c1.5-2.9,4.2-3.1,6.7-2.2c4.3,1.6,8.5,1.4,12.9,0.5c0.9-0.2,1.8-0.4,2.6-0.2
			c13.4,4,27.5,2.2,41,5.1c1.5,0.3,2.9,1,4.1,2c0,7.9,0,15.8,0,23.7c-6.4,2.2-12.4-1-18.7-1.3c-9.2-0.4-18.3-1.9-27.6-2.2
			C748.4,479.6,741.3,478,734.6,475.4z"/>
		<path class="st81" d="M573.4,350c4.4,0,8.7,0.1,11.3,4.7c1.4,2.6,4.2,2.3,6.5,1.9c9.7-1.9,17.7,4.9,27.3,4.7
			c3.1-0.1,5.8,5.7,10.6,4.6c1.6,3.1,0.1,5.7-2.6,6.2c-6.8,1.3-12.6,4.4-18.4,8c-3.8,2.3-9.1,0.6-13.5,2c-8.5,3.4-16.7-0.5-25-1.2
			c-5.2-0.5-10.4-1.1-15.6-1.4c-2.6-0.2-5.2-0.7-6.9-3C555.3,367.1,564.1,358.4,573.4,350z"/>
		<path class="st82" d="M284.8,723.3c0.7-7-1.3-14.1,1-21c0.1,34.2,0.1,68.4,0.3,102.6c0,3.1-1,4.2-4.1,4.2
			c-24.1-0.1-48.2-0.1-72.3,0c-3.6,0-4.6-1.4-4.3-4.7c0.2-2.4,0.2-4.8,0.4-7.2c1.6,1.4,2.7,2.6,5.6,2.1c10.2-2,20.5-4.2,31.1-3.4
			c1.3,0.1,3.1,0.1,3.8-0.6c9-9.2,21.8-7.1,32.6-11.1c4.2-1.5,6.5-3.1,6.2-8.2c-0.5-8.3-0.1-16.6-0.1-25
			C284.8,741.8,284.8,732.6,284.8,723.3z"/>
		<path class="st83" d="M672.2,251c1.8-1.7,3.6-3.5,5.4-5.2c5.8-2.9,11.7-0.3,17.5,0c11.6,0.6,23.2,0,34.7,1.4
			c5.3,0.7,10.3,1.5,15.5,0.3c4.8,0.8,5.4,4.4,5.4,8.3c0,5.5-3.4,7.6-9.6,7.9c4.7,3.7,9.1,5.1,12.2,8.5c0,3.8-2.7,4.9-5.7,5.6
			c-4.2,0.4-8.2-0.2-12-2.2c-5.5-2.8-11.6-1.3-17.5-1.5c-6.9-0.2-13.3,0.3-19.2-5.9c-3.4-3.6-9.5-6.3-15.1-7.1
			C677.4,260.2,673.9,256.8,672.2,251z"/>
		<path class="st84" d="M683.1,200.8c-0.4-3.7-4.2-4.9-6.1-9c6.3,0.4,12.2-1.2,17.9,1.3c10.4,0.8,19.3,5.8,28.7,9.6
			c8.6,3.5,18.1,6.4,27.7,7.1c3.1,0.2,6.1,0.3,9.1,1.3c6.2,1.5,6.6,6.3,6.3,11.4c-2.5,3.8-6.1,2.9-9.4,2c-7.7-2.1-15.1-3.6-22.6,1.2
			c-3.3,2.1-7.7,1.2-11.6,0.4c-2.7-0.6-5.2-0.7-7.7,0.2c-5.4,0.4-11,1.6-15.6-2.8c2-2.4,1.2-4-0.9-6.1
			C693.6,212,688.4,206.3,683.1,200.8z"/>
		<path class="st85" d="M617.2,500.6c-7.5,8.2-15.1,16.4-23.8,23.4c-3.3-0.9-6.5-0.3-9.8,0c-2,0.2-3.9,0.3-5.8-0.4
			c-12.8-4.7-26.1-4-39.4-3.7c-1.7,0-3.5,0.6-5.2,0.4c-1.5-0.2-2.9-0.7-3.7-2.2c-1-4.1,1.7-5.8,4.9-6.3c7.8-1.2,15-4.6,22.5-6.9
			c6-1.9,10.3-6.9,14.1-11.9c4.8-3.4,9.4-4.3,14.3,0c2.9,2.5,6.8,1.7,10.2,0.9c7.1-1.7,13.4,1.5,20,2.7
			C617.2,497,618.5,498.4,617.2,500.6z"/>
		<path class="st86" d="M799.1,318.3c-4.8-4.6-10.7-3.9-16.5-3.3c-2,0.2-3.9,1.1-5.3-0.7c-3.1-3.8-7.1-3.3-11.1-2.5
			c-3.9-5-9.7-7.9-13.9-12.5c-0.1-2.1,0.9-3.5,2.7-4.3c5.2-0.8,10.4-0.8,15.6-0.1c11.3,1.6,22.6-1.7,33.9,0.4c1.5,0.3,3.1,0,4.6,0.1
			c8.7,0.6,17.2,2.6,25.8,4.1c2.8,0.5,5.3,1.4,3.8,5.1c-1.3,3.4,1,3.5,3.3,4c2.7,0.5,5.9,0.3,5.9,4.4c-5.3,3.8-11.2,2.3-17,2
			c-8-0.3-15.7,2.5-23.6,3.6c-2.5,0.3-4.7,0-7-0.3c0,0-0.6,0-0.6,0L799.1,318.3z"/>
		<path class="st87" d="M681.7,372.5c3.4,2.2,7.2,2.9,11.2,2.7c3.7-0.2,7.5-0.5,10.8,1.7c1.6,1.1,3.3,0.6,5,0
			c10.2-3.7,20-1.4,29.7,2.3c-8,8.7-16,17.3-25.1,24.8c-3.3-0.6-6.5-0.7-9.8-0.1c-3.4,0.7-6.5,0.5-9.4-1.6c-3.8-2.8-8.8-0.5-12.6-3
			c-1.7-4.8-4.9-7.3-10.3-6.7c-2.1,0.2-4.4-0.1-5.8-2.1c-0.9-6.2,1.1-10.7,7.5-12.5C676.5,377.1,678.5,373.8,681.7,372.5z"/>
		<path class="st88" d="M507.7,409.4c-6.7,1.8-13.3,1.4-20.1,0.7c-7.1-0.7-14.2,1.8-21.4-0.2c-0.2,0-0.5,0-0.6,0.2
			c-7.4,9.6-17.8,2-26.5,4.6c-2.2-0.9-3.1-2.8-3.6-4.9c-0.5-1.1-1.6-1.3-2.5-1.8c-5.4-2.6-5.8-7.5-0.8-10.9c2-1.4,4.2-2.5,6.5-2.8
			c4.5-0.7,8-3.1,11.5-5.7c8.4-1.9,16.8,0.7,25.2-0.2c3.5-0.3,7.3-0.7,10.9,0C494.2,394.6,501.1,402,507.7,409.4z"/>
		<path class="st89" d="M485.3,632.3c-10.2,1.9-19.8,6.2-30.7,5.5c-8.2-0.5-16.5,1.2-24.8,1.3c-5.5,0.1-10.2,5.9-10.5,11.4
			c-0.1,1.9,0.6,4-1.3,5.5c0-8.4,0-16.7,0-25.1c1.4-3.4,0.7-6.9,0.6-10.3c-0.1-3.8,1.2-6.3,5-5.9c12.5,1.4,24.6-2,36.9-3.1
			c1.8-0.2,3.5-0.2,5.1,0.9C472.7,618.6,479.1,625.3,485.3,632.3z"/>
		<path class="st90" d="M801.8,459.6c-2.4-0.1-4.7-0.2-7.1-0.7c-5-1.1-9.9-2.4-15.4-0.8c-4.1,1.2-8.7,0.5-12.6-2.1
			c-1.6-1.1-3.5-1.6-5.6-1.7c-7.6-0.3-15.5,3.1-23-1.1c-0.8-0.4-2.4,0.7-3.6,1.1c0-4.8-1.2-10.1,0.3-14.4c2-5.9,7.7,0,12-1.9
			c9.4-4.2,19.8-3.8,30-3.5c4.2,0.1,8.2,0,12.2,2c4.2,2.2,8.6-0.4,12.9-0.7C801.8,443.7,801.8,451.6,801.8,459.6z"/>
		<path class="st91" d="M717.4,165.4c-6.7,2.9-13.4,1.6-20.4,0.8c-10.6-1.3-21.5-0.6-32.2-0.8c-3.9-0.1-7.7,0.6-11.4-2
			c-2.5-1.7-4.7-0.5-4.6,3c-9-8.1-17.5-16.7-25.5-25.8c4.1-3.8,14.3-4.6,19.2-0.7c4.9,4,9.7,4.6,15.8,3.1c7.8-1.9,15.6,0.8,23.4,1.3
			c1.9,0.1,3.9,0.6,5.8,0.6c4.3,0.7,7,3.4,8.4,7.3c1.3,3.8,4,5.2,7.7,6.1C708.8,159.5,714,160.8,717.4,165.4z"/>
		<path class="st92" d="M629,616.5c0,6.2,0,12.3,0,18.5c3.6,6.1,1.5,12.8,1.9,19.2c-0.2,5.1,0.8,10.4-0.9,15.4
			c-0.4,0.8-1.1,1.1-1.9,0.9c-0.1-39.5-0.2-79-0.2-118.5c0-4-1.3-8.3,1-12.1c3.2-2.8,6.6-3.7,10.9-2.4c3.4,1,7,0.6,10.5,0.6
			c4.9-0.1,9.5,0.3,14,2.7c4,2.2,8.6,1.6,12.9,1c7-0.9,13.5,0.3,19.9,2.8c1.4,5.7-3.1,6.9-6.6,7.2c-7,0.6-12.6,4.7-18.8,6.6
			c-9.7,2.9-18.5,10.1-29.6,7.6c-2.8-0.6-4.2,1.8-6.1,3.1c-3.8,1.8-5.2,4.8-5.1,8.9c0.2,5.2,0.1,10.4,0.1,15.6
			C630.4,601.3,632.9,609.1,629,616.5z"/>
		<path class="st93" d="M829.4,143c-0.4-1.3-0.9-2.6-1.3-4c9.3,4.2,19.8,0.9,29.3,4.9c3.8,1.6,8.2-2.4,12.1-0.8
			c8.6,3.5,19.3,0.8,26.2,9c0.3,0.8,0.8,1.6,0.8,2.4c0,23.4-0.1,46.7-0.2,70.1c-2.3-6.9-0.4-14-1.1-21c-3.4-5.2-1.7-11.1-1.8-16.7
			c-0.3-14-0.4-14.4-13.9-17.6c-5.3-1.3-10.8-2-16.2-2.6c-8.2-2.5-15.6-7.4-24.6-7.7c-3.1-0.1-6.4-2.7-4.3-6.3
			c2.7-4.6,0.7-6.1-3.1-7.5C830.5,145,829.8,144.1,829.4,143z"/>
		<path class="st94" d="M135.7,639.1c12.2-5.5,24.8-9,38.3-6.8c6.5,1.3,13,1.1,19.4,0c8.8-1.5,16.5,0,22.8,6.6
			c-1,2.1-2.7,2.5-4.8,2.7c-10.6,1-20.7,4.6-31.6,4.2c-2.6-0.1-6.2,0.6-7.5,4.1c2.2,3.4,6.3,1,9.7,3.8c-6,2.2-12.5-0.6-17.2,3.7
			c-3.2-0.4-5.7,0.7-7.8,3.2c-1.5,1.8-3.1,3.5-5.8,3.6C143.7,657.3,138.4,649,135.7,639.1z"/>
		<path class="st95" d="M617.2,500.6c-6-4.4-13-5.6-20.1-5c-5.7,0.5-11,2.7-15.8-3.3c-2.5-3.1-6.7,1.5-10.3,1.5
			c-5.8,4.3-9,4.2-13.5-0.4c1.8-5.2,7.5-5.6,11.3-8c5.3-3.3,10.6-6.8,15.9-10.3c4.6-1.6,9.2-2.8,13.9-4.1c4.6-1.2,8.9-1.5,13.5,0.2
			c4.8,1.8,10,0.4,15,1c4.6,0.6,9.8,0.7,11.2,6.9C630.9,486,625.3,494.5,617.2,500.6z"/>
		<path class="st96" d="M700,223.4c5.3,1.1,10.6,1.8,16.1,1.4c1.2-0.9,2.6-1,3.7-0.3c4.4,2.8,8.7,5.6,14.2,6.1
			c1.7,0.2,2.7,2.1,3.4,3.7c2.2,5.1,6.5,6.7,11.6,7.1c6.3,0.5,12.7,0.8,18.5,3.6c2.1,1.8,2.1,3.8,0.5,6c-4,3-8.2,2-12.4,0.6
			c-3.1-1-6.2-1.8-9.2-3.1c-5.3,2.7-10.7,2.7-16.3,0.6c-1.2-0.5-2.6-0.5-3.9-0.5c-16.3,0.2-32.5-0.5-48.7-2.8
			C684.6,237.9,692.1,230.4,700,223.4z"/>
		<path class="st97" d="M734.6,573c0-4.8,0-9.7,0-14.5c6.2-3.4,13.1-3.2,19.9-3.2c5.8,0,11-1.3,16.5-3.2c9.9-3.3,20.5-2.2,30.8-1.6
			c0,7,0,14.1,0,21.1c-7.1,1.8-14.8,0-21.7,3.5c-2.9,1.5-5.5-0.8-8.3-0.9C759.4,574.2,746.9,574.9,734.6,573z"/>
		<path class="st98" d="M486.4,388.4c-3.8,3.1-8.2,1-12.2,1.6c-8.3,1.2-16.3-1.2-24.5-0.3c-4.3-1.7-8.6-2.4-13.2-1.4
			c-5.3,1.2-9.7-1.1-13.1-5.2c3-5.8,4.1-12.1,5.3-18.5c8.9,2.3,16.3-3.7,24.7-4.3c1.9-0.1,1.5-2.3,1.7-3.8
			C465.7,366.9,476.8,376.9,486.4,388.4z"/>
		<path class="st99" d="M230.8,609.9c0-0.4,0-0.9,0-1.3c5.7-3.6,12-6.4,18.6-6.9c7.5-0.5,14.9,0,21.2-5c1.4-1.1,3.4-0.8,5-1.3
			c8.5-1.6,17-4.3,25.6-4.5c7.8-0.1,15.3-3,23.1-1.2c-9.1,8.4-16.4,18.7-26.3,26.3c-3-6-7-0.9-10.5-0.9c-8.1,2.8-16.2,3-24.1-0.6
			c-3.8-1.7-7.6-1.1-11.5-0.8C244.5,614.3,237.1,615,230.8,609.9z"/>
		<path class="st100" d="M628.7,294.6c7.9-7.9,15.9-15.9,23.8-23.8c8.4,0,16.7-0.3,24.4,4.6c5.5,3.5,12.8,1.9,19,4.1
			c1.9,7.2,1,9.8-5,12.4c-2.3,1-3.2,1.9-2.3,4.3c0.5,1.3,0.5,2.6-1,3.4c-3.6,1.4-7.4,0.9-11.1,0.9c-9.4,0.1-18.8,0.2-28.1,0
			C641.2,300.4,634.7,298.3,628.7,294.6z"/>
		<path class="st101" d="M734.6,475.4c16,1.6,32,3.4,48,4.7c6.5,0.5,12.9,1.3,19.2,3.2c0,4,0,7.9,0,11.9c-14,3.6-28.3-1.9-42.6,2.1
			c-7.6,2.1-16.6,0.2-24.6,3.2C734.6,492.1,734.6,483.7,734.6,475.4z"/>
		<path class="st102" d="M275.6,504.4c-9.4,0.6-18.8-0.6-28.1-1.3c-1.6-0.1-3.1-0.3-4.2-1.5c-2.6-2.7-4-1.9-4.8,1.4
			c-0.5,2-2.3,3.2-4,2.5c-6.1-2.5-12.6,0.5-18.7-1.3c5.3-6.7,11.7-12.4,17.9-18.2c3-3.4,6.7-3.7,11.2-3.7c12,0,23.9,2.6,35.9,1.7
			c3-0.2,6.1-0.1,8.9,1.5c2.4,2,5.2,3.6,7.6,5.6c0.9,6.4-0.9,9.2-7,9.1C284.8,500.3,280.1,501.7,275.6,504.4z"/>
		<path class="st103" d="M547,376.4c8.9,0.9,17.9,1.1,26.6,2.9c7.1,1.5,13.9,3.1,21.1,1.1c3.7,3.2,7.9,4,12.7,3.4
			c2.7-0.3,5.7-1.3,7.6,1.9c0.4,5.6-1.2,10.2-6.4,13.1c-10.3,2.3-20.8,2.9-31.4,2.8c-1.5-0.4-2.9-1.8-4.3-1.5
			c-9.6,1.6-17.8-3.5-26.7-5.2c-4.4-0.9-8.1-3.2-11.1-6.6C538.6,383.9,542.6,379.9,547,376.4z"/>
		<path class="st104" d="M735.8,116.6c2.9,5.3,8.4,5.5,13.3,6.5c2.6,0.5,5,1.1,7.5,1.9c4.9,1.4,6.7,3.6,3.8,8.4
			c-1.8,3-0.7,4.9,2.8,5.7c7.4,1.8,14.9,3.4,22.6,2.6c1.6,3.2-1.1,4-3.1,5.1c-3.3,1-6.5,0.4-9.7-0.3c-4.3-0.9-8.6-1.7-13-0.9
			c-1.7,0.3-3.6,0.3-5.1-0.6c-7.3-4.5-15.5-4.1-23.6-4c-2.6,0-5.3,0.1-7.4-1.9c-3.3-1.4-4.8-5-6-7.4c-3.7-7.5-9.9-6-15.9-6.2
			c-1.1,0-2.4,0.2-3.1-0.4c-6.5-5.4-14-6.2-22-6c-1.7,0-3.3-0.9-4.4-2.5C693.6,116.6,714.7,116.6,735.8,116.6z"/>
		<path class="st105" d="M594.6,650.8c0-5.3,0-10.5,0-15.8c-2.9-4.4-1.5-9.4-1.5-14.1c0-4.8-1.8-5.9-6.4-5.3
			c-8.8,1.1-17.7,1.8-26.6,1.8c-2.9,0-5,1.1-7,3c-2.8,2.7-5.5,5.7-8.4,8.2c-1.9,1.6-3.6,4.1-6.7,2.3c11.8-12,23.7-24,35.5-36.1
			c7-7.2,13.9-14.4,20.8-21.6c0.5,0.3,0.9,0.6,1.4,0.8c0,1.7,0,3.3,0,5c0,74.4,0,148.8,0,223.3c0,2.1,0.9,4.4-0.9,6.2
			c0-14.8-0.1-29.6-0.2-44.3c-1.9-2.1-1.9-4.8-1.9-7.4c0-8.9-0.2-17.8,0.1-26.7c-0.2-8.8-0.2-17.6,0-26.5c-0.2-8-0.2-15.9,0-23.9
			c-0.3-7.2-0.1-14.4-0.1-21.5C592.7,655.6,592.7,653,594.6,650.8z"/>
		<path class="st106" d="M638.2,479.2c-2.6-3.3-6.1-4.8-10.2-5.1c-7-0.6-14,0.5-21.2-2.2c-4.5-1.7-10,1.9-15.1,3
			c-2.5,0.6-5.1,1.2-7.6,1.8c-2-3.4-5.8-4.6-8.5-7c-0.5-3.8,1.6-6.5,5-6.2c11.9,1.2,20-6.4,29.1-11.6c9.3,0.5,18.7-1,27.6,3
			c3.7,1.7,7.3-0.2,11,0.2c3.6,0.4,8.2-1,9.7,4.3C652.1,466.7,645.6,473.4,638.2,479.2z"/>
		<path class="st107" d="M513,540c-18.5,2.9-34.2,14.9-53.3,16c-7.8-7.8-15.6-15.6-23.4-23.4c0.5-0.6,1-1.2,1.5-1.8
			c17.9-4.4,36.1-3.4,53.5,0.3c9,1.9,17,0.8,25.5,0.2C518.8,534.7,518.5,535.3,513,540z"/>
		<path class="st108" d="M801.8,550.6c-7.6,1-15.2,3.6-23,1.4c-2.6-0.7-5.8,0.1-7.5,1.7c-4.6,4.4-10,3.8-15.3,3.5
			c-7.2-0.5-14.2,1.8-21.4,1.4c0-7.5,0-14.9,0-22.4c10-3.2,20-4.8,30.3-1.2c3.1,1.1,6.5,1.7,9.7,1c9.9-2,18.4,2.3,27.2,5.4
			C801.8,544.4,801.8,547.5,801.8,550.6z"/>
		<path class="st109" d="M628.7,294.6c15.6,5.4,31.8,3.9,47.8,4.1c1.6,4.9,7.2,8,6.2,14.1c-1,2.4-2.8,4.3-5.3,4.4
			c-8.7,0.2-17.2,2.3-26,1.3c-10.2-1-20.3-3.8-30.7-1.1c-4.2,1.1-7.9-1.6-11.7-2.9C615.1,307.3,621.8,300.8,628.7,294.6z"/>
		<path class="st110" d="M697.6,545.3c-10.1-2-21,0.8-30.3-2c-9.5-2.8-18.8-1.9-28-3.8c-3.8-0.8-7.1-0.8-10.5,0.5
			c4.7-5.8,10.1-11,15.7-15.9c1.2-0.5,2.5-1.4,3.7-1.1c15.5,4.5,30.5-3.3,45.9-1.8c2.8,0.3,5.7-0.6,7.9,2c0.3,7.3,0.3,14.6,0,21.9
			C700.6,546.5,699.1,546.4,697.6,545.3z"/>
		<path class="st111" d="M701.5,522.9c-12,0.5-24.1-0.2-35.9,3.6c-7,2.2-14-2.2-21.1-2.4c8.4-9.2,17.2-18,26.4-26.4
			c5.6-2.7,11.4-2.2,17.3-1c1.7,0.4,3.3,1,5.1,1.1c8.9,0.4,9,0.4,8.8,9.6C702,512.5,703,517.7,701.5,522.9z"/>
		<path class="st112" d="M734.6,625.7c5.3,0,10.5,0,15.8,0c1.7,0,3.7,0.4,5.1-0.8c6.5-5.7,14.6-5.6,21.9-4.1
			c8.6,1.7,16.3-2.7,24.5-1.6c0,6.6,0,13.2,0,19.8c-13.2-2.6-26.4-1-39.6,0c-0.7,0-1.5-0.2-1.9,0.1c-8.1,6.1-17.2,1.5-25.7,2.5
			C734.6,636.3,734.6,631,734.6,625.7z"/>
		<path class="st113" d="M443.2,344.8c-20,2-39.8-2.3-59.7-2.7c-1.7,0-3.4-0.8-5.1-1.2c9.3-9.4,18.5-18.7,27.7-28.1
			c1.8-1.9,3.2-2.6,5.4-0.4C422,323.2,432.6,334,443.2,344.8z"/>
		<path class="st114" d="M737.1,919.9c2.6,4,1,8.5,1.2,12.7c0.2,4.5,1.9,7.4,6.6,7c19-1.6,37.9-1.2,56.9-1.2c4.1,0,3.8-2.6,3.8-5.3
			c2.2,2.2,1.2,5,1.2,7.5c0.2,5.5,0.4,11,0,16.5c-0.2,2.8,2.7,6.4,0.4,8c-2.4,1.7-5.7-1-8.6-1.9c-18-5.6-35.8-11.5-53.9-16.9
			c-5.7-1.7-7.7-5.1-7.7-10.5C737.1,930.4,737.1,925.1,737.1,919.9z"/>
		<path class="st115" d="M290.1,487.2c-1.8-0.9-3.6-1.4-5.6-1.3c-14.8,0.5-29.6-0.9-44.3-2.4c-2.8-0.3-4,2.5-6.5,2.5
			c6.7-7.4,13.5-14.6,21.1-21.1c1.4-1.1,2.7-2.4,3.8-3.8c0,0,0.1-0.2,0.1-0.2c12.2,5.6,25.3,2.5,37.9,3.9c2.9,0.3,6.3-1,8.1,2.6
			c1.8,4.9-1.3,8.3-4.9,9c-5,1.1-7,3.7-7.8,8.1C291.7,485.7,291.1,486.6,290.1,487.2z"/>
		<path class="st116" d="M328.4,514.9c8.5,1.5,17.3,4.1,24-4.4c1-1.3,2.9-0.8,4.4-0.7c7.8,0.6,15.4,1.3,23.1-2.3
			c7.1-3.3,16.2-0.1,21,5.9c-7,7.9-14.5,15.4-22.4,22.4c-2-0.9-3.6-2.5-5.7-2.9c-4.4-0.3-8.6-0.6-12-4.1c-1.6-1.6-4.1-1.6-6.2-1.3
			c-11.4,1.5-21.7-3.9-32.5-5.6c-1.1-0.2-2-0.8-2.8-1.6c-0.1-5.1,4.6-4.2,7.3-5.8C327.2,514.3,327.8,514.5,328.4,514.9z"/>
		<path class="st117" d="M688.3,145.7c-7.1-0.3-14.3,0.4-21.4-1.1c-3.9-0.8-8.2-0.8-12.1,1.3c-4.1,2.3-8.2,0.2-10.8-2.3
			c-6.4-6.3-13.5-4.2-20.7-2.9c-7.6-8-15.1-16.1-22.6-24c8.5,0,17.7,0,27,0c1.2,2.5,3.5,3.9,5.8,3.7c7.5-0.5,13.1,4.5,19.9,6
			c3.4,0.8,5.4,2.7,3.1,6.7c-2.2,3.8-0.6,5.8,3.6,6c5.4,0.2,10.8,2.1,16.3,1.3c4.7-0.7,7,5.5,12,4c0.3,0.3,0.4,0.6,0.3,0.9
			C688.6,145.5,688.5,145.7,688.3,145.7z"/>
		<path class="st118" d="M895.4,269.6c0.1,1.4-0.2,2.8,1,3.9c0,23.7,0,47.5,0,71.2c-2.3-9.1-0.4-18.4-1-27.6
			c-3.2-4.3-1.8-9.2-1.8-13.9c-0.1-4.6-1.7-6.8-6.5-6.7c-3.7,0.1-7.4-0.5-10.8-2c-2.3-1.1-4-3.3-6.6-4.2c-3.4-1.1-4.8-3.5-4.3-7.1
			c0.5-3.4-1-4.9-4.4-4.7c-1.8,0.1-3.6,0-5-1.2c-3.6-3.2-7.8-3.3-12.3-3.5c-4.1-0.2-8.4-0.2-10.8-4.6c2.2-5.9,4.3-6.9,13.6-6.5
			c3.2,0.7,6.4,1,9.7,0.6c10.9-1.2,21.6,0.2,32.1,2.8C890.9,266.9,893.4,267.8,895.4,269.6z"/>
		<path class="st119" d="M374.5,532.1c2.4,0.1,3.8,1.2,3.9,3.7c-10.1,11-20.7,21.6-31.7,31.7c-1.3-4.2-4.8-3.4-7.9-3.7
			c-6.1-0.6-12.4,1.5-18.4-1.3c-5.5-9.6-5.4-9.5,5.7-13.4c5.2-1.8,11.1-3.3,11-10.7c0.9-1.6,2.2-3.2,3.9-3.3
			C352.3,534.6,363,528.8,374.5,532.1z"/>
		<path class="st120" d="M513,540c0.1-3.8,4.1-4.9,5.3-7.9c1.4-1.6,3.3-1.6,5.2-1.6c7.6,0.9,15.1,2.8,22.8,1.4
			c1.5-0.3,3.1-0.2,4.6,0.4c8.5,3.4,16.8,1.1,25.1-0.6c2.9-0.6,6.3-2.1,6.9,2.9c-8.8,8.8-16.3,18.9-26.3,26.4c-3.9-8-6.2-8.9-18.9-6
			c-3.3,0.7-6.5,0.8-9.7,0.8c-1.3,0-2.9-0.1-3.3-1.6c-0.5-1.8,1.2-2.8,2.6-3.2c1.4-0.5,3-0.4,4.5-0.4c2.3-0.1,4.9-0.3,4.7-3.2
			c-0.1-2.7-2.8-3.1-4.9-3.3c-2.6-0.3-5.1,0.3-7.7,0.9C519,546.1,514.9,545.2,513,540z"/>
		<path class="st121" d="M696.3,280.2c-9.7,0.1-19.1-0.8-27.3-6.8c-2.2-1.6-4.8-1.7-6.9-0.8c-3.9,1.7-6.7,0.4-9.6-1.8
			c6.6-6.6,13.2-13.2,19.7-19.7c2.2,0.1,2.8,1.6,3.4,3.4c0.6,1.7,1.6,3.8,3.3,3.7c6.9-0.5,11.5,5.3,17.8,6.3c2,0.3,4.6,0.9,5,2.6
			c1.7,6.4,6.6,5.2,11,5.2c3.7,0,7.4-0.1,11.1,0c5.3,0.1,10.7-0.9,15.5,3.3c1.7,1.5,5.5,0.5,8.3,0.7c-1.3,6.6-6.7,3.5-10.4,4.5
			c-9.8-2.2-19.3,1.9-29,1.3C704.2,281.8,700,282.3,696.3,280.2z"/>
		<path class="st122" d="M538,631c6.3-2.1,9.5-8,14.1-12.2c3-2.7,5.7-4.6,9.8-2.9c1,0.4,2.3,0.8,3.1,0.5c8.2-3.6,17.2,0,25.4-3
			c3.4-1.2,4.3,0.3,4.3,3.4c-0.1,6.1-0.1,12.2-0.1,18.3c-14.4-0.2-28.7,1.1-43,2.6c-6.3,0.7-12.6-0.3-18.9-1.3
			C534,634.1,535.7,632.3,538,631z"/>
		<path class="st123" d="M535.1,388.2c2.5,0.2,4.5,1.5,6.5,2.9c2.5,1.8,5.2,3.3,8.5,1.7c1.3-0.6,3.1-0.9,3.6,0.3
			c3.1,7.5,9.3,4.2,14.5,4.4c2.9,0.1,6.3-1.1,8.1,2.6c2.1,3.5,4.6,6.8,2.6,11.3c-7.5,4.3-14.9,5.6-23.8,3.6c-9-2-18.5-3-27.9-0.7
			c-5.3,1.3-10.9,2.3-15.4-2.3c0,0-0.3-0.4-0.3-0.4C519.3,403.9,527.2,396.1,535.1,388.2z"/>
		<path class="st124" d="M750.2,367c-8.5-5.7-18.9-5.8-28.1-9.6c-3.2-1.3-7.3-0.9-11-0.7c-5,0.3-7.6-1.3-7-6.7
			c8-3.4,14.7-10.4,24.6-8.6c1.6,0.3,2.8-1.1,4.1-1.8c3.1-1.7,6.3-1.7,9.5-0.2c5.9,4.3,12.6,2.2,19,2.6c3.8,0.2,7.5,0.2,9.9,3.8
			C765,353.6,758.1,360.8,750.2,367z"/>
		<path class="st125" d="M681.7,398.9c5.4,0.3,11.3-1.5,15.8,3.6c1.1,1.2,3.7,0,5.7-0.3c3.5-0.7,7.4-2.1,10.1,1.9
			c-6.4,7.6-13.2,14.9-21.1,21.1c-0.1-0.4-0.3-1.2-0.4-1.2c-10.8,0.9-19.4-9.1-30.5-6c-3.1,0.9-4.9-1-7.3-1.8
			c-2.2-3.9-6-7.4-3.6-12.6c7.3-2.8,15.2-3.6,22.6-6.1C675.9,396.4,679.2,396.6,681.7,398.9z"/>
		<path class="st126" d="M658,459.4c-1.3-0.8-2.5-2-3.9-2.2c-8-1.3-16,0.7-24.3-2.4c-5.9-2.2-13.6-1.5-20.5-1.9
			c-0.5-0.5-0.9-1.1-1-1.8c1.7-7.9,4.4-11,11.8-11.6c4.7-0.4,8.1-4.5,13-3.7c7,4.3,14.7,1.9,21.9,1.8c6.7,0,13.3,1.7,20,1.1
			c1.1-0.1,1.5,1.4,1.7,2.5C670.7,447.7,665,454.2,658,459.4z"/>
		<path class="st127" d="M465.5,612.5c-13,1.2-25.6,6.4-38.9,4c-5.6-1-8.1,1.1-7.4,7.1c0.3,2.4,1.1,5.3-1.2,7.4c0-7.9,0-15.8,0-23.7
			c1.4-4.3,0.7-8.7,0.5-12.9c-0.2-4.6,2.1-6.6,6-6.9c6.9-0.4,14-0.9,19.9,3.9C451.9,598.1,459.1,604.9,465.5,612.5z"/>
		<path class="st128" d="M801.8,541.3c-4.9,0.2-9.3-0.2-13.7-3.1c-3.2-2.2-7.8-1.3-11.6-0.6c-5.5,1.1-10.2-0.3-15.2-1.9
			c-5.9-1.8-12.2-2-18,0.1c-3.2,1.2-5.8,1.1-8.8,0.2c0-4,0-7.9,0-11.9c16.3,3.4,32.5-0.5,48.7-1.5c6.2-0.4,12.1-3.4,18.6-2.5
			C801.8,527.3,801.8,534.3,801.8,541.3z"/>
		<path class="st129" d="M582.8,534.6c-1.5-2.8-3.6-2.9-6-1.4c-2.4,1.4-5.3,0.8-7.5,1.7c-8.1,3.2-15.7-2.1-23.2-1.1
			c-7.8,0.9-15-0.6-22.5-1.7c2.2-5,6-8.9,9.2-13.2c13.3-3.6,26.7-0.7,39.8,0.7c5.9,0.6,12,2.3,18.3,2c1.6-0.1,2.4,0.9,2.6,2.4
			C589.9,527.5,587.6,532.3,582.8,534.6z"/>
		<path class="st130" d="M801.8,416c-7.5-0.9-15.7,2.6-22.4-3.6c-0.6-0.6-2.5-0.1-3.7,0.2c-6.1,1.9-11.5,0.6-16.4-3.4
			c6.6-6.6,13.2-13.2,19.7-19.8c7.3,3.1,15.4,0.5,22.8,2.8C801.8,400.2,801.8,408.1,801.8,416z"/>
		<path class="st131" d="M867.7,385.4c-0.1-0.4-0.2-0.9-0.3-1.3c-0.6-2.6-5.2-3.7-3.8-6.2c1.6-3,5.6-1.2,8.5-1.4
			c5.9-0.4,11.7,0.5,17.6-1.2c7.1-2,4.6,4.9,6.6,7.7c0,9.8,0,19.7,0,31.5C885.9,404.3,876.4,395.3,867.7,385.4z"/>
		<path class="st132" d="M701.5,522.9c0-6.4,0-12.7,0-19.1c0-2.3,0-5-3.1-4.5c-9.3,1.4-18.2-3.2-27.5-1.6
			c10.6-10,21.2-20.1,31.9-30.3c0,5.3,0,11.1,0,16.9c-0.1,42.7-0.2,85.4-0.2,128.2c-0.4-0.9-0.7-1.7-1.1-2.6
			c-3.5-5.4-1.6-11.4-1.9-17.1c-0.2-7.5-0.2-15,0-22.5c-0.3-6.1-0.1-12.2-0.1-18.3c0-2.4,0.3-4.8,2-6.7
			C701.5,537.8,701.5,530.3,701.5,522.9z"/>
		<path class="st133" d="M444.5,591.4c-5-2.2-10.4-1.7-15.7-2.4c-7.4-1-9.4,1.4-9.6,8.9c-0.1,3.1,1.3,6.6-1.2,9.4
			c0-13.7,0-27.4,0-41.4C427,574.5,435.7,582.9,444.5,591.4z"/>
		<path class="st134" d="M801.8,392.3c-2.1,0.2-4.4,0.1-6.4,0.6c-6.1,1.8-11.5,0.6-16.4-3.5c7.5-7.1,15-14.2,22.8-21.7
			C801.8,376,801.8,384.2,801.8,392.3z"/>
		<path class="st61" d="M629,786.6c-0.3,0.4-0.7,0.8-1,1.3c0-28.6,0-57.1,0-85.7c0.9-0.2,1.5,0,1.9,0.8c0.8,1.5,0.8,3.1,1,4.7
			c0.2,14.5,0.2,29,0,43.4c0.4,9.4,0.1,18.7,0.1,28.1C631.1,781.9,630.9,784.5,629,786.6z"/>
		<path class="st49" d="M734.6,743.1c0,11.4,0,22.9,0,34.3c0,10.4-0.1,20.8-0.1,31.2c-0.4-0.7-1.1-1.4-1.1-2.2
			c0-26.4,0.2-52.8,0.2-79.2c0.2,0,0.5,0,0.7,0C734.4,732.6,734.5,737.8,734.6,743.1z"/>
		<path class="st90" d="M734.4,727.3l-0.4,0c0,0-0.4,0-0.4,0c-0.6-25.5-0.5-51,0-76.5c0.3,0,0.5,0,0.8,0c0.1,4.8,0.1,9.7,0.2,14.5
			c0,11,0,22,0,33C734.5,707.9,734.4,717.6,734.4,727.3z"/>
		<path class="st135" d="M629,702.2l-0.5,0c0,0-0.5,0-0.5,0c0-10.6,0-21.1,0-31.7c0.3,0,0.6,0,1,0c3.8,5.8,1.5,12.2,2,18.3
			C630.7,693.4,632.2,698.2,629,702.2z"/>
		<path class="st57" d="M735.8,892.2c2.7,6,0.7,12.3,1.3,18.5C734.4,904.6,736.4,898.3,735.8,892.2z"/>
		<path class="st17" d="M494.5,848.6c-2.7-6-0.7-12.3-1.3-18.5C495.9,836.1,493.9,842.5,494.5,848.6z"/>
		<path class="st17" d="M416.8,832.8c2.3,2.3,0.8,5.3,1.2,7.9C415.7,838.4,417.1,835.5,416.8,832.8z"/>
		<path class="st40" d="M258.6,461.1c-0.3,2.3-1.5,3.6-3.8,3.8C255.6,463.2,257,462,258.6,461.1z"/>
		<path class="st136" d="M875.6,293.4c5.4,0.3,10.7,1.9,16.1,1.4c3.5-0.3,3.7,2.2,3.7,4.7c0,5.9,0,11.7,0,17.6
			c-6.2-1.9-13.3,1.1-18.5-0.6c-9.1-3-18.3-0.2-27-3.3c-0.6-0.2-1.3,0-2,0c-1.4-3.1-4.2-2.6-6.8-2.6c-2.1-0.1-4.6,0.5-5.8-1.9
			c-1.6-3,1.8-3.9,3.1-6.7c-9.8-1.5-19.2-3-28.7-4.5c-1.1-1.5-1.2-3,0.1-4.5c6.1-2.6,12.5-1.6,18.7-0.9c4.4,0.4,8.6-0.2,12.9-0.4
			C852.8,291,864.4,289.8,875.6,293.4z"/>
		<path class="st137" d="M275.6,595.4c-7,5.3-14.4,9.4-23.9,8c-7.6-1.2-13.5,5.3-21,5.2c-7.4,0.5-14.5,2.5-21.9,3
			c-6.6,0.4-12.7-0.4-19.2-1.1c-7.5-0.8-15.4,1.4-23.1,2.6c-1.9,0.3-4,1.3-5.8,0.4c-8.2-4-16.6-2.3-25-1c7.2-4.2,13.7-10,22.7-10
			c0.9,0,1.7-0.6,2.6-0.4c14.8,1.9,27.2-2.2,40.1-10.2c11.8-7.3,26.6-10.6,41.4-9.6c4.5-2.6,9.3-4.8,14.1-6.7
			c3.5-1.4,6.8-1.5,9.6,1.5c0.7,0.4,1.4,0.9,2.2,1.2c1.7,0.6,4.8-0.9,4.9,1.7c0.1,2.7-3.2,3.2-5.5,3.6c-2.9,0.6-7.2-1.4-6.9,4.3
			c0.3,5.6,4.6,5,8.2,4.9C272,592.6,274,593.5,275.6,595.4z"/>
		<path class="st138" d="M266.4,576.9c-6.1-1.6-11.6,0-16.4,3.9c-2.3,1.9-4.9,1.2-7.4,1.4c-0.1-1.3,0.1-3.5-1.2-3.4
			c-9.3,0.6-16.2-9-26.7-4.9c-5.8,2.2-13.5,2-18.2-4.8c9.8,2,17.5-4.5,26.4-6.6c1.6-2.6,3.7-4.8,6.9-3.9c9.3,2.8,18.6,1.5,28,0.7
			c2-0.2,3.9,0.1,5.9,0.4c12.9-0.5,25.4,2.7,38.1,3.5c2.6,0.2,5.9-0.8,6.8,3.2c-4.4,2.9-9.2,4.5-14.6,4c-4.1-0.4-7.3,1.1-10.8,3.4
			C278.2,577,272.1,576.2,266.4,576.9z"/>
		<path class="st139" d="M629,786.6c0-11.9,0-23.7,0-35.6c5.3-4.6,11.6-7.4,18.3-8.1c7.6-0.8,15.2-2.2,22.9-1.7
			c4.4,0.3,7.9-1.1,11.4-3.9c5.8-4.6,12.4-7.5,19.9-3.4c0,2.2,0,4.4,0,6.6c0,8.1-0.1,16.2,0,24.3c0,3.2-0.9,4.8-4.5,4.8
			c-8.4-0.1-16.4,2-23.8,6.2c-2.4,1.3-4.9,2-7.5,1.7c-2.9-0.3-6.6,0-8,2c-3.7,5.6-9,4.8-14.1,4.5C638.5,783.6,634.2,787.3,629,786.6
			z"/>
		<path class="st140" d="M594.6,729.9c0,11.4,0,22.9,0,34.3c-4,0.3-7.6,1.4-10.4,4.6c-0.8,0.9-2.1,2.2-3.2,2.2
			c-8.7,0-15.9,5.1-24.2,6.5c-6.6,1.1-13.1,2.7-19.6,4.3c-3.8,0.9-7.5,2-11.2-0.4c0.1-12.3,0.2-24.6,0.2-36.9
			c1.2-1.1,2.7-1.4,4.3-1.3c10.6,1.3,20.4-1.7,29.8-6.1c3.7-1.7,7.4-2.5,11.5-2.4c6.4,0.1,12.8,0.2,18-4.7
			C591.1,728.7,592.9,728.6,594.6,729.9z"/>
		<path class="st141" d="M323.1,442.4c-0.2-3.5,1.3-5.5,5-5.3c4.1,0.3,7.8-0.3,10.7-3.7c1.1-1.3,3-1.8,4.9-1.6
			c7.6,0.8,14.8-0.7,21.6-4c7-0.7,13.9-1.3,20.6-4.5c4.1-2,8.9,2.5,13.7,2.5c2.2,1.5,4.4,3.1,5.7,5.3c2.7,4.7,6.3,7,11.9,6
			c2.6-0.4,4.9,0.6,5.6,3.4c0.7,2.9-0.9,5-3.5,5.4c-3.9,0.5-3.5,3.5-4.2,6c-10.2,2.6-20.7,2.9-31,2.7c-8.9-0.3-17.8-0.5-26.6-1.7
			c-2.9-3.5-6.3-6-11.2-5.3c-0.8,0.1-2.1,0-2.5-0.4C338.3,439.2,330.5,441.6,323.1,442.4z"/>
		<path class="st142" d="M357.4,453c6.6-2.3,13.3-1.5,20-0.6c12.8,1.7,25.4-0.4,38-2c0.5-0.6,1.1-1.1,1.9-1.3
			c2.3-0.6,4.7-0.9,7.1-1.3c2.9-0.4,5.9,0.5,6.4,3.4c0.9,6.4,4.8,12.4,2.9,19.2c-3.1,4.7-8.1,4.1-12.7,4.4c-11.1,1-22.5,0.1-33-2.3
			c-10-2.4-20.2-1.1-29.9-4c-1.9-2.2-4.7-2.7-7.2-3.5c-1.3-2.9-0.2-5.2,2.4-6.2C356,457.5,357,455.6,357.4,453z"/>
		<path class="st143" d="M350.8,464.8c2.6-1.5,5-2.1,6.6,1.3c1.7,6.3,0.9,7.3-6.9,8.7c7.4,0.1,9.9,3.5,7,10.1
			c-0.9,2.1-0.9,4.2-1.5,6.2c-0.4,0.4-0.9,0.9-1.3,1.3c-2.4,2.3-5.2,1.5-8,1.4c-13.3-0.5-26.5-2-39.8-2.1c-3.4,0-6.9,1.4-10.2-0.7
			c-3.2,0.3-5.2-1.3-6.6-4c0.5-2.7,1-5.5,1.4-8.2c0.3-2.3,1.6-3.9,3.8-3.5c6.6,1.2,7.9-3.4,9.3-8.1c4.2,2.5,9.9,2,13.1,0.8
			c8.4-3.2,16.4,0.1,24.5-0.7C345.5,467.3,348.3,466.8,350.8,464.8z"/>
		<path class="st144" d="M263.7,561.1c-11.7-0.6-23.5,3.8-35.1-1.2c-2.3-1-3.9,1.6-5.8,2.5c0.2-1.3,1-3,0.5-3.7
			c-4.2-5.7,0-6.5,4.1-7.7c5-1.5,7.9-6.9,14.1-6.5c1.6,0.1,1.2-3.8,0.8-5.8c-0.4-1.9-2.5-3.1-2.3-5.2c4-3.1,8.9-2.6,13-1.5
			c7,1.9,14,2,21.1,2.4c3.5,1.2,6.7,0.4,10.4-0.3c6.1-1.2,12.5,1.1,18,4.7c1.2,3.5-0.5,5.5-3.6,6.4
			C286.5,548.9,275.2,555.1,263.7,561.1z"/>
		<path class="st145" d="M275.6,536c-12.1,1.8-23.6-4-35.6-2.6c-0.9,0.4-1.8,0.9-2.6,1.3c0.1-0.9,0-2.4,0.3-2.5
			c7.2-2.2,5.4-9.3,7.3-14.1c1.3-3.3,2.7-4.2,5.9-4.7c10.5-1.5,20.9-3.4,31.3-5.2c1.5,5.2-3.9,3.1-5.5,5.2c2.3,1.1,4.3,0,6.3-0.6
			c3.2-0.9,6.5-1.6,9.7-0.9c10.5,2.4,21.1,2.9,31.7,0.9c1.2-0.2,2.8-0.1,2.5,1.9c-2,2.7-5.4,2.4-7.9,4c-6.2,3.4-12.2,7.7-19.9,7.1
			c-0.9-0.1-2,0-2.5,0.5C290.9,532.4,282.1,531.7,275.6,536z"/>
		<path class="st146" d="M866.4,197.1c-4.9,1.6-9.8,3-15.1,1.8c-4.8-1.1-9.2-1.3-11.3,4.6c-0.9,2.5-2.8,3.1-5.3,2.2
			c-4.3-1.4-8.7-0.6-13.1-0.6c-1.9,0-4.4,0.4-4.6,2.8c-0.2,2.2,2.4,2,3.8,2.8c1.9,1.1,4.5,0.2,6,2.2c-3.4,2.9-7.4,1.7-11.2,1.4
			c-9.1-0.8-18-2.3-27.1-2.8c-3.1-0.6-5.4-2.8-8.1-4.3c-3.9-2.1-5.8-4.6-2.7-8.9c2-2.8,1.1-5-2.3-4.7c-10.8,1.2-16.1-5-19.8-13.7
			c-2.1-1.9-5.6-2.1-6.6-5.3c1.3-5.5,4.6-3.8,7.8-2.1c5.8,3.7,12.4,4.2,19,4.1c6,0,11.9-0.3,16.4,4.8c0.7,0.8,1.9,1.3,2.9,1.3
			c14.3,0.1,27.2,8.1,41.7,7.2c2.8-0.2,5.8,0.4,8.3,1.6c5.2,2.6,10.6,3.9,16.5,3.6C863.3,195.3,865.1,195.6,866.4,197.1z"/>
		<path class="st147" d="M755.6,179.9c0.7,0.5,1.8,0.8,2.1,1.5c4,8.7,10.7,11.5,20.1,10.6c3.7-0.4,5.5,3.1,2.2,6.2
			c-4.2,3.9-3.3,5.7,1.8,7.5c2.1,0.7,3.7,2.9,5.5,4.5c-2.2,4-5.8,2.9-9.2,2.6c-6.2-0.5-12.3-1.8-18.5,0.1c-11.4-0.3-21.7-6.1-33-6.4
			c-4.7-0.1-6.5-4-10-5.6c-6-2.7-11.9-5-18.4-5.7c-1.1-0.1-2.1-1.4-3.2-2.1c4.9-7.7,4.8-7.1,15.7-4.5c5.8,1.3,12.7,2.9,17.8-3.1
			c1.6-1.9,4-2.1,6.1-1.3c5,1.9,10.4,0.6,15.5,2.1C754.9,187.7,755.9,184,755.6,179.9z"/>
		<path class="st148" d="M755.6,173.3c-2.7-2-4.8-1.1-6.6,1.3c-7.1,1.2-12.2-3.6-18-6.1c-4.5-1.9-8.8-3.2-13.6-3.2
			c-5.7-1.2-10.3-5.6-16.5-5.8c-3.3-0.1-5.9-1.8-6.2-6.1c-0.2-3.7-3.7-5.6-6.3-7.9c0-0.4,0-0.9,0-1.3c6.9-2.2,13.5-0.8,20.3,0.8
			c5.5,1.3,11.1,0.9,16.6-0.8c5.3-2.6,7.6,2.2,9.1,5c3.2,6,8,8.2,14.1,8.9c8.9,1,17.2,5,26.2,5.7c3.2,0.3,6.7,0.9,7.8,4.9
			c-0.6,4-3.6,5.4-6.9,5.8C768.8,175.7,762.1,176.1,755.6,173.3z"/>
		<path class="st149" d="M230.8,609.9c7.8,1.2,15.5,4,23.6,1.5c2.1-0.7,5.2-0.8,7,0.3c8.3,5,17.3,3.1,26.1,3.5
			c-7.1,8.8-17.6,6.6-26.9,7.7c-7.1,0.9-14.3,0.4-19.8,6.2c-2.3,2.3-5.8,1.3-8.7,2.2c-5.6,1.6-11.1,3.9-15.8,7.6
			c-2.1,0.2-4.3-0.1-5.5-1.6c-4.7-5.6-10.7-4-16.3-3.2c-7,1-13.7,0.1-20.3-1.8c7,0.1,14.3,0.8,18.4-6.9c0.2-0.3,0.7-0.6,1.1-0.7
			C207.7,624.1,217.8,613.5,230.8,609.9z"/>
		<path class="st150" d="M557.8,492.5c3.9,5.2,8.7,1.8,13.2,1.3c0.1,2.1-0.4,3.9-2,5.3c-8.6,7.3-18.9,10.4-29.5,13.4
			c-3.3,0.9-8.5-0.6-9.3,5.1c-12.3,0.6-24.6,3.8-37,0.3c-5-1.4-9.9-1.4-14.9-0.1c-2.5,0.7-5,1.9-7.4-0.3c1.7-5.1,5.7-6.6,10.6-6.6
			c2.8,0,6.5,0.3,6.3-3.7c-0.1-3.8,3-9.1-3.7-10.8c2.9-5.2,14.4-10.2,21.2-9.3c1.7,0.2,3.4,0.9,5.1,1c12.8,0.4,25.5,0.8,38.3,1.1
			C551.9,489.4,555.7,488.6,557.8,492.5z"/>
		<path class="st151" d="M509,489.9c-9.9-3.6-17.2,2.3-25.1,6.6c-5.5,3.1-10.4-1.1-15.6-1.7c-7.6-0.9-15.1-0.6-22.7-0.9
			c-0.5-3.1,2-3.3,3.8-4.3c4.8-2.4,6.1-5.6,4.1-10.5c-1.2-3.1-2.6-6.1,0.8-8.7c8.8-0.9,17.5-3,26.4-1.3c6.1,1.2,12.1-0.9,18.1-0.1
			c4.5,4,6.6,9.9,10.7,14.3C511.3,485,510.8,487.8,509,489.9z"/>
		<path class="st152" d="M470.8,517.6c6.7-1.5,13.5-4.5,20.2-2.3c6,2,11.9,2.6,17.9,2.2c7.1-0.4,14.1-2.6,21.2,0.1
			c0.6,1.1,1.6,1.3,2.6,1.3c-1.1,5.8-4.6,9.9-9.2,13.2c-1.8,0-3.5,0-5.3,0c-4.6,1.2-9.2,2.3-13.9,3.6c-2.2,0.6-4.5,0.9-6.3-0.6
			c-4.3-3.5-9.3-3.4-14.3-2.9c-8,0.8-15.2-4.3-23.2-2.7c-7.6,1.6-15.2,1.2-22.8,1.3c10.2-1.7,18.8-7.8,28.6-10.6
			C468,519.7,469.7,519.1,470.8,517.6z"/>
		<path class="st153" d="M453.6,471.4c0,1.5-0.3,3.2,0.2,4.6c3.7,10.8,3.4,11.7-6.4,15.9c-0.7,0.3-1.1,1.3-1.7,1.9
			c-2.2,0-4.4,0-6.6,0c-5.8,0.8-12.1-3.1-17.4,2c-0.3,0.3-1.6,0.3-1.8,0.1c-4-5.9-11-3.6-16.3-6c-0.9-4.9,2.1-9.6,8.4-12.8
			c2.9-1.5,6-2.7,8.8-4.4c4.2,0,8.4,0.3,11.9-2.6c4.8-2.9,10.1-3.4,15.5-2.7C450.4,467.6,453.3,468,453.6,471.4z"/>
		<path class="st154" d="M399.6,426.6c-3.4,0.6-6.7,1.3-9.8-1.5c-1.9-1.7-3.8-0.9-5.9,0.5c-5.7,3.8-12,4.9-18.6,2.3
			c-1.3-2.5-3.2-4.1-6.2-4c-3.4,0.2-6.7-0.9-6.6-4.6c0.1-4.7,4.3-2.7,7-2.2c0-2.8-1.1-3.6-2.9-3.2c-1.5,0.3-2.9,1-4.4,1.4
			c-9.7,2.7-12,0.8-10.6-8.5c3.4-2.1,7.1-2.9,11.2-2.7c10.8,0.6,21.5-2.3,32.4-1.3c3.9-1.2,7.9-1,11.7-0.3
			c12.4,2.2,24.8,4.6,37.4,5.8c0.9,0.1,1.6,0.6,2.3,1.2c0.9,1.8,1.8,3.5,2.6,5.3c-1.7,5.2-6.9,6.3-10.5,9.2c0.1,2.1-1.5,2.7-3,2.8
			C416.9,427.3,408.2,428.2,399.6,426.6z"/>
		<path class="st155" d="M759.5,212.9c5.6-5.3,12.2-2.3,18.3-1.9c3.3,0.2,6.4,0.9,9.4-0.8c9-1.8,17.6,1.6,26.5,1.9
			c4.3,0.1,8.7,0.5,13,0.8c3-0.4,5.6,0.5,7.6,2.9c1.3,1.6,3,2.6,5.2,2.3c4.1-0.5,7.2,0.4,8.9,4.7c0.8,2.1,3.2,1.9,5.2,1.9
			c4.2,0,8.4,0.1,12.5,0c6.8-0.3,12.5,1.5,15.9,7.9c-0.8,6-3.2,7.7-9.9,6.6c-5.6-1-11.3-3.1-16.9-1.7c-9,2.4-18.2,2.1-27.4,2.7
			c-6.1,0.4-12.2-0.1-18.3,0.7c-2.8,0.4-5.7-0.3-8-2.3c-4.2-9.6-13.7-10-21.9-12c-4.7-1.2-10.2,0.3-13.6-4.6
			C763.6,219.3,766.9,212.3,759.5,212.9z"/>
		<path class="st156" d="M801.7,238c4.7,1.3,9.3,2.2,14.1,0.3c4.2-1.6,8.7-0.1,12.7,0.2c15.1,1.1,30-7,45.2-0.7
			c4.1,1.7,7.1-0.9,8.4-5.1c13.2,0,13.2,0,13.2,13.5c0,7.8,0,15.6,0,23.4c-4.6,0.9-8.4-2-12.6-2.9c-10.5-2.2-20.8-1.6-31.2-1.1
			c-1.6,0.1-3.3-0.8-5-1.2c-1.9-2.5-4.1-4.6-7.3-5.2c-1.1-0.2-2.3-0.7-2.8-1.6c-6.7-11.5-18.8-10.1-29.4-12.5
			c-3.9-0.9-8.4,0.1-11.2-4.1C796.6,237.6,798.9,237.2,801.7,238z"/>
		<path class="st157" d="M755.6,173.3c5.6,0,11.3,0.1,16.9,0c4-0.1,7.9-0.7,9.5-5.2c1.7-5.2,6-4.3,9.7-3.7
			c7.8,1.3,15.5,2.1,23.2-0.7c10.6-1.5,20.7,2.6,31,3.4c0.4,0.1,1,0.3,1.1,0.6c1.7,5.3,5.7,8.9,8.9,13.2c3.4,4.6,6.1,8.9,11.9,10.4
			c1.3,0.4,3.1,1,2.6,3.1c-1.3,0.9-2.6,1.8-4,2.6c-7.3-0.2-14.7,0.9-21.6-3.6c-4.8-3.1-11.2-2.2-16.7-2.1
			c-11.5,0.2-21.1-8.5-32.9-6.3c-1.1,0.2-3.1-0.4-3.6-1.2c-4.6-7.3-11.9-4.9-18.4-5.3C766.9,178.3,760.6,178.1,755.6,173.3z"/>
		<path class="st158" d="M870.3,194.5c-3-3.3-8.5-1.4-11.3-5.8c-1.3-1.9-3.2-3.4-3.8-5.9c-0.3-1.1-0.5-2.3-1.2-3
			c-5.4-6.1-6.2-7.3-7.4-11.7c0.6-5,4.5-4.7,7.7-4.2c2.7,0.4,5.5,0.5,8.1,1.5c9.6-0.3,18.6,2,27.5,5.1c4.1,1.4,5.8,3.5,5.6,8.1
			c-0.5,8.3-0.1,16.7-0.1,25c-8.5,1.9-14.9-2.4-21-7.3C873.1,195.5,872,194.4,870.3,194.5z"/>
		<path class="st159" d="M327,514.9c-6.7,0.6-13.2,1.3-20,0.6c-3.7-0.4-7.3,0.6-11.2-1.3c-3.4-1.6-7.7-1.1-11.5,0.2
			c-2.3,0.7-4.6,1.5-6.9,1.7c-2.1,0.2-5-0.2-5-2.9c0-2.5,2.8-2.1,4.7-2.2c2.1-0.1,4.6,0.7,5.1-2.6c-1-3.3-5.4-1-6.6-4
			c2.3-6.4,8.2-6.3,13-5.7c6.6,0.8,8.2-2,8.1-7.5c8.9-2.1,17.7-1.4,26.7-0.6c10.4,0.9,20.9,1.3,31.3,1.9c1.4,0.7,3.3,2.1,2,3.3
			c-4,3.7-5.4,9.7-13,10.4c-5.3,0.5-10.3,5.6-15.4,8.7C327.9,514.9,327.5,514.9,327,514.9z"/>
		<path class="st160" d="M614.5,385.7c-4.3-1.9-8.5,0.6-12.8,0.1c-3.7-0.4-6.4-1.3-7-5.4c2.8-1.8,5.9-1.4,8.9-1.3
			c3.5,0.2,6.3-0.6,8.3-4c2.5-4.3,7.4-3.2,11.2-3.8c3.8-0.6,5.5-2,5.9-5.5c3.9-2.1,8.3-2,12.2-0.8c6.9,2.1,13.8,2.3,20.8,2.2
			c0.3,3.9,3.2,3.7,6.1,4c4.6,0.4,9.4-1.5,13.7,1.3c-1.1,3-2.9,5.7-6.1,6.2c-6.4,1-8.7,5.3-9.8,10.9c-7.3,0.3-14.5-1.2-21.8-1.2
			c-3.5,0-6.8,0.2-10.3,0.8C627.1,390.2,619.8,392.8,614.5,385.7z"/>
		<path class="st161" d="M733.2,340.9c-2.2,4.1-6.1,2.5-9.3,2.6c-4,0.1-7.7,0.2-10.2,4.2c-2.3,3.6-6.2,2.3-9.5,2.5
			c-9.3,0.5-18.2,4.1-27.7,2.6c-0.7-0.8-1.7-2.3-2.2-2.2c-8.3,2.6-14.3-6-22.5-4.6c-2.2,0.4-4.7-0.7-7-1.2c-0.7-0.4-1.4-1.1-2.2-1.2
			c-1.7-0.4-4-0.4-3.7-2.6c0.4-2.3,2.9-1.4,4.4-1.4c5.3,0,10.4,0.1,13.8-5.1c1.4-2.1,3.9-1.5,6-1.6c5.8-3.2,11.7-2.2,17.7-0.6
			c9.4,2.5,19.1,3.4,28.6,4.9C717.4,338.5,725.6,337.8,733.2,340.9z"/>
		<path class="st162" d="M701.5,733.9c-8.4-0.5-16.2,0.3-21.8,7.8c-1,1.3-2.6,1.6-4.2,1.4c-9-0.8-17.9,1.2-26.8,1.4
			c-7.2,0.1-12.7,5.7-19.7,6.6c0-14.9,0-29.9,0-44.8c1.5-1.4,3.4-1.8,5.4-1.9c13.9-0.4,27.7-2.2,41.6-2.6c4.8-0.2,9.5-0.7,14.2-2
			c3.8-1,7.8-1.5,11.3,1.2C701.5,711.9,701.5,722.9,701.5,733.9z"/>
		<path class="st163" d="M629,654.8c0-6.6,0-13.2,0-19.8c14.6-3.9,29.7-2.3,44.5-3.7c7.9-0.7,16,1.5,24.1,1c3.4-0.2,3.9,1.9,3.9,4.6
			c-0.1,5.5,0,11,0,16.5c-5.8,4.3-12.4,5.2-19.3,3.9c-5.1-0.9-9.9-1.1-14.1,2.7c-2,1.8-4.9,1.7-7.5,1.8c-5.5,0.1-10.9-0.1-16.4,0.2
			c-3.5,0.2-7.3,1.7-8.5-4.1C635.3,655.7,630.8,656.9,629,654.8z"/>
		<path class="st164" d="M701.5,700.9c-9.9-1.2-19.1,3.1-29.1,3c-14.4-0.2-28.8,2.8-43.4,2.3c0-1.3,0-2.6-0.1-4
			c0-4.4,0-8.8,0.1-13.2c5.1-7.1,12.4-7.8,20.6-8.9c13.5-1.7,27.3-3,40-8.5c4-1.7,7.9-2.6,11.8,0.2
			C701.5,681.6,701.5,691.2,701.5,700.9z"/>
		<path class="st165" d="M701.5,671.9c-5-0.1-9.8-0.4-14.2,3.4c-3,2.6-7.5,1.9-11.4,2.2c-11.8,1-22.9,7-35.1,5
			c-2.4-0.4-4.2,0.6-5.4,2.9c-1.3,2.5-3.4,4-6.4,3.7c0-6.2,0-12.3-0.1-18.5c0-5.3,0-10.5,0.1-15.8c2.6,0.2,5.3-0.4,7.8,0.6
			c1.6,0.7,4.4,0.4,1.2,3.3c-1.9,1.7,0.1,2.8,1.9,2.2c6.3-1.9,12.6-0.6,18.9-0.9c4.1-0.2,8.4,0.9,10.8-4c0.8-1.7,3.2-1.5,4.8-1.2
			c9.1,1.7,18.1,1.4,27-1.4C701.5,659.6,701.5,665.7,701.5,671.9z"/>
		<path class="st166" d="M701.5,592.8c0,5.7,0,11.4,0,17.1c-15.7-0.1-31.2,2.4-46.8,3.6c-8.6,0.6-17.1,1.8-25.7,3
			c0-7.9,0-15.8,0-23.7c3.9-2.9,8.6-3,13.2-3.2c18-0.9,35.9,0.8,53.8,1.3C698.1,590.9,700,591.4,701.5,592.8z"/>
		<path class="st167" d="M263.7,561.1c0.3-0.8,0.4-2.3,0.8-2.4c7.4-1.6,11.7-9.6,19.8-9.5c2.1,0,4.2-0.6,5.3-2.2
			c1.9-2.9,4.5-3.2,7.4-3c3.7,0.2,5.2-1.8,5-5.3c11.9-0.6,23.9-2.6,35.6,1.3c1.8,3.3,1.5,5.2-2.5,6.9c-4.6,1.9-9,3.9-13.7,5.4
			c-2.3,0.7-7.4,1.8-1.5,5.4c1.9,1.1,2.6,2.9,0.5,4.7c-3.6,2.3-7.8,2.9-11.9,4c-12.3-1-24.3-4.5-36.8-4.2
			C269.1,562.3,266.2,563.4,263.7,561.1z"/>
		<path class="st168" d="M609.2,451.6c0,0.4,0,0.9,0,1.3c-7.3,6.1-14.3,12.9-25,11.9c-4.1-0.4-7.6,0-8,5.3
			c-4.5,3.1-9.3,2.5-13.7,0.5c-4.6-2.1-9.2-2.8-14-2.4c-10.4,0.8-20.3-1.5-30.4-3.4c-1.9-1.5-2.4-4.2-6.2-3.9
			c-7.5,0.6-9.1-1.1-10.5-8.9c-0.3-1.9-1.6-3-2.4-4.6c0.9-7.4,4.1-10,11.2-8.9c2.8,0.5,5.3-0.9,7.9-1.3c0.8-0.3-0.3-0.2,0.5-0.4
			c2.2-0.6,28.1,2.3,29.9,3.6c2.6,1.8,5.4,2.8,8.6,2.4c0.6-0.1,1.5-0.3,1.9,0c8.6,5.8,19.2,3,28.4,6.3c4.4,1.6,8.9,2.2,13.5,1.2
			C603.9,449.7,606.8,449.5,609.2,451.6z"/>
		<path class="st169" d="M510.3,438.5c-5.4,0.9-9.8,3-10.5,9.2c-0.9,1.1-2.2,1.7-3.5,1.5c-12.1-1.7-24.2,3.3-36.3-0.7
			c-1.8-0.6-4.1-0.7-5.8,0c-8,3.2-15.8,2-23.7-0.2c-4.8-1.4-9.5-0.6-13.8,2c-0.4,0-0.9,0-1.3,0c-1.8-0.2-2.7-1.2-2.5-3.1
			c0.3-2,1.8-2.1,3.4-2.2c2.6-0.1,6,0,5.3-3.8c-0.6-3.5-3.6-2.7-6.3-2.1c-4.2,0.9-8-0.1-9.5-4.4c-1.2-3.5-5.4-4.4-6.1-8.1
			c7.1-2.3,14.4-0.9,21.5-1.4c2.5-0.2,5.3,1,7.5-1.3c12.2-0.4,23.7,2.6,34.9,7.2c2.6,1.1,6,0.5,9,0.7c4.4,0.2,8.7-0.8,12.3,3.7
			c2.2,2.8,6.6,0.6,9.6-0.8C502.7,431.2,504.7,431.4,510.3,438.5z"/>
		<path class="st170" d="M511.7,412.2c6.4,1.5,12.5,0.8,19.1-0.5c7.6-1.5,16.4-1.3,23.7,1c6.8,2.1,12.5,2.1,18.7-0.5
			c1.8-0.7,3.8-1,5.7-1.4c5.8,2.6,11.7,4.6,18,5.7c2.6,0.5,2.1,4.9,3.1,7.5c1,6.6-5.5,4.2-7.9,6.6c-3.5,1.6-7.3,1.9-10.9,2.1
			c-15.7,1.1-31.4,2.8-47.1,3.7c-4.9,0.3-10.1-0.1-14.5-3.2c-3.7-1.8-2.3-4.3-1.2-7c1.8-4.2,2.6-8.1-3.8-9
			C511.9,416.7,511.6,414.5,511.7,412.2z"/>
		<path class="st171" d="M519.6,433.2c6.5-0.3,13,2.7,19.4,1.2c15.5-3.4,31.5-1,46.8-4.7c2.3-0.6,4.3-0.2,6.2,0.9
			c4.3-0.2,8.7,0.8,12.8-1.7c0.8-0.5,2.4-0.6,3-0.2c7.5,5.3,16.7,4.8,25,7.1c-4.9,2.8-9.5,5.5-15.7,5.8c-4.9,0.2-6.9,5.4-8,10.1
			c-13.9,3.8-26.9-4.2-40.7-2.7c-1.6,0.2-2.9-0.8-4.1-1.8c-1-0.8-2.2-2.3-3.2-2.2c-6.9,1.1-12.2-4.2-18-4.6
			c-8.4-0.7-16.8-1.5-25-3.2C518.7,435.8,519.1,434.5,519.6,433.2z"/>
		<path class="st172" d="M594.6,729.9c-2.1-0.1-3.8,0.4-5,2.3c-2.8,4.3-7.5,4.3-11.6,4.1c-8.1-0.3-15.1,2-22.6,5
			c-9.1,3.6-19,6.1-29.1,3.1c0-9.7,0-19.3,0-29c3.6-2.9,8-1.8,12-1.9c4.3,0,8.3-0.3,11.2-4.1c0.5-0.7,1.3-1.4,2.1-1.5
			c13.7-2,27.1-6.7,41.3-5.4c0.7,0.1,1.2,0.6,1.7,1C594.6,712.3,594.6,721.1,594.6,729.9z"/>
		<path class="st173" d="M594.6,650.8c0,9.7,0,19.3,0,29c-1.5,1.5-3.5,1.9-5.5,1.7c-5.6-0.3-10.7,0.5-15,4.8
			c-1.9,1.9-4.8,1.7-7.5,1.2c-3.2-0.7-6.4-1.5-9.5-2.6c-4.8-1.6-9.1-1.4-13.8,1.2c-5.2,2.9-11.2,3.1-17,1.7c0-4.8-0.1-9.6-0.1-14.4
			c0-9.9,0-10.6,10.1-10.4c11.5,0.3,20.8-5.9,31.3-8.6c3.3-0.8,6.5-2.6,10.1-2.1C583.4,652.9,588.9,650.7,594.6,650.8z"/>
		<path class="st174" d="M526.3,687.7c7.2-2.1,15-0.9,21.8-5.9c3.2-2.4,7.9,0.9,11.8,2c6.2,1.7,12.3,4.9,17.4-2.7
			c1.9-2.9,6.2-1.1,9.4-1.3c2.6-0.2,5.3,0,7.9,0c0,7.9,0,15.8,0,23.7c-13.9,0.1-27.3,4.4-41.1,5.4c-0.4,0-1.1,0.1-1.2,0.3
			c-6.6,10.8-17.2,4.5-26,6.2C526.3,706.2,526.3,697,526.3,687.7z"/>
		<path class="st175" d="M436.5,409.4c-12.7,0.9-25-2-37.2-4.8c-4.7-1.1-9.7,0.9-14.2-1.8c4.4-5,4.2-11.1,4-17.1
			c7-4.4,14.7-2.8,22.2-1.9c4.2,0.5,8.2,1.3,12.1-0.7c6,3.1,12.1,4.9,19,2.7c3.2-1,5.9,0.7,7.4,3.8c-1.8,6-7.6,4.8-11.8,6.5
			c-1.6,0.7-3.3,1.1-4.9,2c-2,1.1-3.4,2.8-3,5.4c0.4,2.8,2.5,3.3,4.9,3.3C436.9,406.8,439.5,406.4,436.5,409.4z"/>
		<path class="st176" d="M600,423.9c-1.2-0.6-2.3-1.4-2.5-2.8c-0.4-5.4-3.3-5.9-7.6-4.1c-3.6,1.5-6.3,0.9-7.2-3.4
			c-0.4-2-1.9-2.8-3.8-2.9c-0.5-3.6-3.5-6.6-2.6-10.6c11-0.9,22-1.8,33-2.6c4.3-2.6,9-2.8,13.2-0.7c5,2.5,10,2.7,15.3,2.8
			c4.6,0,9.3,0.1,12.4,4.5c1,4.1,4.3,7.4,4,11.9c-15.4,0-30.8,0.1-46.1,1.2C603.1,417.5,602.2,421.3,600,423.9z"/>
		<path class="st177" d="M733.2,340.9c-12.9-0.5-26-0.4-38.4-4.7c-1.8-0.6-3.4-0.4-5.1,0c-1.6,0.4-4.1,1.2-5,0.4
			c-6.5-5.6-14.1-3-21.3-3.6c-2.7-4-3-10.3-10.2-10.1c-1.6,0.1-1.6-2.7-1.6-4.4c7.2-2.5,14.7-2.9,22.2-2.6c3.5,0.1,6.5-0.5,8.1-4
			c7.7,0.4,15.6-0.3,22.8,3.2c3.4,1.6,6.7,1.1,10.2,0.7c3.7-0.4,7.9-1.6,10.5,2.7c0.4,3.1,1.5,5.2,5.3,5.4c3.7,0.1,6.1,2.9,5,6.2
			c-1.6,5.1-0.1,7.2,4.8,7.9c0.7,0.1,1.4,1,2,1.6C739.2,339.1,736.2,340.1,733.2,340.9z"/>
		<path class="st178" d="M725.3,318.4c-0.8-0.3-1.7-1.1-2.4-1c-10.5,2.2-20.2-2.4-30.4-2.9c-3.8-0.2-7.3-1.2-10.7-2.7
			c-0.1-1.5,0.1-3.1-1.5-3.9c-3.9-2-4.1-5.5-3.8-9.3c4,0,7.9,0,11.9,0c2.2-2.3,5.2-2,8-2.1c15.3-0.1,30.5-0.1,45.8,0
			c3.9,0,7.9,0.2,10.9,3.4c6.2,2,11.1,5.3,13.2,11.9c-7,0.3-14.3-1.7-20.3,4.5c-1.5,1.5-5.5,0.8-8.3,0.8
			C733.4,317.1,729.3,317,725.3,318.4z"/>
		<path class="st179" d="M814.9,165.4c-8.4,3.4-16.7,2.2-25.2,0.3c-2.8-0.7-5.5,0.5-7.8,2.4c-13.4-3.1-26.8-6.4-40.2-9.1
			c-3.4-0.7-4.9-1.4-6.3-4.9c-1.8-4.3-4.5-8.9-10.1-9.7c-0.9-1.6-1.5-3.4-1.3-5.3c5.5,0,11,0.1,16.4,0c4.2-0.1,8.4-0.1,11.8,2.7
			c6,4.9,13.1-0.4,19.5,2.4c3.4,1.5,7.6,2.1,11.6,1.5c0.5-0.4,1.1-0.6,1.8-0.7c3.5-0.2,6.4,1.4,7.2,4.5c1,4-3.6,2.7-5.6,4.8
			c2,2.2,4.7,1.4,7,1.5c7.5,0.5,14.8,1.4,20.3,7.4C814.7,163.9,815.2,164.5,814.9,165.4z"/>
		<path class="st180" d="M814.9,165.4c-7.3-6.3-15.9-8.5-25.4-8c-2.5,0.2-6.1,0.5-5.9-3.2c0.2-4.2,3.6-3.4,6.5-2.7
			c0.3,0.1,0.8-0.3,1.7-0.6c-2.1-3.3-4.6-5.3-8.6-5.3c0.8-1.4,2.9-1.9,2.6-4c10.5,0.7,21.1-1.6,31.5,2.3c3.5,1.3,8.2,1.2,12-1
			c1.6,0.6,3.3,1.2,4.9,1.8c3.8,1.5,9.4,2.4,2.1,7.4c-2.3,1.6-1.9,4.3,1.6,5.2c1.3,0.3,2.6,1,3.8,0.9c8.1-0.9,14.1,3.8,20.7,7.2
			c-5.2,1.2-11.3-2.7-15.8,2.6c-4.3,1.1-8.2,0.7-12.4-1.1C828.1,164.4,821.4,165.5,814.9,165.4z"/>
		<path class="st181" d="M420.7,472.7c-1.8,2.8-4.2,4.2-7.3,5.6c-4.7,2.1-9.4,5.3-9.8,11.5c-13.2-3.1-27,1.5-40.2-2.5
			c-3.3-1-4.7,2.7-7.3,3.8c-1.2-1.6-3.6-2.6-1.7-5.4c4.7-7.2,3.6-9.3-5.7-11c5.1-1.4,9.8-2.5,8.7-8.7c2.3,1.6,4.4,2.5,7.7,1.9
			c6.3-1.2,12.6-0.4,19.1,1.9c7.1,2.4,15.1,2.2,22.7,2.8C411.5,473,416.1,472.7,420.7,472.7z"/>
		<path class="st182" d="M809.7,293.4c0,1.3,0,2.6,0,4c-14.8-2.1-29.7,1.7-44.6-1.1c-3.4-0.6-7.2,0.7-10.8-0.2
			c-3-0.4-5.7-2.1-8.6-2.7c-2.1-0.4-3.8-2-3.9-3.9c-0.2-4.2-2.4-7.3-4.6-10.5c3.6-0.7,7.9,1.9,10.5-2.6c2.7-0.1,4.1-1.8,5.3-4
			c0.6-0.4,1.2-0.6,1.9-0.6c3.7,0.1,7.3,1.1,11,1.3c11.2-3.6,22,2.6,33.1,1.6c1.5-0.1,3,0.4,4.1,1.6c-1.8,3.6-2.8,6.4,2.6,8.3
			C809.3,285.7,809.9,289.7,809.7,293.4z"/>
		<path class="st183" d="M754.3,272.3c-0.4,0-0.9,0-1.3,0c-5.4,0.2-8.1-5.8-13.4-5.9c-0.9,0-1.1-1.7-0.8-2.8
			c0.4-1.6,1.8-1.6,3.1-1.8c8.1-1.4,9.8-6.5,4.6-13.2c4.1,0.1,7.9,0,11.9,2.1c2.4,1.3,6.3,1.6,9.2-0.8c6.6,3,15,2.4,19.5,9.7
			c0.7,1.1,2.1,1.5,3.4,1.6c5.7,0.4,10.1,3.6,14.6,6.7c4.6,6.8,4.3,8.4-1.9,9.7c-3.3-2.6-7.1-1-10.7-1.2c-4.1-0.3-8.3,0.5-11.7-2.7
			c-2-1.8-4.2-0.8-6.1,0.1c-3.1,1.3-6.4,1.3-9.6,1.2C761.9,271.6,757.6,273.8,754.3,272.3z"/>
		<path class="st184" d="M801.7,238c-1.8,0.9-3.5,1.8-5.3,2.6c-0.1,5.5-3.1,7-8.2,6.5c-6.9-0.7-13.8-2.3-20.8-1.2
			c-7.1-0.9-14-2.4-21.2-2.9c-4.5-0.3-9.6-2.1-10.5-8c-0.3-1.7-1.2-3.4-2.7-3.2c-6.1,0.8-10.1-2.5-13.9-6.4
			c-0.6-0.6-2.1-0.3-3.1-0.5c4.4-3.5,8.7,1.2,13.1,0.1c2-0.5,4.7,0.7,6.3-0.9c6.8-6.8,14.2-3.1,21.4-1.3c3.2,0.8,6.3,1.7,9.2-0.5
			c2.9,0.8,6.1,2.9,8.6,2.3c9.3-2.2,15.9,5.6,24.6,5.9C803.5,230.5,801,235.3,801.7,238z"/>
		<path class="st185" d="M737.1,278.9c3.7,1.5,7.6,2.4,5.6,8.3c-0.8,2.3,1.2,4.8,4.6,4.9c2.9,0.1,5.5,1.1,7,3.9
			c-0.4,1.3-0.9,2.6-1.3,4c-21.5-2.9-43.1-0.6-64.6-1.3c-0.6-1.2-1-2.5-1.8-3.5c-2.4-3-2.2-4.7,2.1-4.4c8.2,0.5,5.3-6.9,7.6-10.6
			c1.8-1.2,3.7-0.3,5.6-0.3c7.3,0.2,14.8,1.4,21.9-1.6C728.2,276.4,732.6,280,737.1,278.9z"/>
		<path class="st186" d="M650.1,404.2c-5.7-2.7-11.7-3-17.8-2.6c-3.5,0.2-6.6-0.3-9.7-2.7c-3.8-2.9-8.9-0.8-13.4-1.3
			c3.2-3.3,3.7-7.8,5.3-11.9c7,3.5,14.1,4.1,21.3,0.7c3.2-1.5,6,0.3,8.9,0.6c7.1,0.5,14.5-1.6,21.2,2.7c2.3,2.3,5.3,1.4,7.9,1.2
			c6.2-0.6,8.9,1.8,7.9,8c-9.4-1.8-17.4,4.5-26.5,4.7C653.5,403.6,651.8,404,650.1,404.2z"/>
		<path class="st135" d="M701.5,592.8c-24.2,0.2-48.3-3.3-72.5,0c0-5.2,0.3-10.5-0.1-15.7c-0.5-5.4,1-8.7,6.7-9.4
			c5.9-3.6,12.4-2,18.6-1.5c12.9,1,25.8,0.8,38.6,2.1c3,0.3,6.2-0.2,8.7,2C701.5,577.8,701.5,585.3,701.5,592.8z"/>
		<path class="st187" d="M701.5,570.3c-17.7-1-35.5,0.1-53.1-3.7c-4.3-0.9-8.5,2-12.9,1.1c1.8-3.3,4.2-4.7,8.1-3.3
			c1.8,0.6,4.6,1.3,5.7,0.4c7.9-6.5,19.7-3.5,27.1-11.3c2.4-2.6,6.7-3.1,10.5-2.9c4.5,0.2,8.2-1.2,10.5-5.3c1.3,0,2.6,0,3.9,0
			C701.5,553.6,701.5,562,701.5,570.3z"/>
		<path class="st188" d="M516.9,463.5c7.4,1.7,15.1,0.6,22.6,3c4,1.3,9-0.2,13.5-0.4c3.5-0.1,6.6,0.2,9.8,2.6
			c3.8,3,8.9,0.8,13.4,1.3c4.7-0.3,8,1.1,7.9,6.6c-3.6,4.1-7.9,7-13,9.2c-4.5,2-7.9,6.2-13.3,6.6c-2.4-1.5-5-1.5-7.6-1.3
			c-11.2,1.1-22.4-2.2-33.6-0.2c-2.4,0.4-5.1-0.8-7.6-1.2c0.1-4.2,0.2-7.9-4.9-10.1c-3.7-1.6-2.5-6.6-4.4-9.7
			C504.1,463.6,510.7,461.1,516.9,463.5z"/>
		<path class="st189" d="M767.5,245.9c1.4-3.1,4.4-3.3,6.7-2.4c5,1.9,10.4,0.2,15.4,2.1c4.6,1.8,5.1-2.6,7-4.9
			c9.7,4,20.6,2.8,30.4,6.7c4.1,1.7,9.2,1.6,9.6,8c0.1,2.3,2.8,2.4,4.8,2.5c4.1,0.3,5.8,2.5,5.3,6.5c-5,0.2-10.6-0.9-13.2,5.3
			c-4.6,5.1-10.5,5.5-16.1,3c-4.2-1.9-8.5-3.3-12.9-4.3c-5.8-1.4-10.3-6.8-16.9-5.5c-0.2,0-0.5-0.1-0.6-0.2
			c-3.1-9.4-14.4-6.3-19.4-12.8C768.3,248.5,768.3,247.2,767.5,245.9z"/>
		<path class="st190" d="M337.6,540c-9.3,0-18.7,0-28,0c-2.6,0-5.2,0.1-7.6-1.3c-4.6-2.3-10.5,0.3-14.6-4.2c-0.9-1-2.7,0.1-3.3,1.1
			c-2.7,4.7-5.5,2.8-8.5,0.5c0.7-1.1,1.2-3.2,2-3.2c8.6-0.7,14.8-8,23.3-8.6c3.8-0.2,7.3-0.6,10.3-3.2c2.3-1.9,5-2.5,8-2.2
			c11.7,2.5,22.8,7.8,35.2,6.7c3.8-0.4,7.5-0.7,10.1,3.9c2,3.5,7.2-0.4,10.1,2.7c-6.7,0.3-13.4-1-19.7,3.4c-2.3,1.6-6.4,0.7-9.7,0.5
			C341.8,535.9,339.1,536.8,337.6,540z"/>
		<path class="st191" d="M804.4,268.3c3.1-2.2,6.9-1.6,9.1,0.3c6.6,5.7,13.2,3.4,19.9,1c4.2,2.1,8.6,3,13.2,2.7
			c3.7-0.2,7.4-0.2,9.8,3.6c1.3,2,3.2,1.4,5.2,0.9c4.9-1.4,7,1.4,5.7,5.6c-1.3,4.3-0.1,6.1,3.8,6.8c2.6,0.5,3.5,2.3,4.4,4.3
			c-22,0-44,0-65.9,0c-2.2-4-3.1-9.1-9.2-9.5c-1.6-0.1-2.7-1.6-2.4-3.4c0.5-2.9,2.8-3,5-3C810.1,275.4,804.7,271.5,804.4,268.3z"/>
		<path class="st192" d="M516.9,463.5c-6.8-0.7-11.8,3.3-17.1,6.6c-15.3,2.3-30.8-0.3-46.2,1.3c-4.4-3.1-9-3.2-14.1-1.8
			c-2.2,0.6-4.7,0.3-7,0.4c1.1-6.4-3.7-11.9-3-18.4c0.2-2.5-2.8-3.2-5.1-2.4c-2.6,0.9-5.1,1-7.7,1c5.2-7,12.4-4.4,18.6-2.9
			c5.3,1.3,10.1,2.4,15.2-0.1c3.3-1.6,7-1.5,10.3-0.7c8.1,1.8,15.8,2.4,24,0c4.7-1.4,9.8,2,14.9,1c2.1,0,3.8,0.2,3.9,3.1
			c0.3,8.3,2.5,9.9,11.2,8.4c1.4-0.3,3-1.6,4.1,0.2C520.4,461.5,517.6,462.1,516.9,463.5z"/>
		<path class="st83" d="M754.3,272.3c3.6,0.7,7.9-1.9,10.5,2.6C761.5,273.3,757.4,274.6,754.3,272.3z"/>
	</g>
</g>
</svg>
