<?xml version="1.0" encoding="utf-8"?>
<!-- Generator: Adobe Illustrator 25.1.0, SVG Export Plug-In . SVG Version: 6.00 Build 0)  -->
<svg version="1.1" id="Camada_1" xmlns="http://www.w3.org/2000/svg" xmlns:xlink="http://www.w3.org/1999/xlink" x="0px" y="0px"
	 viewBox="0 0 1080 1080" style="enable-background:new 0 0 1080 1080;" xml:space="preserve">
<style type="text/css">
	.st0{fill:#D78E3F;}
	.st1{fill:#C3476B;}
	.st2{fill:#C57D99;}
	.st3{fill:#DFA55A;}
	.st4{fill:#D7918B;}
	.st5{fill:#DA986E;}
	.st6{fill:#CC6E86;}
	.st7{fill:#C2448E;}
	.st8{fill:#54448F;}
	.st9{fill:#C4445B;}
	.st10{fill:#775598;}
	.st11{fill:#AC70A5;}
	.st12{fill:#5F4690;}
	.st13{fill:#C3487F;}
	.st14{fill:#915496;}
	.st15{fill:#6B4992;}
	.st16{fill:#A34F94;}
	.st17{fill:#CD6C54;}
	.st18{fill:#D0774B;}
	.st19{fill:#D68A4E;}
	.st20{fill:#D68C6A;}
	.st21{fill:#D17B63;}
	.st22{fill:#C75777;}
	.st23{fill:#C8607E;}
</style>
<g>
	<g>
		<path class="st0" d="M406.82,85.48c22.31-8.73,46.08-11.45,69.23-16.71c4.33,0.09,8.66,0.18,12.99,0.26
			c7.84,0.16,15.68,0.33,23.52,0.49c7.72-1.04,16.44,2.98,22.88-4.51c3.04,0,6.09,0,9.13,0c8.07,8.15,18.3,3.16,27.49,4.55
			c7.74-0.12,15.48-0.23,23.22-0.35c38.16,2.43,74.71,11.78,110.17,25.75c-5.13,13.43,11.32,21.93,7.98,34.94
			c-18.02-3.08-33.68-15.57-54.81-14.45c9.12,11.47,16.99,21.37,24.85,31.27c-10.53,5.95-22.02,5.33-33.48,4.9
			c-20.62-18.99-41.35-37.61-68.46-47.48c-16.15-5.88-26.3-5.98-23.96,15.8c0.96,8.93-0.41,18.11-0.73,27.18
			c-10.02-1.5-20.03-3.01-30.05-4.51c-0.28-9-1.74-18.16-0.58-26.97c2.48-18.79-7.04-17.24-19.53-13.12
			c-25.59,8.43-46.01,24.91-66.26,41.73c-4.92-10.64-14.53-13.82-24.96-15.72c2.78-3.96,8.19-8.34,7.65-11.79
			c-0.67-4.23-7.18-0.61-11.02-1.55C410.33,105.29,408.58,95.38,406.82,85.48z"/>
		<path class="st1" d="M65.01,567.4c0-16.75,0-33.49,0-50.24c1.48,0.07,2.96,0,4.43-0.21c-0.03,16.96-0.07,33.92-0.1,50.88
			C67.91,567.55,66.46,567.41,65.01,567.4z"/>
		<path class="st2" d="M65.01,567.4c1.46,0,2.9,0.15,4.33,0.42c-0.05,10.66-0.1,21.33-0.15,31.99l-2.06-0.48l-2.12,0.03
			C65.01,588.72,65.01,578.06,65.01,567.4z"/>
		<path class="st3" d="M572.05,69.55c-9.18-1.38-19.42,3.6-27.49-4.55c9.13,0,18.27,0,27.4,0C571.98,66.52,572,68.04,572.05,69.55z"
			/>
		<path class="st4" d="M65.01,480.63c1.45,0.31,2.87,0.22,4.27-0.28c-0.03,7.63-0.07,15.25-0.1,22.88
			c-1.38,0.24-2.77,0.31-4.17,0.24C65.01,495.85,65.01,488.24,65.01,480.63z"/>
		<path class="st5" d="M572.05,69.55c-0.05-1.52-0.08-3.03-0.08-4.55c7.61,0,15.22,0,22.84,0c-0.29,1.45-0.13,2.85,0.46,4.2
			C587.53,69.32,579.79,69.44,572.05,69.55z"/>
		<path class="st3" d="M535.43,65.01c-6.45,7.49-15.16,3.47-22.88,4.52c0.03-1.5,0.05-3.01,0.05-4.52
			C520.21,65.01,527.82,65.01,535.43,65.01z"/>
		<path class="st5" d="M512.6,65.01c0,1.51-0.01,3.01-0.05,4.52c-7.84-0.17-15.68-0.33-23.52-0.49c0.63-1.27,0.87-2.61,0.72-4.02
			C497.37,65.01,504.98,65.01,512.6,65.01z"/>
		<path class="st6" d="M65.01,503.46c1.4,0.08,2.79,0,4.17-0.23c0.09,4.58,0.17,9.15,0.26,13.73c-1.47,0.21-2.95,0.28-4.43,0.21
			C65.01,512.6,65.01,508.03,65.01,503.46z"/>
		<path class="st7" d="M214.64,887.54c-28.83-25.02-53.19-53.74-72.17-86.93c5.56-8.51,11.12-17.02,22.43-18.59
			c6.69,9.14,14.25,17.77,19.88,27.52c8.5,14.71,17.7,16.9,32.92,8.38c25.74-14.41,53.36-25.17,82-32.55
			c14.33-3.69,20.53-9.37,14.84-25.15c-4.29-11.91-5.43-24.96-7.97-37.51c10.59,1.51,21.18,3.02,31.77,4.53
			c2.58,8.72,6.15,17.29,7.5,26.2c2.01,13.24,7.52,17.91,21.33,14.79c47.52-10.76,95.8-16.25,144.49-17.37
			c10.67-0.25,14.75-3.71,14.52-14.63c-0.41-19.73,0.42-39.48,0.73-59.22c10.64-0.68,18.49-10.49,29.76-9.11
			c0.36,22.33,0.76,44.66,1.06,66.99c0.1,7.43-1.12,15.46,9.61,16.69c-8.82,17.47-30.74,17.09-42.2,30.96
			c-38.81-0.52-77.21,4.42-115.48,9.79c-48.47,6.8-48.39,7.34-32.5,52.87c-8.55,6.13-19.25,9.53-24.78,19.5
			c-16.71-13.87-6.46-49.8-33-50.75c-20.97-0.75-42.47,13.42-63.74,20.97c-0.71,0.25-1.34,0.69-2.03,0.98
			c-34.11,14.47-34.11,14.47-9.73,40.04C236.46,885.67,225.36,886.11,214.64,887.54z"/>
		<path class="st8" d="M795.72,945.82c-115.32,72.41-239.11,90.93-370.93,58.28c1.15-10.77,8.69-16.49,17.94-15.88
			c15.82,1.04,26.33-7.15,36.9-16.45c5.39,2.39,10.73,4.9,16.19,7.14c29.1,11.9,29.11,11.88,30.89-18.69
			c10.08,0.01,20.16,0.03,30.24,0.04c1.93,30.47,2.42,30.61,32.18,18.25c19.14-7.95,34.25-21.71,50.62-33.7
			c10.09,7.55,23.06,0.21,33.4,6.45c-4.16,5.12-8.32,10.24-12.48,15.36c-1.25,1.73-2.51,3.45-3.77,5.17
			c2.94,1.88,5.46,1.9,7.18-1.61c32.29-5.53,60.51-21.8,90.21-34.17c4.63,11.41,12.14,11.37,22.12,6.67
			C782.85,939.62,791.66,930.78,795.72,945.82z"/>
		<path class="st9" d="M69.44,516.95c-0.08-4.57-0.17-9.15-0.26-13.73c0.03-7.63,0.06-15.25,0.1-22.88
			c7.72-61.91,25.98-120.25,58.7-173.71c10.58,1.88,20.15,5.35,25.01,16.12c-29.29,57.1-49.31,116.96-55.58,181.22
			c-1.65,16.86,1.11,24,20.56,23.29c38.59-1.4,77.29,0.15,115.94,0.48c0.02,10.01,0.03,20.02,0.05,30.03
			c-31.67,0.3-63.34,0.73-95.01,0.86c-44.18,0.18-44.18,0.08-39.49,44.68c-9.8,0.18-19.6,0.35-29.4,0.53
			c-0.75-1.25-1.04-2.6-0.87-4.04c0.05-10.67,0.1-21.33,0.15-31.99C69.37,550.87,69.4,533.91,69.44,516.95z"/>
		<path class="st10" d="M961.35,768.57c-11.99,27.25-28.49,51.52-48.57,73.43c-17.05,2.68-36.49-9.26-51.06,8.42
			c-22.28-9.42-44.26-19.63-66.9-28.1c-36.87-13.79-37.05-13.31-53.6,19.2c-10.9-0.08-21.79-0.15-32.69-0.23
			c0.53-13.99,18.15-28.44,9.12-38.48c-7.79-8.66-26.76-7.32-40.8-10.29c-4.43-0.94-8.94-1.53-13.41-2.29
			c1.08-9.58,9.51-6.9,15.06-9.3c8.3-3.59,19.51-3.3,22.14-15.22c16.11,2.22,35.01,11.52,39.55-15.59
			c10.27,0.12,20.54,0.24,30.81,0.36c-9.65,22.9-1.27,32.16,22.47,38.08c25.36,6.32,49.8,17.87,73.21,29.92
			c14.86,7.65,22.88,5.47,31.3-7.87c9.22-14.61,19.95-28.28,30.02-42.35C939.1,768.35,950.22,768.46,961.35,768.57z"/>
		<path class="st5" d="M903.42,233.42c31.09,31.79,54.23,68.69,70.7,109.88c-7.22,7.68-16.5,11.43-26.46,13.88
			c-15.18-29.51-31.72-58.12-51.64-84.81c-7.66-10.26-14.25-12.2-26.25-6.27c-30.98,15.32-62.27,30.37-96.8,36.51
			c-14-14.32-32.54-16.23-50.9-18.63c-6.08-16.32-12.17-32.65-18.25-48.97c5.53-8.14,11.61-5.68,17.03-0.28
			c5.71,5.68,11.86,9.38,20.16,8.37c16.8,33.54,16.91,33.85,53.57,20.69c17.77-6.37,35.16-13.85,52.45-21.47
			c5.77-2.54,13.82-3.83,13.6-13.07C875.86,220.59,888.45,239.21,903.42,233.42z"/>
		<path class="st3" d="M903.42,233.42c-14.97,5.79-27.55-12.83-42.8-4.17c-43.66-41.13-92.8-74.12-147.2-99.34
			c3.34-13.02-13.1-21.51-7.98-34.94C784.57,122.32,850.92,167.97,903.42,233.42z"/>
		<path class="st4" d="M947.66,357.18c9.96-2.45,19.24-6.19,26.46-13.88c26.71,50.1,39.72,103.89,43.16,160.26
			c-10.5-1.79-20.09,2.51-30.02,4.53C979.09,456.47,968.92,405.37,947.66,357.18z"/>
		<path class="st2" d="M987.26,508.09c9.93-2.02,19.52-6.32,30.02-4.53c2.56,29.04,4.99,58.08-1.68,86.94
			c-9.69-0.17-19.38-0.33-29.07-0.5c0.46-30.36,0.46-30.35-31.19-31.58c-1.46-0.06-2.91-0.44-4.36-0.68
			c2.61-9.8,6.09-19.47,4.51-29.9C966.95,522.67,990.6,537.08,987.26,508.09z"/>
		<path class="st11" d="M986.52,590.01c9.69,0.16,19.38,0.33,29.07,0.5c-1.25,37.96-9.08,74.48-23.93,109.46
			c-10.53,1.09-20.49-1.71-30.45-4.47C972.58,661.03,979.45,625.49,986.52,590.01z"/>
		<path class="st1" d="M70.05,603.86c9.8-0.18,19.6-0.35,29.4-0.53c6.83,35.87,15,71.39,28.2,105.56
			c-8.67,4.34-20.01,1.95-26.96,10.65C83.51,682.82,73.51,644.21,70.05,603.86z"/>
		<path class="st12" d="M795.72,945.82c-4.06-15.04-12.87-6.2-19.33-3.16c-9.98,4.71-17.49,4.74-22.12-6.67
			c22.55-14.95,45.09-29.89,67.64-44.84c13.99,9.17,28.99-5.55,43.05,1.83C844.57,914.12,821.67,931.97,795.72,945.82z"/>
		<path class="st12" d="M479.62,971.76c-10.57,9.3-21.07,17.5-36.9,16.45c-9.25-0.61-16.79,5.11-17.94,15.88
			c-15.67-3.08-30.95-7.42-45.48-14.14c-0.77-11.66,15.65-13.39,14.58-25.23c7.79,2.02,15.66,3.8,23.34,6.16
			c4.45,1.37,8.69,3.79,7.85-4.17c1.56-15.65,17.57-9.27,24.81-16.27C459.8,957.56,469.71,964.66,479.62,971.76z"/>
		<path class="st13" d="M100.69,719.54c6.95-8.7,18.28-6.31,26.96-10.65c12.42,24.38,24.83,48.76,37.25,73.14
			c-11.31,1.57-16.87,10.08-22.43,18.59C124.21,775.82,110.01,748.94,100.69,719.54z"/>
		<path class="st14" d="M961.21,695.49c9.97,2.76,19.92,5.56,30.45,4.47c-6.78,24.34-16.57,47.35-30.32,68.61
			c-11.12-0.11-22.24-0.22-33.36-0.32C939.06,743.99,950.14,719.74,961.21,695.49z"/>
		<path class="st15" d="M393.88,964.73c1.07,11.83-15.35,13.56-14.58,25.23c-25.82-7.9-50.05-19.18-72.58-34.08
			c6.61-6.98,13.26-13.93,14.42-24.16C345.39,942.73,369.64,953.73,393.88,964.73z"/>
		<path class="st15" d="M864.97,892.99c-14.06-7.39-29.07,7.34-43.05-1.83c11.95-14.86,30.55-23.24,39.8-40.75
			c14.57-17.67,34.02-5.74,51.06-8.42C899.2,861.21,883.76,878.66,864.97,892.99z"/>
		<path class="st16" d="M214.64,887.54c10.71-1.44,21.82-1.88,29.25-11.58c16.5,12.83,33,25.66,49.5,38.49
			c-9.63,4.81-19.26,9.63-28.9,14.44C245.71,917.73,229.28,903.71,214.64,887.54z"/>
		<path class="st14" d="M264.5,928.89c9.63-4.81,19.26-9.63,28.9-14.44c9.25,5.76,18.5,11.52,27.75,17.28
			c-1.17,10.23-7.81,17.18-14.42,24.16C290.99,949.49,277.15,940.12,264.5,928.89z"/>
		<path class="st17" d="M152.98,322.75c-4.86-10.77-14.42-14.23-25.01-16.12c29.69-57.1,71.61-103.59,123.14-141.71
			c8.19,6.34,16.39,12.68,24.58,19.02c-15.15,13.53-30.2,27.19-45.51,40.54c-8.01,6.99-7.64,11.89,2.51,15.93
			c22.38,8.91,45.08,17.16,66.88,27.32c19.67,9.17,33.69,8.63,39.36-15.52c10.43,1.53,20.86,3.07,31.29,4.6
			c-9.09,27.2-9.12,27.38,20.47,33.27c16.17,3.22,32.48,5.7,48.73,8.51c-0.01,10.08-0.03,20.15-0.04,30.23
			c-8.91-1.07-17.85-1.97-26.73-3.26c-19.97-2.9-44.22-14.33-58.72-6.82c-16.39,8.49-11.59,37.84-19.82,56.91
			c-10.15-0.87-16.85-11.9-28.1-9.55c0.23-15.37,5.11-29.79,9.4-44.28c3.19-10.77,0.73-16.74-10.99-19.84
			c-32.32-8.56-63.18-21.26-92.74-36.76c-10.22-5.36-16.21-4.07-22.45,5.41C177.61,288.31,165.12,305.41,152.98,322.75z"/>
		<path class="st18" d="M275.7,183.95c-8.19-6.34-16.39-12.68-24.58-19.02c46.27-37.52,98.32-63.7,155.71-79.44
			c1.75,9.9,3.51,19.8,5.27,29.71C363.56,132.03,318.07,154.89,275.7,183.95z"/>
		<path class="st18" d="M338.94,252.22c16.28-46.94,41.78-88.17,76.52-123.69c10.42,1.9,20.04,5.08,24.95,15.72
			c-29.63,33.64-51.4,72.18-70.18,112.58C359.8,255.29,349.37,253.76,338.94,252.22z"/>
		<path class="st19" d="M556.84,147.12c-0.01,42.62-0.02,85.25-0.04,127.87c-10.02-1.52-20.04-3.03-30.06-4.55
			c0.02-42.61,0.03-85.22,0.05-127.83C536.81,144.11,546.82,145.62,556.84,147.12z"/>
		<path class="st3" d="M683.46,146.72c25.95,28.08,44.63,60.5,57.54,96.36c-8.3,1.01-14.45-2.68-20.16-8.37
			c-5.41-5.39-11.49-7.85-17.03,0.28c-16.1-28.99-33.64-57.04-53.83-83.38C661.45,152.05,672.94,152.67,683.46,146.72z"/>
		<path class="st13" d="M320.27,608.48c6.03,39.59,12.05,79.19,18.08,118.78c-10.59-1.51-21.18-3.02-31.77-4.53
			c-11.05-38.84-15.59-78.61-16.92-118.83C299.85,605.42,310.06,606.95,320.27,608.48z"/>
		<path class="st16" d="M526.66,804.96c-0.5-7.47-1-14.95-1.51-22.42c11.46-13.87,33.38-13.48,42.2-30.96
			c23.11-2.4,45.76,2.19,68.57,4.41c-1.29,10.46-10.66,18.43-9.17,29.75c-18.09-1.04-36.22-1.6-54.24-3.32
			c-10.72-1.02-15.59,2.79-15.5,13.36C545.53,794.31,537.5,804.29,526.66,804.96z"/>
		<path class="st13" d="M556.77,604.02c-0.03,21.3-0.06,42.59-0.09,63.89c-11.27-1.38-19.12,8.43-29.76,9.11
			c-0.04-25.87-0.07-51.74-0.11-77.61C536.8,600.94,546.79,602.48,556.77,604.02z"/>
		<path class="st16" d="M365.26,889.05c-6.28-7.06-10.82-15.04-12.87-24.34c5.53-9.97,16.22-13.38,24.78-19.51
			c4.32,8.83,8.64,17.67,12.96,26.51C385.43,882.64,370.77,879.29,365.26,889.05z"/>
		<path class="st12" d="M713.64,896.27c-10.47,20.57-23.89,38.95-40.51,54.98c-10.35-6.24-23.31,1.1-33.4-6.45
			c14.91-19.51,29.81-39.02,44.72-58.53C694.18,889.61,703.91,892.94,713.64,896.27z"/>
		<path class="st12" d="M556.97,914.59c-0.01,15.22-0.02,30.44-0.03,45.66c-10.08-0.01-20.16-0.03-30.24-0.04
			c0-13.7-0.01-27.39-0.01-41.09C536.62,916.52,546.42,913.02,556.97,914.59z"/>
		<path class="st1" d="M233.9,527.75c17.32-4.45,40.93,8.08,51.2-6.28c8.48-11.87,2.92-33.5,4.35-50.74
			c1.12-13.5,3.43-26.9,5.21-40.35c13.75-4.01,16.1,16.23,29.16,13.71c-1.27,22.5-2.07,45.03-3.99,67.47
			c-1.04,12.15,3.51,15.74,15.2,15.44c19.54-0.5,39.12,0.39,58.68,0.69c-2.12,13.13,18.31,15.93,13.8,30.15
			c-22.72,0.27-45.49,1.6-68.14,0.45c-16.46-0.84-21.47,5.06-19.45,20.69c1.25,9.68,0.31,19.65,0.36,29.49
			c-10.21-1.53-20.42-3.06-30.62-4.59c-4.09-44.13-4.09-44.12-48.93-45.3c-2.26-0.06-4.51-0.53-6.76-0.8
			C233.93,547.77,233.92,537.76,233.9,527.75z"/>
		<path class="st15" d="M713.64,896.27c-9.73-3.33-19.46-6.66-29.19-10c8.02-15,16.05-29.99,24.07-44.98
			c10.9,0.08,21.79,0.15,32.69,0.23C735.36,861.45,725.97,879.6,713.64,896.27z"/>
		<path class="st14" d="M663.43,790.23c-12.22-1.49-24.45-2.99-36.67-4.48c-1.49-11.32,7.87-19.29,9.17-29.75
			c21.85,1.36,43.55,3.75,64.7,9.72c-2.63,11.91-13.84,11.63-22.14,15.22C672.94,783.33,664.5,780.65,663.43,790.23z"/>
		<path class="st14" d="M778.33,713.72c0.21,12.78-3.83,24.72-7.35,36.75c-10.26-0.12-20.53-0.24-30.8-0.36
			c-0.3-9.69,3.01-18.55,6.29-27.42C758.39,724.32,766.78,713.41,778.33,713.72z"/>
		<path class="st20" d="M772.96,302.61c-8.65,4.31-6.78,11.02-4.88,18.44c3.44,13.47,6.07,27.15,9.04,40.75
			c-10.38-0.01-20.76-0.02-31.13-0.02c-2.34-7.94-5.87-15.74-6.77-23.83c-2.18-19.44-9.98-23.89-29.79-18.9
			c-28.32,7.13-57.48,12.5-87.17,11.13c1.58-10.08-3.28-19.06-4.89-28.59c34.9-5.87,69.8-11.74,104.7-17.61
			C740.42,286.39,758.96,288.3,772.96,302.61z"/>
		<path class="st6" d="M786.71,416.75c6.12,29.05,9.81,58.53,8.67,88.09c-0.73,18.83,6.44,22.47,23.52,22.2
			c45.52-0.72,91.06,0.41,136.59,0.81c1.58,10.43-1.9,20.1-4.51,29.9c-44.45,0.3-88.9,1.3-133.33,0.55
			c-16.1-0.27-23.62,3.05-22.18,20.88c1.01,12.55-1.61,25.4-2.6,38.11c-11.56-0.15-19.87,10.95-31.89,9.25
			c0.88-22.54,1.75-45.07,2.63-67.61c2.47-10.96-4.45-20.59-4.42-31.21c7.61-5.69,4.76-13.89,4.23-20.94
			c-2.35-31.52-5.34-62.99-8.11-94.48C765.77,413.79,776.24,415.27,786.71,416.75z"/>
		<path class="st15" d="M425.08,966.72c-9.72-5.92-16.3-14.78-22.45-24.03c1.23-13.65,11.62-16.49,22.34-18.93
			c8.31,8.9,16.61,17.8,24.92,26.69C442.65,957.45,426.64,951.07,425.08,966.72z"/>
		<path class="st21" d="M526.7,425.89c-0.25-24.14-1.53-48.33-0.38-72.41c0.74-15.49-5.1-19.64-19.38-19.09
			c-22.66,0.87-45.18-1.82-67.54-5.57c0.01-10.08,0.03-20.15,0.04-30.23c17.34,1.19,34.66,2.78,52.02,3.49
			c33.4,1.36,33.41,1.16,35.29-31.65c10.02,1.52,20.04,3.03,30.06,4.55c-3.33,24.58,8.28,31.68,31.04,27.65
			c9.6-1.7,19.67-0.78,29.52-1.06c1.61,9.53,6.48,18.51,4.89,28.59c-13.83,5.59-28.59,4.78-42.71,3.86
			c-18.86-1.22-22.96,6.76-22.05,23.76c1.12,21.13-0.27,42.39-0.57,63.59C546.84,422.89,536.77,424.39,526.7,425.89z"/>
		<path class="st9" d="M334.12,375.66c-3.43,22.81-6.87,45.62-10.3,68.43c-13.06,2.52-15.41-17.72-29.16-13.71
			c1.91-21.75,4.22-43.44,11.36-64.27C317.27,363.76,323.97,374.79,334.12,375.66z"/>
		<path class="st22" d="M393.71,527.7c38.67-0.32,77.34-0.91,116-0.8c10.54,0.03,17.98-1.55,16.96-14.28
			c10.09,0.02,20.18,0.04,30.27,0.06c0.2,9.33,3.07,14.74,14.3,14.34c18.46-0.64,36.98,0.39,55.48,0.72
			c0.01,10.01,0.02,20.02,0.03,30.02c-6.77,0.27-13.54,0.75-20.31,0.79c-46.34,0.23-46.34,0.2-49.65,45.45
			c-9.99-1.54-19.97-3.07-29.96-4.61c-2.56-40.76-2.56-40.65-44.85-40.74c-24.82-0.06-49.64-0.53-74.46-0.81
			C412.02,543.63,391.58,540.82,393.71,527.7z"/>
		<path class="st23" d="M626.74,557.78c-0.01-10.01-0.02-20.02-0.03-30.03c44.15-0.01,88.31-0.02,132.46-0.03
			c-0.03,10.62,6.89,20.25,4.42,31.21C717.98,558.55,672.36,558.16,626.74,557.78z"/>
		<path class="st16" d="M778.33,713.72c-11.55-0.31-19.94,10.6-31.86,8.97c2.51-12.29,5.02-24.59,7.53-36.88
			c10.38-1.34,20.31-6.2,31.14-3.95C783.32,692.58,783.68,703.76,778.33,713.72z"/>
		<path class="st11" d="M785.15,681.87c-10.83-2.26-20.76,2.61-31.14,3.95c0.21-12.26,0.61-24.49,4.95-36.18
			c10.15-0.23,20.29-0.45,30.44-0.68C787.98,659.93,786.56,670.9,785.15,681.87z"/>
		<path class="st2" d="M789.39,648.96c-10.15,0.23-20.29,0.45-30.44,0.68c0.67-7.7,1.34-15.39,2.01-23.09
			c12.02,1.69,20.33-9.4,31.89-9.25C794.11,628.11,791.71,638.53,789.39,648.96z"/>
		<path class="st15" d="M556.97,914.59c-10.55-1.57-20.35,1.94-30.28,4.53c0.03-25.82,0.05-51.64,0.08-77.46
			c12.04-0.11,16.58-16.85,30.13-13.61C556.93,856.89,556.95,885.74,556.97,914.59z"/>
		<path class="st10" d="M424.97,923.76c-10.72,2.44-21.11,5.28-22.34,18.93c-9.69-8.97-17.63-19.23-23.2-31.26
			c6.05-8.64,18.02-12.04,20.82-23.55C408.48,899.83,416.72,911.8,424.97,923.76z"/>
		<path class="st14" d="M556.9,828.05c-13.56-3.24-18.09,13.5-30.13,13.61c-0.04-12.23-0.07-24.46-0.11-36.69
			c10.84-0.68,18.87-10.65,30.35-9.18C556.98,806.54,556.94,817.29,556.9,828.05z"/>
		<path class="st14" d="M400.24,887.87c-2.79,11.51-14.77,14.91-20.82,23.55c-6.78-6.15-11.25-13.77-14.16-22.38
			c5.51-9.76,20.17-6.41,24.86-17.34C393.5,877.1,396.87,882.48,400.24,887.87z"/>
		<path class="st4" d="M786.71,416.75c-10.47-1.48-20.94-2.97-31.41-4.45c-4.56-16.57-8.51-33.26-9.31-50.53
			c10.38,0.01,20.76,0.02,31.13,0.02C783.25,379.61,786.91,397.84,786.71,416.75z"/>
		<path class="st22" d="M556.92,421.38c0.02,24.28,0.03,48.57,0.05,72.85c-10.11,0.02-20.21,0.04-30.32,0.06
			c0.02-22.8,0.03-45.61,0.05-68.41C536.77,424.39,546.84,422.89,556.92,421.38z"/>
		<path class="st23" d="M526.65,494.3c10.11-0.02,20.21-0.04,30.32-0.06c-0.01,6.15-0.02,12.3-0.03,18.45
			c-10.09-0.02-20.18-0.04-30.27-0.06C526.66,506.52,526.66,500.41,526.65,494.3z"/>
	</g>
</g>
</svg>
