<?xml version="1.0" encoding="utf-8"?>
<!-- Generator: Adobe Illustrator 25.1.0, SVG Export Plug-In . SVG Version: 6.00 Build 0)  -->
<svg version="1.1" id="Camada_1" xmlns="http://www.w3.org/2000/svg" xmlns:xlink="http://www.w3.org/1999/xlink" x="0px" y="0px"
	 viewBox="0 0 1080 1080" style="enable-background:new 0 0 1080 1080;" xml:space="preserve">
<style type="text/css">
	.st0{fill:#F1D681;}
	.st1{fill:#BC8AA4;}
	.st2{fill:#C23738;}
	.st3{fill:#C4433E;}
	.st4{fill:#F1D872;}
	.st5{fill:#DB9E92;}
	.st6{fill:#D8927A;}
	.st7{fill:#D17740;}
	.st8{fill:#DFCD95;}
	.st9{fill:#C24674;}
	.st10{fill:#D5897C;}
	.st11{fill:#5870AF;}
	.st12{fill:#A470A7;}
	.st13{fill:#976BA3;}
	.st14{fill:#D17B82;}
	.st15{fill:#CF9B9B;}
	.st16{fill:#C54D89;}
	.st17{fill:#A0438F;}
	.st18{fill:#C89BA2;}
	.st19{fill:#FDFDFD;}
	.st20{fill:#B78BAC;}
	.st21{fill:#8967A1;}
	.st22{fill:#DA8D90;}
	.st23{fill:#D28B92;}
	.st24{fill:#C44F84;}
	.st25{fill:#C34669;}
	.st26{fill:#96428E;}
	.st27{fill:#89418D;}
	.st28{fill:#D69391;}
	.st29{fill:#4073B2;}
	.st30{fill:#DDA06E;}
	.st31{fill:#8B82B4;}
	.st32{fill:#C2B5B7;}
	.st33{fill:#9789B8;}
	.st34{fill:#E6BAB3;}
	.st35{fill:#C44843;}
	.st36{fill:#A4649F;}
	.st37{fill:#B74A93;}
	.st38{fill:#DEA279;}
	.st39{fill:#C24874;}
	.st40{fill:#F0D676;}
	.st41{fill:#E5B76D;}
	.st42{fill:#E1A98F;}
	.st43{fill:#DB8D8D;}
	.st44{fill:#AC418D;}
	.st45{fill:#A0ABD0;}
	.st46{fill:#F0D387;}
	.st47{fill:#F0D37A;}
	.st48{fill:#EFCF81;}
	.st49{fill:#C58299;}
	.st50{fill:#AB76A8;}
	.st51{fill:#B17AA6;}
	.st52{fill:#BF7F9A;}
	.st53{fill:#B77DA1;}
	.st54{fill:#C38A9C;}
	.st55{fill:#CC6443;}
	.st56{fill:#C33D3A;}
	.st57{fill:#C54B3F;}
	.st58{fill:#C33F41;}
	.st59{fill:#EFD075;}
	.st60{fill:#D49C96;}
	.st61{fill:#DCA08C;}
	.st62{fill:#DEA391;}
	.st63{fill:#D8A29B;}
	.st64{fill:#DA9A77;}
	.st65{fill:#D9957F;}
	.st66{fill:#E6CE90;}
	.st67{fill:#E0C897;}
	.st68{fill:#C2497B;}
	.st69{fill:#C03F77;}
	.st70{fill:#C3486E;}
	.st71{fill:#C24379;}
	.st72{fill:#C13F7E;}
	.st73{fill:#5667A7;}
	.st74{fill:#4067AA;}
	.st75{fill:#4669AB;}
	.st76{fill:#506CAB;}
	.st77{fill:#616BA9;}
	.st78{fill:#4B6FAF;}
	.st79{fill:#6274B1;}
	.st80{fill:#A96AA2;}
	.st81{fill:#9F6BA3;}
	.st82{fill:#96649F;}
	.st83{fill:#9B659F;}
	.st84{fill:#906AA3;}
	.st85{fill:#CE737E;}
	.st86{fill:#CE7789;}
	.st87{fill:#CE757C;}
	.st88{fill:#CCA1A2;}
	.st89{fill:#C9989D;}
	.st90{fill:#CB9094;}
	.st91{fill:#C24783;}
	.st92{fill:#C5488B;}
	.st93{fill:#C1468F;}
	.st94{fill:#C39DA8;}
	.st95{fill:#CF7250;}
	.st96{fill:#CC674E;}
	.st97{fill:#CB6951;}
	.st98{fill:#D68A53;}
	.st99{fill:#D89256;}
	.st100{fill:#DB9951;}
	.st101{fill:#D6865E;}
	.st102{fill:#4D65A6;}
	.st103{fill:#696FAC;}
	.st104{fill:#7A5B9C;}
	.st105{fill:#8D5F9D;}
	.st106{fill:#83629F;}
	.st107{fill:#6A5297;}
	.st108{fill:#C33E45;}
	.st109{fill:#C33F4C;}
	.st110{fill:#C3455F;}
	.st111{fill:#C23F56;}
	.st112{fill:#C4474E;}
	.st113{fill:#C54F54;}
	.st114{fill:#CA6159;}
	.st115{fill:#CF7455;}
	.st116{fill:#CB685A;}
	.st117{fill:#C75756;}
	.st118{fill:#CB8795;}
	.st119{fill:#D27E8D;}
	.st120{fill:#C2408B;}
	.st121{fill:#C13F85;}
	.st122{fill:#743E8B;}
	.st123{fill:#80418C;}
	.st124{fill:#714B93;}
	.st125{fill:#E0AB73;}
	.st126{fill:#DDA276;}
	.st127{fill:#BCA5B1;}
	.st128{fill:#B7A0B3;}
	.st129{fill:#C1A5AD;}
	.st130{fill:#C3B2B0;}
	.st131{fill:#B29DB8;}
	.st132{fill:#AC9ABD;}
	.st133{fill:#D9C49D;}
	.st134{fill:#CEBAA7;}
	.st135{fill:#D4C0A2;}
	.st136{fill:#C8B6AC;}
	.st137{fill:#CFBEA4;}
	.st138{fill:#ECC778;}
	.st139{fill:#EDCC73;}
	.st140{fill:#E8BE7D;}
	.st141{fill:#C8BBB1;}
	.st142{fill:#5E4B92;}
	.st143{fill:#574992;}
	.st144{fill:#735599;}
	.st145{fill:#655196;}
	.st146{fill:#C56990;}
	.st147{fill:#B86796;}
	.st148{fill:#6B5C9C;}
	.st149{fill:#715E9E;}
	.st150{fill:#DB9886;}
	.st151{fill:#D89388;}
	.st152{fill:#7B7CB2;}
	.st153{fill:#9F619E;}
	.st154{fill:#845D9B;}
	.st155{fill:#B93F8C;}
	.st156{fill:#CE8DBB;}
	.st157{fill:#9F96C0;}
	.st158{fill:#E5B664;}
	.st159{fill:#E1AD67;}
	.st160{fill:#E3B16F;}
	.st161{fill:#BB99AF;}
	.st162{fill:#D5864E;}
	.st163{fill:#ECD18B;}
	.st164{fill:#EDCD88;}
	.st165{fill:#ECCB7C;}
	.st166{fill:#ECC784;}
	.st167{fill:#C37A96;}
	.st168{fill:#CB7D92;}
	.st169{fill:#AD6DA1;}
	.st170{fill:#B4719E;}
	.st171{fill:#BB7499;}
	.st172{fill:#C95D41;}
	.st173{fill:#C75142;}
	.st174{fill:#C85A48;}
	.st175{fill:#C85840;}
	.st176{fill:#C64E4D;}
	.st177{fill:#C44649;}
	.st178{fill:#E0A78D;}
	.st179{fill:#DCA185;}
	.st180{fill:#DEA899;}
	.st181{fill:#D1A7A0;}
	.st182{fill:#D6AC9E;}
	.st183{fill:#DB9C7D;}
	.st184{fill:#EBC88E;}
	.st185{fill:#E8C993;}
	.st186{fill:#E3C197;}
	.st187{fill:#DFBF9C;}
	.st188{fill:#4965A7;}
	.st189{fill:#AE669B;}
	.st190{fill:#CB6981;}
	.st191{fill:#CC6F89;}
	.st192{fill:#C8768F;}
	.st193{fill:#C6A7A8;}
	.st194{fill:#D88F4F;}
	.st195{fill:#D68B46;}
	.st196{fill:#DA974A;}
	.st197{fill:#72589A;}
	.st198{fill:#C34455;}
	.st199{fill:#C8574F;}
	.st200{fill:#C95D50;}
	.st201{fill:#E1AD7C;}
	.st202{fill:#E4B377;}
	.st203{fill:#DEA77A;}
	.st204{fill:#DDA481;}
	.st205{fill:#C2ABAD;}
	.st206{fill:#C9B1A8;}
	.st207{fill:#DBBB9E;}
	.st208{fill:#D5BAA2;}
	.st209{fill:#D0B3A4;}
	.st210{fill:#EBC37E;}
	.st211{fill:#E7BF72;}
	.st212{fill:#CB6889;}
	.st213{fill:#C17594;}
	.st214{fill:#C96584;}
	.st215{fill:#E7BF83;}
	.st216{fill:#EAC388;}
	.st217{fill:#C7534B;}
	.st218{fill:#E1AC89;}
	.st219{fill:#E1AD92;}
	.st220{fill:#E1B398;}
	.st221{fill:#DAB09C;}
	.st222{fill:#E9C18F;}
	.st223{fill:#E6BD95;}
	.st224{fill:#E1BB99;}
	.st225{fill:#E3B282;}
	.st226{fill:#E4B67D;}
	.st227{fill:#E6BC76;}
	.st228{fill:#E6B981;}
	.st229{fill:#E5B786;}
	.st230{fill:#E7BC88;}
	.st231{fill:#E4B58E;}
	.st232{fill:#E5B893;}
</style>
<g>
	<path class="st0" d="M877.7,392.7c0.9,1.7,2.1,2.9,3.8,3.8c1.3,0.6,2.3,1.5,2.4,3c0,1.1-0.3,2.4-1.3,2.8
		c-7.2,3.1-13.8,8.7-22.5,6.1c-2.1-0.6-3.9,0-5.6,1c-2.7,1.5-5.3,1.9-8-0.1c-3.8-2.9-7.3,1-11.2,0.5c-6.2-0.9-12.6,0.2-18.3,3.4
		c-3,1.7-6.1,2.3-9.4,1.3c-3.3-1.6-5-4.8-7.4-7.3c0.3-7.2,3.9-11.3,12.2-11.2c-2.5-4.1-6-6-8.4-8.9c-1.7-1.7-2.9-3.7-4.7-5.2
		c-2.9-2.6-6.2-4.9-7.2-9.1c0-0.6,0.2-1.2,0.7-1.6c6.9,1.5,9.8,7.8,14.3,12.2l0,0c5.9,7.5,13.9,8.3,22.7,8c13.5-0.5,27-0.2,40.6-0.1
		C872.8,391.2,875.5,390.6,877.7,392.7z"/>
	<path class="st1" d="M625,566.1c-1.6,0.3-2.3-0.9-3.1-1.8c-1.7-1.1-3.1-2.4-4.5-3.8c-2.9-3.1-5.5-2.7-8.4,0.2
		c-2.9,2.9-3.1,5.5-0.1,8.4c6.5,6.5,13,12.9,19.4,19.5c1.6,1.7,3.9,2.9,4.4,5.5c-0.3,0.6-0.8,0.9-1.4,1.1c-1.3,0.1-2.4-0.5-3.4-1.2
		c-4.6-4.3-8.8-8.8-13.3-13.2c-3.1-3.3-6.5-6.3-9.5-9.7c-1.5-2.2-2.4-4.5-2.2-7.2c3.5-9.6,9.4-11.6,18.1-6.2
		c2.4,1.5,4.8,3.1,7.8,1.9c2-2.8,4.8-3.4,8.2-3.9c6.7-0.9,13.2-2.8,20.1-2.9c1-0.2,2-0.2,2.9,0c3.2,1.8,5.6,4.5,7.7,7.5
		c2.9,4.2,3.4,8-1.7,11c-0.7,0.4,0.1-0.3-0.5,0.4c-3.1,3.2-3.5,9.6-10.2,8.5c-9.6-1.7-20.5,0.3-26.8-10.1
		C627.6,568.5,626.5,567.1,625,566.1z"/>
	<path class="st2" d="M134.1,431.4c-2-6.9-1.6-13.7-0.1-20.6c1.9-2.5,3.7-5.1,6.8-6.4l-0.1,0.1c0.5-2.1,2.5-2.9,3.9-4.2
		c0.4-0.4,0.8-0.8,1.2-1.3c3.5-2.7,7.5-1,11.3-1.4c3.4,0.3,6.8-0.7,10.1,0.8c6.4,7.1,4.3,15.3,3.2,23.4c-3.4,3.6-7.8,1.9-11.7,1.8
		c-5.9-0.1-11.2,0.6-15.1,5.7C141,432.5,137.7,433.1,134.1,431.4z"/>
	<path class="st3" d="M134.1,431.4c4.9-0.2,9.1-1.9,12.1-6c1.9-2.5,4.5-3,7.5-2.9c5.2,0.1,10.4,0,15.7-0.1c4.6-3.2,9-0.8,13.3,0.3
		c-1.9-8.1-3.7-16.2-1-24.5c5.4-0.9,10.8-0.9,16.2,0c1.4,0.9,2,2.4,2,3.9c-0.2,10.5,4.6,20.2,5.3,30.5c0.1,2.7,0.6,4.4,3.9,5.5
		c5.3,1.7,7.9,6.1,8,11.8c-4.7-1.8-9.2,2.1-13.9,0.5c-2.8-7.8-10.7-10.7-15.7-16.4c-2.7-2.8-5.3-5.8-8.8-7.8c-0.5-0.3-1-0.6-1.4-0.9
		c-9.8-0.6-19.7-2.2-29.3,1.1c-1.6,1.6-3.2,3.2-4.8,4.8c-2.3,1.8-4.6,3.3-7.7,1.9C134.9,432.6,134.5,432,134.1,431.4z"/>
	<path class="st4" d="M792.5,372.8c2.5,2.7,4.5,6,7.9,7.9c-2.9,6.9-9.7,6.1-14.9,6.1c-6.6,0-13.4,2.1-20.1-1c-2.1-1-4.8,0.3-6.9,1.3
		c-3.1,1.4-5.9,1-8.7-0.7c-2.7-1-5.5-0.6-8.3-0.5c-4,0.2-7.2-1.1-8.7-5.1c-0.1-1,0-2,0.8-2.7c0.4-0.4,0.8-0.8,1.2-1.2
		c1-1.7,2.3-3,4-4c1-0.4,1.9-0.8,2.9-1.2c3.7-2.1,7.7-0.2,11.4-0.2c11.7-0.1,23.3-0.8,35-0.5C789.8,370.9,791.5,370.9,792.5,372.8z"
		/>
	<path class="st5" d="M612.5,526.2c2.5-4.5,1.5-7.9-2.3-11.3c-5.1-4.6-9.8-9.7-14.6-14.6c-0.4-0.6-0.4-1.2,0-1.7c5,1,9.5,4,15.2-0.2
		c2.5-1.8,8.4-0.2,12.7-0.2c1.5,0.4,3.1,1,3.9,2.3c3.5,6,9.2,7.4,15.5,7.8c6.5,0.4,12.6,2.4,18.9,3.9c0.8,1.3,0.7,2.7,0.3,4
		c-1.8,3.8-4.6,5.5-9,4.6c-7.6-1.6-15.1-0.6-22.7,0.3c-0.6,0.1-1.3,0.3-1.9,0.2c-5.5-0.6-12-3.8-14.2,5
		C614.1,526.7,613.1,526.5,612.5,526.2z"/>
	<path class="st6" d="M523.7,496.2c-0.4,4.6-2.7,7.9-6.7,10.1c-1.4-2.1,0.2-3.7,1.1-5.3c2.1-3.6,2.2-6.9-1-10
		c-2.9-2.8-4.1-8.5-9.8-6.8c-4.7,1.4-9.5,10.3-9.7,15.2c-0.1,3.1,3.2,6,0.3,9.1c-5.3-3.2-6.7-14.2-2.3-19.1c3.3-3.7,7-7,10.5-10.6
		c3.2-3.3,7.1-2.3,10.9-2.4c3.2,0.1,5.5-0.9,6-4.5c0.4-2.9,0-6.8,4.1-7.1c4.7-0.3,9,1.3,11.7,5.5c1.3,2,1.9,4.3,3.7,6
		c0.9,6.4,0.2,12.4-4.3,17.5C533.4,495.1,527.9,492.1,523.7,496.2z"/>
	<path class="st7" d="M352.9,390.1c0.3,0.4,0.6,0.7,1,1.1c3.6,5.5,2.4,8.7-3.9,9c-6.1,0.3-12.2,0.5-18.2,0.9
		c-8.4,0.6-13.6-3.8-18-9.7c-3.7-5-1.6-9.7,4.5-10c8-0.4,16.1-0.3,24.1,0C347.8,381.6,350.1,386.3,352.9,390.1z"/>
	<path class="st8" d="M925.9,437c-1.2,1.2-2.5,2.5-3.7,3.7c-1.9,2.2-4.4,2.3-7,2.3c-5.8,0-11.5-0.1-17.2,0c-0.6,0-1.7,0-1.8-0.4
		c-0.8-5.5-4.1-5.1-8.1-3.8c-2.8,0.9-5.8,1.5-6.2-2.9c0.4-2.1,1.9-4.4,3.6-4c7.2,1.6,11.9-3.9,17.9-5.8c3.3-1,6.4,0.2,9.7-0.6
		c6.2-1.5,11.5-5.1,17.6-6.7c2.8-0.7,3.7-3.4,4.1-6.2c0.2-1.6-0.7-3.5,1.1-4.8c2.3-0.4,3.5,1.5,3.4,2.9c-0.3,4.9,1.8,10.1-1.6,14.6
		c-0.8,0.8-1.6,1.6-2.4,2.3C932.1,430.5,928.9,433.6,925.9,437z"/>
	<path class="st9" d="M290.1,586.6c0.4-0.4,0.8-0.8,1.3-1.3c4.2-3.6,7.9-7.7,8.7-13.5c3.3,1.2,3.4,3.7,2.9,6.6
		c-0.6,1.9-1.7,3.5-3.4,5.4c2.3-0.5,3.7-1.4,5.2-2.5c5.8-4.2,8.6-4,13.9,1.3c2.1,2.1,4.4,2.5,7.1,2c2.1-0.4,4-1.9,6.2-1
		c2.7,3.1,6.2,5.8,5.8,10.6c-1.3,2.3-3.5,3.6-5.3,5.3c-4.9,2.6-10.8,2.9-14.6-0.1c-5.1-4.1-8.2-3.8-11.8,1c-2.9,0-5-1.3-6.4-3.8
		c-1.7-3.1-4.6-4.4-7.7-3.6c-3.5,0.9-3.9,4.2-4.1,7.4c-0.1,2.2,0.1,4.4-1.5,6.2c-0.7,0.3-1.3,0.2-1.9-0.3
		C282.3,598.5,281.9,591.3,290.1,586.6z"/>
	<path class="st10" d="M498.6,507.9c-5.3-11-2.7-19.5,8.2-25.7c2.9-1.6,6.3,0.3,8.2,2.5c5.7,6.6,9.4,13.7,2,21.6c0,0.4,0,0.9,0,1.3
		C510.7,516,502.4,516.1,498.6,507.9z"/>
	<path class="st11" d="M907.8,660.4c2,3,4.7,5.4,7.5,7.6c2,1.5,3,3.5,3.1,6.1c0.3,8.6-0.4,17.2,0.4,25.8c0.2,1.7-0.2,4-2.3,5
		c-0.8-0.2-1.4-0.7-1.7-1.4c-1.3-3.7-0.7-7.5-0.9-11.3c0.2-2.1,0.1-4.2,0.1-6.3c0.9-8.3,0.2-15.9-7.2-21.6c-3-2.3-5.5-3.3-8.7-1.1
		c-1,0.8-2.2,1.9-3.5,1.6c-9.5-1.8-18.8-1.4-28,1.8c-0.8,0.3-1.7-0.1-2.6-0.3c-2.8-2.1-7.9-0.2-9.2-5.1c3-4,7-7.1,9.9-11.1
		c8.5-1.6,17.3,0.1,25.7-2.4c4.4-1.3,6.2,3.2,9.5,4.5C903.2,654.3,906,656.9,907.8,660.4z"/>
	<path class="st12" d="M653.2,624.5c-0.8,0.4-1.6,0.8-2.4,1.3c2.4-8.1-2.7-10.4-9-11.8c-5.4-3.4-11.4-1.8-17.2-2.1
		c-12.5-0.7-25.2,0.9-37.5-2.5c-2.5-0.7-5.2-0.7-6.6-3.5c-0.6-2.1-0.5-3.9,1.2-5.5c1.7-1.1,3.7-1.4,5.6-1.4
		c15.6,0,31.3-0.4,46.9,0.2c4.5,0.4,7,3.7,9.9,6.5c2.3,2.2,4.4,4.7,7.3,6.1C658.5,618.1,658.6,618.9,653.2,624.5z"/>
	<path class="st13" d="M642.9,614.1c1.5,0,3-0.1,4.5,0c5.9,0.5,7.5,3.7,4.6,8.8c-0.5,0.9-0.8,1.9-1.2,2.9c-0.1,0.4-0.1,0.8-0.1,1.2
		c-2.4,3.5-4.8,7-9.1,8.6c-0.6-0.3-1.1-0.7-1.5-1.2c-0.3-0.6-0.3-1.2-0.2-1.8c0.9-2.4,3.1-3.9,4-5.4c-11.4,5-24.4-0.7-36.3,3.3
		c-2.1-1.5-4.3-2.9-4.7-5.8c0.3-2.1,1.9-3.5,3.2-5c3.3-3.9,7.4-5.3,12.7-5.2C626.8,614.7,634.8,613.2,642.9,614.1z"/>
	<path class="st14" d="M501.3,523.7c10.2,0.1,20.4,0.6,30.6,0c6.9-0.4,11.8,1.7,15.4,7.4c0.8,1.1,2,2.1,1.8,3.7
		c-0.1,1.1-0.1,2.1-0.1,3.2c-0.3,9-1,9.6-9.7,9.4c-4.9-0.1-9.9,1.4-14.7-0.5c-3.3-3.2-0.1-5.3,1.7-6.9c4-3.5,2.6-5.2-1.4-6.8
		c-4.6-4.6-10.1-5.8-16.4-5.4c-3.6,0.3-7.3,0.7-10.7-1.1C496.4,523,500.2,524.9,501.3,523.7z"/>
	<path class="st15" d="M659.9,553.8c-0.9,0-1.7,0-2.6,0c-5-2.4-8.6-6-10.6-11.2c-0.4-2.7-0.5-5.4,0.4-8.1c1.8-3.3,4.7-5,8.3-5.5
		c1.3-0.2,2.9,0.1,3.7-1c3.3-4.2,7.4-4.4,12.3-3.3c2.6,0.6,5.2-0.4,6.6-3.1c1.2-2.4,3.1-3.5,5.8-3.2c3.4,0.8,6.7,0.6,10.1-0.7
		c3.4-1.3,7.1-1.8,10.7-0.6c2.4,3.5,0.6,6-2,8.3c-5.1,1-6.9,5.8-10.2,8.9c-4,2.4-8.4,1.4-12.7,1.7c-4.9,0.3-10-0.7-14.8,1.1
		c-0.7,0.3-1.4,0.4-2.1,0.3c-2.2,0-3-1.9-4.3-3.2c-3.3-1.7-5.9-0.7-7.8,2.2c-1.9,2.9,0,5.2,1.5,7.7
		C654.5,547.6,659.6,548.8,659.9,553.8z"/>
	<path class="st16" d="M401.4,604.1c0.3,0.3,0.6,0.7,1,1c5.4,6.8,2,14.9,3,22.3c0.6,4.2,0.2,8.7-4,11.6l0.1-0.1
		c-1.1,2.4-3,4.1-5.3,5.3l0,0c-0.9,1.8-2.2,3.3-4.2,3.9c-0.3-0.1-0.6-0.1-1-0.1c-0.7-0.7-0.9-1.6-0.9-2.6c1.2-4.7,6.3-6.3,8.1-10.5
		c0.2-3.1-2.1-5.3-3.3-7.8c-1.1-2.4-3.6-3.9-6.1-0.7c-2.9,3.7-5.9,3.3-8.3-0.5c-1.6-2.5-4.4-3.4-6.1-5.7c-1.1-2.7-0.7-5.2,0.7-7.6
		c1.9-2.7,4.8-2.6,7.6-2.7c2.4-0.1,4.8,0.1,7.2,0.1c7.3,0.2,8.1-0.8,7.3-8.6C400.2,600,400.5,602.5,401.4,604.1z"/>
	<path class="st17" d="M356.9,682c-1.7,2.3-3.4,4.6-5.2,6.9c-2.5,2.8-4.5,6-8,7.8l0.1-0.1c-1.4,1.9-2.1,4.8-5.6,3.9
		c-1.7-4.1,2-6.2,3.5-9.1c-2.3,0.9-4.3,2.2-6,4c-1.4,1.5-3,2.5-5.2,2.4c-3.6-0.2-7.2-1.7-10.3,2c-4.3,5.1-9.6,9.7-7.5,17.5
		c0.2,0.6,0.1,1.3,0.1,2c-0.3,4,1.2,8.4-2.1,11.9c-2.9-1.2-2.3-3.9-2.3-6.2c-0.1-8.5-0.2-17,0.1-25.4c5.1-5.9,9.7-12.6,18.9-12.5
		c7.7,0,12-7.2,18.9-9.2c5.4-1.6,9.9-6.1,16.1-4.9c0.9,1.4,0.8,2.8-0.3,4c-0.4,0.5-0.9,0.9-1.3,1.4
		C359.2,679.3,357.9,680.5,356.9,682z"/>
	<path class="st18" d="M692.8,532.8c2.1-3.7,2.9-9,9.2-7.9c1.1,0,2.3,0.4,3.2,0c10.6-4.3,17.3,0.2,22,9.5c-2.9,4.1-8,3.9-12,5.6
		c-5.9,2.5-12.5,3.3-18.4,6.1c-2.1,1-4.3,0-6.4-0.2c-4.7-0.1-9.5-0.2-14.2,0c-3.2,0.1-5.9-0.7-8.3-2.7c-1.9-1.7-4.4-3-5-5.9
		c0.3-0.3,0.6-0.6,1-0.6c1.7-0.7,3,0.3,4.1,1.3c5.9,5.3,13.1,3.7,19.9,3.3C693,541,692.1,536.2,692.8,532.8z"/>
	<path class="st19" d="M156.3,399c-3.5-0.4-7-0.6-10.6,0.1c1.2-2.8,3.6-2.7,6.1-2.7c46.3,0,92.6,0,138.9,0c4.6,0,14.5,7.1,15.9,11.2
		c0.9,2.4-0.5,4.3-1.9,5.9c-2.1,2.5-4.2,5.2-6.9,7c-4.9,3.3-3.4,6.1-0.1,9.2c0.9,0.9,2.1,1.7,2.7,2.8c7.3,11.5,18.5,12.3,30.4,11.1
		c2.9-0.3,4.9-0.5,4.4-4.6c-0.5-3.8,0.3-7.8,0.7-11.6c0.4-3.8,1-4.1,5.1-3c-1.4,2.1-2.4,4.3-2,7c0.2,15.6-0.8,16.7-16.2,16.6
		c-4.1,0-8.2,0.6-12.1-1.1c-5.7-4.2-10-9.8-15.2-14.5c-6-6.9-5.9-9.7,0.4-15.8c0.5-0.5,1-0.9,1.4-1.3c6.5-6.5,6.5-6.6-0.9-12.7
		c-3.5-2.7-7.7-2.8-11.9-2.9c-20.7-0.4-41.5-0.4-62.2-0.1c-11.8,0.2-23.6-2.3-35.2-1.1C176.9,399.7,166.6,397.4,156.3,399z"/>
	<path class="st19" d="M381.7,399.1c-4.4-2.8-3-6.2-0.6-9.2c7.1-8.6,14.8-15.3,27.7-13.5c9.8,1.4,20,0.3,30.1,0.3
		c9.5,0,19.6,10.7,20.5,20c0.9,9.8-2.4,16.8-9.7,23.2c-9.9,8.8-18.9,18.7-28.4,28.1c-4.6,4.5-8,4.5-13,0.4
		c-6.6-5.3-11.2-11.3-9.5-20.6c0.5-2.9,0.1-6.1,0-9.1c0.3-0.1,0.6-0.2,0.9-0.2c3.6,3.4,2.2,7.8,1.9,11.6
		c-0.7,8.8,5.6,12.6,11.2,16.9c2,1.6,4.1,0.4,5.8-1.2c3.1-3,6.1-6.1,9.2-9.2c1.1-1.1,2.2-2.2,3.3-3.3c6.2-6.1,12.1-12.6,18.5-18.4
		c5.1-4.6,7.6-9.9,6.5-16.8c-1.5-10.5-8.9-17.1-19.3-17.1c-11.8,0-23.6,0-35.4,0c-8.5,0-18,8.6-19.1,17.2
		C382.1,398.5,381.9,398.8,381.7,399.1z"/>
	<path class="st20" d="M625,566.1c3.3-0.5,4.6,2.3,6,4.1c4.3,5.8,10,7.5,16.8,7.2c2.2-0.1,4.3,0.1,6.4,0.9c1.4,0.5,3.1,0.5,4.5,0.1
		c4.3-1.3,1.8-7.6,6.4-8.9c7.1-2,1.7-6,1.4-9.2c4.7,0.8,6.9,4.8,9.4,8.1c1.5,1.9,0,4.1-1.6,5.7c-4.3,4.3-8.5,8.7-13,12.9
		c-4.3,3.9-12.9,4-17.2-0.3c-6.2-6.1-12.8-11.8-18.2-18.7C625.6,567.5,625.3,566.8,625,566.1z"/>
	<path class="st19" d="M915.9,704.9c3.3-3.8,1.6-8.3,1.5-12.5c-0.2-8.1,1.8-16.5-2.1-24.3c3.6,1,4.5,3.6,4.4,7
		c-0.1,8.3,0.1,16.6-0.1,24.9c-0.1,7.4-6.4,13.6-13.7,13.9c-3.7,0.1-7.5-0.3-11.1,0.1c-6.8,0.7-12.3-1.4-16.7-6.7
		c-3.8-4.6-8.7-6.2-15-5.4c-8.2,1-16.8,1.2-24.6-1.5c-9.1-3-15.5-9.7-17.8-19.4c-1.9-8.2-1.7-16,6-21.8c5.5-4.2,8.8-10.8,15.6-13.6
		c0.1,0.3,0.2,0.6,0.3,0.9c-2,5.5-6.7,9-10.9,12.4c-8.2,6.6-8.7,14.6-6.6,23.7c0.4,0.6,0.7,1.1,1,1.7c2.1,3.4,5.1,5.9,7.7,8.8
		c3,3.3,6.6,4.5,11,4.6c9.1,0.1,18.2-0.8,27.3,0.6c2.6,1.2,4.9,2.9,7,4.8C890.7,713.4,903.6,714,915.9,704.9z"/>
	<path class="st21" d="M633.4,644.2c-0.8,0.8-1.7,1.5-2.5,2.3c-0.5,2.2-2.1,3.3-3.9,4.3l0,0c-1.8,2.4-2,5.1-1.9,8
		c0.1,15.4,0.1,30.8,0,46.1c0,2.1,0.7,4.3-0.8,6.3l0-0.2c-0.8,0.5-1.5,0.3-2-0.5c-2.1-7.5-0.5-15.2-1-22.8
		c-0.3-8.1,0.7-16.3-0.6-24.4c-0.6-2.8-0.7-5.7-0.2-8.6c0.6-2.5,2-4.8,3.3-7.5c-5.2-0.7-9.8-4.1-15.4-1.5c-2.3,1.1-4.1-0.4-5.4-2.4
		c-0.8-2.4,0-4.5,1.1-6.6c0.4-0.6,0.9-1,1.5-1.3c3.5-1.3,7.1-1.9,10.9-1.3c5.8,0.9,11.5,1.7,17.1-1.2c2.1-1.1,4.7-0.9,6.7,1l0,0
		c0.9,2.3-1,3.8-1.6,5.7C637.3,641.5,635.7,643.2,633.4,644.2z"/>
	<path class="st19" d="M299.3,572.2c2,7.2-3.1,10.1-7.9,13.2c0.1-0.6,0.1-1.4,0.4-1.9c2-3.2,8.5-5.7,5-9.8
		c-4.7-5.4-8.3-14.2-17.4-13.1c-13.9,1.7-23.6-3.3-32.8-13.7c-13.1-14.8-27.8-28.4-41.9-42.3c-3.7-3.6-5.3-7.6-5.2-12.8
		c0.3-12.6,0.1-25.3,0.1-38c0-2.6,0.2-5.3-1.3-7.6c1.7-1,2.9-0.3,3.6,1.4c1.3,3.2,2.3,6.5,2.2,10.1c-0.1,12.4,0,24.8,0,37.2
		c0,1.3,0.2,2.7,0.6,3.9c3,4.9,7.7,8.2,11.6,12.4c12,12,23.9,24.1,36,35.9c6.2,8.4,14.4,11.7,24.8,10.3c2.7-0.4,5.6-0.3,8.3,0.5
		C290.8,561.9,296.2,565.9,299.3,572.2z"/>
	<path class="st22" d="M327.9,503.9c-4.4,3.3-8,7.3-11.7,11.4c-1.4,2.1-3.6,1.1-5.4,1.1c-10.9,0.1-21.8,0.1-32.7,0
		c-0.9-0.1-1.4-0.6-1.5-1.5c0.4-0.7,1-1.2,1.7-1.6c9-1.3,18.1-0.6,27.1-0.8c2.4-0.1,4.7,0,7.1-0.5c4.1-1.1,6.3-4.4,8.8-7.4
		c3.1-3.7,5.6-7.8,9.6-10.6c2.7-1.9,4.5-4.6,6.7-7c7.3-7.9,14.8-15.7,22.4-23.3c5.3-5.1,10.3-10.6,15.8-15.6
		c2.9-2.6,3.5-4.6,0.5-7.5c-1.4-1.3-3.4-3.3-0.5-5.4c2.7,1.1,4.5,3.3,6.2,5.5c2.4,3,3.8,6.4-0.6,9.2c-5,3.6-8.6,8.6-12.9,12.9
		c-1.5,3-3.7,5.3-6.7,6.8c-7.8,7-15.2,14.3-22.1,22.1c-1.4,3-3.8,5.2-6.7,6.8c-0.4,0.4-0.8,0.7-1.2,1.1
		C331.2,501.7,329.7,503,327.9,503.9z"/>
	<path class="st23" d="M548.4,534.1c-0.4-1-0.8-2-1.2-3c7.8,9.1,18.7,4.9,28.2,6.3c6.6,1,13.5,0.3,20.3,0.2c3.4,0,6.2-1.7,8.9-3.7
		c8.1-7,16.4-3,24.7-0.6c2.3,3.8,0.4,6.6-2.3,9.1c-12.3-1.1-24.2,5.2-36.6,1.5c-2.6-2.5-5.8-2.8-9.1-2.8c-7,0-14,0.1-21-0.1
		c-4.8-0.1-9.1-1.3-11.6-5.9C548.6,534.9,548.5,534.5,548.4,534.1z"/>
	<path class="st19" d="M310,698c0,11-1.8,22,0.9,32.9c0.7,0.8,0.7,1.7,0.1,2.5c-3.8-2.2-4-5.9-4-9.7c0-20.1-0.1-40.2,0.1-60.3
		c0-3.8-1.1-6.6-3.8-9.2c-5.6-5.2-10.8-10.9-16.3-16.1c-3.4-3.2-5.1-6.8-4.9-11.6c0.2-9.6,0.2-19.2,0-28.9c-0.1-5.9,2.5-9.4,8-11.1
		c-5.4,5.6-7.2,12.1-5.4,19.7c3.2,3.6,1.5,8,1.9,12.1c0.2,4.2-0.7,8.4,0,12.7c4.4,7.7,11.4,13,17.6,18.9c5.3,5.1,7.8,10.5,7.3,17.8
		c-0.6,9.1,0.2,18.2-0.4,27.3C310.9,696,310.4,697,310,698z"/>
	<path class="st24" d="M397.6,601.1c-0.9,3,6.4,4.8,1.1,8.6c-3,2.1-5.9,2.4-9.5,2.1c-4.1-0.4-8.6-1.5-12.6,1.1
		c-3.1-0.1-2.5-2.6-2.9-4.4c-0.1-1.5-0.3-3.1,0.1-4.5c1.5-5.6-0.8-9.6-5-13.1c-2.5-2.1-4.7-4.6-7-6.9c-2.2-2.4-4.5-4.7-6.9-7
		c-1-1.1-2.2-2.2-2.5-3.8c0-0.7,0.3-1.2,0.9-1.5c3.6-0.3,4.7,2.4,6,4.9c0.4,0.4,0.7,0.7,1.1,1.1c2.1,0.7,3.5,2.1,4.2,4.2
		c0.4,0.4,0.7,0.7,1.1,1.1c2.6,1,4.4,2.9,5.5,5.5c0.8,1.7,2.1,2.9,3.7,3.7c2.4,0.8,3.7,3.1,5.9,4.2c5.4,1.6,11.8-1.2,16.2,4.1
		C397.3,600.5,397.4,600.8,397.6,601.1z"/>
	<path class="st25" d="M299.3,572.2c-5.2-3.6-9.3-8.3-13.5-13c3.2-3.7,6.7-7.3,9.7-11.2c1-0.2,1.9-0.1,2.2,1.2
		c0.3,0.3,0.6,0.5,0.9,0.8c1.8,1.1,2.9,3,4.2,4.6c2.8,5.5,9.3,8,11.6,13.9c-1.9,4.8-7.2,6.6-9.6,11.1c-0.7,1.3-2.3,0.4-3-0.9
		C301.8,576.2,302.3,573.5,299.3,572.2z"/>
	<path class="st26" d="M311.1,717.7c0-2.8,0-5.6-0.1-8.5c-0.1-2.3,0.1-4.4,2.9-5c0.6-0.1,1.3-0.6,1.6-1.1c3.6-6.5,8.3-10.2,16-6.8
		c0.4,0.2,1.5-0.3,1.7-0.7c2.4-5.3,8-5.2,13.1-7.5c-2.3,4.8-7.8,6.9-7.8,12.3c0.8,0.7,0.7,1.1-0.4,1.3c-0.3,0.4-0.7,0.8-1,1.2
		c-0.2,10.4,0.9,20.8-0.5,31.2c-0.5,0.8-1.2,1-2,0.8c-2.3-2.7-1.8-5.9-1.8-9c0.1-3.2-0.1-6.4,0-9.6c0.1-1.5,0.1-3,0.2-4.5
		c0-2.7,0-5.4-3.5-5.9c-3.2-0.4-6.4-1-8.4,2.8C318.9,712.9,316.3,716.9,311.1,717.7z"/>
	<path class="st27" d="M311.1,717.7c3.6-3.6,7.7-6.5,9.6-11.9c1.5-4.2,6.2-1.6,9.6-1.5c3.1,0.1,4.7,1.6,4.4,4.9
		c-0.2,1.9-0.1,3.9-0.1,5.9c-1.2,1.3-3,2.1-4.6,2c-6.9-0.1-9.8,5.2-13.5,9.6c-2.6,3.1-0.5,5,1.7,7c1.3,1.4,2.6,2.8,3.1,4.8
		c0.1,1-0.1,2-0.7,2.9c-0.7,0.5-1.2,0.4-1.5-0.4l0.1,0.1c-2.5-1-2.9-4.2-5.5-5.1c-0.9-0.9-1.7-1.7-2.6-2.6c0-0.8,0-1.7-0.1-2.5
		C311,726.5,311,722.1,311.1,717.7z"/>
	<path class="st28" d="M629.8,534.1c-4-0.1-7.8-0.1-11.7-2.3c-4.3-2.4-8.8,2.2-13.4,2.2c2.1-3.1,4.8-5.6,7.8-7.8
		c3.4-1.1,2.9-3.9,2.9-6.5c0.1-3.8,1.7-5.2,4.6-2.4c3,2.9,6.4,2.2,9.8,2.4c3.2,4,2.4,10.4,8,12.9C636,537.8,632.8,535.2,629.8,534.1
		z"/>
	<path class="st29" d="M947.1,689.3c-1.1,4.5-2.2,9,0,13.5c-0.9,2.1-0.3,4.3-0.6,6.4c-0.4,2.5-1.2,4.6-4.5,3.1l0.1,0.1
		c-1.9-0.7-3-2.3-4.1-3.8l0,0c-4.6-3.9-7.2-15.6-4.6-20.7c1.3-2.5,3.6-2.8,6.1-2.9C943,684.8,946,685.3,947.1,689.3z"/>
	<path class="st19" d="M498.6,507.9c5.5,6.7,9.9,6.6,18.3-0.2c-0.4,4.7-4,6-7.7,6.7c-5,0.9-14.4-3.9-16.6-8.3
		c-2.1-4-0.2-14.9,3.1-18.3c2.5-2.5,5.1-4.8,7.4-7.4c3.3-3.6,7-5.8,12.1-5.3c4.2,0.5,6.5-1.8,5.6-5.8c-2.2-10,4.5-15.1,10.4-20.9
		c2.4-2.3,5.1-2,7.9-2.1c8.1-0.2,16.5,1.6,23.7-4c0.1,0.4,0.2,0.7,0.3,1.1c-1.4,4.9-5.2,5.8-9.5,6c-6,0.3-12-0.6-18,0.6
		c-0.9,0.5-1.7,1.1-2.5,1.7c-5.7,4.3-9.2,10-8.9,17.3c0.2,5.6-1.7,8.7-7.5,8.7c-12.4-1.1-25,13.5-22.2,25.8
		C495.1,505.5,496,507.5,498.6,507.9z"/>
	<path class="st30" d="M503.9,446.2c-0.9-6.8-1.2-13.5,5.2-18.3c2.2-2,4.4-2.3,6.5,0.1l-0.1-0.2c1.7,5.6,0.7,11.4,0.6,17.1
		c0,2-1.1,4.1-3.4,5c-2,0.6-2.3,2.7-3.6,4C504.3,453.6,503.4,452.3,503.9,446.2z"/>
	<path class="st19" d="M831.9,513.2c-0.4,1.2-1.3,2.6-1.1,3.7c1.7,9.8-4.9,15.1-11.1,20.6c-3.7,3.3-5.6,6.9-5.1,12
		c0.4,4.1,0.1,8.3,0.1,12.4c0,6.4-4,14.3-9,15c-6.2,0.8-12.7,2.5-18.2-3.5c-8.2-9-17.4-17.1-25.7-26.1c-4.4-4.8-8.2-7.1-13.9-2.5
		c-0.1-0.3-0.3-0.6-0.4-0.9c1.5-4.5,4.4-6.4,9.1-5.4c5,3.1,8.5,8,12.8,11.8c3.9,4.1,7.9,8,11.9,12c2.7,2.8,5.4,5.5,8.3,8.2
		c7.9,6.9,14.6,5.8,21.3-3.7c1.5-5.8,0.7-11.7,0.6-17.6c-0.1-5.9,1.4-10.6,5.9-14.5c3-2.6,5.6-5.5,7.9-8.7c2-2,1.9-4.5,2.1-7
		c0.1-2.5,0.3-5.1,3.4-6.1C831.3,513,831.6,513.1,831.9,513.2z"/>
	<path class="st19" d="M625.9,568.2c6.7,4.9,11.9,11.3,17.9,17c5.4,5.2,13.1,5.1,18.4-0.1c3.4-3.3,6.6-7,10.2-10.1
		c3.8-3.3,4.2-6.3,0.1-9.5c-2-1.6-3.3-4.1-5.9-5.1c-1.7-2.7-3.8-5-6.6-6.6c-3-3.3-6.2-6.6-9-10c-2.4-2.8-2.4-6,0-8.8
		c2.1-2.5,4.8-3.7,7.7-0.8c-3-0.2-5.8,0.1-7.3,3.1c-1.5,3.1,1.2,5.2,2.7,6.8c6.3,6.9,12.9,13.5,19.6,20c4.4,4.2,4.7,7.9,0.1,12.1
		c-3.2,2.9-6.2,6.1-9.3,9.2c-7.4,7.4-16.1,7.7-23.2,0.1C636,579.8,629,575.7,625.9,568.2z"/>
	<path class="st19" d="M896.1,442.2c8.7-0.7,17.6,1.5,26.2-1.6c-0.9,3-3.4,3-5.8,2.9c-4.1,0-8.3,0-12.4,0c-8.1,0-9.2,1-9.2,8.9
		c0,7-0.3,14,0.1,20.9c0.2,4.6-1.4,7.8-4.6,10.8c-8.2,7.8-16.2,15.8-24.1,24.1c-3.3,3.4-6.6,5.1-11.4,4.9c-7.6-0.4-15.3-0.1-22.9,0
		c0,0-0.1-0.1-0.1-0.1c0.2-3.2,2.9-2.7,4.8-2.9c3.2-0.4,6.5-0.4,9.7-0.1c8.8,1,16.2-1.5,21.6-8.7c4.5-3.9,8.5-8.3,12.7-12.4
		c2-1.9,3.9-3.8,5.8-5.8c3.3-2.9,6-6.1,5.3-10.9c-0.2-3.9,0-7.8-0.2-11.7c0.1-4.9-0.3-9.7,0.6-14.5
		C892.9,444.1,894,442.7,896.1,442.2z"/>
	<path class="st19" d="M608.9,408.1c4.6,1.9,9.4,1.4,14.2,1.4c14.4,0,28.7-0.2,43.1,0.1c4.5,0.1,7.7-1.3,10.9-4.5
		c4.1-4,7.2-9.3,13-11.5c0.2,0.2,0.3,0.4,0.5,0.7c0,0.6-0.1,1.1-0.4,1.7c-0.5,0.8-1,1.5-1.7,2.1c-4,4.2-8.1,8.3-12.3,12.3
		c-1.9,1.8-4.1,3.2-6.8,3.4c-17.3,0.3-34.5,0.1-51.7,0.1c-3.7,0-7.6,0-9.1-4.6C608.7,408.9,608.8,408.5,608.9,408.1z"/>
	<path class="st31" d="M803,616.9c-0.5-0.5-1-1-1.4-1.4c-2-1.6-4.1-3-5-5.5c-0.3-1.1-0.8-2-1.6-2.8c-1.6-1.6-3-3.5-1.4-5.7
		c1.6-2.3,4.6-2.6,6.4-1.5c7.6,4.7,15.1,9.7,17.8,19.1C812.6,620.2,807.2,622.1,803,616.9z"/>
	<path class="st32" d="M885.6,498.7c1.8-1.8,3.5-3.6,5.3-5.4c0.3-0.1,0.6-0.1,1-0.2c0.9-0.2-0.2,0,0.6-0.2c3.8-0.7,8.5-2.9,11,0.6
		c2.3,3.3-3.1,5.5-4,8.7c-1.9,2.4-4.2,4.5-6.3,6.6c-2,2-3.8,4.7-7.2,3.2c-3.4-1.5-2.1-4.9-2.2-7.6
		C883.6,502.4,883.1,500,885.6,498.7z"/>
	<path class="st19" d="M623.3,711.2c0.4-0.1,0.8-0.1,1.2-0.2c0.3,2.6-1.7,3.9-3.2,5.4c-4.6,4.7-9.6,9-13.8,14
		c-4.6,5.4-10,6.6-17,7.4c-11.9,1.3-19.2-4.4-26-12.5c-2.2-2.7-3-5.6-3-9c0.1-8.9,0-17.9,0.1-26.8c0-3.3-0.4-6.5-1.5-9.6
		c0.4-0.1,0.8-0.2,1.2-0.3c1.2,0.3,2.1,1.1,2.7,2.2c1.6,9.5,0.3,19,0.7,28.6c0.1,2.8-0.2,5.6,0.5,8.4c6.4,13.5,20.2,19.3,34.3,14.3
		c4.5-3.5,8.1-7.8,12.2-11.7c1.6-1.5,3.2-3.1,4.8-4.7c0.4-0.4,0.8-0.8,1.2-1.1c1.2-1.1,2.3-2.2,3.5-3.3
		C621.7,711.6,622.4,711.2,623.3,711.2z"/>
	<path class="st19" d="M501.3,523.7c-1.4,0.8-2.9,1.6-4.3,2.4c-0.5,3.6-3.8,5.1-5.7,7.6c-3.6,3.6-7.3,7.2-10.8,11
		c-6.5,4.4-5,11.1-5,17.4c0,3.7,0.4,7.4-0.1,11c-1.6,11.5,1.7,20.8,11.3,27.5c2.7,5.4,8.7,8.2,10.9,13.9c-0.1,0.3-0.3,0.6-0.4,0.9
		c-7.8-2.9-10.7-11.1-16.9-15.8c-6.9-5.2-10.2-11.8-8-20.6c0.2-0.8,0-1.7,0-2.6c0.3-9.6-2.9-20.2,1.2-28.4
		c4.1-8.4,13.1-14.3,20-21.3C495.7,524.5,497.8,522.4,501.3,523.7z"/>
	<path class="st19" d="M653.2,624.5c4.7-5,2.8-8.7-2.4-11.7c-6.3-6-13.4-11.1-18.4-18.4c-7.1-7.4-14.2-14.7-21.4-22.1
		c-5.9-6-6.4-8.7-2.5-12.5c4.1-4,7.5-3.1,12.9,3.2c0.3,0.3,0.3,0.8,0.5,1.2c-2.2,0.1-3.6-1.4-4.9-2.9c-2.7-3.1-5-2.5-7.6,0.2
		c-2.7,2.8-1.9,4.9,0.6,7.2c11.4,10.8,21.7,22.6,33.7,32.9c4.6,3.9,8.5,8.7,12.4,13.4C660,619.6,659.3,621.4,653.2,624.5z"/>
	<path class="st19" d="M352.9,390.1c-9.5-13.1-23.3-7.5-35.5-7.7c-4.6-0.1-5.9,4.9-2.8,8.7c4.7,5.8,10,10.2,18.3,9.1
		c5.2-0.7,10.4-0.7,15.6-0.9c6.5-0.3,7.4-1.6,5.3-8.1c3.1,0.8,3.5,3,2.7,5.6c-0.8,2.8-2.8,4.6-5.7,4.6c-8.7,0.2-17.4,0.3-26.1,0
		c-4.5-0.2-12.8-8.6-13.6-13c-0.8-4.7,1-7.7,6.1-7.8c8.5-0.1,17-0.4,25.4,0.1C348.3,381.1,351.5,384.9,352.9,390.1z"/>
	<path class="st19" d="M877.7,392.7c-17.6-0.1-35.2-0.7-52.8-0.3c-8.1,0.2-13.8-2.5-17.9-9.2c0.4,0.1,1.1,0,1.3,0.2
		c6.3,8.2,15.4,6.3,23.9,6.3c13,0.1,26.1,0,39.1,0C873.7,389.8,876.5,389.4,877.7,392.7z"/>
	<path class="st33" d="M817.4,618c-4.9-5.1-9.8-10.2-14.7-15.3c-1.5-1.6-3.3-1.8-5.3-1.7c-1.3,0.1-2.7-0.1-3.2,1.5
		c-0.4,1.5,0.3,2.8,1.6,3.1c2.7,0.8,3.6,2,2,4.6c-3.1,0.5-3.6-2.4-5.2-3.8c-0.9-0.9-1.8-1.9-2.8-2.8c-0.6-1.9-3.1-2.1-3.7-4l0.1,0.1
		c0.4-5.7,6.8-8.6,12.1-4.6c7.6,5.7,14,13,20.4,20.1C819.6,616.3,820.2,618.1,817.4,618z"/>
	<path class="st19" d="M655.9,676.3c2.3,9.1-3.2,14.4-8.9,19.7c-2.6,2.4-5.5,2.6-8.5,1.6c-3.1-1.1-3.5-4-3.5-7
		c0.1-7.3-1-14.7,6-20.3c3.9-3.2,7.5-6.6,12.6-4.4C658.3,667.8,655.1,672.8,655.9,676.3z"/>
	<path class="st19" d="M335.8,734.8c0.1-8.3,0.2-16.5,0.4-24.8c0.1-2.3-0.8-4.8,1-6.9c1.6,2.5,1.5,5.3,1.5,8.2
		c0,12.1-0.1,24.2,0,36.3c0,3.1-0.8,5.8-4,6.6c-2.9,0.7-5.6-0.1-6.6-3.5c0.3-0.2,0.5-0.3,0.8-0.5c4.1,1,5.7-0.7,5.6-4.9
		C334.3,741.7,333.4,738,335.8,734.8z"/>
	<path class="st34" d="M523.7,496.2c3.9-5.4,9.6-1.7,14.3-2.8c4.6-0.4,6,4.1,9,6.1c3.2,2.9,5.7,6.8,10.3,7.7
		c6.9,1.4,13,0.1,17.1-6.3c5.1-6.1,12-3.7,18.4-3.8c1.1,0.2,2.2,0.6,2.9,1.6c0,0.5-0.1,1-0.1,1.5c-9-0.8-17.1-0.2-23.4,8
		c-3.3,4.3-17.7,3.4-21.8-0.4c-2.4-2.2-4.9-4.4-6.9-7C538.1,493.6,531.2,493.5,523.7,496.2z"/>
	<path class="st19" d="M937.7,425.1c0.4-4.4,1-8.8,1.1-13.1c0-1.9-1-3.7-3.4-3.9c-13.8,1.8-27.6,0.2-41.4,0.5c-5.5-1-8.5-5-11-9.6
		c-0.5-0.8-1-1.7-1.5-2.5c1.4-0.1,2.8,0.2,3.5,1.4c5.1,8.2,13.3,7.7,21.3,7.7c8.9-0.1,17.9,1,26.7-0.7c1.5-0.3,2.4,0.4,3.6,1.1
		C941.9,409.3,942.6,420.4,937.7,425.1z"/>
	<path class="st19" d="M866.8,607.6c2.6,0,5.2,0.1,7.8,0c5.4-0.3,6.9,3.3,5.4,7c-2,4.9-5.3,9.6-11.5,10c-4.8,0.3-9.6,0.1-14.3,0
		c-2.3,0-5.3,0.6-6.2-2.3c-0.9-2.9-1.3-6.1,0.9-8.7c3-3.5,6-7,11.4-6.1C862.4,607.9,864.7,607.6,866.8,607.6z"/>
	<path class="st19" d="M297.8,549.2c-0.8-0.4-1.5-0.7-2.3-1.1c-5.1-1.7-10.2-3.2-15.8-3.1c-4.7,0.1-7-3-7.1-7.6
		c-0.1-6.1-0.3-12.2,0.3-18.3c0.7-1.9,1.5-3.8,4.1-3.3c13.1,0,26.2,0.8,39.3-0.5c-1.5,2.9-4.2,1.7-6.4,1.8c-9.3,0.1-18.7,0.2-28,0
		c-4.4-0.1-6.4,1.5-6.2,6.1c0.2,3.9,0,7.8,0,11.7c0.1,6.7,1.5,8.3,8.2,7C290.9,540.4,294.9,543.4,297.8,549.2z"/>
	<path class="st35" d="M202,497.4c-0.1-14.4-0.2-28.8-0.4-43.2c-0.1-2.9,1.2-6.8-3.4-8c-0.4-0.4-0.9-0.9-1.3-1.3
		c-3.1-2.2-5.7-4.8-7.9-7.9c-0.4-0.5-0.8-1-1.1-1.5c-1-0.8-0.9-1.6,0-2.4c4.2,3.2,8.3,6.6,12.6,9.7c2.7,1.9,3.3,4.4,3,7.4
		c3.6,5.3,1.5,11.4,2,17.1c0.2,2.6,0.1,5.2-0.1,7.8c0.3,5.4,0.3,10.9,0,16.3C205.2,493.7,205.8,496.9,202,497.4z"/>
	<path class="st36" d="M543.2,627.4c-1-0.5-1.9-1-2.9-1.4c-9-1.5-18-0.2-27-0.7c-2.3-0.1-4.7,0.8-6.9-0.8l0.2,0.1
		c-1.8-1.4-2.9-3.3-4.2-5.2c-0.5-1.5-0.4-2.8,1.6-3.1c6.7,6.6,15.2,5,23.3,5.3c6,0.2,12.3-1.4,17.7,2.5c3.2,3.2,2.3,7.3,2.5,11.2
		c0,5.1,0,10.1,0,15.2c-0.3,3.9,0.6,7.9-1,11.6c-0.5,0.8-1.2,1-2,0.6c-1.7-8.1-0.2-16.3-0.8-24.4
		C543.6,634.6,544.6,630.9,543.2,627.4z"/>
	<path class="st37" d="M391,645.6c0,0.8,0,1.6,0,2.3c0,0.4-0.1,0.8-0.1,1.1c-1.5,1.3-2,3.7-4.3,4.2c-2.9,3-5.9,6-8.8,9
		c-0.4,0.7-1,1-1.8,1c-0.7-0.2-1.3-0.6-1.7-1.3c-1.3-5.3-1.7-10.2,4.2-13.2C382.8,648.1,386.7,646.1,391,645.6z"/>
	<path class="st19" d="M885.6,498.7c-1.6,4.1-3.3,9.5,0.4,12c4.6,3.1,6.3-3.5,9.4-5.6c1.4-0.9,2.2-2.6,3.3-3.9
		c2.7-3.6,6.5-6.3,8.2-10.7c2.1-5.3,0.5-7.6-4.8-7.3c-0.3-0.1-0.6-0.3-0.8-0.4c0.5-3.5,3-5,6-4.6c3.3,0.4,3,3.4,3.4,6.1
		c0.7,5.9-1.2,10.4-5.8,14.3c-4,3.3-7.5,7.3-11.1,11c-2.2,2.3-4.5,4.4-7.9,3.2c-4.1-1.4-2.7-5-2.7-7.8
		C883.1,502.8,881.6,499.5,885.6,498.7z"/>
	<path class="st19" d="M817.4,618c2.1-2,0-3.1-1-4.2c-5.5-5.5-10.9-11.2-16.6-16.4c-5.4-5-11.4-3.9-13.7,2.2
		c-3.3-3.7,0.1-5.6,2.4-6.1c4.6-0.9,9.3-1.6,13.3,2.8c4.9,5.5,10.4,10.6,15.7,15.8c1.8,1.8,3.3,3.7,2.1,6.3
		c-1.1,2.5-3.6,2.5-5.7,2.1c-3.8-0.7-9.2,2.8-10.9-3.7C807.6,619.7,812.3,621.3,817.4,618z"/>
	<path class="st19" d="M842.3,645.6c2.2-5.1,7.5-4.7,11.3-4.9c11.7-0.5,23.5-1.5,35.1,1.1c0.7,0.2,1.3,1,2,1.5
		c-1.2,1.2-2.9,1.4-4.4,1.6c-7.1,0.2-14.1,0.1-21.2,0.1c-7.6-0.9-15,0.9-22.5,0.9L842.3,645.6z"/>
	<path class="st19" d="M837,591.7c-1.9,4-5.4,2.9-8.4,2.3c-3.7-0.8-3.1-4-3.3-6.8c-0.6-6.5,0.5-12.1,7-15.2c4.7-2.3,8.3-0.5,8.7,4.7
		c0.3,3.7,0.1,7.4,0,11C840.9,590.2,839.6,591.7,837,591.7c-0.6-3.9,1.8-7.5,1.1-11.5c-0.3-1.9-0.3-4.1-2.8-4.5
		c-2.2-0.4-3.7,1-4.9,2.6c-2.2,2.9-1.3,6.3-1.1,9.5C829.6,593,834.7,589.7,837,591.7z"/>
	<path class="st19" d="M538,417.4c1.5-5.4,6.9-7.6,9.8-11.8c7.9-11.3,18.7-15.3,32-13.1c4.8,0.8,9.9-1.4,14.6,1.3
		c-0.3,0.3-0.5,0.5-0.8,0.8c-6.5,2.1-13.2,0.6-19.8,1c-3.2,0.2-6.4-0.4-9.6,0.5c-0.6,0.3-1.2,0.6-1.7,0.9
		c-5.9,3.3-9.8,8.9-14.6,13.4c-3,2.4-5,6.2-9.1,7.4C538.5,417.6,538.2,417.5,538,417.4z"/>
	<path class="st38" d="M491.2,441.1c2,0,4-0.1,5.7,1.3c2.4,2.5,2.4,5.1,0,7.6c-0.3,0.3-0.6,0.6-0.9,1c-3.2,3.1-7.1,3.5-9.3-0.2
		C483.9,446.3,487,443.1,491.2,441.1z"/>
	<path class="st19" d="M947.1,689.3c-2.6-4.1-6.7-4-10.5-2.9c-4.1,1.1-2.5,5-2.7,7.9c-0.3,5.2-0.5,10.5,4.1,14.3
		c-4.2-0.6-5.8-3.8-6.3-7.2c-0.6-4-0.4-8.2-0.1-12.3c0.4-5.4,4.5-5.4,8.6-5.4C944.3,683.6,947.9,683.7,947.1,689.3z"/>
	<path class="st19" d="M543.2,627.4c2.7,1.9,1.4,4.7,1.5,7.1c0.6,9.4-1.1,18.9,0.9,28.3c5.3,5.3,12.3,9.1,14.8,16.8
		c0,0-0.2,0.2-0.2,0.2c-9-6.6-18.7-12.4-17.1-26.4C544,644.9,543.2,636.1,543.2,627.4z"/>
	<path class="st39" d="M313.6,568.2c-3.1-5.2-9.1-7.9-11.6-13.6c1-0.2,1.9-0.2,2.3,1.1c3.9,4.6,8.1,8.9,12.8,12.7
		c2.9,1.8,6,1.9,9.3,1.9c7.3-0.1,14.7-0.1,22,0c1.6,0,4-1.2,4.6,1.8c0,0.5,0,0.9-0.1,1.4c-10.9,1.4-21.9,0.7-32.8,0.2
		C316.9,573.5,314.7,571.4,313.6,568.2z"/>
	<path class="st40" d="M792.5,372.8c-6.3-2.6-13-1.6-19.4-1.1c-10.5,0.9-21,0.7-31.5-0.1c1.7-2.1,4.1-1.1,6.1-1.1
		c14.8-0.1,29.6-0.1,44.5-0.2c0.6,0.1,0.8,0.3,0.7,0.6c-0.1,0.3-0.2,0.5-0.4,0.5C792.5,371.8,792.5,372.3,792.5,372.8z"/>
	<path class="st19" d="M624.4,711.2c0-17.7-0.1-35.4-0.1-53c0-2.9-0.3-5.8,2.9-7.4c-2.4,9.8-0.9,19.8-1.2,29.7
		c-0.2,8.2,0,16.5-0.1,24.7C625.8,707.2,626.6,709.6,624.4,711.2z"/>
	<path class="st19" d="M572.1,413.4c-3-0.4-4.8,1.5-6.7,3.3c-5.5,5.2-11.2,10.3-16.8,15.5c-2.1,1.9-4.2,3.2-6.8,0.9
		c0.2-0.3,0.4-0.5,0.5-0.8c7.9-5.3,13.6-12.9,20.7-19.2C566.1,412.3,569.2,408.2,572.1,413.4z"/>
	<path class="st19" d="M733.5,378c-0.1,0.8-0.2,1.7-0.4,2.5c-3.9,8.1-9.5,13.9-19.2,13.7c-7.9-0.2-15.9,1-23.8-0.4
		c0,0-0.1-0.1-0.1-0.1c1.2-2.2,3.3-2.6,5.6-2.5c3,0.1,6.1-0.2,9.1,0.1c10.1,1,19-0.5,24.4-10.5C729.9,379.4,732,378.9,733.5,378z"/>
	<path class="st19" d="M401.4,638.9c4.8-11.2,3.5-22.5,1-33.9c2.6,0.4,4.1,2.8,3.9,4.6c-1.2,7.9,2.1,15.7,0,23.5
		C405.4,635.9,404.7,638.4,401.4,638.9z"/>
	<path class="st19" d="M381.5,450c5.3-8-2.4-10.2-6.2-14.1c-7.6,0.5-15.2,0.8-22.8-0.3c-1.6-0.7-2.5-1.8-2.5-3.6
		c7.2,1.9,14.6,1,21.9,1.2c5.3,0.2,12.8,7,13.3,12.2C385.5,448,384.7,449.9,381.5,450z"/>
	<path class="st19" d="M667.8,543.2c7.6,2.7,15.5,1,23.3,1.5c2.5,1.2,5.3,2.1,4.8,5.7c-0.2,0.2-0.4,0.5-0.6,0.7
		c-5.1-5.8-11.9-3.7-18.2-3.9C673.4,547.2,669.7,547.5,667.8,543.2z"/>
	<path class="st19" d="M353,572c-9.4-2.4-18.9-0.5-28.4-1.1c-2.8-0.2-5.8,0.5-7.6-2.5c11,2.2,22.1,0.8,33.2,1.1c5,0.1,8.4,1.6,9.1,7
		C357.1,575.3,356.2,572.1,353,572z"/>
	<path class="st19" d="M562.8,442.2c0.7-7.3,3.3-13.6,9.5-18c2.9-2.1,2.3-5.3,2.3-8.3c5.6,0.9,4,4.4,2.7,7.8c-2.4,3.3-6,5.6-8.1,9.2
		c-1.8,3.3-0.5,8.7-6.2,9.5L562.8,442.2z"/>
	<path class="st19" d="M748,544.7c-6.4,9.3-14.3,17.2-23.6,23.6c-0.1-0.3-0.3-0.5-0.4-0.8c2.7-6.5,8.8-9.9,13.2-14.9
		c1.8-2.1,3.9-4,5.9-6c1.4-1.1,2.6-2.9,4.8-2L748,544.7z"/>
	<path class="st19" d="M720.4,572.2c-2.7,2.2-4.6-0.1-6-1.6c-6.5-6.3-12.7-12.9-19-19.4c0,0,0.3-0.3,0.3-0.3
		c5.7-0.7,7.3,4.8,10.9,7.3c4.3,4.6,8.9,8.9,13.5,13.1C720.2,571.6,720.3,571.9,720.4,572.2z"/>
	<path class="st41" d="M576,423.9c1.1-2.9,2.9-5.9-1.3-7.9c-0.9-0.8-1.7-1.7-2.6-2.5c-3.8-4.2-6.1,1.5-9.2,1.4c-0.5-3.5,2-5,4.5-6.3
		c5.3-0.7,9.3,1.4,11.8,6.1c0.9,2,1.3,4.1,0.9,6.2C579.7,423,579.1,425.3,576,423.9z"/>
	<path class="st19" d="M379.2,597c-1.4-1.7-2.9-3.4-4.3-5.1c4.9,2.3,10.1,2.8,15.5,2.6c2.6-0.1,5.2,0.6,5.9,3.8
		c-0.4,0.1-0.7,0.2-1,0.3C390.1,596.3,384.5,599,379.2,597z"/>
	<path class="st19" d="M398.9,418.7c-6.8-5.6-12.4-12.2-17.1-19.6c0,0,0.2-0.2,0.2-0.2c1.3-0.6,2.3,0.1,3.3,0.8
		c3.2,3.1,6.5,6.1,9.3,9.6c1.2,3.2,6.1,4.6,4.5,9.2L398.9,418.7z"/>
	<path class="st19" d="M506.5,624.4c9.2,1.2,18.4,0.3,27.7,0.6c2.1,0.1,4.3-0.8,6.2,0.9c-9.3,0-18.6,0.1-27.9,0
		C510.4,625.9,508,626.7,506.5,624.4z"/>
	<path class="st19" d="M491.2,441.1c-0.3,0.3-0.5,0.7-0.8,1c-2.5,2.2-5.1,4.8-3.1,8.2c2.2,3.8,5.7,1.3,8.6,0.7
		c-1.3,4.1-4.5,3.4-7.4,2.5c-2.7-0.9-4.6-3-4-5.8C485.2,444.3,486.7,441.1,491.2,441.1z"/>
	<path class="st19" d="M633.4,644.2c1.4-1.7,2.8-3.4,4.2-5.1c1.1-1.5,2.1-3.2,3.9-4c3-2.7,6.1-5.4,9.1-8.1
		C646.8,634.6,641.1,640.4,633.4,644.2z"/>
	<path class="st19" d="M147.8,426.4c0.6-0.6,1.2-1.7,1.9-1.7c9.2-0.8,18.4-2,27.5,0.6C167.4,425.6,157.5,424.3,147.8,426.4z"/>
	<path class="st37" d="M362.2,677c0-1.3,0-2.6,0-3.9c1-4,5.3-5.3,7.1-8.7c0.9-1,2-1.4,3.3-0.8c1.2,1.6,0.2,2.9-0.4,4.4
		c-1,2.4-2.7,4.1-5.2,5C364.6,673.4,364.9,677.1,362.2,677z"/>
	<path class="st42" d="M350,431.9c0.6,0.8,1.2,1.6,1.7,2.4c-0.4,0.5-0.9,0.8-1.5,0.9c-2.2,0.3-3.7-1.2-4.8-2.7
		c-2.2-2.7-5-3.5-8.3-3.6c-0.5-3.1,1.3-4.3,4-4.7C344,426.9,347,429.4,350,431.9z"/>
	<path class="st43" d="M187.8,433.1c0,0.8,0,1.6,0,2.4c-3.9-2.3-7-5.5-9.3-9.4C183.6,425.9,185.4,429.9,187.8,433.1z"/>
	<path class="st19" d="M792.5,371.4c-0.1-0.4-0.2-0.8-0.3-1.1c7.7,1.2,11.2,7.1,14.7,13C801.3,380.2,798.9,373.4,792.5,371.4z"/>
	<path class="st19" d="M512.7,450c5.1-6.9,2.1-14.7,2.7-22.2c2.9,6.3,1.4,12.8,0.9,19.2C516.2,448.9,514.8,450.2,512.7,450z"/>
	<path class="st19" d="M890.9,493.3c1.9-5,5.5-8.4,10.4-10.4c0,0,0.1,0.1,0.1,0.1c-1.3,5.7-5.2,8.9-10.5,10.8L890.9,493.3z"/>
	<path class="st19" d="M503.8,619.3c1,1.7,1.9,3.4,2.9,5.1c-3.9-2.2-8-4.2-9.5-9c0,0,0.3-0.3,0.3-0.3
		C500.8,614.7,501.5,618.4,503.8,619.3z"/>
	<path class="st19" d="M925.9,437c2.1-4.2,5.3-7.3,9.4-9.5C933.1,431.5,929.9,434.6,925.9,437z"/>
	<path class="st19" d="M792.5,606.4c1.7,1.3,3.5,2.6,5.2,3.8c1.3,1.7,2.6,3.5,3.8,5.2C797.1,613.9,794.1,610.8,792.5,606.4z"/>
	<path class="st19" d="M907.8,660.4c-2.6-2.3-5.2-4.6-7.8-6.9c-0.7-0.6-1.4-1.1-1.6-2c0.1-0.3,0.3-0.5,0.4-0.8
		C903.2,652.7,906.8,655.3,907.8,660.4z"/>
	<path class="st19" d="M599.7,398.9c4.5,1.6,7.5,4.7,9.2,9.2c0,0-0.1,0.1-0.1,0.1c-5.1-0.6-7.4-4.3-9.4-8.4
		C599.4,399.5,599.6,399.2,599.7,398.9z"/>
	<path class="st19" d="M319,741.1c0.4-0.2,0.8-0.3,1.2-0.5c4.4,1.8,6.9,5.3,8.1,9.7c0,0-0.3,0.3-0.3,0.3
		C322.9,749.4,321.4,744.9,319,741.1z"/>
	<path class="st19" d="M343.6,696.6c2.4-2.9,4.2-6.4,8-7.8C350.5,693,348.1,695.9,343.6,696.6z"/>
	<path class="st19" d="M503.9,446.2c0.5,3.4,0.3,7.3,5.3,7.8c-1.5,1.8-3.7,2.2-4.7,0.2C503.2,451.9,500.9,449.1,503.9,446.2z"/>
	<path class="st19" d="M942.1,712.3c6.6-0.5,3-6.5,5.1-9.4c0,2.4,0.4,4.8,0,7.2C946.7,713,945.4,715.3,942.1,712.3z"/>
	<path class="st19" d="M189,437c3.6,1.7,6,4.5,7.9,7.9C192.7,443.8,190.1,441.2,189,437z"/>
	<path class="st19" d="M496.8,450c1-2.5,0.7-5.1,0-7.6C502.3,445,500.9,447.5,496.8,450z"/>
	<path class="st19" d="M333.1,498.6c2.2-2.3,4.5-4.5,6.7-6.8C339.3,495.8,337,498,333.1,498.6z"/>
	<path class="st19" d="M537.9,429.2c-2-4-2.1-7.9,0-11.8c0,0,0.3,0.2,0.3,0.2c2.2,3.5,1.8,7.1,0.5,10.8
		C538.5,428.7,538.2,428.9,537.9,429.2z"/>
	<path class="st19" d="M140.7,404.4c-1.8,2.7-3.7,5.1-6.8,6.4C134.7,407.1,136.7,404.7,140.7,404.4z"/>
	<path class="st19" d="M361.9,469.7c2.2-2.3,4.5-4.5,6.7-6.8C368.2,467,365.9,469.2,361.9,469.7z"/>
	<path class="st19" d="M892.6,645.7c3.6-0.2,5.5,1.7,6.3,5.1c0,0-0.2,0.2-0.2,0.2c-3.1,0.3-3.9-3.1-6.4-3.8
		C892,646.5,892,646.1,892.6,645.7z"/>
	<path class="st19" d="M367,673c1.5-1.6,3-3.3,4.5-4.9c0.2-0.2,0.4-0.4,0.7-0.6c0.2,0.2,0.4,0.4,0.7,0.6
		C372.1,671.1,370.4,673.1,367,673z"/>
	<path class="st19" d="M515.6,428.1c-2.1-1-4.3-0.7-6.5-0.1C511.3,424.4,513.5,424.1,515.6,428.1z"/>
	<path class="st19" d="M135.2,433.1c2.6-0.6,5.2-1.3,7.7-1.9C141,434.3,138.6,435.6,135.2,433.1z"/>
	<path class="st19" d="M371.2,588.2c-1.8-1.8-3.7-3.6-5.5-5.5C369.3,582.9,371.1,584.7,371.2,588.2z"/>
	<path class="st19" d="M594.4,393.7c3.1,0.4,4.8,2.2,5.3,5.2c0,0-0.2,0.2-0.2,0.2c-3.4,0-5.1-1.8-5.3-5.2L594.4,393.7z"/>
	<path class="st19" d="M401.4,604.1c-1.3-1-2.5-2-3.8-3c0,0-0.1-0.1-0.1-0.1c-0.6-0.8-1.9-1.1-1.4-2.5c0,0,0.3-0.2,0.3-0.2
		C399.5,598.9,401.5,600.6,401.4,604.1z"/>
	<path class="st19" d="M338.2,701.9c0.1-0.4,0.2-0.9,0.4-1.3c1.7-1.3,3.4-2.6,5.2-4C343.5,700.1,341.6,701.8,338.2,701.9z"/>
	<path class="st19" d="M376.7,662.8c0.3-0.2,0.7-0.3,1-0.5c0.1,3.4-2,5-5,5.8c0,0-0.1-0.1-0.1-0.1
		C372.2,664.8,374.7,663.9,376.7,662.8z"/>
	<path class="st19" d="M304.3,555.7c-0.8-0.4-1.5-0.7-2.3-1.1c-1.1-1.5-2.3-3.1-3.4-4.6C301.6,550.8,303.5,552.8,304.3,555.7z"/>
	<path class="st19" d="M313.6,736.1c3.3,0.2,4.1,2.9,5.5,5.1C315.7,741.2,315.3,738,313.6,736.1z"/>
	<path class="st19" d="M396.2,644.2c1.1-2.5,3.1-4,5.3-5.3C401.3,642.2,399.5,644,396.2,644.2z"/>
	<path class="st19" d="M144.5,400.3c-0.1,2.5-2.3,3-3.9,4.2C140.4,401.7,141.9,400.5,144.5,400.3z"/>
	<path class="st44" d="M356.9,682c-0.1-2.8,1.3-3.9,4-3.6C359.5,679.6,358.2,680.8,356.9,682z"/>
	<path class="st19" d="M386.6,653.3c1.2-1.6,2.1-3.6,4.3-4.2C390.2,651.3,389.7,653.6,386.6,653.3z"/>
	<path class="st19" d="M327.9,503.9c1.3-1.4,2.7-2.8,4-4.2C332,502.5,330.6,503.9,327.9,503.9z"/>
	<path class="st19" d="M364.7,581.7c-1.4-1.4-2.8-2.8-4.2-4.2C363.4,577.4,364.8,578.8,364.7,581.7z"/>
	<path class="st19" d="M724.4,568.3c-0.3,2.3-1.6,3.7-4,3.8c0,0-0.2-0.3-0.2-0.3c0.2-2.6,1.2-4.1,4.1-3.6L724.4,568.3z"/>
	<path class="st19" d="M541.8,433.2c-2.4-0.3-3.7-1.5-3.9-4c0,0,0.3-0.3,0.3-0.3c2.6,0.1,4.1,1.3,3.7,4.1L541.8,433.2z"/>
	<path class="st19" d="M786,599.6c1.5,1.1,3.8,1.5,3.7,4C788.1,602.6,785.8,602.2,786,599.6z"/>
	<path class="st19" d="M938.1,708.6c1.4,1.3,2.7,2.5,4.1,3.8C939.5,712.5,938.2,711.1,938.1,708.6z"/>
	<path class="st45" d="M886.9,643c1.3,0.1,2.6,0.2,3.9,0.2c0.6,0.8,1.2,1.6,1.8,2.4c0,0-0.4,0.1-0.4,0.1l-0.4-0.1
		C889.1,646.6,887.3,646.1,886.9,643z"/>
	<path class="st19" d="M392,648.1c1.1-1.6,2.3-3.1,4.2-3.9C396.2,647,394.7,648.2,392,648.1z"/>
	<path class="st19" d="M738.7,372.8c-0.7,1.9-2.1,3.2-4,4C734.8,374.2,736.2,372.9,738.7,372.8z"/>
	<path class="st19" d="M627.1,650.8c0.7-2,2.4-3,3.9-4.3C631.2,649.2,629.9,650.7,627.1,650.8z"/>
	<path class="st46" d="M883,399c3.1,2.7,6.2,5.3,9.2,8c1,0.9,3,0.2,3.3,2.2c-0.7,4.9-4.6,4.6-8,4.7c-11,0.3-21.1,4.6-31.5,7.3
		c-4.2,1.1-7.9,2-12,0.5c-4.6-1.6-9.1-2.6-13.4,1.3c-2.5,2.3-6.2,1.5-9.5,1.1c-1.5-0.2-2.9-0.3-4.4,0.2c-10.5,3.2-10.8,3-15.5-6.7
		c0.4-3.4,2.4-4.7,5.7-4.1c3.7,0.1,7-0.4,10.5-2.4c5.6-3.1,12-4.1,18.5-3c0.6,0.1,1.4,0.4,1.9,0.1c4.1-2,8.2-4.1,11.5,1.2
		c5.6-3.8,12.3-0.8,17.6-2.4C872.3,405.3,879.6,405.4,883,399z"/>
	<path class="st47" d="M804.3,385.9c2.9,2.3,5.9,4.5,8.5,7c2.6,2.5-0.2,5.8-1.4,5.3c-7.6-2.8-7.7,4-10.4,7.5
		c-0.3,0.3-0.4,0.8-0.6,1.1c-3.5,4.1-8.2,3.9-12.9,5.1c-8.7,2.3-16-2.9-24-1.8c-2.3-1.6-4.7-2.9-7.6-3c-4.6-0.2-7.4-2.8-9-7
		c-0.7-3.4-0.3-6.4,2.9-8.4c4.5-0.4,9-1.4,13.4,0.6c2.4,1,4.8,0.3,6.9-0.9c4.2-2.2,7.3-0.8,10.4,2.3c6.3,6.3,8,6.1,14.9,0.2
		C798.5,391.4,802.4,389.8,804.3,385.9z"/>
	<path class="st40" d="M804.3,385.9c0.6,4.2-1.3,6.6-5.3,7.7c-1.3,0.3-2.4,0.7-3.3,1.9c-5.1,6.4-11.2,6.7-15.9,0.2
		c-2.9-3.9-5.4-4.8-9.7-2.2c-2.6,1.6-6,2.7-9.1-0.1c-3.1-2.8-7.2,2.1-10.5-0.9c-3.4-2.1-3.4-4.8-1.3-7.9c3.3,1.6,6.3,2.1,10.1,0.3
		c3.2-1.6,7.4-3.2,10.9,0.6c0.3,0.4,1.3,0.5,1.9,0.4c8.8-1.6,18.1,0.3,26.7-3.2c0.7-0.3,1.1-1.3,1.7-1.9
		C801.6,382.4,803,384.1,804.3,385.9z"/>
	<path class="st48" d="M763.6,409.5c5.3-0.7,10.7-1.7,15.5,2.2c1.1,0.9,2.9,0.5,4.2-0.8c0.7-0.8,2.3-1.9,2.6-1.7
		c5.7,4.3,9.7-1.6,14.6-2.3c4.1,0.3,4.5,4.3,6.6,6.6c-1.9,1.1-4.3,1.6-5.2,3.9c-1.4,1.6-3.4,2.6-4.4,4.7c-1.3,2.6-3.9,4-6.4,3.3
		c-6.2-1.8-10.6,1.2-15.3,4.3c-3.8-1.1-6.6-3.9-9.4-6.5C764.4,418.7,763.4,414.2,763.6,409.5z"/>
	<path class="st49" d="M629.8,561.6c-2.9,0.5-5.8,0.5-8.4-1.3c-9.4-6.4-12.5-5.7-17.8,3.9c-6.7-1.7-13.8,0.5-20.5-1.7
		c-2.5-1.7-4.9-3.4-6.2-6.2c0.1-2.8,1.8-4.6,4.3-4.8c3.3-0.2,6.1-1.9,9.1-2.8c10.1,1.9,19.7-2.3,29.7-1.9c3.8,0.2,7.7-1.4,11.5,0.4
		C633.6,552.5,630.4,556.9,629.8,561.6z"/>
	<path class="st50" d="M636.4,601c-18.4,0-36.7,0-55.1,0c-0.3-0.3-0.5-0.6-0.8-0.9c-1.2-3.1-1.4-6.1,0.9-8.8
		c2.7-1.8,5.8-1.7,8.8-1.4c8.6,0.8,17.3-0.2,25.9,0.1c4.5,0.1,8.6,0.6,12.4,3.1c0.9,0.5,1.8,0.9,2.6,1.4
		C633.1,596.5,636.5,597.3,636.4,601z"/>
	<path class="st51" d="M628.5,593.1c-15.7-2.3-31.5-0.5-47.2-1.3c-0.3-0.1-0.6-0.3-0.9-0.4c-2.2-2.6-0.7-4.4,1.2-6.2
		c4.3-2.9,8.9,0.1,13.3-0.8c4.7-1,9.3-1.7,13.5-4.1c2.1-1.2,4.6-0.7,7-0.3C620.3,583.8,624.6,588.2,628.5,593.1z"/>
	<path class="st52" d="M582.6,561.7c5.3,0,10.7,0,16,0c2,0,4.5-0.6,5,2.6c0.9,2.2,1.7,4.4,2.6,6.6c0.7,4.2-1.6,5.8-5.2,6.5
		c-6.1,1.2-12.3,2.1-18.5,0.9c-1-0.4-1.7-1.1-2.2-2.1C580.3,571.3,578.7,566,582.6,561.7z"/>
	<path class="st53" d="M582.6,577.4c5.3-1.4,10.7-0.2,16.1-1.3c4.1-0.8,6-2,7.5-5.3c3.6,2.5,6.6,5.6,9.2,9.2
		c-9.9,3-19.3,8.9-30.5,5.4c-1-0.3-2.4,0.7-3.6,1.1c-1.4-0.4-2-1.5-2.1-2.9C579.4,581.1,579.9,578.7,582.6,577.4z"/>
	<path class="st54" d="M629.8,561.6c-0.4-4.9,0.3-9.7,1.3-14.4c0.3-1.1,0.9-1.9,2-2.3c5-0.2,9.9-2.6,15-1.6c3.1,3.5,6.2,7,9.2,10.5
		c-0.7,0.4-1.6,1.3-2.1,1.2c-7.5-2.4-14,4.5-21.6,2.4C630.8,556.5,631.7,560.7,629.8,561.6z"/>
	<path class="st51" d="M636.4,601c-1.7-2.2-3.5-4.3-5.2-6.5c0.4,0,0.9-0.1,1.3-0.1c6.7,5.6,12.8,11.7,18.4,18.4
		C644.3,610.9,641.9,604,636.4,601z"/>
	<path class="st55" d="M156.3,399c2.3-1.8,5-1,7.6-1c41.4,0,82.8,0,124.2,0c4.4,0,8.8-0.1,11.4,4.6c3.8,8.2,3.8,8.2-2.6,14
		c-6.8,6.2-6.9,9-0.1,16c1.4,2,4.4,2.9,4.1,6c-3.4,3.4-6.1,0.1-9-0.8c-5-2.6-12-0.9-15.1-7.3c-1.4-2.4-1.9-5-1.2-7.6
		c1.7-6.2-1-12.1-0.7-18.2c0.2-3.3-2.5-3.7-5.1-3.7c-6.1-0.1-12.2,0-18.4,0c-5.9,0.2-11.8,0.1-17.7,0c-5.3,0.3-10.6,0.1-15.8,0
		c-6.6-0.3-13.3,1.7-19.6-1.7c-5.7,0-11.4,0-17.1,0c-4.8,2.6-9.6,2.4-14.4,0C163.2,399.2,159.7,399.1,156.3,399z"/>
	<path class="st56" d="M166.7,399.3c4.8,0,9.6,0,14.4,0c2.8,8.4-0.7,17.6,4.1,26c-5.4-2.1-10.6-3.1-15.9-2.8
		C168.8,414.7,171.2,406.6,166.7,399.3z"/>
	<path class="st57" d="M198.2,399.2c6.6,0,13.1,0,19.7,0c1,0.9,2.2,1.7,2.4,3c1.3,9.5,3.9,19,2.6,28.7c-6.1,0.2-12.1,0.9-17,5.3
		c-0.7,0.6-1.7-1-2.3-1.8C202.6,422.5,196.6,411.5,198.2,399.2z"/>
	<path class="st35" d="M203.5,434.4c1.4,0.5,3.1,1.9,4.1,0.2c3.8-6.7,8.5-7.1,14.3-2.8c11.5,3.7,14.3,14.5,19.5,23.4
		c1.2,2.5,2.2,5.1,0.9,7.9c-1.4,1.7-3.3,2.1-5.3,2.1c-3.4-2.6-6.5-5.7-11.3-5.1c-3.7-2.6-7.7-5-9-9.9c-2.8-4.5-2.8-11.5-10.9-11.1
		C203.4,439.2,203.5,436.3,203.5,434.4z"/>
	<path class="st58" d="M216.6,450.2c3.1,3.1,6.1,6.1,9.2,9.2c0.2,3.2,3.1,3.1,5.2,4.1c3.7,1.9,3.9,3.9,0.4,6
		c-2.1,1.2-4.1,2.3-5.8,4.1c-4.6,5-7.9,5.4-13.5,1.4c-1.7-1.2-2.5-1.1-3.9,0c-1.5,1.2-3.1,1.5-4.7,0c0-8.3,0-16.6,0-24.9
		c1.3-0.2,3,0,3.7-0.8C210.8,445.7,213.6,447.5,216.6,450.2z"/>
	<path class="st59" d="M749.2,384.6c0,2.7-0.3,5.4,1.3,7.9c-2.6,2.1-2.7,4.9-2.6,7.9c-7.8,1.4-15.6,2.6-23.1-1.2
		c-8.9-4.9-18.5-3.5-28-3.2c-2.3,0.1-4.8,1-6.8-0.9c0.1-0.4,0.1-0.8,0.2-1.3c6.3-2.3,13-1.6,19.4-1.1c8.1,0.6,14.4-1.7,19.3-8.2
		c1.2-1.5,2.9-2.6,4.3-3.9C737.2,386.8,744,382.7,749.2,384.6z"/>
	<path class="st60" d="M637.7,532.8c-9-0.6-6.3-8.1-7.9-13.1c6.8-2.3,14.1-2.1,20.9-1.2c4.5,0.6,7.8,0.9,10.6-2.8
		c7.4-3.1,18.3-1.1,22.3,3.9c-1.5,0.1-3.2-0.2-3.7,1.8c-1.8,7-6.9,5.4-11.7,4.4c-1.2-0.3-2.9-1.5-3.6-0.4c-3.8,6.2-12,3.9-16.4,8.6
		C644.3,536.5,640.9,535.3,637.7,532.8z"/>
	<path class="st61" d="M595.6,498.7c-0.9,0-1.7,0-2.6-0.1c-0.8-0.9-1-2-0.8-3.1c0.2-0.8,0.3-1.9,1-2.4c5.8-4.5,12.3-8.2,18.8-11.1
		c5.6-2.5,12.8-2,19.1,0.4c1.6,1.9,1.6,4,1,6.2c-2.7,3.6-6,6.7-9,10c-2.8,1.7-6,1.9-8.9,1.1c-4-1-6.8-0.4-8.9,3.1
		c-1.2,2.1-2.3,1.5-3.5,0.2C600.3,501.1,598.1,499.7,595.6,498.7z"/>
	<path class="st62" d="M623.2,498.7c0.9-4.5,3.2-7.9,7.9-9.2c9.9,5.9,20.8,9.1,31.6,12.8c2.1,2.6,2.2,5.4,0.9,8.4
		c-0.6,0.9-1.2,1.6-2.4,1.2c-2.7,1.6-4.9,2.2-8-0.3c-3.4-2.6-8.3-1.5-12.5-2c-6.2-0.8-11.3-1.8-14.1-8
		C626.1,500.4,624.4,499.6,623.2,498.7z"/>
	<path class="st63" d="M661.3,511.8c0.4-0.4,0.9-0.9,1.3-1.3c4.7-4.3,10.5-2.3,15.6-2c8.2,0.4,16.3-1.8,24.4-0.4
		c1,0.4,1.9,1.1,2.5,2c1.1,2,1.2,4.1,0.2,6.2c-0.2,0.3-0.5,0.5-0.7,0.8c-7.1,0.1-13.4,6.3-21,2.6c-7-3.6-14.6-3.9-22.3-3.9
		C661.3,514.4,661.3,513.1,661.3,511.8z"/>
	<path class="st64" d="M516.8,477.6c5.1-1,7.4-4.3,6.5-9.3c-1.5-8.4,2.9-13.8,9.1-18.4c6.2,1.4,13.5-0.2,18.1,5.2
		c3,3.5,6.3,6.2,10,8.6c-2.1,4.5-5.4,8-9.5,10.9c-3,0.9-6.1,1-9.2,1.8c-2.2,0.1-4-0.3-3.9-3.1c0.2-3.3-2-4.2-4.7-5.3
		c-7.4-2.9-7.4-3-8.5,4.6C524.1,477.8,520.8,478.1,516.8,477.6z"/>
	<path class="st65" d="M541.9,476.4c1.9-4.9,6.1-1.7,9.2-2.6c6.7-1.4,9.4,0.9,11.3,9.9c-0.1,2.1-0.5,4.1-1.3,6
		c-2.7,2.7-13.5,10.1-15.2,10.3c-2.6-2.2-5.3-4.4-7.9-6.6C540.2,488,541.1,482.2,541.9,476.4z"/>
	<path class="st66" d="M894.8,408.2c-1,0-2-0.2-2.6-1.2c12.8,0,25.6-0.1,38.4-0.1c1.7,0,3.5-0.4,4.8,1.2c2.5,7.7,0.5,11.3-6.9,12.8
		c-4.4,0.9-7.8,3.9-12.2,5.2c-5.7,1.7-12.1-0.3-17.4,3.6c-0.8,0.6-2.7,0.4-3.3,1.9c-1.4,3.1-3.8,3.4-6.4,1.8
		c-3.1-1.8-4.8-0.5-6.2,2.2c-0.5,0.4-1,1.1-1.6,1.1c-12.8-0.6-23.7,6.5-35.7,9c-0.9,0.2-1.7,0.2-2.6,0c-4-2.1-4.8-6.3-6.6-9.9
		c-0.2-1.8,0.5-3.3,1.7-4.5c3.8-2.3,8.2-2.8,12.5-3.6c2.1-0.4,4.4-0.3,6.4-1.3c10.2-5.1,21.2-6.2,32.3-6.3c1.3,0,3,0,3.6-1.2
		c3-5.9,8-7.4,14.1-6.7c1,0.1,2-0.6,2.7-2C904.9,408.6,899.3,411.6,894.8,408.2z"/>
	<path class="st67" d="M842.3,444.9c8.2-1.4,15.8-4.6,23.3-8c5.6-2.5,11.6-0.6,17.4-1.1c1.6,5.2,4.4,1.4,6.4,0.7
		c3-1,5.4-0.5,7.6,1.6c1.9,1.8,0.1,3-0.9,4.2c-0.9,0.9-1.8,1.8-2.6,2.7c0.1,8.5-7.5,8.3-12,8.4c-10.1,0.2-18.3,6.9-28.1,6.8
		c-6.6-0.1-12.5,2.9-18.8,3.6c-0.6-0.4-1-1-1.3-1.6c-0.7-3-1.9-5.9-0.8-9.1C836.4,451.1,838.5,447,842.3,444.9z"/>
	<path class="st68" d="M362.2,582.6c4.2,4,8.6,7.9,12.6,12c3.8,4-1,8.6,0.5,12.9c-4.7,1.7-9.2,4.9-14.7,2.4c-2.2-1-2.9,1.1-3.6,2.7
		c-1.3,3-3.6,4.6-6.7,3.4c-4.1-1.6-4.5,3.5-7.6,3.6c-2.2-3-5.7-4.5-8-7.4c-2-4.4-7.1-8.2-2.7-13.9c1.2-2.1,2.6-3.8,5.2-3.9
		c4.8-3,10.7-3.4,15.9-4.4C358.5,589.1,360.2,586.3,362.2,582.6z"/>
	<path class="st69" d="M286.1,606.3c0.7-4.6-1.8-9.6,2.4-13.6c2.8-2.7,10.9-2.2,11.6,1.4c0.8,3.7,3.7,3.8,5.6,5.7
		c2.5,3,3,6.4,2.4,10.2c-0.7,2.5-2.1,4.7-2.9,7.2c-2.9,8.8-10.4,12.1-19.7,8.6c-0.3-2.2-0.1-4.5-0.1-6.7
		C285.8,614.7,284.7,610.4,286.1,606.3z"/>
	<path class="st70" d="M313.6,568.2c3.4,3.5,7.6,4,12.3,4.1c9,0.2,18.1-1.6,27,1.2c1.3,0.5,2.1,1.4,2.6,2.6c0.1,4.3-3.3,5.5-6.3,6.3
		c-5.6,1.5-11.4,2.9-17.4,1.6c-2.9,0.1-4.7,3-7.9,2.7c-3.3-0.2-5.8-0.7-7.7-3.8c-2.2-3.8-7-4-10.2-1c-3.4,3.3-3.4,3.3-8.7,3
		c0.7-2.7,2.8-4.3,4.3-6.2c0.6,0.1,1.7,0.5,1.8,0.4C305.5,574.1,310.5,572.1,313.6,568.2z"/>
	<path class="st71" d="M307.1,610.2c-0.4-3.5-0.9-7-1.3-10.5c4.3-8.3,4.2-8.1,11.7-2.2c4.4,3.4,9.6,2.1,14.5,0.9
		c-2,5.4,2.1,8.9,3.9,13.1c-4.4,4.6-10.8,3.7-14.9,2.1C316.3,611.9,311.7,611.5,307.1,610.2z"/>
	<path class="st39" d="M332,584c4.3-2.5,9.2-1.5,13.8-2.4c4.1-0.8,7.3-2.3,9.8-5.5c2.7,1.7,4.9,3.9,6.6,6.6c0,5.4,0,8.8-8,8.8
		c-5.1,0-11,3.1-16.9,3C337,590.2,332.1,588.3,332,584z"/>
	<path class="st72" d="M286.1,606.3c0,4.4,0,8.7,0,13.1c-0.5,0.6-1,0.6-1.4,0c0-4.4,0-8.8,0-13.1
		C285.1,606.3,285.6,606.3,286.1,606.3z"/>
	<path class="st73" d="M855.4,661.3c1.3,4,6.8-0.4,7.9,3.9c2.1,2.3,3,4.9,2.2,7.9c-1.7,5.7-5.5,6.9-11.3,7.3
		c-10.1,0.6-20.1,3.4-30.3,3.2l0,0c-0.8-5.7-0.9-11.4,0-17.1c4.8,0.4,8.7-0.9,12.7-4.2c3.4-2.7,8.2-3.9,12.8-4.1
		C851.8,658.4,854.3,658.7,855.4,661.3z"/>
	<path class="st74" d="M915.7,691.5c0,3.9,0,7.9-0.1,11.8c-3.5,6.8-8.7,9.8-16.6,8.1c-4.5-0.9-9.4,1.9-13.8-1.8
		c-1.8-1.5-3.7-3.1-5.3-4.8c-2.2-2.4-4.8-4.4-7.6-6.1c-0.7-0.1-1.3-0.4-1.7-1c-0.6-2,0.3-3.3,1.9-4.4c6.2-0.2,12.5-0.2,18.4-2.8
		c1.8-0.8,3.8-0.1,5.7,0.5c4.5,1.7,8.9,1.7,12.9-1.4C912.3,687.6,914.3,688.7,915.7,691.5z"/>
	<path class="st75" d="M915.7,691.5c-2-1.4-3.8-2.9-5.9,0c-2.8,3.8-7.5,3.6-10.7,2.2c-4.9-2.2-9-1.6-13.4,0.4c-4.4,2-8.8,0.8-13.3,0
		c-2.4-4.5,1.7-8.2,1.6-12.5c0.3-0.7,0.6-1.2,1.1-1.7c6.3-1.9,12.4-4.7,19.2-4.9c3.6,2.8,8.5,3.9,12.2,3c7-1.7,8.3,1.8,9.2,7
		C915.7,687.1,915.7,689.3,915.7,691.5z"/>
	<path class="st76" d="M894.8,675.8c-6.6,1.7-13.1,3.5-19.7,5.2c-2.7-1.3-4.7-3.7-7.8-4.2c-1.7-0.3-3.2-1.4-2.7-3.6
		c-0.4-2.6-0.9-5.2-1.3-7.9c3,0,6.1,0.3,8.4-2.4c1.3-1.5,2.9-1.5,4.8-0.9c3.2,1.1,6.4,0.9,9.6-0.1c2.1-0.7,4.2-1.1,6.1,0.9
		c2.5,2.7,3.7-0.3,5.3-1.4C899.6,666.7,898,671.4,894.8,675.8z"/>
	<path class="st77" d="M855.4,661.3c-7.6-2.6-15.9-0.3-21.2,5.5c-3,3.4-6.1,3.6-9-0.3c6.2-8.3,11.1-18,23.8-17.6
		c4.1,0.1,8.1-1.4,12.2-1.9c2.2,0.2,4.7,0.3,3.4,3.7C863.9,656.4,859.3,658.6,855.4,661.3z"/>
	<path class="st78" d="M894.8,675.8c0.9-4.8,1.7-9.6,2.6-14.4c7.1-2.8,17.7,5.2,18.3,13.9c0.2,3.2,0,6.5,0,9.7
		c-2.2-2.8-2.1-9.2-9.1-4.8C905.5,680.9,897.2,681.6,894.8,675.8z"/>
	<path class="st79" d="M864.6,650.9c-0.1-2.7-2-2.6-3.9-2.6c-0.8-3.3,2.1-3.8,3.9-5.1c7.4,0,14.9-0.1,22.3-0.1
		c1.3,1.5,2.8,2.5,4.8,2.6c2.3,1.8,4.6,3.5,6.9,5.3c0.4,0.9,0.9,1.7,1.3,2.6c-8.9-8.1-19.1-0.7-28.5-2.3
		C869.4,650.9,866.9,651.2,864.6,650.9z"/>
	<path class="st75" d="M872.5,698.1c4.6,1,6.8,5,9.9,7.9c7.9,7.3,22.7,7.2,30.3-0.2c0.9-0.9,2-1.6,3-2.4c0.1,0.5,0.2,1,0.2,1.5
		c-2.3,5.4-6.6,7-12.2,7.9c-13.5,2.3-22.7-4.3-31.3-13.1C871.7,699.1,871.8,698.6,872.5,698.1z"/>
	<path class="st80" d="M581.3,601c0,1.7,0,3.5,0,5.2c0,1.4-0.4,2.7-1.6,3.5c-2.9,1.7-6.1,2.1-9.5,2c-2-0.1-4.1-0.5-5.7,0.9
		c-2.8,2.3-5.1,1.8-7.3-0.7c-2.6-2.8-5.8-3.1-9.5-3.1c-8.8,0-17.6-2.4-26.6-0.8c-2,0.4-3.7-1.1-4.6-3.1c0-4.9,3.4-6.1,7.2-6.2
		c3,0,5.9-0.2,8.6-1.7c4.2-1.3,8.2,0,12.2,0.6c9.3,1.3,18.6,1.5,27.9,1.3C575.6,599,578.7,598.8,581.3,601L581.3,601z"/>
	<path class="st81" d="M579.9,608.9c0-1.1,0.3-2.1,1.3-2.6c8.9,1.5,17.5,3.6,26.9,3.5c10.5-0.1,21.1-0.1,31.7,0.5
		c2.7,0.1,3.1,1.8,3.1,3.9c-4.7,2.8-10.2,1.9-15,1.7c-4.6-0.2-9.1,2.1-13.9,0.2c-3.3-1.2-4.1,4.8-7.8,4.6
		c-8.9,0.3-17.5-1.1-25.5-5.1C579.1,613.5,578.1,611.3,579.9,608.9z"/>
	<path class="st82" d="M603.6,624.6c0.6,2.3,4.1,2.4,3.9,5.2c0.1,2.6-0.9,4.7-2.6,6.6l0,0c-8.9,0.9-17.8,3.1-26.6-0.8
		c-2-0.9-3.8,0.2-5.7,0.2c-8.6,0-17.2-0.1-25.6-2c-0.7-8.3,1.7-10.5,10-9.6c6.2,0.7,12.4,1.9,18.8-0.4c4.2-1.5,8.6,0.8,12.7,2.2
		c3.2,1.1,5.7,1.3,8.1-1.7C598.5,621.8,601.2,621.8,603.6,624.6z"/>
	<path class="st83" d="M603.6,624.6c-3-0.9-5.8-1.6-7.2,2.5c-1,2.8-3.1,3.1-5.8,2c-6-2.5-11.6-5.1-18.7-2.3
		c-4.1,1.6-9.7,0.3-14.5-0.6c-7.5-1.3-9.9,0.2-10.1,7.6c0.3,0.3,0.5,0.5,0.5,0.9c0,0.3-0.1,0.5-0.2,0.5c-0.5,0.4-1,0.3-1.4-0.1
		c-0.5-3.5,0.6-7.2-1.5-10.5c1.6-2.6,4.3-2.9,6.9-2.9c3.9,0,6.7-1.5,8.1-5.2c1.7-1.7,3.6-2.7,5.5-0.7c3.5,3.8,6.5,2.8,9.9-0.2
		c1.9-1.7,4.2-2.1,6.4-0.2c3.6-0.3,6.7,0.6,9.9,2.5c3.7,2.2,8.3-1.4,12.2,1.4c0.8,0.5,2.1,0.4,2.8,1.4
		C606.4,622.7,604.4,623.3,603.6,624.6z"/>
	<path class="st84" d="M604.9,636.4c-0.1-2.6,0.5-4.9,2.6-6.6c9.2-5.6,19.4-0.9,28.9-2.6c2.7-0.5,5.5,0.6,7.1-2.9
		c0.8-1.7,3.3-1.5,4.5,0c1.6,2-0.8,2.1-1.8,3c-2.1,2-4,4.3-6,6.5c-3.6,0-7-0.1-10.3,2.6c-2.7,2.3-6.8,0.3-9.9-0.3
		C614.9,635.2,609.9,635.9,604.9,636.4z"/>
	<path class="st84" d="M641.6,635.1c-0.8,1.8-2.1,3.1-3.9,4c-0.2-2.3,1.9-3.4,2.6-5.2C640.7,634.2,641.2,634.7,641.6,635.1z"/>
	<path class="st85" d="M480.1,543.2c3.5-3.6,7-7.2,10.5-10.7c4.7,6.7,5.8,6,13.9,4.7c7.3-1.2,14-4.8,21.6-4.3c2.2,0,4.4,0.2,5.1,2.9
		c0.6,2.4-0.8,3.6-2.7,4.5c-2.5,1.2-3.5,3.7-5,5.7c-1,1.4-2.6,1.8-4,2.4c-4.2,1.6-8,4.9-12.9,2.7c-3.9-6.9-10.2-6.4-16.6-5.4
		c-3.3,0.5-6.4,0.4-9.2-1.6C480.5,543.7,480.3,543.4,480.1,543.2z"/>
	<path class="st86" d="M519.6,547.2c0.9-1.5,2.5-1.3,3.9-1.3c6.1,1.1,12.2-1.2,18.4,0c3.8,0.7,5.6-0.9,5.3-5
		c-0.1-2.2-0.9-4.8,1.2-6.7c0,0,0,0,0,0c3.5,4.4,1.2,9.4,1.7,14.1c-0.1,2.9-1.1,5.4-3.3,7.3c-1.1,1-3.1,1.2-3.8,2.4
		c-4.6,7.4-11.5,6.4-18.4,5.5C520.9,558.6,516.8,554,519.6,547.2z"/>
	<path class="st87" d="M526.2,532.8c-6.2,1.1-11.2,7.2-18.4,4.5c-1.6-0.6-3.1,1.2-4.6,2c-5.9,3.2-11.9-0.1-12.5-6.9
		c1.8-2.5,3.8-4.6,6.3-6.3c3.9,0,7.9,0.4,11.7,0C515.7,525.5,521.9,526.4,526.2,532.8z"/>
	<path class="st88" d="M726.9,534.1c-2.2,0.2-3.2-0.8-4.3-2.9c-4-7.3-6.4-8-14.1-4.9c-2.7,1.1-4.9,1.8-6.5-1.4
		c1.7-2.3,3.2-4.8,2.6-7.9l0,0c6.2-0.8,12.3-1.8,18.6,0.1c4.6,1.4,9.5,0.7,14.3,0c3.4-0.5,6.8-2,10.2-0.2c0.1,4.6-1.9,8.8-2.2,13.3
		C741.4,537.2,734,538.7,726.9,534.1z"/>
	<path class="st89" d="M692.8,532.8c2.7,3.8,1,10.2-3,10.3c-9.1,0.3-18.9,2.3-25.9-6.4c0.6-3.6,3.5-2.4,5.7-2.6
		C677.3,533.4,685.2,535.5,692.8,532.8z"/>
	<path class="st90" d="M637.7,532.8c3.5,0.4,7,0.9,10.5,1.3c0,3.1,0,6.1,0,9.2c-4.8,3.3-10.3,2.6-15.7,2.6c-2.5-1-3.4-3.6-5.2-5.2
		c1.9-1.8,1.7-4.4,2.6-6.6C632.3,532.7,635.5,535.8,637.7,532.8z"/>
	<path class="st91" d="M342.5,619.4c2.6-2.5,3-9.2,9.4-4.3c1.6,1.3,3.1-1.2,3.7-3.3c1.1-3.8,2.2-8,6.9-2.6c1,1.2,2.4,1.1,3.5,0.2
		c2.8-2.5,6.1-1.6,9.3-1.8c0.2,1.8-0.6,3.9,1.3,5.2c-1.6,2.4-1.3,5.2-1.3,7.9c2.1,6,0.7,8.7-5.4,9.1c-3.5,0.2-6.2,1-8.6,3.6
		c-4,4.3-9.6,3-14.6,4.1c-1.1,0.1-2.1,0-3.1-0.4c-4.2-3.6-2.3-9.1-4.4-13.4C339.4,621.5,339.5,619.3,342.5,619.4z"/>
	<path class="st92" d="M346.4,636.4c1.7-2,4-1.3,6.1-1.3c3,0,6-0.5,7.6-2.8c2.6-3.7,5-5.2,10-4.1c5,1,5.4-3.5,5.1-7.5
		c3.2-0.2,5.3,1.3,6.5,4.3c1.6,3.7,3.7,3.9,6.1,0.5c1-1.4,0.6-5.1,3.1-3.6c2.2,1.3,5.6,1.8,6.4,4.9c0.6,2.2-0.2,4.1,3.5,5.4
		c3.3,1.1-0.5,2.3-2,2.9c-0.5,0.7-0.9,1.8-1.7,1.9c-5.3,0.5-10.2,2.6-15.2,3.9c-6.5,1.7-13.5,4.9-20.7,2
		C356.5,640.4,351.2,639.1,346.4,636.4z"/>
	<path class="st93" d="M360.9,641.7c7.1,2.6,14.7-0.2,20.3-2.3c6-2.3,12-2.4,17.8-4.2c-0.1,5.5-6.4,6.2-7.9,10.5
		c-3.1,3.6-7.3,4.1-11.8,3.9c-2.2,0.9-4,1.9-5.4,4c-3.7,5.7-4,5.6-8.8,1.2c-1.1-1-2.6-1.5-3.5-2.8
		C360.2,648.6,359.7,645.2,360.9,641.7z"/>
	<path class="st44" d="M370,665.3c-1.5,3.8-5.1,5.4-7.9,7.9c-5,0.9-9.1,3.9-13.8,5.6c-8.7,3.2-15,12.3-25.9,10.2
		c-1.6-0.3-3.3,0.8-3.7,2.2c-1.3,4.6-5.7,4.8-8.8,6.8c0-0.9,0-1.8,0-2.7c1-2.2-0.3-4.7,0.9-6.9c5.1-5,9.9-10.5,18.2-9.6
		c0.6,0.1,1.3-0.3,1.8-0.7c8.5-7.1,19.7-8.8,28.8-14.9C363.5,660.7,367.6,659.9,370,665.3z"/>
	<path class="st94" d="M726.9,534.1c4.4,1.2,8.8,1.3,13.2-0.2c2.5-0.8,4.2-2.1,3.9-5.1c4.1-2,4.6,2.3,6.8,3.8c2.6,2.3,2.7,4.5,0.2,7
		c-2.3,2.2-4.4,4.6-6.8,6.6c-3.9,0.5-7.6,1.1-11.4,2.7c-4.7,2-9.8,2.2-14.5-0.5c-5.1-2.9-8.9,0.2-12.4,3c-2.9,2.3,2.8,5,0.2,7.6
		c-4-2-5.8-6.7-10.2-8.1c-0.5-2.8-3.3-3.9-4.5-6.1c5,2.1,8.5-2.4,13-3.2C711.9,540.1,719.3,536.7,726.9,534.1z"/>
	<path class="st95" d="M337.1,429.1c2.5-3,4.5-3,7.1,0.2c1.7,2,3.3,4.6,6.2,5.3c4.6,2.4,9.4-0.5,14.1,0.5c2,0.4,5.6-1.7,5.5,2.2
		c-0.1,3.6-1.1,7.5-5.6,8.6c-1.5,0.4-3-0.2-4.4-1c-0.8,8.5-4.4,11-17.4,12.3c-1-9.4-7.2-9.5-14.3-7.9c-0.4,0.1-0.9,0-1.3,0.1
		c-5.9-0.7-12.3,2.1-17.7-2.3c-0.2-0.8-0.1-1.5,0.4-2.2c7.6,2.7,15.5,1.1,23.2,1.1c3.1,0,4-2.8,4-5.7
		C336.9,436.5,337,432.8,337.1,429.1z"/>
	<path class="st96" d="M296.6,433.1c-7.3-6-7.4-11.2-0.5-17.4c3.2-2.8,8.1-5.6,2.6-10.7c-0.3-0.3,0.4-1.6,0.7-2.4
		c6.5,6,6.5,6,0.5,12.4c-0.7,0.8-1.4,1.6-2.2,2.4c-6.7,6.4-6.7,7.1-1.1,14.3c0.4,0.4,0.5,0.7,0.3,1
		C296.8,433,296.7,433.1,296.6,433.1z"/>
	<path class="st97" d="M296.6,433.1c0-0.5,0.1-1,0.1-1.5c4.9,3.9,9.2,8.3,13.1,13.2c0,0.5,0,0.9-0.1,1.4c-5-0.3-7.1-4.1-9.1-7.9
		C299.2,436.6,297.9,434.9,296.6,433.1z"/>
	<path class="st98" d="M431.7,434.5c-0.4,1.3-1.3,2.1-2.5,2.6c-4.4,0.3-8.8,0-12.7,2.7c-0.9,0.6-2.1,0.3-2.7-0.8
		c-3.4-10-0.5-19.3,2.6-28.7c2.3-2.5,4.5-0.7,6.1,0.7c3.5,3.1,7.5,5.7,11.1,8.7C437,425.1,436.6,430.1,431.7,434.5z"/>
	<path class="st99" d="M431.7,434.5c3.8-4.5,2.6-9.5,1.3-14.5c-2.4-4.4-2.3-8,3.2-9.5c3.6-1,5-3.9,6.1-6.9c1.7-2.9,4.4-3.8,7.1-2.2
		c3.7,2.2,5.7,0.1,7.9-2.1c1.4,6.2-0.2,11.2-5.2,15.6C445.2,421.1,438.6,427.9,431.7,434.5z"/>
	<path class="st100" d="M457.4,399.2c-0.5,6-3.5,6.9-8,3.6c-2.2-1.6-3.9-0.9-5.9,0.1c-2.7,0-2.3-2-2.6-3.7c0.3-2.7,1.4-5,3-7.2
		c1.1-1.6,4.7-2,2.8-5c-1.5-2.4-3.7-4.4-6.8-4.6c-6.3-0.4-12.7-0.1-19-0.2c-1.1,0-2.2,0-3.3,0c-3.7,0-7.5,0.4-11.1-0.2
		c-8.8-1.4-14.2,3.5-19.4,9.3c-2.1,2.3-1.6,4.8-1.6,7.3c-0.1,0.7-0.5,1.2-1,1.6c-0.8-0.5-1.6-1.1-2.5-1.6c-2.1-3.3-0.9-5.7,1.4-8.7
		c6.7-8.4,14.6-12.5,25.8-11.2c10.1,1.1,20.4,0.2,30.7,0.3C449.2,379.3,458.3,389.7,457.4,399.2z"/>
	<path class="st101" d="M414.7,439.7c4.5-2.9,8.7-7.2,14.6-2.6c-3.4,3.6-6.8,7.2-10.3,10.8c-1.4,1.5-3.1,2.4-5.2,1.8
		c-4.9-1.3-13.5-13-13.8-18.3c-0.2-4.3,1-8.7-0.9-12.8c-0.1-4.1-5.1-5.2-5.7-9c5.8-0.5,7.8,3.6,9.3,7.9c1.1,3.3,0.9,6.8,0.7,10.3
		c-0.3,5.7,1.3,9.8,7.9,10.2C412.5,438.1,413.7,438.8,414.7,439.7z"/>
	<path class="st102" d="M872.5,698.1c0,0.5-0.1,1.1-0.1,1.6c-8-0.1-16.1-0.7-24.1-0.1c-12.5,1-18.9-6.6-24.4-15.8
		c1.8-0.7,3-3.1,5.1-2.6c10.2,2.3,19.7-4.4,29.8-2.4c4.5,0.9,2.4-5.3,5.9-5.6c0.8,1.7,2.2,2.9,4,2.5c4.5-0.9,5.3,2.4,6.5,5.3h0
		c-11.3,5.9-22.6,12-36.6,10.3c0.8,4.6,3.8,4.7,6.4,4.8c6.1,0.3,12.1,0.1,18.2,0.2c2.8,0,5.7-0.3,8,1.8
		C871.6,698.1,872,698.1,872.5,698.1z"/>
	<path class="st103" d="M864.6,643.1c-1.3,1.7-2.6,3.4-3.9,5.1c-3,2.1-6.8,2.8-9.8,2.4c-8.8-1.2-14.4,3.1-19.5,9.2
		c-1.9,2.3-4.1,4.5-6.1,6.8c-2.9,5.5-0.4,11.5-1.4,17.2c-2.2-8.6-3.6-16.8,4.5-23.6c5.1-4.3,9.5-9.5,14.2-14.3
		C849.5,641.5,857.1,642.7,864.6,643.1z"/>
	<path class="st104" d="M621.9,653.5c0,3.1,0,6.1,0,9.2c0.6,0.6,0.6,1.1-0.1,1.6c-12,1.3-23.9-0.8-35.9-0.5
		c-3.4,0.1-6.3,1.3-9.3,2.4c-7.4-3.8-15.8-1.6-23.4-3.7c-2.3-0.6-4.8-0.5-6.5-2.6c-0.5-9.3,2.1-11.3,13.4-10.4
		c10.2,0.8,20.3,1,30.5,0.2c6.9,0.5,13.9,0.8,20.9,0.2C615.3,649.6,619.5,649.4,621.9,653.5z"/>
	<path class="st105" d="M547.2,635.1c0-0.4,0-0.9,0-1.3c7.1-2.8,14.1,1.7,21.2,0.1c7.5-1.6,14.6,1.7,22,2.4
		c4.8,0.5,9.7-3.5,14.5,0.1c-0.4,2.2-0.9,4.4-1.3,6.6c-3.5,4.1-7.9,4.1-12.7,3.2c-10.1,0.1-20.2-0.5-30.2-1.2
		c-4.6-0.3-9.5,2.2-13.9-0.8C546.6,641.1,545.9,638.1,547.2,635.1z"/>
	<path class="st106" d="M591.7,644.3c4.3,3.1,7.8-1.5,11.8-1.3c1.5,0.3,2.6,2.9,3.9,1.7c3.7-3.3,7.2-1.1,10.9-0.4
		c8,1.5,8.3,2.1,3.6,9.2c-4.6-2.1-9.4-1.7-14.3-1.4c-5.7,0.4-11.6,0.8-17.2-1.2C588.7,648.2,590.2,646.3,591.7,644.3z"/>
	<path class="st107" d="M623.3,711.2c-0.4,0.5-0.9,1-1.3,1.5c-3.6-5.1-1.6-10.9-1.9-16.3c0.1-2.7-0.2-5.5,1.1-8.1
		c0.5-0.8,1.1-1,1.9-0.5C623.1,695.6,623.2,703.4,623.3,711.2z"/>
	<path class="st106" d="M623,687.7c-0.4-0.1-0.7-0.2-1.1-0.2c-1.3-1.1-1.6-2.6-1.7-4.2c-0.4-2.7,0-5.4-0.2-8.1c0.3-3.8-1-8,1.9-11.4
		c0-0.4,0-0.9,0-1.3C624.7,670.9,622.7,679.4,623,687.7z"/>
	<path class="st108" d="M203.5,475.1c1.1-0.1,2.8,0.1,3.1-0.5c3-5.1,4.6-5,7.5,0.5c1.3,2.5,6.2,1.6,9.1-0.8c0.8-0.7,1.4-1.7,1.8-2.7
		c1.4-3.7,7.5-1.9,7.5-4.9c0-4-5.8-0.8-7.8-3.9c-1.2-2-1.6-3.1,1.1-3.5c5.4-2.1,8.8,0,10.5,5.2c0.3,0.3,0.8,0.7,0.7,1
		c-1.9,7.7-0.2,15.2,0.9,22.7c-3.2,2.8-8.5,2.5-10.3,7.2c-8.3,0.4-15.3,8.4-24.4,4.5c-1.2-0.5-1.6-1.4-1.2-2.7
		C205.2,490.1,202.6,482.5,203.5,475.1z"/>
	<path class="st109" d="M203.3,500.1c4.5,0.3,8.6-0.6,12.5-2.9c2.6-1.5,5.3-3.3,8.6-1.9c1.1,0.5,2.3,0.3,2.5-1.1
		c1-6.6,6.7-4.7,10.7-6c5.3,0.8,4.9,6.8,8.5,9.2c0.9,3.4-1.3,6.3-1.5,9.6c-0.2,3.4-1.3,6.5-3.8,9c-3.6,1.2-7.4,1.6-10.4,4.5
		c-2.2,2.2-4.6,1.3-6.7-0.9c-2.7-2.7-5-6-8.7-7.6C210.7,508.3,206.6,504.6,203.3,500.1z"/>
	<path class="st110" d="M274.1,518.4c0,4.8,0.1,9.6,0.1,14.3c0,10.8,0,11,10.7,10.7c4.4-0.1,8.3,0.2,10.5,4.6
		c-0.7,5.9-4.5,9.1-9.6,11.1c-3.9-0.1-7.8-0.8-11.6-0.2c-10.9,1.8-18.1-3.3-23.8-11.7c3.1-1.2,7.5,0.7,9.4-3.7
		c2.3-1.7,4-3.8,4.8-6.7c0.8-3.2,2.2-5.9,4.8-8.1c3.2-2.7,0.9-7.1,3-10.2C272.9,518.1,273.5,518,274.1,518.4z"/>
	<path class="st111" d="M259.9,544.6c-1.3,7.3-5.9,3.1-9.4,2.7c-12.3-11.4-24.1-23.1-35.5-35.4c4.4,0.1,6.2,3.9,8.6,6.4
		c2.7,2.8,5.1,2.8,7,0c2.7-3.7,5.9-3.5,9.6-2.6c4.1,1.8,7,6.7,12.6,4.9c0.3-0.1,0.7,0.4,1.1,0.6
		C256.9,523.6,261.3,540.9,259.9,544.6z"/>
	<path class="st112" d="M242.8,506.6c0.9-3.1,1.7-6.1,2.6-9.2c1.4-1.4,3.2-0.8,4.9-1c6.5-0.7,8.1-2.9,7-9.4
		c-0.5-2.8-2.4-5.8,0.9-8.2c3.7,2.9,7.3,5.5,12.3,6.4c3.5,0.6,4.8,4.7,6,8.1c1.2,3.6,2.7,6.1,7.6,4.7c4.2-1.2,6.8,1.9,8.5,5.6
		c0.3,8.5-1.2,10.1-9.2,10.2c-1.7,0-3.5-0.5-5,0.6c-0.4,0.1-0.8,0.1-1.3,0.1c-1.1,0.8-2.4,1.1-3.8,0.9c-4.1-1.6-8-2.4-12.6-2
		C253.9,514,248.1,510.4,242.8,506.6z"/>
	<path class="st113" d="M278.2,514.4c0.9-1.2,2.2-1.2,3.5-1.3c8.9-0.6,9.4-1.2,9.6-10.5c-4.8-5.8-5.7-12.3-3.4-19.4
		c3.2-3.9,7.9-3.4,12.2-3.9c3.9,0.6,4.3,3.8,5,6.8c0.8,3.4,2.3,5.8,6,6.9c10.2,3.1,12,10.4,5,18.3c-0.4,0.5-0.8,1-1.2,1.6
		c-2.1,2.4-4.9,1.4-7.4,1.4C297.8,514.5,288,514.4,278.2,514.4z"/>
	<path class="st114" d="M338.6,488.1c-2.3,2.1-3.4,5.3-6.5,6.6c-7.4-1-14-2.9-16.5-11.2c-0.5-1.6-1.7-3.3-3.4-3.8
		c-6.1-1.6-8.2-6.6-10-11.8c-0.8-3.5,0.4-6.2,3.5-8c4.8,0.8,10.5-3.1,14.3,2.8c0.6,4.7,1.7,8.8,8,6.5c0.6-0.2,1.3-0.1,1.9,0.1
		C332.8,470.5,339.3,484.6,338.6,488.1z"/>
	<path class="st115" d="M342.5,456.7c4.3-1.3,7.8-4,12.6-4.4c5-0.3,2.2-5.7,3.6-9.1c7.8,4,9-1.3,10-7.4c-4.1-0.1-8.2-0.8-12.2,0.6
		c-2.5,0.9-4.7,0.7-6.2-1.9c0.4-0.1,0.9-0.2,1.3-0.3c7.8,1,15.9-2,23.5,1.5c0.2,0.6,0.1,1.6,0.5,1.8c8,5.4,4,9.5-1.1,13.9
		c-4.8,4.1-9.2,8.7-13.7,13c-3.2,1.1-6.6,1.9-10,2c-4.6,0.3-8.5-0.9-9.8-6.1C341.1,459.1,341.3,457.7,342.5,456.7z"/>
	<path class="st116" d="M342.5,460.6c1.6,4,4.6,4.8,8.6,4.4c3.3-0.3,6.5-2.4,9.8-0.4c-7.5,7.8-14.9,15.7-22.4,23.5
		c1.2-5.5-4.2-7.6-6-11.6c-1.6-3.6-2.2-7.1-8.7-4.8c-5.8,2.1-4.8-4.6-5-8.5c5.1-1.7,10.5-2.3,15.5-5
		C337,456.8,340.2,458.4,342.5,460.6z"/>
	<path class="st117" d="M303.1,468.5c3.2,8.9,15.4,10.3,17.1,20.6c0.3,2.1,3.1,2.1,5,2.3c2.7,0.3,4.9,1.4,6.8,3.3
		c-6.3,5.5-9.9,13.5-17.1,18.2c3.5-5,6.7-10,1.3-15.8c-0.9-1-1.6-2.3-3-2.2c-8.2,0.6-9.6-4.9-10.1-11.2c-0.1-1.7-1.1-2.8-2.6-3.5
		c-1.7-1.7-1.6-3.8-1.2-6C300.1,472.1,300.5,469.6,303.1,468.5z"/>
	<path class="st113" d="M273,514.4c1.3,0,2.7,0,4,0c-0.1,0.4-0.1,0.8-0.1,1.3c-0.9,0.9-1.8,1.8-2.8,2.6c-0.4,0-0.8,0-1.1,0
		C271.9,517.1,271.9,515.7,273,514.4z"/>
	<path class="st118" d="M627.2,540.7c4.2-0.7,3.9,3.1,5.2,5.2c-0.4,0.4-0.9,0.9-1.3,1.3c-5.8,1.7-11.8,2.2-17.8,1.6
		c-2.1-0.2-3.8,0.1-5.7,0.9c-6.1,2.6-12.3,1.7-18.5,0.1c-0.9-1.8-0.3-3.7-0.5-5.6c0.3-0.8,0.7-1.5,1.8-1c7.5-0.2,15.1,0.8,22.4-2.3
		c2.6-1.1,6-0.8,8.9,0.3C623.7,542,625.6,542.6,627.2,540.7z"/>
	<path class="st119" d="M590.4,543.3c-0.4,0.4-0.9,0.9-1.3,1.3c-1.2,2.8-3.7,2.9-6,2.4c-4.4-0.8-8.8-0.2-12.9,1
		c-7.3,2.1-14.5,0-21.7,0.5c0-4.8,0-9.6,0-14.4c4.4,4.5,9.8,5.7,16,5.3c6.9-0.4,13.9,0,20.9-0.1
		C588.2,539.3,590.8,539.4,590.4,543.3z"/>
	<path class="st120" d="M311.1,688.9c-0.3,2.1,0.7,4.5-1,6.4c-0.1-10.7-0.3-21.4-0.2-32.1c0-3.8-1.1-6.6-3.9-9.2
		c-6-5.7-11.8-11.7-17.6-17.6c-1.5-1.5-3.6-2.6-3.5-5.2c0.5-0.4,1-0.6,1.7-0.4c3,1.7,5,4.5,7.6,6.7c7,11.4,19,11,30.1,12.6
		c2.5,0.4,4.5-0.3,4.9-3c0.6-4.5,3.6-6.2,7.5-6.8c3-0.4,4.7-3,7.4-3.9c0.9,0,1.8,0,2.6,0c5.8-1.1,10,2.5,14.4,5.2
		c2,3.3,1.1,7,1.3,10.5c-0.8,7-7,9.9-11.9,11.1c-6.8,1.7-11.6,6.3-17.8,8.7c-1.6,0.6-2.9,1.7-4.8,1.8c-10.4,0.8-13.1,3.1-15.4,12.9
		C312.1,687.5,311.6,688.2,311.1,688.9z"/>
	<path class="st121" d="M286.1,631.2c-0.5,0-0.9,0-1.4,0c-1-3.9-0.4-7.9-0.1-11.8c0.5,0,1,0,1.4,0c0,2.2,0,4.4,0,6.6
		C287.4,627.7,287.7,629.4,286.1,631.2z"/>
	<path class="st16" d="M396.1,598.6c0.5,0.8,0.9,1.7,1.4,2.5c-5.3-4.8-12.6-0.8-18.3-4C384.9,597.6,390.7,595.6,396.1,598.6z"/>
	<path class="st122" d="M320.3,738.7c-0.9-1.3-1.8-2.6-2.7-3.9c-1.9-4.2-0.1-7.7,3.3-9.3c4.3-2.1,9.2-3.8,13.7,0.1
		c0,3,0.1,6.1,0.1,9.1c1.4,4.2,0.3,8.5,0.6,12.8c0.1,1.5,0.1,3.2-1.8,3.6c-1.6,0.4-2.8-0.5-3.9-1.7
		C326.4,746,322.9,742.7,320.3,738.7z"/>
	<path class="st123" d="M334.6,725.6c-3.6,0-7.3-0.3-10.9,0.2c-5,0.7-5,5.4-6.1,9c-6.4-4.6-5.6-4.5-1.4-10.7c4.8-6.9,10.8-9,18.4-9
		C334.6,718.6,334.6,722.1,334.6,725.6z"/>
	<path class="st124" d="M320.3,738.7c3.5,3.2,7,6.4,10.3,9.7c0.7,0.7,1,2,2.3,1.8c1.7-0.3,1.7-1.8,1.7-3.1c0-4.1,0-8.2,0.1-12.4
		c0.4,0,0.7,0,1.1,0c0.1,3.8,0.3,7.7,0.4,11.5c0,2.1,0.7,4.5-1.5,5.9c-2.6,1.6-4.4-0.7-6.3-1.8c-2.7-3.2-5.4-6.5-8.1-9.7
		C320.2,740,320.3,739.3,320.3,738.7z"/>
	<path class="st125" d="M563,442.4c4.8-2.1,2.2-7.7,5-10.7c0.3-0.3,0.8-0.7,1.1-0.6c11.7,3.5,24.1,3.7,35.6,8
		c0.5,0.5,0.8,1.1,0.9,1.8c-0.2,3.9-0.9,7.5-3.1,10.8c-3.2,2-6.6,1.5-10,1.1c-5.3-0.6-10.6,0.5-15.8,0.8c-5.3-0.1-10.3-0.6-15.6-2.6
		c-5.7-2.1-12.4-0.2-18.7-0.5c-3-0.1-6.2,0.6-8.6-1.9c6.2-2.6,12.7-1,19-1.1C557.3,447.6,560.7,446.4,563,442.4z"/>
	<path class="st126" d="M533.8,448.8c8.8-0.2,17.7,0.9,26.5-0.6c1.5-0.3,2.6,0,3.5,1.1c2,2.6,3.6,4.7,7.2,1.9c2-1.6,3.7,2.7,6.3,1.7
		c5.1,1.2,5.5,5,5.1,9.3c-0.2,0.7-0.6,1.3-1.2,1.8c-6.9,2.3-13.8,4.1-21,0.7c-4.5-1.2-8.3-2.9-10.3-7.9c-1.4-3.3-5.7-3.9-9.2-3.8
		c-3.3,0.1-5.9-1.1-8.4-2.9C532.9,449.6,533.3,449.2,533.8,448.8z"/>
	<path class="st127" d="M768.8,551.2c-4.5-3.4-8.3-7.5-11.9-11.8c8.6-5.7,17.8-8.5,28.3-7.5c3.7,0.4,7.3-0.7,10-3.7
		c5.6-2.4,11.5-4.1,16.6-8c4.5-3.4,10.8-1.4,16.1,0.5c1.1,2.3,0.6,4.2-1.4,5.8c-0.5,3.9-3.8,5.9-6.3,7.9c-5.7,4.5-7.4,10-7,17.1
		c0.3,5.5,1.7,11.2-1.1,16.5c-2.8-3.4-1.7-7.4-1.8-11.1c0-2.5-0.1-5,0-7.5c0.1-2.8,0-5.6,0.6-8.4c-0.6-0.9-0.9,0.3-1.3,0.2
		c-11.3-1.3-22.6,3.4-34,0.5c-0.8-0.2-1.7-0.4-2.6-0.4c-4.9-0.2-6.2,1.7-4.2,6.3C769.4,548.8,769.9,550,768.8,551.2z"/>
	<path class="st128" d="M768.8,551.2c0-1.4-0.8-2.4-1.5-3.5c-0.9-1.4-4-1.9-2.2-4.5c1.5-2.1,3.1-4.1,6.3-3.8c5.6,0.6,11,2.9,17,1.5
		c6-1.3,12.2-2.6,18.5-0.3c2.7,1,3.9-3.1,7.2-3.3c-2.7,3.7-1.9,7.6-2.1,11.3c-7-0.4-13.5,3.4-20.6,1.9c-2.7-0.5-5.1,0-7.3,1.9
		c-1.8,1.6-3.9,2.7-6.8,2.4c0.8,2.9,5.3,4.3,3.2,8.1C776.1,559.6,772.2,555.6,768.8,551.2z"/>
	<path class="st129" d="M795.1,528.9c1.5,3.2-0.6,3.2-2.9,4c-5.3,1.8-10.6,0-15.9,1.1c-4,0.8-8.9-1.6-11.3,4.6c-0.8,2-5.3,0.5-8,0.8
		c-4.3-0.5-7.1,1.7-9.1,5.2c-1.3,0.9-2.6,1.8-3.9,2.7c-0.3-0.3-0.4-0.6-0.3-0.9c0.1-0.3,0.2-0.5,0.3-0.5c2.2-2.4,4.4-4.7,6.5-7.2
		c1.7-2,2.3-3.9-1.2-4.6c0.6-5.3,4.5-7.4,8.9-7.9c7.2-0.8,14-3.3,21.2-3.7c4.4-0.3,8.3,1.9,12.8,1.6
		C794.4,523.9,796.6,525.6,795.1,528.9z"/>
	<path class="st130" d="M826.6,526.4c0.4-1.8,0.8-3.6,1.2-5.4c-2.3-3-1.8-6,0-9.1c2.4-2.3,4.6-4.9,6.6-7.6
		c5.3-5.3,11.7-7.7,19.2-7.4c4.2,0.2,7.7-2.7,12-2.4c5.1,0.3,6.2,1.9,4.2,6.7c-4.9,7.6-11.3,11.7-21,10.8
		c-5.6-0.5-11.5-1.8-17.1,1.1c-3.3,1.5-2.3,4.6-2.6,7.2C829,522.6,830.3,525.6,826.6,526.4z"/>
	<path class="st131" d="M780.7,562.9c-0.5-4.5-5.7-5.8-7.2-10.5c4.6,1.8,8.4,1.5,11-2.7c0.5-0.7,2.1-1.3,2.9-1
		c8.3,3.1,16.5-4.1,24.7-0.1c0,2.6,0,5.2,0,7.9c-2.8,1.9-6.2,2.7-8.7,5.4c-2.2,2.3-5.5,2.3-8.6,1.9c-2.4-0.3-4.7,0.2-7.4,0.8
		c-0.3,2.2,3.1,3.9,1.1,6.2C785.4,568.6,782.7,566.1,780.7,562.9z"/>
	<path class="st132" d="M788.5,570.7c0.1-3.2-3.5-4.2-4.4-7.3c4.5-0.3,8.4-2.7,13.1-1c1.8,0.6,5.1-0.2,5.8-2c1.8-4.9,5.5-3.9,9-4
		c0,3.9,0,7.8,0,11.6C804.5,578.5,795.6,579.6,788.5,570.7z"/>
	<path class="st133" d="M834.4,463.3c2.5-0.2,4.5-1.4,6.3-3.1c1.1-1,2.2-2.2,3.9-2c9,1.4,17.3,0.1,24.8-5.4c1.6-1.2,3.6-0.9,5.6-0.3
		c5.5,1.5,10.1-3.4,15.7-2.9c0.7,0.1,1.8-3.1,2.7-4.7c-0.1,5.3-0.1,10.6-0.2,15.8c-0.6,1.6-0.9,3.6-3.3,3.4
		c-5.4-0.4-10.5,2.6-16.1,1.5c-3.4-0.7-6.8,1.4-9.9,3c-4.9,2.6-10.1,3.9-15.7,3.7c-2.5-0.1-4.7,0.5-6.9,1.5c-2.4,1.1-5,1.8-7.4,0
		c-0.4-0.6-0.8-1.2-1-2C832.6,468.9,832.1,465.8,834.4,463.3z"/>
	<path class="st134" d="M886.9,484.2c-1.2,2.3-2.8,4.1-5.2,5.2c-3.1-4-5.5-5.1-9.9-0.5c-3.4,3.6-9.8,3.6-14.6,3.8
		c-4.8,0.1-9.4,3.2-14.3,1c-1.4-0.6-3.2,1.1-4.2,2.5c-1.2,1.6-2.5,3-4.5,3.5c-4.7-0.5-9.4,0.8-14.1,0.1c-2.4-0.3-3.9,1.4-5.6,2.7
		c-2.9,2.2-5.9,3.8-9.2,0.8c-1.3-2.6-4.3-4.4-4-7.8c1.6-3,4.5-4.2,7.5-4.5c6.5-0.7,12.6-3.3,19.2-3.2c3,0,5.4-1.5,7.4-3.5
		c7.8-1.6,15.6-5.6,23.5-0.1c1.9,1.3,2.7-0.8,3.8-1.5c7.2-4.9,14.8-4.2,22.5-1.9C886.7,481,888.4,481.8,886.9,484.2z"/>
	<path class="st135" d="M834.4,473.8c1.3-0.1,3,0.4,3.8-0.3c6.2-4.9,13.8-2,20.5-3.9c2.7-0.8,4.1-2.9,6.6-3.8
		c7.7-3.1,15.9-1.4,23.7-3.1c1.8-0.4,3-0.9,4.2-1.9c0,4.3,0,8.6,0,13c-11.8-3.3-21.9,2.1-31.9,6.7c-4,1.8-8,0.7-12,1.4
		c-4.5,0.7-9.3,2-14,1.2c-2.3,0-4.1-0.7-4.5-3.3C830.9,477,831.7,474.8,834.4,473.8z"/>
	<path class="st136" d="M834.4,498.7c3.3-4.5,6.2-9.8,13.2-5.5c1,0.6,1.9-0.5,2.7-1.4c0.7-0.8,2.3-2,2.3-1.9c5,4.9,9.5-2.9,14.6-0.6
		c1.6,0.7,4-0.5,4.9-2.5c1-2.2,2-5.4,4.6-4.5c2.6,0.9,5,3.4,4.9,7c-3.3,4.6-7.2,8.6-11.8,11.9c0.3-4.9-3-7.1-8.2-4.6
		c-3.3,1.6-6.5,2.5-9.9,2c-7.1-1-11.4,4.7-17.2,6.6C833,503.1,833.5,500.9,834.4,498.7z"/>
	<path class="st137" d="M835.8,481.6c7.6-0.5,16.4,1.2,22.5-2.1c6.9-3.7,14.7-3.3,20.7-7c6-3.7,9.9-3.4,14.3,1.2
		c1.1,5.5-2.7,7.9-6.4,10.4c-3.7-3.7-14.3-5-19.7-2.4c-4.4,2.1-8.3,6.6-13.7,1c-0.6-0.6-7-0.2-10.6,1c-2.2,0.7-4.7,0.4-7.1,0.5
		C835.1,483.4,835,482.5,835.8,481.6z"/>
	<path class="st138" d="M671.7,412.3c5.7-5.4,11.4-10.8,17-16.1c2.4,2.7,0.3,4.8-1,7c-1.3,2.2-0.3,3.8,1.8,3.6
		c10.2-1,20.4,3.5,30.5-0.2c2.9,3.2,6.5,5.7,8.4,9.7c-2.5,3.4-6.5,4.3-10.3,5c-3.4,0.7-6.9,1.1-10,2.8c-1.2,0.6-2.7,1-3.7,0.1
		c-7.5-6.8-15.5-1.5-23.2-1c-2.7,0.2-5.1,0-7.6-0.8c-2.4-1.2-3.5-3.5-5.1-5.5c-0.7-1-1.3-2.1-1-3.5
		C668.7,412.3,670.5,413.3,671.7,412.3z"/>
	<path class="st139" d="M720.3,406.9c-5.2,6-11.8,2-17.7,2.2c-3.7,0.2-7.5-1.4-11.5-0.3c-2.3,0.6-5.1-0.2-6.5-2.1
		c-1.9-2.6,1.2-3.8,2.5-5.2c1.4-1.6,2-3.3,1.7-5.4c0.4-0.4,0.8-0.8,1.2-1.1c5.5-1,11-1.4,16.6-1.3c6.6,0.1,13.3-0.6,19,4
		C727.9,404,726.9,405.8,720.3,406.9z"/>
	<path class="st140" d="M671.7,412.3c-1,1.4-2.5,1.1-3.9,1.2c-1.8,1.9-4.3,2-6.6,2c-15.1,0-30.2,0.3-45.3-0.2
		c-7.5,0.8-11.5-4.6-16.1-9c-5.6-7.8-13.2-10.4-22.7-9.6c-5,0.4-10.5,1.6-15.3-1.6c1.9-2.7,4.8-1.4,7.2-1.4c8.4,0,16.9,0.2,25.3,0.3
		c1.4,2.1,3.1,3.9,5.3,5.2c2.6,3.5,5.6,6.7,9.2,9.1c1.6,3.6,4.8,3.9,8.2,3.9C635.2,412.1,653.5,412.2,671.7,412.3z"/>
	<path class="st141" d="M890.9,493.8c3.5-3.6,7-7.2,10.5-10.8c2.2-1.1,4.6-4.7,6.7-1.9c2.5,3.4,2.3,8.1-0.4,11.6
		c-2.5,3.2-5.3,6.4-9,8.5c0-3.1,3.3-4.3,4.4-6.9C899,491.5,894.8,495.8,890.9,493.8z"/>
	<path class="st142" d="M621.9,695.5c0,5.7,0,11.4,0.1,17.2c-0.9,1.7-2,3.2-3.9,3.9c-15-4.9-30.2-2.2-45.3-0.4
		c-2.9,0.3-6.1,1.5-8.3-1.8c-0.7-6.1-0.2-12.2-0.3-18.3c0.1-1.5-0.1-3,0.7-4.4c0.8-0.8,1.9-1.7,2.8-1.4c8.3,2.7,17.3-1,25.6,2.9
		c4.5,2.1,9.2,2.1,14.1,0.6C612.4,692.2,617.3,692.8,621.9,695.5z"/>
	<path class="st143" d="M565.5,715.1c7.8-1.8,16.2,0.3,23.5-3.9c1.6-0.9,2.7-0.2,4.2,0.5c2.1,1,4.5,2.8,6.7,1.2
		c6.2-4.5,11.2,1.5,16.9,1.5c0.4,0,0.8,1.4,1.2,2.1c0,0,0,0,0,0c-2.3,1.2-4.1,3-5.3,5.4c-3.5,4.4-7.4,8.3-11.8,11.7
		c-6.8,3.7-14.8,3.3-20.9,1.3c-6.6-2.2-12.4-8.3-15.6-15.5C563.9,717.9,564.2,716.3,565.5,715.1z"/>
	<path class="st144" d="M565.5,691.5c0,1.3,0,2.6,0,3.9c-1.5,6-0.3,12-0.7,18c-0.2,2.3,0.7,4.8-0.7,7c-2.1-7.6-0.5-15.4-0.9-23.1
		c-0.3-5.4-0.3-10.8-0.5-16.2c-3-4.9-7.8-8.2-11.5-12.5c-1.7-1.9-4.2-3.3-4.8-6.1c0-0.9-0.1-1.9,0.6-2.6c9.9,2.7,20.9-0.8,30.2,5.2
		c6-0.4,11.2,2,15.8,5.5c3.7,2.9,7,5.7,12.2,3.8c2.1-0.7,4.9-0.6,5.4,2.8c-5.2,6-11.9,4.2-18.1,3.2c-7.7-1.2-15,1.9-22.6,1.6
		c-3.4-0.2-2.1,4.1-2.8,6.5C566.8,689.8,566.2,690.7,565.5,691.5z"/>
	<path class="st145" d="M564.2,720.5c0.9-8.3-1.5-16.8,1.4-25c0,6.6,0,13.1,0,19.7c-0.5,4,1.3,6.7,3.7,9.8
		c8.5,11.5,19.7,11.3,31.8,8.6c-2.9,4.6-7.5,1.9-11.3,2.6C576.6,738.5,570.5,729.2,564.2,720.5z"/>
	<path class="st82" d="M547.1,662.7c4,4.2,8.1,8.4,12.1,12.7c1.6,1.7,3.8,3,3.6,5.8c-0.8-0.5-1.6-1-2.4-1.6
		c-4.2-6.2-11.6-9.6-14.8-16.8c0,0,0.4-0.3,0.4-0.3C546.5,662.1,546.8,662.1,547.1,662.7z"/>
	<path class="st142" d="M612.8,721.8c0.2-3.3,2-5.1,5.3-5.4C616.8,718.7,615.1,720.6,612.8,721.8z"/>
	<path class="st146" d="M486.8,602.2c-8.6-5.5-15-12.1-13.3-23.6c0.8-5.5,0.3-11.3,0.4-16.9c0.8-0.3,1.5-0.1,1.9,0.6
		c2,5.8,0.8,11.7,1,17.6c-0.5,4.5,1.1,5.7,5.6,4.3c6.3-1.9,12.6-4.4,19.4-4.6c3.4-0.1,5.6-3.1,8.4-4.5c4.3-2.5,8.9-4.2,13.6-5.7
		c0.7,0.8,1.1,1.7,1.2,2.7c0.5,3.2-0.8,6.2-1.1,9.2c-0.2,1-0.5,2-1.1,2.9c-3.2,3.7-8.3,2.2-12,4.6c-4.8,3.1-9.9,5.1-15.8,5.1
		C490.1,594,488.6,598.5,486.8,602.2z"/>
	<path class="st147" d="M486.8,602.2c-0.9-4.9,1.9-9.4,6.8-10.1c5.1-0.8,10.3,0.6,14.7-4c3.5-3.7,9.4-2,13.9-4.1
		c1.7-0.2,3.2,0,4.3,1.4c0.3,3.3-1.7,5.3-3.8,7.4c-8.8,2.4-15.8,9.5-25.7,9.2c-3.7-0.1-4.4,2.3-1.8,5.1c2.7,2.7,5,5.7,7.2,8.9
		c0.1,0.3,0.1,0.6,0.2,0.9c0.4,0.8,0.8,1.7,1.2,2.5c-3,0.1-3.9-3.2-6.3-4.1C494.7,610.3,488.5,608,486.8,602.2z"/>
	<path class="st85" d="M475,561.7c-0.4,0-0.7,0-1.1,0c-0.6-7.1-1.6-14.3,6.2-18.5c0,0,0.2,0.2,0.2,0.2c1.1,1.5,0.5,3-0.5,4.1
		c-3,3.3-3.2,7.4-3.4,11.5C476.3,560.1,475.9,561,475,561.7z"/>
	<path class="st148" d="M637.7,692.8c0-0.4-0.1-0.9-0.1-1.3c1.5-3.6,0.4-7.3,0.7-10.9c0.4-6.4,6.8-10.6,12.6-8.3
		c3.3,1.3,4.6,8.1,2.1,12.2c-2.5,4.2-6.3,7.3-9.7,10.6C640.6,697.6,639.2,694.7,637.7,692.8z"/>
	<path class="st149" d="M637.7,692.8c2.4,1.9,4.4,3.1,6.6-0.6c1.5-2.5,4.1-4.5,6.3-6.5c3.5-3.1,3.6-6.8,1.6-10.6
		c-2.1-4-6.1-1.3-8.7-1.1c-3,0.2-4.7,3.7-4.8,7.5c0,3.3,1.4,6.9-1.2,10c-1.3-9-0.6-17.2,7.9-22.9c2.2-1.5,4-2.4,6.5-1.6
		c2.7,0.9,2.3,3.2,2.6,5.3c1.5,9.5-1.7,16.9-9.5,22.5C642,697.1,638.9,698.6,637.7,692.8z"/>
	<path class="st150" d="M560.3,489.5c0.2-1.8-0.6-3.9,1.3-5.2c6.8-3,14.1-3.1,21.3-3.5c2.8,5.5,9.3,8.5,10.1,15.3c0,0.9,0,1.7,0,2.6
		c-2.8,0-5.6,0.3-8.3,0c-4.1-0.4-7.5,0.6-10,4C565.5,503.1,559.1,497.4,560.3,489.5z"/>
	<path class="st151" d="M560.3,489.5c0.6,9,8.5,10,14.5,13.1c-8.7,10.6-19.1,9.7-28.9-2.7C549.5,495,554.8,492.1,560.3,489.5z"/>
	<path class="st152" d="M865.1,608.8c1.8,0,2.5-0.1,3.1,0c3.7,0.6,8.9-2,10.2,4c0.8,3.6-6.3,10.2-10.9,10.4c-4.3,0.2-8.7,0.3-13-0.1
		c-5.4-0.5-6.8-4.1-3.8-8.6C854.6,608.8,860.1,608.1,865.1,608.8z"/>
	<path class="st153" d="M560.3,616.7c0.1,4.8-2,7.2-7,6.5c-3.1-0.4-5.9,0.7-8.8,1.3c-8.9-2.5-18.1-1.1-27.1-1.2
		c-5-0.1-9.5,0.1-12-5.4c-0.3-0.7-1.8-0.8-2.8-1.2c0,0-0.1-0.1-0.1-0.1c1.4-4.5,4.9-4.7,8.8-4.3c11.7,1.3,23.4,1.6,35.1,0.6
		C551.5,612.5,556.4,612.7,560.3,616.7z"/>
	<path class="st154" d="M547.1,662.7c-0.4,0-0.8-0.1-1.1-0.1c0-3.9,0-7.8,0-11.7c1.3-2-0.3-4.6,1.2-6.6c11.9-1.3,23.8-1.8,35.7,0.6
		c2.8,0.6,6-0.3,8.9-0.6c-0.4,2.2-0.9,4.4-1.3,6.6c-1.9,2.2-4.5,1.3-6.8,1.3c-9.4-0.1-18.9-0.3-28.3-0.7c-6.4-0.3-9.2,2.2-8.2,8.7
		C547.2,660.9,547.2,661.8,547.1,662.7z"/>
	<path class="st82" d="M547.2,644.3c-0.3,2.2,0.8,4.7-1.2,6.6c0-5.2,0-10.5,0-15.7c0.4,0,0.8,0,1.2,0
		C547.2,638.2,547.2,641.2,547.2,644.3z"/>
	<path class="st155" d="M311.1,688.9c-0.1-12.2,4.1-16.3,16.9-16.5c1.6,0,3.2-0.3,3.7-1.9c0.8-2.3,3.5-1.9,4.1-2.4
		c8-6.7,20.7-5.6,26.4-15.9c0.7,0,1.4,0.2,1.9,0c4.2-1.9,1.9,6.8,6.1,3.9c2.2-1.5,3.1-4.7,5.8-6c0.9-0.4,2.1-0.3,3.2-0.5
		c-5.5,3.1-3.7,8.4-4,13c-0.6,1-1.5,1.4-2.6,1.4c-1.1,0-2,0.3-2.6,1.3c-3.4-3.1-6.4-2.8-10.4-0.3c-5,3.2-9.7,7.2-16.5,7.1
		c-3.6,0-5.4,4.2-8.6,6c-3.4,1.8-6.4,2.9-10.1,2.9c-3.2,0-6,0.4-7.2,4.1C316.3,687.9,314,689.2,311.1,688.9z"/>
	<path class="st156" d="M372.7,664c0.9-0.5,1.8-0.9,2.6-1.4c0.5,0.1,1,0.1,1.5,0.2c-1.3,1.7-2.7,3.4-4,5.2c-0.4,0.1-0.8,0.1-1.2,0.1
		C371.9,666.7,372.3,665.3,372.7,664z"/>
	<path class="st157" d="M837,591.7c-3.7,1-8.1,3.4-9.8-2.2c-2.1-6.9,1.9-15.5,7-16.1c2.8-0.4,5.3,0.4,5.4,4
		C839.8,582.3,840.5,587.4,837,591.7C837,591.7,837,591.7,837,591.7z"/>
	<path class="st158" d="M561.7,395.1c6.1,0,12.2,0.6,18.2-0.2c9.8-1.4,16,3.2,21,10.7c1.1,1.3,0.6,2.6-0.6,3.3
		c-5.2,3-10,7.1-16.6,6.9c-2.2,0.1-4.4-0.2-6.4-1c-2.4-3.9-6-5.4-10.5-5.2c-3.9-2.3-8.3-3.6-12.5-5.3c1.1-3.8,4.9-5.3,7.1-8.2
		C561.4,395.7,561.5,395.4,561.7,395.1z"/>
	<path class="st159" d="M555,404.2c5.3-1.4,8.9,1.2,11.8,5.3c-1.3,1.8-2.6,3.5-3.9,5.3c-4.6,6.6-11,11.5-16.6,17.3
		c-1.2,1.2-2.8,1-4.3,0.9c-1.2-1.4-2.5-2.7-3.7-4.1c0-3.8,0-7.6,0-11.4c2.9-2.7,5.9-5.4,8.8-8.1C550.2,408.4,551.2,404.2,555,404.2z
		"/>
	<path class="st41" d="M555,404.2c-3,1.2-4.1,5.3-8,5.2c4.4-4.9,8.5-10.2,14.4-13.5C560.4,399.6,556.5,401,555,404.2z"/>
	<path class="st160" d="M577.3,414.7c1.8-1.2,3.5-1.2,5.2,0c3,3.4,6.1,6.7,10.2,8.7c4.3,2,8.4,5,13.6,1c3.4-2.7,5-0.3,4.5,3.5
		c-2.8,3.5-3.4,8.2-6,11.8c-12.3-2.3-25-2.9-36.8-7.9c2.1-3.2,4.7-5.8,7.9-7.9C580.8,421.5,578.3,418,577.3,414.7z"/>
	<path class="st161" d="M743.9,545.9c0,0.5,0,0.9,0,1.4c-6.6,7-13.1,14-19.7,20.9c-1.4,1.2-2.7,2.4-4.1,3.6
		c-6.3-2.6-10.1-7.9-14.3-12.8c-0.1-0.4-0.2-0.9-0.2-1.3c-0.1-2.9-6.1-3.9-3.2-7.1c4.6-5.2,12.2-5.8,16.9-3.4
		c4.3,2.3,9.1,2.1,13.6-0.1C736.4,545.4,739.9,543.4,743.9,545.9z"/>
	<path class="st162" d="M414.7,439.7c-1.9,0-3.9,0.2-5.8,0c-4.6-0.5-7.6-2.6-7.3-7.8c0.2-2.6-0.2-5.2,0.1-7.8
		c0.6-6.8-2-11.6-8.2-14.5c-3.6-2.4-6.3-5.7-8.9-9.1c0-0.5,0.1-1,0.1-1.5c2.5-0.1,4.8,1.4,7.7-0.7c2.7-1.9,5.9,0.2,8.3,2.2
		c2.8,2.4,5.3,3.1,8.8,0.9c3.3-2.1,6.7-1.8,9,2c0.7,2.2,0.7,4.2-1,6c1.1,4.8-2.3,8.6-2.7,13.1C414.1,428.3,414,434,414.7,439.7z"/>
	<path class="st163" d="M894.8,408.2c5.7,0,11.3,0,17,0c0.4,0,0.8,0.1,1.8,0.3c-2.3,4.5-5.1,7.6-10.4,5.7c-3.9-1.4-5.7,0.5-6.9,3.7
		c-1.3,3.5-3.2,4.2-7.4,4.1c-10.7-0.4-21.1,1.7-31.3,5.9c-5.9,2.5-12.7,2.7-19.2,3.9c-4.6,1.9-9.4,2.9-14.1,4.6
		c-3.7,1.3-7.2,1.1-10.1-1.9c-1.3-7.1-0.2-9.3,5.8-11.9c4.6-0.1,9,0.6,13-3.8c2.8-3.1,7.8-0.4,11.5,1.1c4.1,1.7,7.7,2,11-0.8
		c2.7-2.3,5.8-1.7,8.7-2.1c8.9-1.3,16.9-6.8,26.4-5C893,412.5,894.6,410.9,894.8,408.2z"/>
	<path class="st164" d="M820,422.6c-4.2,2.9-5.4,7-5.2,11.8c-1.5,4.5-5.4,4.3-8.9,4.3c-8.8,0.2-17.6-0.2-26.3,1.3
		c-2.2,0.4-4.8,1.5-6.2-1.6c0-3.2-0.3-6.5,2-9.3c3.7-4.2,7-8.6,13.9-5.5c2.7,1.2,6.5,0.8,7.2-4c0.4-3.2,3.2-2.1,5.1-2.4
		c0.4,0.2,0.9,0.4,1.1,0.7c3.1,7.5,7.9,8.9,14.5,4C818.2,421.3,819.3,421.5,820,422.6z"/>
	<path class="st165" d="M720.3,406.9c4.2-1.7,6.2-4.6,5.2-9.2c7,4.5,15.1-0.4,22.3,2.6c2.4,3.5,5.2,6.2,10,5.3
		c3.1-0.6,4.7,1.3,5.7,3.9c3.2,3.8,1.8,9,3.9,13.1c-8.9,4.2-18.2,2.2-27.3,1.2c-3-0.3-6-1-8.9-1.6c-2.6-1.3-3.3-3.5-3.1-6.2
		C724.2,414.2,721.3,411.4,720.3,406.9z"/>
	<path class="st166" d="M730.8,421.3c4.2-1.8,7.8,1.1,11.7,1.2c8.3,0.3,16.7,0.1,25,0.1c2.5,2.3,6.1,3.3,7.9,6.6
		c-0.1,3.1,0.5,6.3-1.3,9.2c-0.6,0.4-1.2,0.5-1.9,0.3c-7.2-2.1-14.6-1.3-21.9-1.3c-7.7,0-15-1-22.4-2.8c-0.9-1.2-1.2-2.6-1.2-4.1
		C727.8,427.3,726.1,422.9,730.8,421.3z"/>
	<path class="st167" d="M582.6,561.7c-0.4,4.8-0.9,9.6-1.3,14.4c-1.7,3.4-4.9,3.2-7.9,2.9c-4.1-0.5-8.2-0.8-12.2-1.5
		c-2.5-0.6-3.4-2.5-3.8-4.8c-0.7-4.5-3.4-7.9-6.5-10.9c-0.6-2.3,0-4.3,1.6-5.9c8.3,0.9,16.7-3.1,24.9,0.6
		C579.2,558,582.2,558.6,582.6,561.7z"/>
	<path class="st168" d="M577.3,556.4c-8.3-0.5-16.6,2.7-24.9,0c-2.5,1.3-5.1,2.9-6.6-1.3c1.2-2.1,3.2-3.8,2.6-6.6
		c4.5-1.9,9-3.3,13.7-0.9c3.5,1.8,6.1-1.4,9.1-2c6-1.3,12,1.3,17.8-1c2.4,1.7,0.7,3.5,0,5.2c-1.3,2.3-3.1,3.7-5.8,3
		C580.1,552,578.7,554.2,577.3,556.4z"/>
	<path class="st169" d="M581.3,601c-12.2,0-24.5,0.7-36.7-1.1c-4.4-0.6-8.7-1.7-13.2-1.6c-1.6-1.7-1.5-3.7-0.5-5.6
		c2.2-2.7,5.2-4.4,8.5-3.9c11.5,1.9,23,0.6,34.4,1c2.7,0.1,5.2,0.4,7.4,1.9c0,0,0,0,0,0C581.3,594.9,581.3,597.9,581.3,601z"/>
	<path class="st170" d="M581.3,591.8c-11.8,0-23.6,0.1-35.3-0.1c-4.9-0.1-10-2.5-14.5,1.4c-3.2,0.6-6.4,1.1-9.2-1.3
		c1.3-2.2,2.6-4.4,3.9-6.6c5.4-1.7,11.5-1.1,16.4-4.7c1-0.7,2.8-0.4,3.7,0.4c6.7,5.6,14,2,21.1,1.7c4.2-0.2,8.6-1.7,12.5,1.3
		c0.4,0.9,0.9,1.7,1.3,2.6C580.1,588.3,580.1,590.1,581.3,591.8z"/>
	<path class="st171" d="M579.9,584c-8,0-15.9,0.1-23.6,2.3c-2.4,0.7-4.9,0.7-7.1-1.7c-2.6-3-6.3-4.2-9.6-0.7
		c-4.2,4.4-9,1.3-13.5,1.4c-1.4,0-3,0.2-3.9-1.3c0-0.9,0-1.8,0-2.6c7.3-5.8,15.8-7.3,24.7-6.8c4.4,0.2,8.9,1.3,13.4,1.5
		c7-1.5,14,3.6,21,0c0.4,0.4,0.9,0.9,1.3,1.3C581.7,579.6,580.8,581.8,579.9,584z"/>
	<path class="st172" d="M252,399.2c6.7-0.1,13.5,0,20.2-0.2c3.8-0.1,5.2,1.5,4.7,5c-1,7,3.1,13.9,0.1,20.9c-0.8,1.8,0.3,3.8,1.2,5.6
		c-0.2,2.4-1.7,4.2-3.8,3c-4-2.3-7.3-0.6-11.1,0c-4.6,0.7-8-3.7-12.1-5.6c-0.8-1-1.8-2.3-1.5-3.5C251.8,416.1,251.3,407.6,252,399.2
		z"/>
	<path class="st173" d="M240.2,455.4c-3-2.5-5.6-5.1-5.7-9.6c0-4.7-3-7.4-7.5-8.6c-2.8-0.7-5.6-1.5-5.2-5.4c-0.1-11-1.5-21.9-4-32.6
		c5.3,0,10.5,0,15.8,0c1.4,1.1,2.6,2.5,2.7,4.3c0.6,9.7,1.7,19.2,9.1,26.5c0.1,1-0.1,2-0.6,3c-2.5,2.3-3.1,5-2.2,8.3
		c0.8,3.2,1.2,6.4,0.7,9.7C242.8,452.8,243.2,455.4,240.2,455.4z"/>
	<path class="st174" d="M244.1,433.1c0-0.9,0-1.8,0-2.6c2.4-1.7,4.7-3.3,7.9-2.6c1.8-0.1,3.7,0,4.9,1.2c3.6,3.5,7,4.2,11.1,0.7
		c1.8-1.5,3.8-0.2,5.1,1.4c2.2,2.7,3.6,0.7,5.2-0.8c2.4,2.8,5.2,4.4,9,4c2.3-0.2,4.3,0.2,5.4,2.6c0.4,0.5,0.6,1.1,0.4,1.8
		c-1.6,4.8-4.5,8.3-9.8,9.1c-2,0.3-3.4,1.8-5,2.9c-3.7,0.9-7.5-0.5-11.3,1.4c-2.8,1.4-5.3-0.8-6.8-3.5c-0.7-5.6-2.6-9.1-9.6-8
		C245.7,441.5,244.2,439.2,244.1,433.1z"/>
	<path class="st175" d="M252,427.9c-2.3,1.8-4.8,3.2-7.9,2.6c-0.1-0.6-0.1-1.7-0.4-1.8c-9.6-4.9-7.9-14.2-8.8-22.5
		c-0.3-2.3-0.9-4.7-1.3-7c6.1,0,12.2,0,18.3,0c1.9,7.6,2.7,15.1-0.8,22.5C250.1,423.9,252,425.7,252,427.9z"/>
	<path class="st96" d="M292.6,438.4c0-0.4,0-0.9,0-1.3c2.7-0.2,4.9,3.2,7.9,1.3c3,2.6,6.1,5.2,9.1,7.9c5.9,2.8,12.3,0.6,18.4,1.4
		c1.7,2.4,1.7,5.6-1.1,5.8c-7.5,0.8-13.5,6.3-21.2,5.9C291.7,458.8,287.7,452.5,292.6,438.4z"/>
	<path class="st176" d="M240.2,455.4c1.9-1.4,1.1-3.4,1.3-5.2c8.6-0.6,18.6,6,20.4,14.7c1.3,6,3.1,10,9.9,10.6
		c3.1,0.3,5.3,3.7,8.4,4.8c2.7,1.4,6.1,0.4,8.4,2.7c-0.5,6.7,0,13.3,2.6,19.7c-3.2-2.7-6.3-5.3-10.8-2c-1.7,1.3-3.4,0.5-3.6-1.9
		c-0.3-2.9-2.6-4.8-3-7.8c-0.4-2.8-3.8-6.2-5.7-5.4c-7.2,3-7.6-2.8-9.7-6.5c-2.4-8.8-12.8-8.9-17.1-15.7
		C242,460.5,240.6,458,240.2,455.4z"/>
	<path class="st177" d="M241.5,463.3c5,1.9,9.1,5.6,14.1,7.6c2.6,1,1.9,5.4,2.9,8.2c-1.3,1.8-0.8,3.6-0.1,5.6
		c3.6,10.8-1.5,15.6-13,12.8c-5.6-0.5-4.1-7.1-7.9-9.2c-4.6-7.6-4.3-15.6-1.3-23.6C237.9,463.7,239.6,463.1,241.5,463.3z"/>
	<path class="st178" d="M662.6,502.6c-6.2,2-10.7-1.9-15.4-4.6c-2.1-1.2-4.4-3-6.5-2.4c-6.1,2-8-1.5-9.6-6.1c0-2.2,0-4.4,0-6.6
		c-1.1-3.3,0.7-6.1,1.9-8.9c0.4-0.5,0.9-0.9,1.5-1.1c0.9-0.2,2-0.5,2.5,0.1c5.1,5.8,12.9,4.6,19.2,7.2c1,0.4,2.3,0.4,2.9,1.3
		c2.7,4.3,7.2,4.2,11.3,5c1.5,2.7-0.4,4.6-1.9,6.4c-1.7,2.1-2.8,4.4-3.3,7C664.7,501.2,664,502.2,662.6,502.6z"/>
	<path class="st179" d="M633.7,473.8c0,3.3-1.4,6.2-2.6,9.2c-3.3,0-6.6,0.3-9.8-0.1c-6.1-0.6-11.6,0.4-15.7,5.3
		c-1.7,2-3.8,2.6-6.3,2.9c-3,0.4-4.8,2.4-6.2,4.9c-1.5-2.3-3-4.6-5.4-6.2c-2.9-1.9-4.3-4.6-3.8-8.2c-3-2.3-3.5-4.4,0.4-6.2
		c4.5,0.3,8.4,2.7,13.1,2.8c5.1,0.1,7.5-1.8,9.2-6.2c2.6-7,3.3-7.2,9.6-3.2c2.9,1.8,5.4,3.2,8.9,1.1
		C629.3,467.5,631,472.2,633.7,473.8z"/>
	<path class="st180" d="M662.6,502.6c0.4-0.9,0.9-1.7,1.3-2.6c5.5-6.3,12.8-3.4,19.5-3.8c2.3-0.1,4.7,0.8,7,0.1
		c5,0.2,10,0.5,14.7,2.6c1,1.6,1.2,3.4,1.1,5.2c-0.5,2,0.4,4.8-3,5c-13.6,0.4-27.1,0.9-40.7,1.3
		C663.7,507.9,662.5,505.2,662.6,502.6z"/>
	<path class="st181" d="M747.9,518.4c-6.6-1.5-13,2.7-19.5,1.2c-7.9-1.8-16-0.4-23.8-2.5c0-2.2,0-4.4,0-6.6c2.8-2.5,6.4-1.7,9.4-1.4
		c13,1.3,26-1,39,0.2c1.5,0.6,2.4,1.8,2.7,3.4c0.2,1.2,0.1,2.3-0.3,3.4C753.6,519.4,751.3,520.7,747.9,518.4z"/>
	<path class="st182" d="M753.1,510.5c-8,0.5-16.3,1.9-23.8,1.4c-8.2-0.5-16.6,0-24.7-1.4c-0.4-0.4-0.9-0.9-1.3-1.3
		c1.9-1.4,1.1-3.4,1.3-5.2c4.2-3.1,9-3.5,13.7-2.6c9.6,1.8,18.9,1.7,28.2-1.3c2.3-0.7,4.7-0.9,7.1-0.7c0.7,0.2,1.2,0.6,1.6,1.2
		C756.2,504.3,755.5,507.6,753.1,510.5z"/>
	<path class="st183" d="M585.2,476.4c-4.3,0.8-2,3.2-1.3,5.3c-7.4,1.5-14.7,2.9-22.3,2.6c-1.9-5.1-3.2-10.8-10.5-10.5
		c3.2-2.9,4.3-7.9,9.2-9.2c7.1,0.5,14-0.7,21-1.3C587.6,466.1,585.7,471.5,585.2,476.4z"/>
	<path class="st184" d="M772.8,438.4c0.4,0,0.9,0,1.3,0c5.9,1.4,11.5-1.3,17.4-1.4c7.7-0.2,16,2.1,23.3-2.5
		c6.5,3.3,11.9-1.4,17.8-2.4c2-0.4,3.8-2.7,5.8-0.2c-0.4,1.3-0.9,2.6-1.3,3.9c-6.8,1.2-10.4,9.7-18.7,8c-2.8-0.6-4.3,2.5-6.2,4.1
		c-2.7,2.4-4.3,6.1-8.6,6.5c-7.6,1.5-15-1.3-22.5-1.2c-4.6,0.1-7.6-4.5-10.5-8C769.8,442.4,770.3,440.1,772.8,438.4z"/>
	<path class="st185" d="M804.3,452.8c4.2-2.1,6.4-6.3,9.8-9.2c2.1-1.8,3.9-3.6,6.7-1.2c1.1,1,2.8,1.4,3.4,0
		c2.4-6.1,8.1-5.4,12.9-6.6c2.8,2.4,3.9,5.9,5.2,9.2c-1.9,4-3.6,8.2-9.2,7.9c-1.7,1.6-3.9,1.9-6,1.8c-7.2-0.3-14.2,0.3-21,2.6
		C804,456.3,803,455.1,804.3,452.8z"/>
	<path class="st186" d="M805.6,456.7c8.5-6.4,18.3-3.1,27.5-3.9c0.4,3.1,0.9,6.1,1.3,9.2c-2.3,2.3-5.4,3.6-8.3,2.7
		c-5.7-1.7-10.6-0.5-15.5,2.2c-1.3,0.7-2.9,0.8-4.4,0.8c-7.8-0.2-15.5,0.6-23,2.6c-1.5,0.4-3,0.7-4.3-0.4c-1.7-2.5-1.4-5.3-1.1-8.1
		c0.9-3.8,3.6-5.3,7.1-5.4C791.8,456.1,798.7,455.5,805.6,456.7z"/>
	<path class="st187" d="M806.9,465.9c2.5,0.2,4.7-0.9,6.7-2.2c3.2-2.1,6.1-3.4,10.1-0.9c3.4,2.1,7.1-0.8,10.8-0.8c0,0.4,0,0.9,0,1.3
		c0,3.1,0,6.1,0,9.2c-3,2.5-6.6,3.9-10.2,3.7c-11.3-0.6-22.4,2.4-33.7,0.8c-1.5-0.2-3-0.1-4.5-0.6c-2.6-1.3-2-2.9,0.2-3.4
		c3.7-0.9,6.9-2.6,9.8-5c1.3-1.1,2.9-1.1,4.4-0.3C803.1,468.8,804.9,467.2,806.9,465.9z"/>
	<path class="st72" d="M286.1,631.2c0-1.7,0-3.5,0-5.2c2.5-0.4,5.2-0.4,7.5-0.7c4-0.6,9.3-1.3,9.7-7.6c0.2-2.8,1.6-5.4,3.8-7.4
		c4.9-1.5,8.9-1.3,13.9,1.8c3.3,2,10,1.3,15-0.5c1.3,3.4,7.8,2.4,6.6,7.9c-0.9,1.3-1.7,2.6-2.6,3.9c-2,10.8-13,17.2-23.3,13.4
		c-1.7-0.6-3.7-1.7-5-0.8c-6,4.2-12.7,0.6-18.9,1.8C290,636.1,287.8,633.9,286.1,631.2z"/>
	<path class="st188" d="M871.2,698.1c-8.7,0-17.4,0-26.1,0c-2.4,0-4.8-0.2-6.9-1.5c-2.3-1.3-2.7-3.4-2.2-5.6
		c0.7-2.8,2.8-1.7,4.7-1.6c9.3,0.2,18.4,0.1,25.7-7.1c2.5-2.5,5.8-0.7,8.7-1.2c1.4,4.8-2.4,8.6-2.6,13.1
		C872,695.4,871.6,696.7,871.2,698.1z"/>
	<path class="st36" d="M560.3,616.7c-8.1-3.5-16.5-1.2-24.7-1.6c-8.6-0.4-17.2,1.2-25.7-1.6c-2.6-0.9-4.9,1.9-7.3,3.1
		c-3.8-1.4-4.6-5.8-7.8-7.9c-0.2-1.3,0.6-2.3,1.7-2.3c6.8-0.5,13.6-2.3,20.5-1.5c2.9,3.1,6.7,1.7,9.7,1.1c5.1-1.1,9.7-0.5,14.5,1
		c1.4,0.5,3.2,0.8,4.5,0.4c6.8-2.3,11.4,0.8,15.3,6c5.2-7.3,13.1-1.2,18.9-4.6c0.4,2.2,0.9,4.4,1.3,6.6c-2.4,0-4.6-0.1-6.4,2.2
		c-3.3,4.4-7.1,4.9-10.2-0.2C563.2,615.2,561.9,616,560.3,616.7z"/>
	<path class="st189" d="M517,604.9c-6.9,4.5-15.1,1-22.3,3.9c-1-1.1-1.9-2.3-2.9-3.4c-2.8-2.8-1.6-3.9,1.7-4.4
		c2.1-0.3,4.2-0.9,6.3-1.2c4.7-0.8,9.6,0,12.8-5.5c1.6-2.8,6.7,0,9.7-2.4c3.1,0.5,6.4-1.2,9.2,1.3c0,1.7,0,3.5,0,5.2
		c-0.7,3.7-3.4,2.8-5.6,2.3C521.5,599.5,518.7,600.9,517,604.9z"/>
	<path class="st190" d="M475,559c-1.7-6.4,2.5-10.8,5.4-15.6c5.8,1.9,11.5-0.3,17.3-0.2c4.1,0,8-0.3,8,5.5c0,0.4,1.4,0.8,2.1,1.2
		c1.8,2.8,0.3,5.4-0.5,8.1c-3.1,4.8-6.2,9.6-13.3,7.4C488.2,561.8,482.4,557.9,475,559z"/>
	<path class="st191" d="M506.5,557.7c-0.5-2.8,0.9-5.2,1.3-7.9c4.7,2.6,7.5-3.3,11.8-2.6c-0.2,5.9,3.3,10.5,5.2,15.7
		c0.5,2.4,0.6,4.7-1.3,6.6c-2.7,5.5-8.8,4.2-13.1,6.6C504.6,570.7,503.5,565.1,506.5,557.7z"/>
	<path class="st192" d="M523.5,569.5c0.3-2.2-0.9-4.7,1.3-6.6c1.8-0.9,3.6-1.7,5.6-1c4.2,1.5,7.6,0.9,9.4-3.8c1-2.8,4-2.1,6-3.1
		c1.8,2.2,4.3,1,6.6,1.3c0.2,1.9-0.4,3.6-1.3,5.2c0.6,1.1,0.1,2.7-0.7,2.8c-6.2,1-9.6,8.3-16.7,7.4c-3.3-0.4-6.7,1.5-10.1,0.2
		C523.5,571.3,523.5,570.4,523.5,569.5z"/>
	<path class="st193" d="M747.9,518.4c2.5,0,5.2,0.4,6.6-2.6c9.2-3.4,18.5-2.6,27.7,0.1c3.5,4.2-0.6,5.6-2.8,7.8
		c-5.7,1.3-11.4,3.5-17.2,3.7c-5.8,0.2-9.7,2.6-13,6.8c-1.9-1.6-1.5-5.5-5.2-5.2C746.1,525.7,742.7,520.4,747.9,518.4z"/>
	<path class="st121" d="M292.7,637.7c8-2.2,16.3-4.1,24.3-2.6c6.3,1.2,16.1-0.7,19.5-6.3c1.1-1.9,2.3-3.7,3.4-5.5
		c4.5,3.4,1.2,9.2,3.9,13.1c-0.9,1.5-1.6,4-2.8,4.2c-5.9,1.2-10.2,2.6-11.9,10c-0.8,3.7-7.3,0.2-11.3,0.2c-1.4,0-3-1.5-4.3-1.2
		C302.9,652.1,298.2,644.1,292.7,637.7z"/>
	<path class="st97" d="M305.8,458c3.7-0.6,7.6-0.7,10.4-4.1c1.7-2,4.5-1.3,6.8-1.1c4,0.3,5.6-1.3,5.1-5.2c1.9-0.1,4,0.2,5.8-0.2
		c8.6-1.7,8.6-1.8,8.6,7.4c0,0.6,0,1.3,0,1.9c0,1.3,0,2.6,0,3.9c-4.5-0.6-8.9-2.8-13,2.2c-2.5,3-7,0.2-10.6,0.5
		c-0.9-1.9-2.5-3.3-4.6-2.2c-3.1,1.7-5.7,0-8.6-0.4C305.1,459.8,305,458.9,305.8,458z"/>
	<path class="st194" d="M417.3,409.5c0-2.2,0-4.4,0-6.6c-2.2-3.2-1.1-6.2,0.6-9.2c4.2-3.2,8.3-3.6,12.1,0.5c1.6,1.8,3.4,2.4,5.8,2.3
		c2.4-0.1,4.7,0.5,6.4,2.5c0,1.4-0.2,3,1.3,3.9c0,5-1.2,8.8-7.4,9.3c-5.4,0.4-2.2,5.1-3.1,7.7C426.2,418.9,423.5,411.6,417.3,409.5z
		"/>
	<path class="st195" d="M418.6,393.8c-0.4,3.1-0.9,6.1-1.3,9.2c-3-1.4-5.9-2.5-8.6,1c-1.9,2.5-4.4,1.9-6.8,0
		c-3.6-2.9-6.6-8.1-12.2-2.2c-1.6,1.7-3.1-2.3-5.2-2.7c-2.4-3.2-1.3-5.3,1-8.6c8.2-12.1,20.2-9.8,31.7-9.7
		C419.9,384.8,419.6,389.2,418.6,393.8z"/>
	<path class="st196" d="M418.6,393.8c-2.3-4.2-0.9-8.7-1.4-13c5.6,0,11.3-0.1,16.9-0.1c9.8,0,9.8,0,16.6,8.7c-4.7,1.7-7.3,5-8.5,9.7
		c-3.1,0.2-6.1-2.2-9.4-0.3c-0.9,0.5-2.5-0.1-2.8-1.1C428,390.9,423.1,393.1,418.6,393.8z"/>
	<path class="st197" d="M610.1,677.1c-1.5-1.9-4-1.9-5.3-1c-4.4,3.1-7.9,1-10.4-2c-4.6-5.5-11.7-5.4-17.1-8.9
		c6.2-5.9,13.9-4.1,20.8-2.9c4.1,0.7,7.7,1.5,11.8,0.4c4-1.1,8.1-0.5,11.9,1.2c0,3.9,0,7.9,0,11.8
		C618.4,680.2,614.2,678,610.1,677.1z"/>
	<path class="st145" d="M565.5,691.5c0-0.9,0-1.8,0-2.6c8.6-3.4,17.4-4.9,26.6-2.7c5.7,1.4,11.1,1.3,16.4-1.8
		c4.3-2.6,8.8-3.9,13.5-0.8c0,1.3,0,2.6,0,3.9c0,2.6,0,5.3,0,7.9c-8.7-2.7-17.3,3-25.9,0.3c-6.7-2.1-13.1-4.9-20.6-1.4
		C573.7,695.1,569.6,690.5,565.5,691.5z"/>
	<path class="st107" d="M621.9,683.6c-5.5-0.3-10.9-0.3-15.2,4c-1.6,1.5-3.6,1.4-5.5,1.3c-6.9-0.7-13.8-2.1-20.7-2
		c-4.9,0.1-9.8,2.8-15,2c0-8.6,0-8,8.8-8.6c3.9-0.2,8.3,0.6,11.9-2.2c1.6-1.3,3-0.6,4.8,0.1c6.5,2.5,13,2.7,19.1-1.1
		c3.9-1.2,8.1,1.1,11.8-1.3C621.9,678.4,621.9,681,621.9,683.6z"/>
	<path class="st198" d="M273,514.4c0,1.3,0,2.6,0,3.9c-0.3,5,1.8,10.7-4.7,13.8c-1.7,0.8-1.5,3.8-2.1,5.9c-0.9,3.1-2.3,6.1-6.3,6.5
		c1.5-8.1-5.7-13.7-6.2-21.3c0-0.6-1.5-1.6-1.7-1.5c-7.3,4.5-8.3-3.1-11.7-6c0.5-3.2,3.7-5.6,2.6-9.2c2.5-0.2,4.5,1.1,6.7,2.2
		c4.4,2.1,8.7,4.4,14.1,2.7C267,510.3,270.3,511.9,273,514.4z"/>
	<path class="st199" d="M288.7,483c-3-0.5-6.4,1.2-9.2-1.3c-1.6-3.3-4.3-5.2-7.5-6.6c-8.6-3.8-14-17-10.8-26.2
		c2.9,2.5,5.8,3.5,9,0.3c3-3.1,5.1,2.5,8.1,1c0.5,0.4,1,0.9,1.1,1.5c1.4,12.2,9.5,18,20.2,21.2c0.4,0.1,0.7,0.5,1,0.8
		c0,2.2,0,4.4,0,6.6C296.6,481.2,292.7,482.1,288.7,483z"/>
	<path class="st200" d="M300.5,473.8c-12.8,0-22.2-10.1-22.3-23.6c0.1-1.6,0.7-3.5,2.2-3.5c6.4,0.4,9.1-4.1,12.2-8.3
		c0,1.3-0.1,2.6,0,3.9c0.3,3.2-3.2,7.1-0.6,9.2c3.8,3.2,8,6.9,13.7,6.6c0,0.9,0,1.7,0,2.6c-1.8,2.3-3.2,4.8-2.6,7.9
		C302.3,470.3,301.4,472,300.5,473.8z"/>
	<path class="st201" d="M602.2,451.5c0.4-3.6,1.2-7.1,2.6-10.5c4.1-4.6,9.5-2.7,13.9-1.5c4.4,1.1,8.8,2.3,13.2,3.1
		c2,0.9,3.3,2.4,4.1,4.3c0.9,3.7,1.6,7.4,1.3,11.3c-0.6,1.6-1.9,2.5-3.5,3c-8.2,0.4-16.3-0.1-24.3-2.6c-1.7-1.3-3.5-2.5-5.5-3.2
		C602.4,454.7,600.8,453.7,602.2,451.5z"/>
	<path class="st202" d="M632.4,443.6c-4.7-0.1-9-0.4-13.6-2.4c-3.9-1.7-9.3-2.1-13.9-0.2c0-0.4,0-0.9,0-1.3
		c0.2-4.6,0.6-9.2,5.2-11.8c2.1-1.9,4.7-2.4,7.5-2.2c6.2,1.8,11.5,5.3,16.5,9.2C633.9,437.8,633.1,440.7,632.4,443.6z"/>
	<path class="st203" d="M602.2,451.5c0.8,4.3,7.7,1.4,7.9,6.6c-3.7,3.4-7.8,6.4-12.7,7.7c-5.8,1.5-11.7,1.4-16.2-3.7
		c0.6-3.9-1.4-6.6-3.9-9.2c0.2-1.1,0.3-2.4,1.7-2.3C586.8,450.7,594.5,451.1,602.2,451.5z"/>
	<path class="st204" d="M581.3,462c8.3,4.1,16.2,4.1,23.5-2.1c1.6-1.3,3.3-2.1,5.3-1.9c5.1,0.8,10.5-0.2,15.4,2.3
		c2.6,1.3,5.6-4.3,8.2,0.4c3.4,4.4,2.4,8.7,0,13.1c0,0,0,0,0,0c-4.6,3.6-3.8-5.2-7.1-3.3c-2.5,1.5-4.2,4.6-7.6,1.8
		c-5.8-4.8-10.4-6.9-12.3,3.6c-0.6,3.1-4.1,4.6-8.4,4.1c-4.7-0.5-9.2-0.5-13.1-3.6c-2.8-3.9,0.5-9.7-3.9-13.1
		C581.3,462.8,581.3,462.4,581.3,462z"/>
	<path class="st205" d="M779.3,523.6c1.1-2.3,1.7-4.9,3.9-6.6c2.1-3.8,5.9-2.4,8.8-2.2c6.6,0.5,12.9-0.2,19-3
		c4.2-1.9,8.8-2.1,13.3-2.6c1.9-0.2,4.6-0.8,4.8,2.6c-1.8,2.9-1.2,6.1-1.3,9.2c-3.5-0.2-6.9,0.5-10.4-0.6c-2.5-0.8-5.6,0-6.5,1.7
		c-3.6,6.8-10.3,5.3-15.8,6.8c-0.1-1.9-1.3-4.3-2.8-3.6C787.4,527.6,783.7,523.7,779.3,523.6z"/>
	<path class="st206" d="M829.2,511.8c-5.9-2.8-11.9-0.6-16.8,1.6c-8.9,3.9-17.6,3.6-26.7,2.8c-0.8-0.1-1.6,0.6-2.4,0.9
		c-9.6-1.8-19.2-1.3-28.9-1.3c0-0.9,0-1.7,0-2.6c3.6-2.9,7.6-3.3,12.1-3.8c11.4-1,23.2,0,33.6-6.6c1.7-1.1,3.6-1.7,5.5-0.2
		c2.3,1.7,5.3,1.1,6.6-0.5c6.5-7.9,14.7-3.3,22.3-3.5c1.8,2.2,0.2,4.4,0,6.6C834.2,508.6,832.2,510.6,829.2,511.8z"/>
	<path class="st207" d="M784.6,475.1c16.7,0.3,33.3,0.1,49.8-2.6c0,0.4,0,0.9,0,1.3c-0.9,1.7-1.7,3.5-2.6,5.2
		c-7.5,4.5-16,5-24.3,5.6c-5.8,0.4-11.7,1.5-17.6,0.6c-1.8-0.3-3.4,0.4-4.8,1.6c-7.7,6.7-18,7.1-27,10.7c-1,0.4-2.1-0.1-3.2-0.5
		c-2.2-1.4-3-3.8-3.7-6.1c0-1.1,0.7-1.9,1.5-2.5c7.4-3.9,14.3-8.8,23.3-8.8C779.5,479.6,781.1,475.3,784.6,475.1z"/>
	<path class="st208" d="M754.4,496.1c10.2-3.4,21.9-3.1,30-11.9c1-1.1,2.3-1.2,3.6-1.2c13.1,0.8,26.2,0.4,38.8-3.7
		c1.5-0.5,3.4,0.9,5-0.2c0.1,2.7,2,2.6,3.9,2.6c0,0.9,0,1.7,0,2.6c-0.4,6-5.2,4.6-8.7,5.2c-8.6,1.6-17.7,1.2-25.4,6.6
		c-5.5,4.3-11.9,4.8-18.5,4.5c-6.9-0.3-13.7-0.6-20.6,1.3c-2.7,0.7-6.1,1.8-8.2-1.8l0,0C753.3,498.7,753.3,497.4,754.4,496.1z"/>
	<path class="st209" d="M754.4,500c3.4,2.1,7.5,0.8,9.9-0.4c6.2-2.9,12.3-1.2,18.2-0.8c6.7,0.5,12.7-2.3,19.1-2.8
		c0.9,2.4,4.8,3,3.9,6.6c-0.2,0-0.5-0.1-0.6,0c-9.8,7.4-21.8,6.9-33.1,8.6c-5.7,0.8-11.7,0.6-17.4,1.9c0-1.1-0.3-2.1-1.3-2.6
		C753.5,507,754,503.5,754.4,500z"/>
	<path class="st210" d="M730.8,421.3c-2.1,2.7-1.2,6.3-2.6,9.2c-3.5,1.5-7.8,1.7-9.3,6.1c-0.1,0.4-0.6,0.6-1,0.8
		c-3.5,2.3-16.5,1.5-20.3-1.3c-5.3-6-12.5-8.4-20.1-10c-2.8-0.6-5.9-0.5-4.4-4.9c8.3-0.1,16.7,0.2,24.5-3.5c2.5-1.2,4,0.2,5.2,2.5
		c0.8,1.6,1.7,4.5,4.1,2.9c6.5-4.5,14.9-2.7,21.3-7.1C729.1,417.8,729.9,419.5,730.8,421.3z"/>
	<path class="st211" d="M614,413.5c17.9,0,35.8,0,53.8,0c0.4,0.9,0.9,1.7,1.3,2.6c-0.7,3.3-3.9,4.7-5.6,7.3
		c-1.6,3.7-4.3,4.1-8.2,4.5c-9.4,0.9-17.9-5.5-27.6-2c-3,1.1-6.6-1.5-10-2.2C614.4,421,614.3,417.2,614,413.5z"/>
	<path class="st140" d="M662.6,421.3c2.2-1.7,4.4-3.5,6.6-5.2c2.4,1,2.8,3.3,3.9,5.2c0.1,1.6,0.9,3.8,2.3,3.4
		c6.4-2.1,10.4,2.5,15.3,4.7c1.2,0.5,2.4,1.1,3.7,1.1c4-0.1,3.7,2.7,3.7,5.3c-0.8,2.8-2.9,4-5.6,4.5c-7-2.3-13.8-5.5-21.6-2.5
		c-2.4,0.9-5.5,0.2-8.3-0.3c-0.6-0.5-0.9-1-1.2-1.7C659.8,430.7,661.8,426,662.6,421.3z"/>
	<path class="st41" d="M614,413.5c4.2,1.8,1.3,6.7,3.9,9.1c1,1.3,1.1,2.6,0,3.9c-2.6,0.4-5.1,1.8-7.9,1.3c-0.3-1.5-0.7-4.9-2.2-2.9
		c-4.2,5.8-8.8,3.5-13,1.4c-5.1-2.6-11.4-4.4-12.4-11.6c7.1-1.1,13.3-4.1,18.4-9.2C605.5,407.8,607.4,414.6,614,413.5z"/>
	<path class="st212" d="M506.5,557.7c-0.8,6.6,1,12.6,3.9,18.4c-3.1,3.9-6.7,5.3-12,5.6c-5.6,0.2-11,3-16.5,4.6
		c-4.4,1.3-8.2,1.7-6.9-5c7.7-4,12.9-10.7,18.3-17C499.8,566.2,502.7,561,506.5,557.7z"/>
	<path class="st213" d="M523.5,572.2c3.2-2.1,7.3-2.1,10.6-2.1c4.3,0,7-0.1,8.1-4.8c0.3-1.5,1.5-2,3-1c3.4,2.4,4.4-0.7,5.9-2.6
		c5.9,0.5,6.2,5.7,7.8,9.7c0.6,1.5-0.3,3.5,1.4,4.8c-2.6,2.4-6.1,1.9-8.6,1.1c-10.7-3.6-19.8,1.9-29.4,4.1
		C522.7,578.3,523.1,575.2,523.5,572.2z"/>
	<path class="st214" d="M493.4,564.3c-3.7,8.3-8.4,15.5-18.3,17c0-6.5,0-13.1,0-19.6c0-0.9,0-1.8,0-2.6
		C480.4,555.8,488.2,558,493.4,564.3z"/>
	<path class="st215" d="M692.8,439.7c1.7-1.3,3.5-2.6,5.2-3.9c5.6,4,11.7-0.7,17.4,1.2c1.2,0.4,2.9-0.7,3-2c0.8-7.1,5.6-4.9,9.7-4.4
		c0,1.3,0,2.6,0,3.9c1.3,1.5,1.5,3.2,0.7,5c-4.4,1.9-8,4.1-9.1,9.6c-0.6,3.3-4.6,3.7-7.7,3.3c-3.5-0.4-7-0.6-10.2,1.3
		c-2.1,0.6-4,0.7-5.6-1.1C697,447.7,691.3,444.7,692.8,439.7z"/>
	<path class="st216" d="M728.2,439.7c0-1.7,0-3.5,0-5.2c1.7-0.2,3.5-1.1,5-0.6c11,3.3,22.2,1.2,33.2,2c2.3,0.2,5.5-1.4,6.3,2.6
		c-0.4,2.2-0.9,4.4-1.3,6.6c-9.4,2.4-18.9-0.1-28.3,0.6c-3.6,0.3-7.4,1.2-11,0.2C730,444.3,726.6,443.6,728.2,439.7z"/>
	<path class="st217" d="M261.2,448.8c0.3,6.2,1.3,12.1,4.2,17.7c2,3.8,4.4,7,8.8,7.8c4.2,0.7,5.9,3.1,5.3,7.3
		c-4.8-2-8.7-6.1-14.5-6.1c-2.1,0-3.9-1.9-3.8-4.6c0.4-9.6-5.2-14.7-13.2-18c-2.2-0.9-4.3-1.9-6.5-2.8c1.1-3.7-0.5-7.2-1.1-10.7
		c-0.5-2.8-1.4-6.5,3.7-6.3c1.4,5,3.5,7.7,9.6,5.6C259,436.9,261.1,440.3,261.2,448.8z"/>
	<path class="st218" d="M633.7,473.8c0-4.4,0-8.7,0-13.1c0.9-0.9,1.7-1.8,2.6-2.6c1.8-1.7,4-1.7,6.1-1c6.7,2.3,14,1.9,20.6,4.6
		c3.4,1.4,7.3,1,10.9,1.7c3,1,4,4.2,6.3,5.9c3.4,3.8,0,7.2-0.5,10.8c-0.8,5.4-5.9,5-9.3,6.9c-4.9,1.5-8.2,0.2-12.3-3.5
		c-2.8-2.4-8-5.9-13.4-3.5c-2,0.9-3.7,0.7-4.6-1.9C639.2,475,637,473.5,633.7,473.8z"/>
	<path class="st219" d="M670.5,486.9c0.3-2,0.9-4.2,3.4-3.4c3.3,1.1,3.4-1.6,4.4-3.2c6,0.2,11.8,0.9,17.5,3c0.8,5.8-2,10.1-5.7,14.1
		c-1.2,1.4-2.4,2.2-4.4,1.5c-7.4-2.6-14.7-1.3-21.8,1.1C662.6,493.9,669.3,491.8,670.5,486.9z"/>
	<path class="st220" d="M690.1,497.4c0.9-5.1,4.8-9.2,5.2-14.4c2.2-2.1,4.6-1.1,7-0.5c4,1.7,7.3-1.7,11.2-1.6
		c2.9,0.1,5.6-0.4,7.6,2.3c2.3,3.1,5,2.4,8.1,1.4c5.9-2,11.8-4.7,18.3-2.5c1.9,2.4,4.9,4,5.5,7.3c-0.4,0.4-0.9,0.9-1.3,1.3
		c-6.2,3.1-12.9,5-19.3,7.6c-2.2,0.9-5,1.3-7.1,0.5c-7-2.7-13.9-1.3-20.9-0.2C699.5,500.8,695,497.3,690.1,497.4z"/>
	<path class="st221" d="M704.6,498.7c3.4-3,8.1-2.6,12.1-4.4c2.8-1.3,3.8,3,7.1,3.3c6.8,0.6,12.6-2.2,18.3-4.7
		c3.4-1.5,6.4-1.9,9.8-2.1c2.4,1,2.7,3,2.6,5.2c0,1.3,0,2.6,0,3.9c-11.9,3.4-23.8,6.6-36.3,2.8c-4.5-1.4-9,1.3-13.5,1.2
		C704.6,502.2,704.6,500.4,704.6,498.7z"/>
	<path class="st222" d="M732.1,444.9c9.1-0.9,18-2.4,27.2-0.2c3.9,1,8.1-3.2,12.2,0.2c2.1,1.7,4.8,2.5,6.3,5.2
		c0.9,1.6,3.2,3.4,5.5,1.4c2.1-1.8,3.6-0.9,5.7,0.2c4.8,2.4,10.2,0.6,15.3,1.1c0.4,1.3,0.9,2.6,1.3,3.9c-6.6,2.9-13.4,0.7-20.2,1.3
		c-2.9,0.3-5.7,0.1-6.1,4c-0.9,1.7-2.2,1.9-3.9,1.4c-4.1-1.3-8.1-1.3-11.9,1.2c-1.3,0.9-3.1,1.4-4.3,0.2c-5.1-5.1-11.6-3.8-17.7-4.5
		c-3.1-0.3-6.7,0.9-9-2.5c-0.8-1.7-1.5-3.4-2.6-4.9C729.6,449.9,728.2,446.7,732.1,444.9z"/>
	<path class="st223" d="M733.4,456.7c2.1,4,6.1,1.7,8.7,1.7c4,0.1,8,1.4,12.1,0.9c0.4-0.1,1.1-0.2,1.3,0c4.1,7.1,9.4,2.1,14.1,1.1
		c3.6-0.8,6.3,2.9,9.8,1.4c0,2.6,0,5.2,0,7.9c-9.6,2.9-18.5,9.3-29.3,6.9c-7.9-2.4-14.9-6.1-17.8-14.6
		C731.5,460,729.7,457.8,733.4,456.7z"/>
	<path class="st224" d="M749.2,475.1c7.1-0.4,14.5,1.7,20.7-4.6c1.7-1.7,6.2-0.5,9.5-0.7c8.8-4.2,18.2-4,27.5-3.9
		c-1.6,3.5-3.1,7.4-7.5,2.5c-0.6-0.7-1.8-0.6-2.2,0.2c-2.8,4.8-8.2,4.7-12.5,6.5c-3.2,4.4-6.9,6.9-12.8,6.8c-4-0.1-8.5,1.1-11.6,4.8
		c-1.7,2-4.6,2.2-7.1,2.8c-2.4-1.7-5.3-2.9-5.3-6.6C748.4,480.3,747.3,477.5,749.2,475.1z"/>
	<path class="st225" d="M674.4,464.6c-6.8,0.1-13.1-2.3-19.6-3.4c-6.1-1-12.1-3.3-18.5-3.2c-0.4-3.5-0.9-7-1.3-10.5
		c7.8-0.3,15.6,0.5,23.4-0.4c2.8,1.4,5.6,2.7,7.5,5.4c1,2.3,2.9,3.7,4.9,5.1C673.2,459.2,675.5,461.1,674.4,464.6z"/>
	<path class="st226" d="M658.7,447.5c-3,2.2-6.2,4.2-9.8,1.3c-2-1.6-3.6-0.5-5.3,0.4c-3.3,1.7-6.1,1.3-8.5-1.6
		c-0.9-1.3-1.7-2.6-2.6-3.9c-1.9-3-1.3-5.6,1.3-7.9c0.3-0.3,0.6-0.8,1-0.8c9.4-0.5,18.7,0.4,27.9,2.1c0.4,0,0.9,0,1.3,0
		C665.4,442.2,660.6,444.2,658.7,447.5z"/>
	<path class="st227" d="M662.6,437c-9.7,2.1-19.2-0.9-28.9-1.3c-5.2-3.1-10.5-6.1-15.7-9.2c0-1.3,0-2.6,0-3.9
		c6.2,1.1,12.3,1.8,18.5,0.1c2.2-0.6,4.8-0.3,6.3,2.2c0.9,1.5,2.6,2.2,3.9,1.4c3.5-2,6.5-1.5,10.1,0c4.5,2,3.9-3.2,5.8-5
		C662.6,426.5,662.6,431.8,662.6,437z"/>
	<path class="st228" d="M658.7,447.5c-1-4.9,5.2-6.2,5.2-10.5c9.9-2,19.8-4.7,28.9,2.6c0.5,4.2,6.5,6.6,3.9,11.8
		c-2,0.8-3.3-0.7-4.7-1.6c-2.6-1.8-5.1-3.8-7.8-0.2c-0.4,0.5-1.2,1.1-1.7,0.9c-6.4-3.8-11.5,1.9-17.3,2.2
		C663.4,450.6,659.4,451.1,658.7,447.5z"/>
	<path class="st229" d="M665.2,452.8c5.2-1.8,9.2-8.7,16-3.8c0.4,0.3,1.5,0.4,1.7,0.2c6.5-10.5,9.2,1.6,13.8,2.2
		c1.4,1.9,3.4,1.1,5.2,1.3c5.2,1.3,7.6,4.2,6.1,9.7c-1.4,2.3-3.8,3.1-6.1,3.2c-7.6,0.4-15,2.2-22.3,4.2c-3.8,0.3-3.3-3.7-5.2-5.2
		c-1.4-2.9-2.6-5.9-6.3-6.7C665.4,457.3,665.2,455,665.2,452.8z"/>
	<path class="st230" d="M707.2,462c1.5-4.9-3.3-6.2-5.2-9.2c2.5-5,6.7-2.1,10.1-2c3.4,0.1,7,0.3,7-4.3c0-6.8,3.9-7.5,9.2-6.8
		c-0.1,2.8,3.4,2.9,3.9,5.2c-1.3,2.5-1.3,5.2-1.3,7.9c-6.3,1.4-7.9,7.8-12.1,11.4C714.4,466.1,710.2,467.1,707.2,462z"/>
	<path class="st231" d="M707.2,462c3.6,3.1,7.7,2.1,11.8,1.3c3,4.6,1.8,9.7,1.2,14.6c-0.3,2.6-2.4,4.1-4.7,2.3
		c-3.6-2.8-6.1-2.4-8.5,1.4c-1.1,1.7-3.2,2.2-5.1,2.8c-2-1.2-4.3-1.5-6.6-1.3c-6,1.3-11.6-0.1-17.1-2.6c-0.9-3.7,4.1-6.6,1.3-10.5
		c4.6-3.8,9.8-5.4,15.7-5.3C699.5,464.7,703.5,464.2,707.2,462z"/>
	<path class="st232" d="M701.9,484.3c1.5-2.8,4.7-4,6.1-7.3c1.3-3.2,4.7-2.4,6.8,0.4c0.8,1,1.3,2.6,2.8,2.3c2-0.5,1.3-2.5,1.3-3.9
		c0.1-4.1,0-8.3,0-12.4c0.2-4.8,5.1-6.6,6.6-10.7c0.8-2.1,3.4-0.6,5.2,0.2c2.7,0.1,2.6,2,2.6,3.9c-3.2,3.5,1.5,4.6,2,6.9
		c1.5,7.8,8.8,8.1,13.8,11.4c-0.8,2.6,3.2,5.9-1.3,7.9c-7.1-0.5-13.7,1.3-20.1,4.1c-2.2,1-4.6,2.2-6.3-0.6c-3.9-6.8-9.4-4.1-14.2-2
		C705.1,485.4,703.7,485,701.9,484.3z"/>
</g>
</svg>
