<?xml version="1.0" encoding="utf-8"?>
<!-- Generator: Adobe Illustrator 25.1.0, SVG Export Plug-In . SVG Version: 6.00 Build 0)  -->
<svg version="1.1" id="Camada_1" xmlns="http://www.w3.org/2000/svg" xmlns:xlink="http://www.w3.org/1999/xlink" x="0px" y="0px"
	 viewBox="0 0 1080 1080" style="enable-background:new 0 0 1080 1080;" xml:space="preserve">
<style type="text/css">
	.st0{fill:#F1D681;}
	.st1{fill:#BC8AA4;}
	.st2{fill:#C23738;}
	.st3{fill:#C4433E;}
	.st4{fill:#F1D872;}
	.st5{fill:#DB9E92;}
	.st6{fill:#D8927A;}
	.st7{fill:#D17740;}
	.st8{fill:#DFCD95;}
	.st9{fill:#C24674;}
	.st10{fill:#D5897C;}
	.st11{fill:#5870AF;}
	.st12{fill:#A470A7;}
	.st13{fill:#976BA3;}
	.st14{fill:#D17B82;}
	.st15{fill:#CF9B9B;}
	.st16{fill:#C54D89;}
	.st17{fill:#A0438F;}
	.st18{fill:#C89BA2;}
	.st19{fill:#B78BAC;}
	.st20{fill:#8967A1;}
	.st21{fill:#DA8D90;}
	.st22{fill:#D28B92;}
	.st23{fill:#C44F84;}
	.st24{fill:#C34669;}
	.st25{fill:#96428E;}
	.st26{fill:#89418D;}
	.st27{fill:#D69391;}
	.st28{fill:#4073B2;}
	.st29{fill:#DDA06E;}
	.st30{fill:#8B82B4;}
	.st31{fill:#C2B5B7;}
	.st32{fill:#9789B8;}
	.st33{fill:#E6BAB3;}
	.st34{fill:#C44843;}
	.st35{fill:#A4649F;}
	.st36{fill:#B74A93;}
	.st37{fill:#DEA279;}
	.st38{fill:#C24874;}
	.st39{fill:#F0D676;}
	.st40{fill:#E5B76D;}
	.st41{fill:#E1A98F;}
	.st42{fill:#DB8D8D;}
	.st43{fill:#AC418D;}
	.st44{fill:#A0ABD0;}
	.st45{fill:#F0D387;}
	.st46{fill:#F0D37A;}
	.st47{fill:#EFCF81;}
	.st48{fill:#C58299;}
	.st49{fill:#AB76A8;}
	.st50{fill:#B17AA6;}
	.st51{fill:#BF7F9A;}
	.st52{fill:#B77DA1;}
	.st53{fill:#C38A9C;}
	.st54{fill:#CC6443;}
	.st55{fill:#C33D3A;}
	.st56{fill:#C54B3F;}
	.st57{fill:#C33F41;}
	.st58{fill:#EFD075;}
	.st59{fill:#D49C96;}
	.st60{fill:#DCA08C;}
	.st61{fill:#DEA391;}
	.st62{fill:#D8A29B;}
	.st63{fill:#DA9A77;}
	.st64{fill:#D9957F;}
	.st65{fill:#E6CE90;}
	.st66{fill:#E0C897;}
	.st67{fill:#C2497B;}
	.st68{fill:#C03F77;}
	.st69{fill:#C3486E;}
	.st70{fill:#C24379;}
	.st71{fill:#C13F7E;}
	.st72{fill:#5667A7;}
	.st73{fill:#4067AA;}
	.st74{fill:#4669AB;}
	.st75{fill:#506CAB;}
	.st76{fill:#616BA9;}
	.st77{fill:#4B6FAF;}
	.st78{fill:#6274B1;}
	.st79{fill:#A96AA2;}
	.st80{fill:#9F6BA3;}
	.st81{fill:#96649F;}
	.st82{fill:#9B659F;}
	.st83{fill:#906AA3;}
	.st84{fill:#CE737E;}
	.st85{fill:#CE7789;}
	.st86{fill:#CE757C;}
	.st87{fill:#CCA1A2;}
	.st88{fill:#C9989D;}
	.st89{fill:#CB9094;}
	.st90{fill:#C24783;}
	.st91{fill:#C5488B;}
	.st92{fill:#C1468F;}
	.st93{fill:#C39DA8;}
	.st94{fill:#CF7250;}
	.st95{fill:#CC674E;}
	.st96{fill:#CB6951;}
	.st97{fill:#D68A53;}
	.st98{fill:#D89256;}
	.st99{fill:#DB9951;}
	.st100{fill:#D6865E;}
	.st101{fill:#4D65A6;}
	.st102{fill:#696FAC;}
	.st103{fill:#7A5B9C;}
	.st104{fill:#8D5F9D;}
	.st105{fill:#83629F;}
	.st106{fill:#6A5297;}
	.st107{fill:#C33E45;}
	.st108{fill:#C33F4C;}
	.st109{fill:#C3455F;}
	.st110{fill:#C23F56;}
	.st111{fill:#C4474E;}
	.st112{fill:#C54F54;}
	.st113{fill:#CA6159;}
	.st114{fill:#CF7455;}
	.st115{fill:#CB685A;}
	.st116{fill:#C75756;}
	.st117{fill:#CB8795;}
	.st118{fill:#D27E8D;}
	.st119{fill:#C2408B;}
	.st120{fill:#C13F85;}
	.st121{fill:#743E8B;}
	.st122{fill:#80418C;}
	.st123{fill:#714B93;}
	.st124{fill:#E0AB73;}
	.st125{fill:#DDA276;}
	.st126{fill:#BCA5B1;}
	.st127{fill:#B7A0B3;}
	.st128{fill:#C1A5AD;}
	.st129{fill:#C3B2B0;}
	.st130{fill:#B29DB8;}
	.st131{fill:#AC9ABD;}
	.st132{fill:#D9C49D;}
	.st133{fill:#CEBAA7;}
	.st134{fill:#D4C0A2;}
	.st135{fill:#C8B6AC;}
	.st136{fill:#CFBEA4;}
	.st137{fill:#ECC778;}
	.st138{fill:#EDCC73;}
	.st139{fill:#E8BE7D;}
	.st140{fill:#C8BBB1;}
	.st141{fill:#5E4B92;}
	.st142{fill:#574992;}
	.st143{fill:#735599;}
	.st144{fill:#655196;}
	.st145{fill:#C56990;}
	.st146{fill:#B86796;}
	.st147{fill:#6B5C9C;}
	.st148{fill:#715E9E;}
	.st149{fill:#DB9886;}
	.st150{fill:#D89388;}
	.st151{fill:#7B7CB2;}
	.st152{fill:#9F619E;}
	.st153{fill:#845D9B;}
	.st154{fill:#B93F8C;}
	.st155{fill:#CE8DBB;}
	.st156{fill:#9F96C0;}
	.st157{fill:#E5B664;}
	.st158{fill:#E1AD67;}
	.st159{fill:#E3B16F;}
	.st160{fill:#BB99AF;}
	.st161{fill:#D5864E;}
	.st162{fill:#ECD18B;}
	.st163{fill:#EDCD88;}
	.st164{fill:#ECCB7C;}
	.st165{fill:#ECC784;}
	.st166{fill:#C37A96;}
	.st167{fill:#CB7D92;}
	.st168{fill:#AD6DA1;}
	.st169{fill:#B4719E;}
	.st170{fill:#BB7499;}
	.st171{fill:#C95D41;}
	.st172{fill:#C75142;}
	.st173{fill:#C85A48;}
	.st174{fill:#C85840;}
	.st175{fill:#C64E4D;}
	.st176{fill:#C44649;}
	.st177{fill:#E0A78D;}
	.st178{fill:#DCA185;}
	.st179{fill:#DEA899;}
	.st180{fill:#D1A7A0;}
	.st181{fill:#D6AC9E;}
	.st182{fill:#DB9C7D;}
	.st183{fill:#EBC88E;}
	.st184{fill:#E8C993;}
	.st185{fill:#E3C197;}
	.st186{fill:#DFBF9C;}
	.st187{fill:#4965A7;}
	.st188{fill:#AE669B;}
	.st189{fill:#CB6981;}
	.st190{fill:#CC6F89;}
	.st191{fill:#C8768F;}
	.st192{fill:#C6A7A8;}
	.st193{fill:#D88F4F;}
	.st194{fill:#D68B46;}
	.st195{fill:#DA974A;}
	.st196{fill:#72589A;}
	.st197{fill:#C34455;}
	.st198{fill:#C8574F;}
	.st199{fill:#C95D50;}
	.st200{fill:#E1AD7C;}
	.st201{fill:#E4B377;}
	.st202{fill:#DEA77A;}
	.st203{fill:#DDA481;}
	.st204{fill:#C2ABAD;}
	.st205{fill:#C9B1A8;}
	.st206{fill:#DBBB9E;}
	.st207{fill:#D5BAA2;}
	.st208{fill:#D0B3A4;}
	.st209{fill:#EBC37E;}
	.st210{fill:#E7BF72;}
	.st211{fill:#CB6889;}
	.st212{fill:#C17594;}
	.st213{fill:#C96584;}
	.st214{fill:#E7BF83;}
	.st215{fill:#EAC388;}
	.st216{fill:#C7534B;}
	.st217{fill:#E1AC89;}
	.st218{fill:#E1AD92;}
	.st219{fill:#E1B398;}
	.st220{fill:#DAB09C;}
	.st221{fill:#E9C18F;}
	.st222{fill:#E6BD95;}
	.st223{fill:#E1BB99;}
	.st224{fill:#E3B282;}
	.st225{fill:#E4B67D;}
	.st226{fill:#E6BC76;}
	.st227{fill:#E6B981;}
	.st228{fill:#E5B786;}
	.st229{fill:#E7BC88;}
	.st230{fill:#E4B58E;}
	.st231{fill:#E5B893;}
</style>
<g>
	<path class="st0" d="M877.8,371.2c0.9,1.7,2.1,2.9,3.8,3.8c1.3,0.6,2.3,1.5,2.4,3c0,1.1-0.3,2.4-1.3,2.8
		c-7.2,3.1-13.8,8.7-22.5,6.1c-2.1-0.6-3.9,0-5.6,1c-2.7,1.5-5.3,1.9-8-0.1c-3.8-2.9-7.3,1-11.2,0.5c-6.2-0.9-12.6,0.2-18.3,3.4
		c-3,1.7-6.1,2.3-9.4,1.3c-3.3-1.6-5-4.8-7.4-7.3c0.3-7.2,3.9-11.3,12.2-11.2c-2.5-4.1-6-6-8.4-8.9c-1.7-1.7-2.9-3.7-4.7-5.2
		c-2.9-2.6-6.2-4.9-7.2-9.1c0-0.6,0.2-1.2,0.7-1.6c6.9,1.5,9.8,7.8,14.3,12.2l0,0c5.9,7.5,13.9,8.3,22.7,8c13.5-0.5,27-0.2,40.6-0.1
		C872.9,369.7,875.6,369.1,877.8,371.2z"/>
	<path class="st1" d="M625.1,544.6c-1.6,0.3-2.3-0.9-3.1-1.8c-1.7-1.1-3.1-2.4-4.5-3.8c-2.9-3.1-5.5-2.7-8.4,0.2s-3.1,5.5-0.1,8.4
		c6.5,6.5,13,12.9,19.4,19.5c1.6,1.7,3.9,2.9,4.4,5.5c-0.3,0.6-0.8,0.9-1.4,1.1c-1.3,0.1-2.4-0.5-3.4-1.2
		c-4.6-4.3-8.8-8.8-13.3-13.2c-3.1-3.3-6.5-6.3-9.5-9.7c-1.5-2.2-2.4-4.5-2.2-7.2c3.5-9.6,9.4-11.6,18.1-6.2
		c2.4,1.5,4.8,3.1,7.8,1.9c2-2.8,4.8-3.4,8.2-3.9c6.7-0.9,13.2-2.8,20.1-2.9c1-0.2,2-0.2,2.9,0c3.2,1.8,5.6,4.5,7.7,7.5
		c2.9,4.2,3.4,8-1.7,11c-0.7,0.4,0.1-0.3-0.5,0.4c-3.1,3.2-3.5,9.6-10.2,8.5c-9.6-1.7-20.5,0.3-26.8-10.1
		C627.7,547,626.6,545.6,625.1,544.6z"/>
	<path class="st2" d="M134.2,409.9c-2-6.9-1.6-13.7-0.1-20.6c1.9-2.5,3.7-5.1,6.8-6.4l-0.1,0.1c0.5-2.1,2.5-2.9,3.9-4.2
		c0.4-0.4,0.8-0.8,1.2-1.3c3.5-2.7,7.5-1,11.3-1.4c3.4,0.3,6.8-0.7,10.1,0.8c6.4,7.1,4.3,15.3,3.2,23.4c-3.4,3.6-7.8,1.9-11.7,1.8
		c-5.9-0.1-11.2,0.6-15.1,5.7C141.1,411,137.8,411.6,134.2,409.9z"/>
	<path class="st3" d="M134.2,409.9c4.9-0.2,9.1-1.9,12.1-6c1.9-2.5,4.5-3,7.5-2.9c5.2,0.1,10.4,0,15.7-0.1c4.6-3.2,9-0.8,13.3,0.3
		c-1.9-8.1-3.7-16.2-1-24.5c5.4-0.9,10.8-0.9,16.2,0c1.4,0.9,2,2.4,2,3.9c-0.2,10.5,4.6,20.2,5.3,30.5c0.1,2.7,0.6,4.4,3.9,5.5
		c5.3,1.7,7.9,6.1,8,11.8c-4.7-1.8-9.2,2.1-13.9,0.5c-2.8-7.8-10.7-10.7-15.7-16.4c-2.7-2.8-5.3-5.8-8.8-7.8c-0.5-0.3-1-0.6-1.4-0.9
		c-9.8-0.6-19.7-2.2-29.3,1.1c-1.6,1.6-3.2,3.2-4.8,4.8c-2.3,1.8-4.6,3.3-7.7,1.9C135,411.1,134.6,410.5,134.2,409.9z"/>
	<path class="st4" d="M792.6,351.3c2.5,2.7,4.5,6,7.9,7.9c-2.9,6.9-9.7,6.1-14.9,6.1c-6.6,0-13.4,2.1-20.1-1c-2.1-1-4.8,0.3-6.9,1.3
		c-3.1,1.4-5.9,1-8.7-0.7c-2.7-1-5.5-0.6-8.3-0.5c-4,0.2-7.2-1.1-8.7-5.1c-0.1-1,0-2,0.8-2.7c0.4-0.4,0.8-0.8,1.2-1.2
		c1-1.7,2.3-3,4-4c1-0.4,1.9-0.8,2.9-1.2c3.7-2.1,7.7-0.2,11.4-0.2c11.7-0.1,23.3-0.8,35-0.5C789.9,349.4,791.6,349.4,792.6,351.3z"
		/>
	<path class="st5" d="M612.6,504.7c2.5-4.5,1.5-7.9-2.3-11.3c-5.1-4.6-9.8-9.7-14.6-14.6c-0.4-0.6-0.4-1.2,0-1.7c5,1,9.5,4,15.2-0.2
		c2.5-1.8,8.4-0.2,12.7-0.2c1.5,0.4,3.1,1,3.9,2.3c3.5,6,9.2,7.4,15.5,7.8c6.5,0.4,12.6,2.4,18.9,3.9c0.8,1.3,0.7,2.7,0.3,4
		c-1.8,3.8-4.6,5.5-9,4.6c-7.6-1.6-15.1-0.6-22.7,0.3c-0.6,0.1-1.3,0.3-1.9,0.2c-5.5-0.6-12-3.8-14.2,5
		C614.2,505.2,613.2,505,612.6,504.7z"/>
	<path class="st6" d="M523.8,474.7c-0.4,4.6-2.7,7.9-6.7,10.1c-1.4-2.1,0.2-3.7,1.1-5.3c2.1-3.6,2.2-6.9-1-10
		c-2.9-2.8-4.1-8.5-9.8-6.8c-4.7,1.4-9.5,10.3-9.7,15.2c-0.1,3.1,3.2,6,0.3,9.1c-5.3-3.2-6.7-14.2-2.3-19.1c3.3-3.7,7-7,10.5-10.6
		c3.2-3.3,7.1-2.3,10.9-2.4c3.2,0.1,5.5-0.9,6-4.5c0.4-2.9,0-6.8,4.1-7.1c4.7-0.3,9,1.3,11.7,5.5c1.3,2,1.9,4.3,3.7,6
		c0.9,6.4,0.2,12.4-4.3,17.5C533.5,473.6,528,470.6,523.8,474.7z"/>
	<path class="st7" d="M353,368.6c0.3,0.4,0.6,0.7,1,1.1c3.6,5.5,2.4,8.7-3.9,9c-6.1,0.3-12.2,0.5-18.2,0.9c-8.4,0.6-13.6-3.8-18-9.7
		c-3.7-5-1.6-9.7,4.5-10c8-0.4,16.1-0.3,24.1,0C347.9,360.1,350.2,364.8,353,368.6z"/>
	<path class="st8" d="M926,415.5c-1.2,1.2-2.5,2.5-3.7,3.7c-1.9,2.2-4.4,2.3-7,2.3c-5.8,0-11.5-0.1-17.2,0c-0.6,0-1.7,0-1.8-0.4
		c-0.8-5.5-4.1-5.1-8.1-3.8c-2.8,0.9-5.8,1.5-6.2-2.9c0.4-2.1,1.9-4.4,3.6-4c7.2,1.6,11.9-3.9,17.9-5.8c3.3-1,6.4,0.2,9.7-0.6
		c6.2-1.5,11.5-5.1,17.6-6.7c2.8-0.7,3.7-3.4,4.1-6.2c0.2-1.6-0.7-3.5,1.1-4.8c2.3-0.4,3.5,1.5,3.4,2.9c-0.3,4.9,1.8,10.1-1.6,14.6
		c-0.8,0.8-1.6,1.6-2.4,2.3C932.2,409,929,412.1,926,415.5z"/>
	<path class="st9" d="M290.2,565.1c0.4-0.4,0.8-0.8,1.3-1.3c4.2-3.6,7.9-7.7,8.7-13.5c3.3,1.2,3.4,3.7,2.9,6.6
		c-0.6,1.9-1.7,3.5-3.4,5.4c2.3-0.5,3.7-1.4,5.2-2.5c5.8-4.2,8.6-4,13.9,1.3c2.1,2.1,4.4,2.5,7.1,2c2.1-0.4,4-1.9,6.2-1
		c2.7,3.1,6.2,5.8,5.8,10.6c-1.3,2.3-3.5,3.6-5.3,5.3c-4.9,2.6-10.8,2.9-14.6-0.1c-5.1-4.1-8.2-3.8-11.8,1c-2.9,0-5-1.3-6.4-3.8
		c-1.7-3.1-4.6-4.4-7.7-3.6c-3.5,0.9-3.9,4.2-4.1,7.4c-0.1,2.2,0.1,4.4-1.5,6.2c-0.7,0.3-1.3,0.2-1.9-0.3
		C282.4,577,282,569.8,290.2,565.1z"/>
	<path class="st10" d="M498.7,486.4c-5.3-11-2.7-19.5,8.2-25.7c2.9-1.6,6.3,0.3,8.2,2.5c5.7,6.6,9.4,13.7,2,21.6c0,0.4,0,0.9,0,1.3
		C510.8,494.5,502.5,494.6,498.7,486.4z"/>
	<path class="st11" d="M907.9,638.9c2,3,4.7,5.4,7.5,7.6c2,1.5,3,3.5,3.1,6.1c0.3,8.6-0.4,17.2,0.4,25.8c0.2,1.7-0.2,4-2.3,5
		c-0.8-0.2-1.4-0.7-1.7-1.4c-1.3-3.7-0.7-7.5-0.9-11.3c0.2-2.1,0.1-4.2,0.1-6.3c0.9-8.3,0.2-15.9-7.2-21.6c-3-2.3-5.5-3.3-8.7-1.1
		c-1,0.8-2.2,1.9-3.5,1.6c-9.5-1.8-18.8-1.4-28,1.8c-0.8,0.3-1.7-0.1-2.6-0.3c-2.8-2.1-7.9-0.2-9.2-5.1c3-4,7-7.1,9.9-11.1
		c8.5-1.6,17.3,0.1,25.7-2.4c4.4-1.3,6.2,3.2,9.5,4.5C903.3,632.8,906.1,635.4,907.9,638.9z"/>
	<path class="st12" d="M653.3,603c-0.8,0.4-1.6,0.8-2.4,1.3c2.4-8.1-2.7-10.4-9-11.8c-5.4-3.4-11.4-1.8-17.2-2.1
		c-12.5-0.7-25.2,0.9-37.5-2.5c-2.5-0.7-5.2-0.7-6.6-3.5c-0.6-2.1-0.5-3.9,1.2-5.5c1.7-1.1,3.7-1.4,5.6-1.4
		c15.6,0,31.3-0.4,46.9,0.2c4.5,0.4,7,3.7,9.9,6.5c2.3,2.2,4.4,4.7,7.3,6.1C658.6,596.6,658.7,597.4,653.3,603z"/>
	<path class="st13" d="M643,592.6c1.5,0,3-0.1,4.5,0c5.9,0.5,7.5,3.7,4.6,8.8c-0.5,0.9-0.8,1.9-1.2,2.9c-0.1,0.4-0.1,0.8-0.1,1.2
		c-2.4,3.5-4.8,7-9.1,8.6c-0.6-0.3-1.1-0.7-1.5-1.2c-0.3-0.6-0.3-1.2-0.2-1.8c0.9-2.4,3.1-3.9,4-5.4c-11.4,5-24.4-0.7-36.3,3.3
		c-2.1-1.5-4.3-2.9-4.7-5.8c0.3-2.1,1.9-3.5,3.2-5c3.3-3.9,7.4-5.3,12.7-5.2C626.9,593.2,634.9,591.7,643,592.6z"/>
	<path class="st14" d="M501.4,502.2c10.2,0.1,20.4,0.6,30.6,0c6.9-0.4,11.8,1.7,15.4,7.4c0.8,1.1,2,2.1,1.8,3.7
		c-0.1,1.1-0.1,2.1-0.1,3.2c-0.3,9-1,9.6-9.7,9.4c-4.9-0.1-9.9,1.4-14.7-0.5c-3.3-3.2-0.1-5.3,1.7-6.9c4-3.5,2.6-5.2-1.4-6.8
		c-4.6-4.6-10.1-5.8-16.4-5.4c-3.6,0.3-7.3,0.7-10.7-1.1C496.5,501.5,500.3,503.4,501.4,502.2z"/>
	<path class="st15" d="M660,532.3c-0.9,0-1.7,0-2.6,0c-5-2.4-8.6-6-10.6-11.2c-0.4-2.7-0.5-5.4,0.4-8.1c1.8-3.3,4.7-5,8.3-5.5
		c1.3-0.2,2.9,0.1,3.7-1c3.3-4.2,7.4-4.4,12.3-3.3c2.6,0.6,5.2-0.4,6.6-3.1c1.2-2.4,3.1-3.5,5.8-3.2c3.4,0.8,6.7,0.6,10.1-0.7
		c3.4-1.3,7.1-1.8,10.7-0.6c2.4,3.5,0.6,6-2,8.3c-5.1,1-6.9,5.8-10.2,8.9c-4,2.4-8.4,1.4-12.7,1.7c-4.9,0.3-10-0.7-14.8,1.1
		c-0.7,0.3-1.4,0.4-2.1,0.3c-2.2,0-3-1.9-4.3-3.2c-3.3-1.7-5.9-0.7-7.8,2.2c-1.9,2.9,0,5.2,1.5,7.7
		C654.6,526.1,659.7,527.3,660,532.3z"/>
	<path class="st16" d="M401.5,582.6c0.3,0.3,0.6,0.7,1,1c5.4,6.8,2,14.9,3,22.3c0.6,4.2,0.2,8.7-4,11.6l0.1-0.1
		c-1.1,2.4-3,4.1-5.3,5.3l0,0c-0.9,1.8-2.2,3.3-4.2,3.9c-0.3-0.1-0.6-0.1-1-0.1c-0.7-0.7-0.9-1.6-0.9-2.6c1.2-4.7,6.3-6.3,8.1-10.5
		c0.2-3.1-2.1-5.3-3.3-7.8c-1.1-2.4-3.6-3.9-6.1-0.7c-2.9,3.7-5.9,3.3-8.3-0.5c-1.6-2.5-4.4-3.4-6.1-5.7c-1.1-2.7-0.7-5.2,0.7-7.6
		c1.9-2.7,4.8-2.6,7.6-2.7c2.4-0.1,4.8,0.1,7.2,0.1c7.3,0.2,8.1-0.8,7.3-8.6C400.3,578.5,400.6,581,401.5,582.6z"/>
	<path class="st17" d="M357,660.5c-1.7,2.3-3.4,4.6-5.2,6.9c-2.5,2.8-4.5,6-8,7.8l0.1-0.1c-1.4,1.9-2.1,4.8-5.6,3.9
		c-1.7-4.1,2-6.2,3.5-9.1c-2.3,0.9-4.3,2.2-6,4c-1.4,1.5-3,2.5-5.2,2.4c-3.6-0.2-7.2-1.7-10.3,2c-4.3,5.1-9.6,9.7-7.5,17.5
		c0.2,0.6,0.1,1.3,0.1,2c-0.3,4,1.2,8.4-2.1,11.9c-2.9-1.2-2.3-3.9-2.3-6.2c-0.1-8.5-0.2-17,0.1-25.4c5.1-5.9,9.7-12.6,18.9-12.5
		c7.7,0,12-7.2,18.9-9.2c5.4-1.6,9.9-6.1,16.1-4.9c0.9,1.4,0.8,2.8-0.3,4c-0.4,0.5-0.9,0.9-1.3,1.4C359.3,657.8,358,659,357,660.5z"
		/>
	<path class="st18" d="M692.9,511.3c2.1-3.7,2.9-9,9.2-7.9c1.1,0,2.3,0.4,3.2,0c10.6-4.3,17.3,0.2,22,9.5c-2.9,4.1-8,3.9-12,5.6
		c-5.9,2.5-12.5,3.3-18.4,6.1c-2.1,1-4.3,0-6.4-0.2c-4.7-0.1-9.5-0.2-14.2,0c-3.2,0.1-5.9-0.7-8.3-2.7c-1.9-1.7-4.4-3-5-5.9
		c0.3-0.3,0.6-0.6,1-0.6c1.7-0.7,3,0.3,4.1,1.3c5.9,5.3,13.1,3.7,19.9,3.3C693.1,519.5,692.2,514.7,692.9,511.3z"/>
	<path class="st19" d="M625.1,544.6c3.3-0.5,4.6,2.3,6,4.1c4.3,5.8,10,7.5,16.8,7.2c2.2-0.1,4.3,0.1,6.4,0.9
		c1.4,0.5,3.1,0.5,4.5,0.1c4.3-1.3,1.8-7.6,6.4-8.9c7.1-2,1.7-6,1.4-9.2c4.7,0.8,6.9,4.8,9.4,8.1c1.5,1.9,0,4.1-1.6,5.7
		c-4.3,4.3-8.5,8.7-13,12.9c-4.3,3.9-12.9,4-17.2-0.3c-6.2-6.1-12.8-11.8-18.2-18.7C625.7,546,625.4,545.3,625.1,544.6z"/>
	<path class="st20" d="M633.5,622.7c-0.8,0.8-1.7,1.5-2.5,2.3c-0.5,2.2-2.1,3.3-3.9,4.3l0,0c-1.8,2.4-2,5.1-1.9,8
		c0.1,15.4,0.1,30.8,0,46.1c0,2.1,0.7,4.3-0.8,6.3v-0.2c-0.8,0.5-1.5,0.3-2-0.5c-2.1-7.5-0.5-15.2-1-22.8
		c-0.3-8.1,0.7-16.3-0.6-24.4c-0.6-2.8-0.7-5.7-0.2-8.6c0.6-2.5,2-4.8,3.3-7.5c-5.2-0.7-9.8-4.1-15.4-1.5c-2.3,1.1-4.1-0.4-5.4-2.4
		c-0.8-2.4,0-4.5,1.1-6.6c0.4-0.6,0.9-1,1.5-1.3c3.5-1.3,7.1-1.9,10.9-1.3c5.8,0.9,11.5,1.7,17.1-1.2c2.1-1.1,4.7-0.9,6.7,1l0,0
		c0.9,2.3-1,3.8-1.6,5.7C637.4,620,635.8,621.7,633.5,622.7z"/>
	<path class="st21" d="M328,482.4c-4.4,3.3-8,7.3-11.7,11.4c-1.4,2.1-3.6,1.1-5.4,1.1c-10.9,0.1-21.8,0.1-32.7,0
		c-0.9-0.1-1.4-0.6-1.5-1.5c0.4-0.7,1-1.2,1.7-1.6c9-1.3,18.1-0.6,27.1-0.8c2.4-0.1,4.7,0,7.1-0.5c4.1-1.1,6.3-4.4,8.8-7.4
		c3.1-3.7,5.6-7.8,9.6-10.6c2.7-1.9,4.5-4.6,6.7-7c7.3-7.9,14.8-15.7,22.4-23.3c5.3-5.1,10.3-10.6,15.8-15.6
		c2.9-2.6,3.5-4.6,0.5-7.5c-1.4-1.3-3.4-3.3-0.5-5.4c2.7,1.1,4.5,3.3,6.2,5.5c2.4,3,3.8,6.4-0.6,9.2c-5,3.6-8.6,8.6-12.9,12.9
		c-1.5,3-3.7,5.3-6.7,6.8c-7.8,7-15.2,14.3-22.1,22.1c-1.4,3-3.8,5.2-6.7,6.8c-0.4,0.4-0.8,0.7-1.2,1.1
		C331.3,480.2,329.8,481.5,328,482.4z"/>
	<path class="st22" d="M548.5,512.6c-0.4-1-0.8-2-1.2-3c7.8,9.1,18.7,4.9,28.2,6.3c6.6,1,13.5,0.3,20.3,0.2c3.4,0,6.2-1.7,8.9-3.7
		c8.1-7,16.4-3,24.7-0.6c2.3,3.8,0.4,6.6-2.3,9.1c-12.3-1.1-24.2,5.2-36.6,1.5c-2.6-2.5-5.8-2.8-9.1-2.8c-7,0-14,0.1-21-0.1
		c-4.8-0.1-9.1-1.3-11.6-5.9C548.7,513.4,548.6,513,548.5,512.6z"/>
	<path class="st23" d="M397.7,579.6c-0.9,3,6.4,4.8,1.1,8.6c-3,2.1-5.9,2.4-9.5,2.1c-4.1-0.4-8.6-1.5-12.6,1.1
		c-3.1-0.1-2.5-2.6-2.9-4.4c-0.1-1.5-0.3-3.1,0.1-4.5c1.5-5.6-0.8-9.6-5-13.1c-2.5-2.1-4.7-4.6-7-6.9c-2.2-2.4-4.5-4.7-6.9-7
		c-1-1.1-2.2-2.2-2.5-3.8c0-0.7,0.3-1.2,0.9-1.5c3.6-0.3,4.7,2.4,6,4.9c0.4,0.4,0.7,0.7,1.1,1.1c2.1,0.7,3.5,2.1,4.2,4.2
		c0.4,0.4,0.7,0.7,1.1,1.1c2.6,1,4.4,2.9,5.5,5.5c0.8,1.7,2.1,2.9,3.7,3.7c2.4,0.8,3.7,3.1,5.9,4.2c5.4,1.6,11.8-1.2,16.2,4.1
		C397.4,579,397.5,579.3,397.7,579.6z"/>
	<path class="st24" d="M299.4,550.7c-5.2-3.6-9.3-8.3-13.5-13c3.2-3.7,6.7-7.3,9.7-11.2c1-0.2,1.9-0.1,2.2,1.2
		c0.3,0.3,0.6,0.5,0.9,0.8c1.8,1.1,2.9,3,4.2,4.6c2.8,5.5,9.3,8,11.6,13.9c-1.9,4.8-7.2,6.6-9.6,11.1c-0.7,1.3-2.3,0.4-3-0.9
		C301.9,554.7,302.4,552,299.4,550.7z"/>
	<path class="st25" d="M311.2,696.2c0-2.8,0-5.6-0.1-8.5c-0.1-2.3,0.1-4.4,2.9-5c0.6-0.1,1.3-0.6,1.6-1.1c3.6-6.5,8.3-10.2,16-6.8
		c0.4,0.2,1.5-0.3,1.7-0.7c2.4-5.3,8-5.2,13.1-7.5c-2.3,4.8-7.8,6.9-7.8,12.3c0.8,0.7,0.7,1.1-0.4,1.3c-0.3,0.4-0.7,0.8-1,1.2
		c-0.2,10.4,0.9,20.8-0.5,31.2c-0.5,0.8-1.2,1-2,0.8c-2.3-2.7-1.8-5.9-1.8-9c0.1-3.2-0.1-6.4,0-9.6c0.1-1.5,0.1-3,0.2-4.5
		c0-2.7,0-5.4-3.5-5.9c-3.2-0.4-6.4-1-8.4,2.8C319,691.4,316.4,695.4,311.2,696.2z"/>
	<path class="st26" d="M311.2,696.2c3.6-3.6,7.7-6.5,9.6-11.9c1.5-4.2,6.2-1.6,9.6-1.5c3.1,0.1,4.7,1.6,4.4,4.9
		c-0.2,1.9-0.1,3.9-0.1,5.9c-1.2,1.3-3,2.1-4.6,2c-6.9-0.1-9.8,5.2-13.5,9.6c-2.6,3.1-0.5,5,1.7,7c1.3,1.4,2.6,2.8,3.1,4.8
		c0.1,1-0.1,2-0.7,2.9c-0.7,0.5-1.2,0.4-1.5-0.4l0.1,0.1c-2.5-1-2.9-4.2-5.5-5.1c-0.9-0.9-1.7-1.7-2.6-2.6c0-0.8,0-1.7-0.1-2.5
		C311.1,705,311.1,700.6,311.2,696.2z"/>
	<path class="st27" d="M629.9,512.6c-4-0.1-7.8-0.1-11.7-2.3c-4.3-2.4-8.8,2.2-13.4,2.2c2.1-3.1,4.8-5.6,7.8-7.8
		c3.4-1.1,2.9-3.9,2.9-6.5c0.1-3.8,1.7-5.2,4.6-2.4c3,2.9,6.4,2.2,9.8,2.4c3.2,4,2.4,10.4,8,12.9
		C636.1,516.3,632.9,513.7,629.9,512.6z"/>
	<path class="st28" d="M947.2,667.8c-1.1,4.5-2.2,9,0,13.5c-0.9,2.1-0.3,4.3-0.6,6.4c-0.4,2.5-1.2,4.6-4.5,3.1l0.1,0.1
		c-1.9-0.7-3-2.3-4.1-3.8l0,0c-4.6-3.9-7.2-15.6-4.6-20.7c1.3-2.5,3.6-2.8,6.1-2.9C943.1,663.3,946.1,663.8,947.2,667.8z"/>
	<path class="st29" d="M504,424.7c-0.9-6.8-1.2-13.5,5.2-18.3c2.2-2,4.4-2.3,6.5,0.1l-0.1-0.2c1.7,5.6,0.7,11.4,0.6,17.1
		c0,2-1.1,4.1-3.4,5c-2,0.6-2.3,2.7-3.6,4C504.4,432.1,503.5,430.8,504,424.7z"/>
	<path class="st30" d="M803.1,595.4c-0.5-0.5-1-1-1.4-1.4c-2-1.6-4.1-3-5-5.5c-0.3-1.1-0.8-2-1.6-2.8c-1.6-1.6-3-3.5-1.4-5.7
		c1.6-2.3,4.6-2.6,6.4-1.5c7.6,4.7,15.1,9.7,17.8,19.1C812.7,598.7,807.3,600.6,803.1,595.4z"/>
	<path class="st31" d="M885.7,477.2c1.8-1.8,3.5-3.6,5.3-5.4c0.3-0.1,0.6-0.1,1-0.2c0.9-0.2-0.2,0,0.6-0.2c3.8-0.7,8.5-2.9,11,0.6
		c2.3,3.3-3.1,5.5-4,8.7c-1.9,2.4-4.2,4.5-6.3,6.6c-2,2-3.8,4.7-7.2,3.2s-2.1-4.9-2.2-7.6C883.7,480.9,883.2,478.5,885.7,477.2z"/>
	<path class="st32" d="M817.5,596.5c-4.9-5.1-9.8-10.2-14.7-15.3c-1.5-1.6-3.3-1.8-5.3-1.7c-1.3,0.1-2.7-0.1-3.2,1.5
		c-0.4,1.5,0.3,2.8,1.6,3.1c2.7,0.8,3.6,2,2,4.6c-3.1,0.5-3.6-2.4-5.2-3.8c-0.9-0.9-1.8-1.9-2.8-2.8c-0.6-1.9-3.1-2.1-3.7-4l0.1,0.1
		c0.4-5.7,6.8-8.6,12.1-4.6c7.6,5.7,14,13,20.4,20.1C819.7,594.8,820.3,596.6,817.5,596.5z"/>
	<path class="st33" d="M523.8,474.7c3.9-5.4,9.6-1.7,14.3-2.8c4.6-0.4,6,4.1,9,6.1c3.2,2.9,5.7,6.8,10.3,7.7
		c6.9,1.4,13,0.1,17.1-6.3c5.1-6.1,12-3.7,18.4-3.8c1.1,0.2,2.2,0.6,2.9,1.6c0,0.5-0.1,1-0.1,1.5c-9-0.8-17.1-0.2-23.4,8
		c-3.3,4.3-17.7,3.4-21.8-0.4c-2.4-2.2-4.9-4.4-6.9-7C538.2,472.1,531.3,472,523.8,474.7z"/>
	<path class="st34" d="M202.1,475.9c-0.1-14.4-0.2-28.8-0.4-43.2c-0.1-2.9,1.2-6.8-3.4-8c-0.4-0.4-0.9-0.9-1.3-1.3
		c-3.1-2.2-5.7-4.8-7.9-7.9c-0.4-0.5-0.8-1-1.1-1.5c-1-0.8-0.9-1.6,0-2.4c4.2,3.2,8.3,6.6,12.6,9.7c2.7,1.9,3.3,4.4,3,7.4
		c3.6,5.3,1.5,11.4,2,17.1c0.2,2.6,0.1,5.2-0.1,7.8c0.3,5.4,0.3,10.9,0,16.3C205.3,472.2,205.9,475.4,202.1,475.9z"/>
	<path class="st35" d="M543.3,605.9c-1-0.5-1.9-1-2.9-1.4c-9-1.5-18-0.2-27-0.7c-2.3-0.1-4.7,0.8-6.9-0.8l0.2,0.1
		c-1.8-1.4-2.9-3.3-4.2-5.2c-0.5-1.5-0.4-2.8,1.6-3.1c6.7,6.6,15.2,5,23.3,5.3c6,0.2,12.3-1.4,17.7,2.5c3.2,3.2,2.3,7.3,2.5,11.2
		c0,5.1,0,10.1,0,15.2c-0.3,3.9,0.6,7.9-1,11.6c-0.5,0.8-1.2,1-2,0.6c-1.7-8.1-0.2-16.3-0.8-24.4
		C543.7,613.1,544.7,609.4,543.3,605.9z"/>
	<path class="st36" d="M391.1,624.1c0,0.8,0,1.6,0,2.3c0,0.4-0.1,0.8-0.1,1.1c-1.5,1.3-2,3.7-4.3,4.2c-2.9,3-5.9,6-8.8,9
		c-0.4,0.7-1,1-1.8,1c-0.7-0.2-1.3-0.6-1.7-1.3c-1.3-5.3-1.7-10.2,4.2-13.2C382.9,626.6,386.8,624.6,391.1,624.1z"/>
	<path class="st37" d="M491.3,419.6c2,0,4-0.1,5.7,1.3c2.4,2.5,2.4,5.1,0,7.6c-0.3,0.3-0.6,0.6-0.9,1c-3.2,3.1-7.1,3.5-9.3-0.2
		C484,424.8,487.1,421.6,491.3,419.6z"/>
	<path class="st38" d="M313.7,546.7c-3.1-5.2-9.1-7.9-11.6-13.6c1-0.2,1.9-0.2,2.3,1.1c3.9,4.6,8.1,8.9,12.8,12.7
		c2.9,1.8,6,1.9,9.3,1.9c7.3-0.1,14.7-0.1,22,0c1.6,0,4-1.2,4.6,1.8c0,0.5,0,0.9-0.1,1.4c-10.9,1.4-21.9,0.7-32.8,0.2
		C317,552,314.8,549.9,313.7,546.7z"/>
	<path class="st39" d="M792.6,351.3c-6.3-2.6-13-1.6-19.4-1.1c-10.5,0.9-21,0.7-31.5-0.1c1.7-2.1,4.1-1.1,6.1-1.1
		c14.8-0.1,29.6-0.1,44.5-0.2c0.6,0.1,0.8,0.3,0.7,0.6c-0.1,0.3-0.2,0.5-0.4,0.5C792.6,350.3,792.6,350.8,792.6,351.3z"/>
	<path class="st40" d="M576.1,402.4c1.1-2.9,2.9-5.9-1.3-7.9c-0.9-0.8-1.7-1.7-2.6-2.5c-3.8-4.2-6.1,1.5-9.2,1.4
		c-0.5-3.5,2-5,4.5-6.3c5.3-0.7,9.3,1.4,11.8,6.1c0.9,2,1.3,4.1,0.9,6.2C579.8,401.5,579.2,403.8,576.1,402.4z"/>
	<path class="st36" d="M362.3,655.5c0-1.3,0-2.6,0-3.9c1-4,5.3-5.3,7.1-8.7c0.9-1,2-1.4,3.3-0.8c1.2,1.6,0.2,2.9-0.4,4.4
		c-1,2.4-2.7,4.1-5.2,5C364.7,651.9,365,655.6,362.3,655.5z"/>
	<path class="st41" d="M350.1,410.4c0.6,0.8,1.2,1.6,1.7,2.4c-0.4,0.5-0.9,0.8-1.5,0.9c-2.2,0.3-3.7-1.2-4.8-2.7
		c-2.2-2.7-5-3.5-8.3-3.6c-0.5-3.1,1.3-4.3,4-4.7C344.1,405.4,347.1,407.9,350.1,410.4z"/>
	<path class="st42" d="M187.9,411.6c0,0.8,0,1.6,0,2.4c-3.9-2.3-7-5.5-9.3-9.4C183.7,404.4,185.5,408.4,187.9,411.6z"/>
	<path class="st43" d="M357,660.5c-0.1-2.8,1.3-3.9,4-3.6C359.6,658.1,358.3,659.3,357,660.5z"/>
	<path class="st44" d="M887,621.5c1.3,0.1,2.6,0.2,3.9,0.2c0.6,0.8,1.2,1.6,1.8,2.4l-0.4,0.1l-0.4-0.1
		C889.2,625.1,887.4,624.6,887,621.5z"/>
	<path class="st45" d="M883.1,377.5c3.1,2.7,6.2,5.3,9.2,8c1,0.9,3,0.2,3.3,2.2c-0.7,4.9-4.6,4.6-8,4.7c-11,0.3-21.1,4.6-31.5,7.3
		c-4.2,1.1-7.9,2-12,0.5c-4.6-1.6-9.1-2.6-13.4,1.3c-2.5,2.3-6.2,1.5-9.5,1.1c-1.5-0.2-2.9-0.3-4.4,0.2c-10.5,3.2-10.8,3-15.5-6.7
		c0.4-3.4,2.4-4.7,5.7-4.1c3.7,0.1,7-0.4,10.5-2.4c5.6-3.1,12-4.1,18.5-3c0.6,0.1,1.4,0.4,1.9,0.1c4.1-2,8.2-4.1,11.5,1.2
		c5.6-3.8,12.3-0.8,17.6-2.4C872.4,383.8,879.7,383.9,883.1,377.5z"/>
	<path class="st46" d="M804.4,364.4c2.9,2.3,5.9,4.5,8.5,7s-0.2,5.8-1.4,5.3c-7.6-2.8-7.7,4-10.4,7.5c-0.3,0.3-0.4,0.8-0.6,1.1
		c-3.5,4.1-8.2,3.9-12.9,5.1c-8.7,2.3-16-2.9-24-1.8c-2.3-1.6-4.7-2.9-7.6-3c-4.6-0.2-7.4-2.8-9-7c-0.7-3.4-0.3-6.4,2.9-8.4
		c4.5-0.4,9-1.4,13.4,0.6c2.4,1,4.8,0.3,6.9-0.9c4.2-2.2,7.3-0.8,10.4,2.3c6.3,6.3,8,6.1,14.9,0.2
		C798.6,369.9,802.5,368.3,804.4,364.4z"/>
	<path class="st39" d="M804.4,364.4c0.6,4.2-1.3,6.6-5.3,7.7c-1.3,0.3-2.4,0.7-3.3,1.9c-5.1,6.4-11.2,6.7-15.9,0.2
		c-2.9-3.9-5.4-4.8-9.7-2.2c-2.6,1.6-6,2.7-9.1-0.1c-3.1-2.8-7.2,2.1-10.5-0.9c-3.4-2.1-3.4-4.8-1.3-7.9c3.3,1.6,6.3,2.1,10.1,0.3
		c3.2-1.6,7.4-3.2,10.9,0.6c0.3,0.4,1.3,0.5,1.9,0.4c8.8-1.6,18.1,0.3,26.7-3.2c0.7-0.3,1.1-1.3,1.7-1.9
		C801.7,360.9,803.1,362.6,804.4,364.4z"/>
	<path class="st47" d="M763.7,388c5.3-0.7,10.7-1.7,15.5,2.2c1.1,0.9,2.9,0.5,4.2-0.8c0.7-0.8,2.3-1.9,2.6-1.7
		c5.7,4.3,9.7-1.6,14.6-2.3c4.1,0.3,4.5,4.3,6.6,6.6c-1.9,1.1-4.3,1.6-5.2,3.9c-1.4,1.6-3.4,2.6-4.4,4.7c-1.3,2.6-3.9,4-6.4,3.3
		c-6.2-1.8-10.6,1.2-15.3,4.3c-3.8-1.1-6.6-3.9-9.4-6.5C764.5,397.2,763.5,392.7,763.7,388z"/>
	<path class="st48" d="M629.9,540.1c-2.9,0.5-5.8,0.5-8.4-1.3c-9.4-6.4-12.5-5.7-17.8,3.9c-6.7-1.7-13.8,0.5-20.5-1.7
		c-2.5-1.7-4.9-3.4-6.2-6.2c0.1-2.8,1.8-4.6,4.3-4.8c3.3-0.2,6.1-1.9,9.1-2.8c10.1,1.9,19.7-2.3,29.7-1.9c3.8,0.2,7.7-1.4,11.5,0.4
		C633.7,531,630.5,535.4,629.9,540.1z"/>
	<path class="st49" d="M636.5,579.5c-18.4,0-36.7,0-55.1,0c-0.3-0.3-0.5-0.6-0.8-0.9c-1.2-3.1-1.4-6.1,0.9-8.8
		c2.7-1.8,5.8-1.7,8.8-1.4c8.6,0.8,17.3-0.2,25.9,0.1c4.5,0.1,8.6,0.6,12.4,3.1c0.9,0.5,1.8,0.9,2.6,1.4
		C633.2,575,636.6,575.8,636.5,579.5z"/>
	<path class="st50" d="M628.6,571.6c-15.7-2.3-31.5-0.5-47.2-1.3c-0.3-0.1-0.6-0.3-0.9-0.4c-2.2-2.6-0.7-4.4,1.2-6.2
		c4.3-2.9,8.9,0.1,13.3-0.8c4.7-1,9.3-1.7,13.5-4.1c2.1-1.2,4.6-0.7,7-0.3C620.4,562.3,624.7,566.7,628.6,571.6z"/>
	<path class="st51" d="M582.7,540.2c5.3,0,10.7,0,16,0c2,0,4.5-0.6,5,2.6c0.9,2.2,1.7,4.4,2.6,6.6c0.7,4.2-1.6,5.8-5.2,6.5
		c-6.1,1.2-12.3,2.1-18.5,0.9c-1-0.4-1.7-1.1-2.2-2.1C580.4,549.8,578.8,544.5,582.7,540.2z"/>
	<path class="st52" d="M582.7,555.9c5.3-1.4,10.7-0.2,16.1-1.3c4.1-0.8,6-2,7.5-5.3c3.6,2.5,6.6,5.6,9.2,9.2
		c-9.9,3-19.3,8.9-30.5,5.4c-1-0.3-2.4,0.7-3.6,1.1c-1.4-0.4-2-1.5-2.1-2.9C579.5,559.6,580,557.2,582.7,555.9z"/>
	<path class="st53" d="M629.9,540.1c-0.4-4.9,0.3-9.7,1.3-14.4c0.3-1.1,0.9-1.9,2-2.3c5-0.2,9.9-2.6,15-1.6c3.1,3.5,6.2,7,9.2,10.5
		c-0.7,0.4-1.6,1.3-2.1,1.2c-7.5-2.4-14,4.5-21.6,2.4C630.9,535,631.8,539.2,629.9,540.1z"/>
	<path class="st50" d="M636.5,579.5c-1.7-2.2-3.5-4.3-5.2-6.5c0.4,0,0.9-0.1,1.3-0.1c6.7,5.6,12.8,11.7,18.4,18.4
		C644.4,589.4,642,582.5,636.5,579.5z"/>
	<path class="st54" d="M156.4,377.5c2.3-1.8,5-1,7.6-1c41.4,0,82.8,0,124.2,0c4.4,0,8.8-0.1,11.4,4.6c3.8,8.2,3.8,8.2-2.6,14
		c-6.8,6.2-6.9,9-0.1,16c1.4,2,4.4,2.9,4.1,6c-3.4,3.4-6.1,0.1-9-0.8c-5-2.6-12-0.9-15.1-7.3c-1.4-2.4-1.9-5-1.2-7.6
		c1.7-6.2-1-12.1-0.7-18.2c0.2-3.3-2.5-3.7-5.1-3.7c-6.1-0.1-12.2,0-18.4,0c-5.9,0.2-11.8,0.1-17.7,0c-5.3,0.3-10.6,0.1-15.8,0
		c-6.6-0.3-13.3,1.7-19.6-1.7c-5.7,0-11.4,0-17.1,0c-4.8,2.6-9.6,2.4-14.4,0C163.3,377.7,159.8,377.6,156.4,377.5z"/>
	<path class="st55" d="M166.8,377.8c4.8,0,9.6,0,14.4,0c2.8,8.4-0.7,17.6,4.1,26c-5.4-2.1-10.6-3.1-15.9-2.8
		C168.9,393.2,171.3,385.1,166.8,377.8z"/>
	<path class="st56" d="M198.3,377.7c6.6,0,13.1,0,19.7,0c1,0.9,2.2,1.7,2.4,3c1.3,9.5,3.9,19,2.6,28.7c-6.1,0.2-12.1,0.9-17,5.3
		c-0.7,0.6-1.7-1-2.3-1.8C202.7,401,196.7,390,198.3,377.7z"/>
	<path class="st34" d="M203.6,412.9c1.4,0.5,3.1,1.9,4.1,0.2c3.8-6.7,8.5-7.1,14.3-2.8c11.5,3.7,14.3,14.5,19.5,23.4
		c1.2,2.5,2.2,5.1,0.9,7.9c-1.4,1.7-3.3,2.1-5.3,2.1c-3.4-2.6-6.5-5.7-11.3-5.1c-3.7-2.6-7.7-5-9-9.9c-2.8-4.5-2.8-11.5-10.9-11.1
		C203.5,417.7,203.6,414.8,203.6,412.9z"/>
	<path class="st57" d="M216.7,428.7c3.1,3.1,6.1,6.1,9.2,9.2c0.2,3.2,3.1,3.1,5.2,4.1c3.7,1.9,3.9,3.9,0.4,6
		c-2.1,1.2-4.1,2.3-5.8,4.1c-4.6,5-7.9,5.4-13.5,1.4c-1.7-1.2-2.5-1.1-3.9,0c-1.5,1.2-3.1,1.5-4.7,0c0-8.3,0-16.6,0-24.9
		c1.3-0.2,3,0,3.7-0.8C210.9,424.2,213.7,426,216.7,428.7z"/>
	<path class="st58" d="M749.3,363.1c0,2.7-0.3,5.4,1.3,7.9c-2.6,2.1-2.7,4.9-2.6,7.9c-7.8,1.4-15.6,2.6-23.1-1.2
		c-8.9-4.9-18.5-3.5-28-3.2c-2.3,0.1-4.8,1-6.8-0.9c0.1-0.4,0.1-0.8,0.2-1.3c6.3-2.3,13-1.6,19.4-1.1c8.1,0.6,14.4-1.7,19.3-8.2
		c1.2-1.5,2.9-2.6,4.3-3.9C737.3,365.3,744.1,361.2,749.3,363.1z"/>
	<path class="st59" d="M637.8,511.3c-9-0.6-6.3-8.1-7.9-13.1c6.8-2.3,14.1-2.1,20.9-1.2c4.5,0.6,7.8,0.9,10.6-2.8
		c7.4-3.1,18.3-1.1,22.3,3.9c-1.5,0.1-3.2-0.2-3.7,1.8c-1.8,7-6.9,5.4-11.7,4.4c-1.2-0.3-2.9-1.5-3.6-0.4c-3.8,6.2-12,3.9-16.4,8.6
		C644.4,515,641,513.8,637.8,511.3z"/>
	<path class="st60" d="M595.7,477.2c-0.9,0-1.7,0-2.6-0.1c-0.8-0.9-1-2-0.8-3.1c0.2-0.8,0.3-1.9,1-2.4c5.8-4.5,12.3-8.2,18.8-11.1
		c5.6-2.5,12.8-2,19.1,0.4c1.6,1.9,1.6,4,1,6.2c-2.7,3.6-6,6.7-9,10c-2.8,1.7-6,1.9-8.9,1.1c-4-1-6.8-0.4-8.9,3.1
		c-1.2,2.1-2.3,1.5-3.5,0.2C600.4,479.6,598.2,478.2,595.7,477.2z"/>
	<path class="st61" d="M623.3,477.2c0.9-4.5,3.2-7.9,7.9-9.2c9.9,5.9,20.8,9.1,31.6,12.8c2.1,2.6,2.2,5.4,0.9,8.4
		c-0.6,0.9-1.2,1.6-2.4,1.2c-2.7,1.6-4.9,2.2-8-0.3c-3.4-2.6-8.3-1.5-12.5-2c-6.2-0.8-11.3-1.8-14.1-8
		C626.2,478.9,624.5,478.1,623.3,477.2z"/>
	<path class="st62" d="M661.4,490.3c0.4-0.4,0.9-0.9,1.3-1.3c4.7-4.3,10.5-2.3,15.6-2c8.2,0.4,16.3-1.8,24.4-0.4
		c1,0.4,1.9,1.1,2.5,2c1.1,2,1.2,4.1,0.2,6.2c-0.2,0.3-0.5,0.5-0.7,0.8c-7.1,0.1-13.4,6.3-21,2.6c-7-3.6-14.6-3.9-22.3-3.9
		C661.4,492.9,661.4,491.6,661.4,490.3z"/>
	<path class="st63" d="M516.9,456.1c5.1-1,7.4-4.3,6.5-9.3c-1.5-8.4,2.9-13.8,9.1-18.4c6.2,1.4,13.5-0.2,18.1,5.2
		c3,3.5,6.3,6.2,10,8.6c-2.1,4.5-5.4,8-9.5,10.9c-3,0.9-6.1,1-9.2,1.8c-2.2,0.1-4-0.3-3.9-3.1c0.2-3.3-2-4.2-4.7-5.3
		c-7.4-2.9-7.4-3-8.5,4.6C524.2,456.3,520.9,456.6,516.9,456.1z"/>
	<path class="st64" d="M542,454.9c1.9-4.9,6.1-1.7,9.2-2.6c6.7-1.4,9.4,0.9,11.3,9.9c-0.1,2.1-0.5,4.1-1.3,6
		c-2.7,2.7-13.5,10.1-15.2,10.3c-2.6-2.2-5.3-4.4-7.9-6.6C540.3,466.5,541.2,460.7,542,454.9z"/>
	<path class="st65" d="M894.9,386.7c-1,0-2-0.2-2.6-1.2c12.8,0,25.6-0.1,38.4-0.1c1.7,0,3.5-0.4,4.8,1.2c2.5,7.7,0.5,11.3-6.9,12.8
		c-4.4,0.9-7.8,3.9-12.2,5.2c-5.7,1.7-12.1-0.3-17.4,3.6c-0.8,0.6-2.7,0.4-3.3,1.9c-1.4,3.1-3.8,3.4-6.4,1.8
		c-3.1-1.8-4.8-0.5-6.2,2.2c-0.5,0.4-1,1.1-1.6,1.1c-12.8-0.6-23.7,6.5-35.7,9c-0.9,0.2-1.7,0.2-2.6,0c-4-2.1-4.8-6.3-6.6-9.9
		c-0.2-1.8,0.5-3.3,1.7-4.5c3.8-2.3,8.2-2.8,12.5-3.6c2.1-0.4,4.4-0.3,6.4-1.3c10.2-5.1,21.2-6.2,32.3-6.3c1.3,0,3,0,3.6-1.2
		c3-5.9,8-7.4,14.1-6.7c1,0.1,2-0.6,2.7-2C905,387.1,899.4,390.1,894.9,386.7z"/>
	<path class="st66" d="M842.4,423.4c8.2-1.4,15.8-4.6,23.3-8c5.6-2.5,11.6-0.6,17.4-1.1c1.6,5.2,4.4,1.4,6.4,0.7
		c3-1,5.4-0.5,7.6,1.6c1.9,1.8,0.1,3-0.9,4.2c-0.9,0.9-1.8,1.8-2.6,2.7c0.1,8.5-7.5,8.3-12,8.4c-10.1,0.2-18.3,6.9-28.1,6.8
		c-6.6-0.1-12.5,2.9-18.8,3.6c-0.6-0.4-1-1-1.3-1.6c-0.7-3-1.9-5.9-0.8-9.1C836.5,429.6,838.6,425.5,842.4,423.4z"/>
	<path class="st67" d="M362.3,561.1c4.2,4,8.6,7.9,12.6,12c3.8,4-1,8.6,0.5,12.9c-4.7,1.7-9.2,4.9-14.7,2.4c-2.2-1-2.9,1.1-3.6,2.7
		c-1.3,3-3.6,4.6-6.7,3.4c-4.1-1.6-4.5,3.5-7.6,3.6c-2.2-3-5.7-4.5-8-7.4c-2-4.4-7.1-8.2-2.7-13.9c1.2-2.1,2.6-3.8,5.2-3.9
		c4.8-3,10.7-3.4,15.9-4.4C358.6,567.6,360.3,564.8,362.3,561.1z"/>
	<path class="st68" d="M286.2,584.8c0.7-4.6-1.8-9.6,2.4-13.6c2.8-2.7,10.9-2.2,11.6,1.4c0.8,3.7,3.7,3.8,5.6,5.7
		c2.5,3,3,6.4,2.4,10.2c-0.7,2.5-2.1,4.7-2.9,7.2c-2.9,8.8-10.4,12.1-19.7,8.6c-0.3-2.2-0.1-4.5-0.1-6.7
		C285.9,593.2,284.8,588.9,286.2,584.8z"/>
	<path class="st69" d="M313.7,546.7c3.4,3.5,7.6,4,12.3,4.1c9,0.2,18.1-1.6,27,1.2c1.3,0.5,2.1,1.4,2.6,2.6c0.1,4.3-3.3,5.5-6.3,6.3
		c-5.6,1.5-11.4,2.9-17.4,1.6c-2.9,0.1-4.7,3-7.9,2.7c-3.3-0.2-5.8-0.7-7.7-3.8c-2.2-3.8-7-4-10.2-1c-3.4,3.3-3.4,3.3-8.7,3
		c0.7-2.7,2.8-4.3,4.3-6.2c0.6,0.1,1.7,0.5,1.8,0.4C305.6,552.6,310.6,550.6,313.7,546.7z"/>
	<path class="st70" d="M307.2,588.7c-0.4-3.5-0.9-7-1.3-10.5c4.3-8.3,4.2-8.1,11.7-2.2c4.4,3.4,9.6,2.1,14.5,0.9
		c-2,5.4,2.1,8.9,3.9,13.1c-4.4,4.6-10.8,3.7-14.9,2.1C316.4,590.4,311.8,590,307.2,588.7z"/>
	<path class="st38" d="M332.1,562.5c4.3-2.5,9.2-1.5,13.8-2.4c4.1-0.8,7.3-2.3,9.8-5.5c2.7,1.7,4.9,3.9,6.6,6.6c0,5.4,0,8.8-8,8.8
		c-5.1,0-11,3.1-16.9,3C337.1,568.7,332.2,566.8,332.1,562.5z"/>
	<path class="st71" d="M286.2,584.8c0,4.4,0,8.7,0,13.1c-0.5,0.6-1,0.6-1.4,0c0-4.4,0-8.8,0-13.1
		C285.2,584.8,285.7,584.8,286.2,584.8z"/>
	<path class="st72" d="M855.5,639.8c1.3,4,6.8-0.4,7.9,3.9c2.1,2.3,3,4.9,2.2,7.9c-1.7,5.7-5.5,6.9-11.3,7.3
		c-10.1,0.6-20.1,3.4-30.3,3.2l0,0c-0.8-5.7-0.9-11.4,0-17.1c4.8,0.4,8.7-0.9,12.7-4.2c3.4-2.7,8.2-3.9,12.8-4.1
		C851.9,636.9,854.4,637.2,855.5,639.8z"/>
	<path class="st73" d="M915.8,670c0,3.9,0,7.9-0.1,11.8c-3.5,6.8-8.7,9.8-16.6,8.1c-4.5-0.9-9.4,1.9-13.8-1.8
		c-1.8-1.5-3.7-3.1-5.3-4.8c-2.2-2.4-4.8-4.4-7.6-6.1c-0.7-0.1-1.3-0.4-1.7-1c-0.6-2,0.3-3.3,1.9-4.4c6.2-0.2,12.5-0.2,18.4-2.8
		c1.8-0.8,3.8-0.1,5.7,0.5c4.5,1.7,8.9,1.7,12.9-1.4C912.4,666.1,914.4,667.2,915.8,670z"/>
	<path class="st74" d="M915.8,670c-2-1.4-3.8-2.9-5.9,0c-2.8,3.8-7.5,3.6-10.7,2.2c-4.9-2.2-9-1.6-13.4,0.4s-8.8,0.8-13.3,0
		c-2.4-4.5,1.7-8.2,1.6-12.5c0.3-0.7,0.6-1.2,1.1-1.7c6.3-1.9,12.4-4.7,19.2-4.9c3.6,2.8,8.5,3.9,12.2,3c7-1.7,8.3,1.8,9.2,7
		C915.8,665.6,915.8,667.8,915.8,670z"/>
	<path class="st75" d="M894.9,654.3c-6.6,1.7-13.1,3.5-19.7,5.2c-2.7-1.3-4.7-3.7-7.8-4.2c-1.7-0.3-3.2-1.4-2.7-3.6
		c-0.4-2.6-0.9-5.2-1.3-7.9c3,0,6.1,0.3,8.4-2.4c1.3-1.5,2.9-1.5,4.8-0.9c3.2,1.1,6.4,0.9,9.6-0.1c2.1-0.7,4.2-1.1,6.1,0.9
		c2.5,2.7,3.7-0.3,5.3-1.4C899.7,645.2,898.1,649.9,894.9,654.3z"/>
	<path class="st76" d="M855.5,639.8c-7.6-2.6-15.9-0.3-21.2,5.5c-3,3.4-6.1,3.6-9-0.3c6.2-8.3,11.1-18,23.8-17.6
		c4.1,0.1,8.1-1.4,12.2-1.9c2.2,0.2,4.7,0.3,3.4,3.7C864,634.9,859.4,637.1,855.5,639.8z"/>
	<path class="st77" d="M894.9,654.3c0.9-4.8,1.7-9.6,2.6-14.4c7.1-2.8,17.7,5.2,18.3,13.9c0.2,3.2,0,6.5,0,9.7
		c-2.2-2.8-2.1-9.2-9.1-4.8C905.6,659.4,897.3,660.1,894.9,654.3z"/>
	<path class="st78" d="M864.7,629.4c-0.1-2.7-2-2.6-3.9-2.6c-0.8-3.3,2.1-3.8,3.9-5.1c7.4,0,14.9-0.1,22.3-0.1
		c1.3,1.5,2.8,2.5,4.8,2.6c2.3,1.8,4.6,3.5,6.9,5.3c0.4,0.9,0.9,1.7,1.3,2.6c-8.9-8.1-19.1-0.7-28.5-2.3
		C869.5,629.4,867,629.7,864.7,629.4z"/>
	<path class="st74" d="M872.6,676.6c4.6,1,6.8,5,9.9,7.9c7.9,7.3,22.7,7.2,30.3-0.2c0.9-0.9,2-1.6,3-2.4c0.1,0.5,0.2,1,0.2,1.5
		c-2.3,5.4-6.6,7-12.2,7.9c-13.5,2.3-22.7-4.3-31.3-13.1C871.8,677.6,871.9,677.1,872.6,676.6z"/>
	<path class="st79" d="M581.4,579.5c0,1.7,0,3.5,0,5.2c0,1.4-0.4,2.7-1.6,3.5c-2.9,1.7-6.1,2.1-9.5,2c-2-0.1-4.1-0.5-5.7,0.9
		c-2.8,2.3-5.1,1.8-7.3-0.7c-2.6-2.8-5.8-3.1-9.5-3.1c-8.8,0-17.6-2.4-26.6-0.8c-2,0.4-3.7-1.1-4.6-3.1c0-4.9,3.4-6.1,7.2-6.2
		c3,0,5.9-0.2,8.6-1.7c4.2-1.3,8.2,0,12.2,0.6c9.3,1.3,18.6,1.5,27.9,1.3C575.7,577.5,578.8,577.3,581.4,579.5L581.4,579.5z"/>
	<path class="st80" d="M580,587.4c0-1.1,0.3-2.1,1.3-2.6c8.9,1.5,17.5,3.6,26.9,3.5c10.5-0.1,21.1-0.1,31.7,0.5
		c2.7,0.1,3.1,1.8,3.1,3.9c-4.7,2.8-10.2,1.9-15,1.7c-4.6-0.2-9.1,2.1-13.9,0.2c-3.3-1.2-4.1,4.8-7.8,4.6
		c-8.9,0.3-17.5-1.1-25.5-5.1C579.2,592,578.2,589.8,580,587.4z"/>
	<path class="st81" d="M603.7,603.1c0.6,2.3,4.1,2.4,3.9,5.2c0.1,2.6-0.9,4.7-2.6,6.6l0,0c-8.9,0.9-17.8,3.1-26.6-0.8
		c-2-0.9-3.8,0.2-5.7,0.2c-8.6,0-17.2-0.1-25.6-2c-0.7-8.3,1.7-10.5,10-9.6c6.2,0.7,12.4,1.9,18.8-0.4c4.2-1.5,8.6,0.8,12.7,2.2
		c3.2,1.1,5.7,1.3,8.1-1.7C598.6,600.3,601.3,600.3,603.7,603.1z"/>
	<path class="st82" d="M603.7,603.1c-3-0.9-5.8-1.6-7.2,2.5c-1,2.8-3.1,3.1-5.8,2c-6-2.5-11.6-5.1-18.7-2.3
		c-4.1,1.6-9.7,0.3-14.5-0.6c-7.5-1.3-9.9,0.2-10.1,7.6c0.3,0.3,0.5,0.5,0.5,0.9c0,0.3-0.1,0.5-0.2,0.5c-0.5,0.4-1,0.3-1.4-0.1
		c-0.5-3.5,0.6-7.2-1.5-10.5c1.6-2.6,4.3-2.9,6.9-2.9c3.9,0,6.7-1.5,8.1-5.2c1.7-1.7,3.6-2.7,5.5-0.7c3.5,3.8,6.5,2.8,9.9-0.2
		c1.9-1.7,4.2-2.1,6.4-0.2c3.6-0.3,6.7,0.6,9.9,2.5c3.7,2.2,8.3-1.4,12.2,1.4c0.8,0.5,2.1,0.4,2.8,1.4
		C606.5,601.2,604.5,601.8,603.7,603.1z"/>
	<path class="st83" d="M605,614.9c-0.1-2.6,0.5-4.9,2.6-6.6c9.2-5.6,19.4-0.9,28.9-2.6c2.7-0.5,5.5,0.6,7.1-2.9
		c0.8-1.7,3.3-1.5,4.5,0c1.6,2-0.8,2.1-1.8,3c-2.1,2-4,4.3-6,6.5c-3.6,0-7-0.1-10.3,2.6c-2.7,2.3-6.8,0.3-9.9-0.3
		C615,613.7,610,614.4,605,614.9z"/>
	<path class="st83" d="M641.7,613.6c-0.8,1.8-2.1,3.1-3.9,4c-0.2-2.3,1.9-3.4,2.6-5.2C640.8,612.7,641.3,613.2,641.7,613.6z"/>
	<path class="st84" d="M480.2,521.7c3.5-3.6,7-7.2,10.5-10.7c4.7,6.7,5.8,6,13.9,4.7c7.3-1.2,14-4.8,21.6-4.3c2.2,0,4.4,0.2,5.1,2.9
		c0.6,2.4-0.8,3.6-2.7,4.5c-2.5,1.2-3.5,3.7-5,5.7c-1,1.4-2.6,1.8-4,2.4c-4.2,1.6-8,4.9-12.9,2.7c-3.9-6.9-10.2-6.4-16.6-5.4
		c-3.3,0.5-6.4,0.4-9.2-1.6C480.6,522.2,480.4,521.9,480.2,521.7z"/>
	<path class="st85" d="M519.7,525.7c0.9-1.5,2.5-1.3,3.9-1.3c6.1,1.1,12.2-1.2,18.4,0c3.8,0.7,5.6-0.9,5.3-5
		c-0.1-2.2-0.9-4.8,1.2-6.7l0,0c3.5,4.4,1.2,9.4,1.7,14.1c-0.1,2.9-1.1,5.4-3.3,7.3c-1.1,1-3.1,1.2-3.8,2.4
		c-4.6,7.4-11.5,6.4-18.4,5.5C521,537.1,516.9,532.5,519.7,525.7z"/>
	<path class="st86" d="M526.3,511.3c-6.2,1.1-11.2,7.2-18.4,4.5c-1.6-0.6-3.1,1.2-4.6,2c-5.9,3.2-11.9-0.1-12.5-6.9
		c1.8-2.5,3.8-4.6,6.3-6.3c3.9,0,7.9,0.4,11.7,0C515.8,504,522,504.9,526.3,511.3z"/>
	<path class="st87" d="M727,512.6c-2.2,0.2-3.2-0.8-4.3-2.9c-4-7.3-6.4-8-14.1-4.9c-2.7,1.1-4.9,1.8-6.5-1.4
		c1.7-2.3,3.2-4.8,2.6-7.9l0,0c6.2-0.8,12.3-1.8,18.6,0.1c4.6,1.4,9.5,0.7,14.3,0c3.4-0.5,6.8-2,10.2-0.2c0.1,4.6-1.9,8.8-2.2,13.3
		C741.5,515.7,734.1,517.2,727,512.6z"/>
	<path class="st88" d="M692.9,511.3c2.7,3.8,1,10.2-3,10.3c-9.1,0.3-18.9,2.3-25.9-6.4c0.6-3.6,3.5-2.4,5.7-2.6
		C677.4,511.9,685.3,514,692.9,511.3z"/>
	<path class="st89" d="M637.8,511.3c3.5,0.4,7,0.9,10.5,1.3c0,3.1,0,6.1,0,9.2c-4.8,3.3-10.3,2.6-15.7,2.6c-2.5-1-3.4-3.6-5.2-5.2
		c1.9-1.8,1.7-4.4,2.6-6.6C632.4,511.2,635.6,514.3,637.8,511.3z"/>
	<path class="st90" d="M342.6,597.9c2.6-2.5,3-9.2,9.4-4.3c1.6,1.3,3.1-1.2,3.7-3.3c1.1-3.8,2.2-8,6.9-2.6c1,1.2,2.4,1.1,3.5,0.2
		c2.8-2.5,6.1-1.6,9.3-1.8c0.2,1.8-0.6,3.9,1.3,5.2c-1.6,2.4-1.3,5.2-1.3,7.9c2.1,6,0.7,8.7-5.4,9.1c-3.5,0.2-6.2,1-8.6,3.6
		c-4,4.3-9.6,3-14.6,4.1c-1.1,0.1-2.1,0-3.1-0.4c-4.2-3.6-2.3-9.1-4.4-13.4C339.5,600,339.6,597.8,342.6,597.9z"/>
	<path class="st91" d="M346.5,614.9c1.7-2,4-1.3,6.1-1.3c3,0,6-0.5,7.6-2.8c2.6-3.7,5-5.2,10-4.1c5,1,5.4-3.5,5.1-7.5
		c3.2-0.2,5.3,1.3,6.5,4.3c1.6,3.7,3.7,3.9,6.1,0.5c1-1.4,0.6-5.1,3.1-3.6c2.2,1.3,5.6,1.8,6.4,4.9c0.6,2.2-0.2,4.1,3.5,5.4
		c3.3,1.1-0.5,2.3-2,2.9c-0.5,0.7-0.9,1.8-1.7,1.9c-5.3,0.5-10.2,2.6-15.2,3.9c-6.5,1.7-13.5,4.9-20.7,2
		C356.6,618.9,351.3,617.6,346.5,614.9z"/>
	<path class="st92" d="M361,620.2c7.1,2.6,14.7-0.2,20.3-2.3c6-2.3,12-2.4,17.8-4.2c-0.1,5.5-6.4,6.2-7.9,10.5
		c-3.1,3.6-7.3,4.1-11.8,3.9c-2.2,0.9-4,1.9-5.4,4c-3.7,5.7-4,5.6-8.8,1.2c-1.1-1-2.6-1.5-3.5-2.8
		C360.3,627.1,359.8,623.7,361,620.2z"/>
	<path class="st43" d="M370.1,643.8c-1.5,3.8-5.1,5.4-7.9,7.9c-5,0.9-9.1,3.9-13.8,5.6c-8.7,3.2-15,12.3-25.9,10.2
		c-1.6-0.3-3.3,0.8-3.7,2.2c-1.3,4.6-5.7,4.8-8.8,6.8c0-0.9,0-1.8,0-2.7c1-2.2-0.3-4.7,0.9-6.9c5.1-5,9.9-10.5,18.2-9.6
		c0.6,0.1,1.3-0.3,1.8-0.7c8.5-7.1,19.7-8.8,28.8-14.9C363.6,639.2,367.7,638.4,370.1,643.8z"/>
	<path class="st93" d="M727,512.6c4.4,1.2,8.8,1.3,13.2-0.2c2.5-0.8,4.2-2.1,3.9-5.1c4.1-2,4.6,2.3,6.8,3.8c2.6,2.3,2.7,4.5,0.2,7
		c-2.3,2.2-4.4,4.6-6.8,6.6c-3.9,0.5-7.6,1.1-11.4,2.7c-4.7,2-9.8,2.2-14.5-0.5c-5.1-2.9-8.9,0.2-12.4,3c-2.9,2.3,2.8,5,0.2,7.6
		c-4-2-5.8-6.7-10.2-8.1c-0.5-2.8-3.3-3.9-4.5-6.1c5,2.1,8.5-2.4,13-3.2C712,518.6,719.4,515.2,727,512.6z"/>
	<path class="st94" d="M337.2,407.6c2.5-3,4.5-3,7.1,0.2c1.7,2,3.3,4.6,6.2,5.3c4.6,2.4,9.4-0.5,14.1,0.5c2,0.4,5.6-1.7,5.5,2.2
		c-0.1,3.6-1.1,7.5-5.6,8.6c-1.5,0.4-3-0.2-4.4-1c-0.8,8.5-4.4,11-17.4,12.3c-1-9.4-7.2-9.5-14.3-7.9c-0.4,0.1-0.9,0-1.3,0.1
		c-5.9-0.7-12.3,2.1-17.7-2.3c-0.2-0.8-0.1-1.5,0.4-2.2c7.6,2.7,15.5,1.1,23.2,1.1c3.1,0,4-2.8,4-5.7
		C337,415,337.1,411.3,337.2,407.6z"/>
	<path class="st95" d="M296.7,411.6c-7.3-6-7.4-11.2-0.5-17.4c3.2-2.8,8.1-5.6,2.6-10.7c-0.3-0.3,0.4-1.6,0.7-2.4
		c6.5,6,6.5,6,0.5,12.4c-0.7,0.8-1.4,1.6-2.2,2.4c-6.7,6.4-6.7,7.1-1.1,14.3c0.4,0.4,0.5,0.7,0.3,1
		C296.9,411.5,296.8,411.6,296.7,411.6z"/>
	<path class="st96" d="M296.7,411.6c0-0.5,0.1-1,0.1-1.5c4.9,3.9,9.2,8.3,13.1,13.2c0,0.5,0,0.9-0.1,1.4c-5-0.3-7.1-4.1-9.1-7.9
		C299.3,415.1,298,413.4,296.7,411.6z"/>
	<path class="st97" d="M431.8,413c-0.4,1.3-1.3,2.1-2.5,2.6c-4.4,0.3-8.8,0-12.7,2.7c-0.9,0.6-2.1,0.3-2.7-0.8
		c-3.4-10-0.5-19.3,2.6-28.7c2.3-2.5,4.5-0.7,6.1,0.7c3.5,3.1,7.5,5.7,11.1,8.7C437.1,403.6,436.7,408.6,431.8,413z"/>
	<path class="st98" d="M431.8,413c3.8-4.5,2.6-9.5,1.3-14.5c-2.4-4.4-2.3-8,3.2-9.5c3.6-1,5-3.9,6.1-6.9c1.7-2.9,4.4-3.8,7.1-2.2
		c3.7,2.2,5.7,0.1,7.9-2.1c1.4,6.2-0.2,11.2-5.2,15.6C445.3,399.6,438.7,406.4,431.8,413z"/>
	<path class="st99" d="M457.5,377.7c-0.5,6-3.5,6.9-8,3.6c-2.2-1.6-3.9-0.9-5.9,0.1c-2.7,0-2.3-2-2.6-3.7c0.3-2.7,1.4-5,3-7.2
		c1.1-1.6,4.7-2,2.8-5c-1.5-2.4-3.7-4.4-6.8-4.6c-6.3-0.4-12.7-0.1-19-0.2c-1.1,0-2.2,0-3.3,0c-3.7,0-7.5,0.4-11.1-0.2
		c-8.8-1.4-14.2,3.5-19.4,9.3c-2.1,2.3-1.6,4.8-1.6,7.3c-0.1,0.7-0.5,1.2-1,1.6c-0.8-0.5-1.6-1.1-2.5-1.6c-2.1-3.3-0.9-5.7,1.4-8.7
		c6.7-8.4,14.6-12.5,25.8-11.2c10.1,1.1,20.4,0.2,30.7,0.3C449.3,357.8,458.4,368.2,457.5,377.7z"/>
	<path class="st100" d="M414.8,418.2c4.5-2.9,8.7-7.2,14.6-2.6c-3.4,3.6-6.8,7.2-10.3,10.8c-1.4,1.5-3.1,2.4-5.2,1.8
		c-4.9-1.3-13.5-13-13.8-18.3c-0.2-4.3,1-8.7-0.9-12.8c-0.1-4.1-5.1-5.2-5.7-9c5.8-0.5,7.8,3.6,9.3,7.9c1.1,3.3,0.9,6.8,0.7,10.3
		c-0.3,5.7,1.3,9.8,7.9,10.2C412.6,416.6,413.8,417.3,414.8,418.2z"/>
	<path class="st101" d="M872.6,676.6c0,0.5-0.1,1.1-0.1,1.6c-8-0.1-16.1-0.7-24.1-0.1c-12.5,1-18.9-6.6-24.4-15.8
		c1.8-0.7,3-3.1,5.1-2.6c10.2,2.3,19.7-4.4,29.8-2.4c4.5,0.9,2.4-5.3,5.9-5.6c0.8,1.7,2.2,2.9,4,2.5c4.5-0.9,5.3,2.4,6.5,5.3l0,0
		c-11.3,5.9-22.6,12-36.6,10.3c0.8,4.6,3.8,4.7,6.4,4.8c6.1,0.3,12.1,0.1,18.2,0.2c2.8,0,5.7-0.3,8,1.8
		C871.7,676.6,872.1,676.6,872.6,676.6z"/>
	<path class="st102" d="M864.7,621.6c-1.3,1.7-2.6,3.4-3.9,5.1c-3,2.1-6.8,2.8-9.8,2.4c-8.8-1.2-14.4,3.1-19.5,9.2
		c-1.9,2.3-4.1,4.5-6.1,6.8c-2.9,5.5-0.4,11.5-1.4,17.2c-2.2-8.6-3.6-16.8,4.5-23.6c5.1-4.3,9.5-9.5,14.2-14.3
		C849.6,620,857.2,621.2,864.7,621.6z"/>
	<path class="st103" d="M622,632c0,3.1,0,6.1,0,9.2c0.6,0.6,0.6,1.1-0.1,1.6c-12,1.3-23.9-0.8-35.9-0.5c-3.4,0.1-6.3,1.3-9.3,2.4
		c-7.4-3.8-15.8-1.6-23.4-3.7c-2.3-0.6-4.8-0.5-6.5-2.6c-0.5-9.3,2.1-11.3,13.4-10.4c10.2,0.8,20.3,1,30.5,0.2
		c6.9,0.5,13.9,0.8,20.9,0.2C615.4,628.1,619.6,627.9,622,632z"/>
	<path class="st104" d="M547.3,613.6c0-0.4,0-0.9,0-1.3c7.1-2.8,14.1,1.7,21.2,0.1c7.5-1.6,14.6,1.7,22,2.4
		c4.8,0.5,9.7-3.5,14.5,0.1c-0.4,2.2-0.9,4.4-1.3,6.6c-3.5,4.1-7.9,4.1-12.7,3.2c-10.1,0.1-20.2-0.5-30.2-1.2
		c-4.6-0.3-9.5,2.2-13.9-0.8C546.7,619.6,546,616.6,547.3,613.6z"/>
	<path class="st105" d="M591.8,622.8c4.3,3.1,7.8-1.5,11.8-1.3c1.5,0.3,2.6,2.9,3.9,1.7c3.7-3.3,7.2-1.1,10.9-0.4
		c8,1.5,8.3,2.1,3.6,9.2c-4.6-2.1-9.4-1.7-14.3-1.4c-5.7,0.4-11.6,0.8-17.2-1.2C588.8,626.7,590.3,624.8,591.8,622.8z"/>
	<path class="st106" d="M623.4,689.7c-0.4,0.5-0.9,1-1.3,1.5c-3.6-5.1-1.6-10.9-1.9-16.3c0.1-2.7-0.2-5.5,1.1-8.1
		c0.5-0.8,1.1-1,1.9-0.5C623.2,674.1,623.3,681.9,623.4,689.7z"/>
	<path class="st105" d="M623.1,666.2c-0.4-0.1-0.7-0.2-1.1-0.2c-1.3-1.1-1.6-2.6-1.7-4.2c-0.4-2.7,0-5.4-0.2-8.1
		c0.3-3.8-1-8,1.9-11.4c0-0.4,0-0.9,0-1.3C624.8,649.4,622.8,657.9,623.1,666.2z"/>
	<path class="st107" d="M203.6,453.6c1.1-0.1,2.8,0.1,3.1-0.5c3-5.1,4.6-5,7.5,0.5c1.3,2.5,6.2,1.6,9.1-0.8c0.8-0.7,1.4-1.7,1.8-2.7
		c1.4-3.7,7.5-1.9,7.5-4.9c0-4-5.8-0.8-7.8-3.9c-1.2-2-1.6-3.1,1.1-3.5c5.4-2.1,8.8,0,10.5,5.2c0.3,0.3,0.8,0.7,0.7,1
		c-1.9,7.7-0.2,15.2,0.9,22.7c-3.2,2.8-8.5,2.5-10.3,7.2c-8.3,0.4-15.3,8.4-24.4,4.5c-1.2-0.5-1.6-1.4-1.2-2.7
		C205.3,468.6,202.7,461,203.6,453.6z"/>
	<path class="st108" d="M203.4,478.6c4.5,0.3,8.6-0.6,12.5-2.9c2.6-1.5,5.3-3.3,8.6-1.9c1.1,0.5,2.3,0.3,2.5-1.1
		c1-6.6,6.7-4.7,10.7-6c5.3,0.8,4.9,6.8,8.5,9.2c0.9,3.4-1.3,6.3-1.5,9.6c-0.2,3.4-1.3,6.5-3.8,9c-3.6,1.2-7.4,1.6-10.4,4.5
		c-2.2,2.2-4.6,1.3-6.7-0.9c-2.7-2.7-5-6-8.7-7.6C210.8,486.8,206.7,483.1,203.4,478.6z"/>
	<path class="st109" d="M274.2,496.9c0,4.8,0.1,9.6,0.1,14.3c0,10.8,0,11,10.7,10.7c4.4-0.1,8.3,0.2,10.5,4.6
		c-0.7,5.9-4.5,9.1-9.6,11.1c-3.9-0.1-7.8-0.8-11.6-0.2c-10.9,1.8-18.1-3.3-23.8-11.7c3.1-1.2,7.5,0.7,9.4-3.7
		c2.3-1.7,4-3.8,4.8-6.7c0.8-3.2,2.2-5.9,4.8-8.1c3.2-2.7,0.9-7.1,3-10.2C273,496.6,273.6,496.5,274.2,496.9z"/>
	<path class="st110" d="M260,523.1c-1.3,7.3-5.9,3.1-9.4,2.7c-12.3-11.4-24.1-23.1-35.5-35.4c4.4,0.1,6.2,3.9,8.6,6.4
		c2.7,2.8,5.1,2.8,7,0c2.7-3.7,5.9-3.5,9.6-2.6c4.1,1.8,7,6.7,12.6,4.9c0.3-0.1,0.7,0.4,1.1,0.6C257,502.1,261.4,519.4,260,523.1z"
		/>
	<path class="st111" d="M242.9,485.1c0.9-3.1,1.7-6.1,2.6-9.2c1.4-1.4,3.2-0.8,4.9-1c6.5-0.7,8.1-2.9,7-9.4
		c-0.5-2.8-2.4-5.8,0.9-8.2c3.7,2.9,7.3,5.5,12.3,6.4c3.5,0.6,4.8,4.7,6,8.1c1.2,3.6,2.7,6.1,7.6,4.7c4.2-1.2,6.8,1.9,8.5,5.6
		c0.3,8.5-1.2,10.1-9.2,10.2c-1.7,0-3.5-0.5-5,0.6c-0.4,0.1-0.8,0.1-1.3,0.1c-1.1,0.8-2.4,1.1-3.8,0.9c-4.1-1.6-8-2.4-12.6-2
		C254,492.5,248.2,488.9,242.9,485.1z"/>
	<path class="st112" d="M278.3,492.9c0.9-1.2,2.2-1.2,3.5-1.3c8.9-0.6,9.4-1.2,9.6-10.5c-4.8-5.8-5.7-12.3-3.4-19.4
		c3.2-3.9,7.9-3.4,12.2-3.9c3.9,0.6,4.3,3.8,5,6.8c0.8,3.4,2.3,5.8,6,6.9c10.2,3.1,12,10.4,5,18.3c-0.4,0.5-0.8,1-1.2,1.6
		c-2.1,2.4-4.9,1.4-7.4,1.4C297.9,493,288.1,492.9,278.3,492.9z"/>
	<path class="st113" d="M338.7,466.6c-2.3,2.1-3.4,5.3-6.5,6.6c-7.4-1-14-2.9-16.5-11.2c-0.5-1.6-1.7-3.3-3.4-3.8
		c-6.1-1.6-8.2-6.6-10-11.8c-0.8-3.5,0.4-6.2,3.5-8c4.8,0.8,10.5-3.1,14.3,2.8c0.6,4.7,1.7,8.8,8,6.5c0.6-0.2,1.3-0.1,1.9,0.1
		C332.9,449,339.4,463.1,338.7,466.6z"/>
	<path class="st114" d="M342.6,435.2c4.3-1.3,7.8-4,12.6-4.4c5-0.3,2.2-5.7,3.6-9.1c7.8,4,9-1.3,10-7.4c-4.1-0.1-8.2-0.8-12.2,0.6
		c-2.5,0.9-4.7,0.7-6.2-1.9c0.4-0.1,0.9-0.2,1.3-0.3c7.8,1,15.9-2,23.5,1.5c0.2,0.6,0.1,1.6,0.5,1.8c8,5.4,4,9.5-1.1,13.9
		c-4.8,4.1-9.2,8.7-13.7,13c-3.2,1.1-6.6,1.9-10,2c-4.6,0.3-8.5-0.9-9.8-6.1C341.2,437.6,341.4,436.2,342.6,435.2z"/>
	<path class="st115" d="M342.6,439.1c1.6,4,4.6,4.8,8.6,4.4c3.3-0.3,6.5-2.4,9.8-0.4c-7.5,7.8-14.9,15.7-22.4,23.5
		c1.2-5.5-4.2-7.6-6-11.6c-1.6-3.6-2.2-7.1-8.7-4.8c-5.8,2.1-4.8-4.6-5-8.5c5.1-1.7,10.5-2.3,15.5-5
		C337.1,435.3,340.3,436.9,342.6,439.1z"/>
	<path class="st116" d="M303.2,447c3.2,8.9,15.4,10.3,17.1,20.6c0.3,2.1,3.1,2.1,5,2.3c2.7,0.3,4.9,1.4,6.8,3.3
		c-6.3,5.5-9.9,13.5-17.1,18.2c3.5-5,6.7-10,1.3-15.8c-0.9-1-1.6-2.3-3-2.2c-8.2,0.6-9.6-4.9-10.1-11.2c-0.1-1.7-1.1-2.8-2.6-3.5
		c-1.7-1.7-1.6-3.8-1.2-6C300.2,450.6,300.6,448.1,303.2,447z"/>
	<path class="st112" d="M273.1,492.9c1.3,0,2.7,0,4,0c-0.1,0.4-0.1,0.8-0.1,1.3c-0.9,0.9-1.8,1.8-2.8,2.6c-0.4,0-0.8,0-1.1,0
		C272,495.6,272,494.2,273.1,492.9z"/>
	<path class="st117" d="M627.3,519.2c4.2-0.7,3.9,3.1,5.2,5.2c-0.4,0.4-0.9,0.9-1.3,1.3c-5.8,1.7-11.8,2.2-17.8,1.6
		c-2.1-0.2-3.8,0.1-5.7,0.9c-6.1,2.6-12.3,1.7-18.5,0.1c-0.9-1.8-0.3-3.7-0.5-5.6c0.3-0.8,0.7-1.5,1.8-1c7.5-0.2,15.1,0.8,22.4-2.3
		c2.6-1.1,6-0.8,8.9,0.3C623.8,520.5,625.7,521.1,627.3,519.2z"/>
	<path class="st118" d="M590.5,521.8c-0.4,0.4-0.9,0.9-1.3,1.3c-1.2,2.8-3.7,2.9-6,2.4c-4.4-0.8-8.8-0.2-12.9,1
		c-7.3,2.1-14.5,0-21.7,0.5c0-4.8,0-9.6,0-14.4c4.4,4.5,9.8,5.7,16,5.3c6.9-0.4,13.9,0,20.9-0.1
		C588.3,517.8,590.9,517.9,590.5,521.8z"/>
	<path class="st119" d="M311.2,667.4c-0.3,2.1,0.7,4.5-1,6.4c-0.1-10.7-0.3-21.4-0.2-32.1c0-3.8-1.1-6.6-3.9-9.2
		c-6-5.7-11.8-11.7-17.6-17.6c-1.5-1.5-3.6-2.6-3.5-5.2c0.5-0.4,1-0.6,1.7-0.4c3,1.7,5,4.5,7.6,6.7c7,11.4,19,11,30.1,12.6
		c2.5,0.4,4.5-0.3,4.9-3c0.6-4.5,3.6-6.2,7.5-6.8c3-0.4,4.7-3,7.4-3.9c0.9,0,1.8,0,2.6,0c5.8-1.1,10,2.5,14.4,5.2
		c2,3.3,1.1,7,1.3,10.5c-0.8,7-7,9.9-11.9,11.1c-6.8,1.7-11.6,6.3-17.8,8.7c-1.6,0.6-2.9,1.7-4.8,1.8c-10.4,0.8-13.1,3.1-15.4,12.9
		C312.2,666,311.7,666.7,311.2,667.4z"/>
	<path class="st120" d="M286.2,609.7c-0.5,0-0.9,0-1.4,0c-1-3.9-0.4-7.9-0.1-11.8c0.5,0,1,0,1.4,0c0,2.2,0,4.4,0,6.6
		C287.5,606.2,287.8,607.9,286.2,609.7z"/>
	<path class="st16" d="M396.2,577.1c0.5,0.8,0.9,1.7,1.4,2.5c-5.3-4.8-12.6-0.8-18.3-4C385,576.1,390.8,574.1,396.2,577.1z"/>
	<path class="st121" d="M320.4,717.2c-0.9-1.3-1.8-2.6-2.7-3.9c-1.9-4.2-0.1-7.7,3.3-9.3c4.3-2.1,9.2-3.8,13.7,0.1
		c0,3,0.1,6.1,0.1,9.1c1.4,4.2,0.3,8.5,0.6,12.8c0.1,1.5,0.1,3.2-1.8,3.6c-1.6,0.4-2.8-0.5-3.9-1.7
		C326.5,724.5,323,721.2,320.4,717.2z"/>
	<path class="st122" d="M334.7,704.1c-3.6,0-7.3-0.3-10.9,0.2c-5,0.7-5,5.4-6.1,9c-6.4-4.6-5.6-4.5-1.4-10.7c4.8-6.9,10.8-9,18.4-9
		C334.7,697.1,334.7,700.6,334.7,704.1z"/>
	<path class="st123" d="M320.4,717.2c3.5,3.2,7,6.4,10.3,9.7c0.7,0.7,1,2,2.3,1.8c1.7-0.3,1.7-1.8,1.7-3.1c0-4.1,0-8.2,0.1-12.4
		c0.4,0,0.7,0,1.1,0c0.1,3.8,0.3,7.7,0.4,11.5c0,2.1,0.7,4.5-1.5,5.9c-2.6,1.6-4.4-0.7-6.3-1.8c-2.7-3.2-5.4-6.5-8.1-9.7
		C320.3,718.5,320.4,717.8,320.4,717.2z"/>
	<path class="st124" d="M563.1,420.9c4.8-2.1,2.2-7.7,5-10.7c0.3-0.3,0.8-0.7,1.1-0.6c11.7,3.5,24.1,3.7,35.6,8
		c0.5,0.5,0.8,1.1,0.9,1.8c-0.2,3.9-0.9,7.5-3.1,10.8c-3.2,2-6.6,1.5-10,1.1c-5.3-0.6-10.6,0.5-15.8,0.8c-5.3-0.1-10.3-0.6-15.6-2.6
		c-5.7-2.1-12.4-0.2-18.7-0.5c-3-0.1-6.2,0.6-8.6-1.9c6.2-2.6,12.7-1,19-1.1C557.4,426.1,560.8,424.9,563.1,420.9z"/>
	<path class="st125" d="M533.9,427.3c8.8-0.2,17.7,0.9,26.5-0.6c1.5-0.3,2.6,0,3.5,1.1c2,2.6,3.6,4.7,7.2,1.9c2-1.6,3.7,2.7,6.3,1.7
		c5.1,1.2,5.5,5,5.1,9.3c-0.2,0.7-0.6,1.3-1.2,1.8c-6.9,2.3-13.8,4.1-21,0.7c-4.5-1.2-8.3-2.9-10.3-7.9c-1.4-3.3-5.7-3.9-9.2-3.8
		c-3.3,0.1-5.9-1.1-8.4-2.9C533,428.1,533.4,427.7,533.9,427.3z"/>
	<path class="st126" d="M768.9,529.7c-4.5-3.4-8.3-7.5-11.9-11.8c8.6-5.7,17.8-8.5,28.3-7.5c3.7,0.4,7.3-0.7,10-3.7
		c5.6-2.4,11.5-4.1,16.6-8c4.5-3.4,10.8-1.4,16.1,0.5c1.1,2.3,0.6,4.2-1.4,5.8c-0.5,3.9-3.8,5.9-6.3,7.9c-5.7,4.5-7.4,10-7,17.1
		c0.3,5.5,1.7,11.2-1.1,16.5c-2.8-3.4-1.7-7.4-1.8-11.1c0-2.5-0.1-5,0-7.5c0.1-2.8,0-5.6,0.6-8.4c-0.6-0.9-0.9,0.3-1.3,0.2
		c-11.3-1.3-22.6,3.4-34,0.5c-0.8-0.2-1.7-0.4-2.6-0.4c-4.9-0.2-6.2,1.7-4.2,6.3C769.5,527.3,770,528.5,768.9,529.7z"/>
	<path class="st127" d="M768.9,529.7c0-1.4-0.8-2.4-1.5-3.5c-0.9-1.4-4-1.9-2.2-4.5c1.5-2.1,3.1-4.1,6.3-3.8c5.6,0.6,11,2.9,17,1.5
		c6-1.3,12.2-2.6,18.5-0.3c2.7,1,3.9-3.1,7.2-3.3c-2.7,3.7-1.9,7.6-2.1,11.3c-7-0.4-13.5,3.4-20.6,1.9c-2.7-0.5-5.1,0-7.3,1.9
		c-1.8,1.6-3.9,2.7-6.8,2.4c0.8,2.9,5.3,4.3,3.2,8.1C776.2,538.1,772.3,534.1,768.9,529.7z"/>
	<path class="st128" d="M795.2,507.4c1.5,3.2-0.6,3.2-2.9,4c-5.3,1.8-10.6,0-15.9,1.1c-4,0.8-8.9-1.6-11.3,4.6c-0.8,2-5.3,0.5-8,0.8
		c-4.3-0.5-7.1,1.7-9.1,5.2c-1.3,0.9-2.6,1.8-3.9,2.7c-0.3-0.3-0.4-0.6-0.3-0.9c0.1-0.3,0.2-0.5,0.3-0.5c2.2-2.4,4.4-4.7,6.5-7.2
		c1.7-2,2.3-3.9-1.2-4.6c0.6-5.3,4.5-7.4,8.9-7.9c7.2-0.8,14-3.3,21.2-3.7c4.4-0.3,8.3,1.9,12.8,1.6
		C794.5,502.4,796.7,504.1,795.2,507.4z"/>
	<path class="st129" d="M826.7,504.9c0.4-1.8,0.8-3.6,1.2-5.4c-2.3-3-1.8-6,0-9.1c2.4-2.3,4.6-4.9,6.6-7.6
		c5.3-5.3,11.7-7.7,19.2-7.4c4.2,0.2,7.7-2.7,12-2.4c5.1,0.3,6.2,1.9,4.2,6.7c-4.9,7.6-11.3,11.7-21,10.8
		c-5.6-0.5-11.5-1.8-17.1,1.1c-3.3,1.5-2.3,4.6-2.6,7.2C829.1,501.1,830.4,504.1,826.7,504.9z"/>
	<path class="st130" d="M780.8,541.4c-0.5-4.5-5.7-5.8-7.2-10.5c4.6,1.8,8.4,1.5,11-2.7c0.5-0.7,2.1-1.3,2.9-1
		c8.3,3.1,16.5-4.1,24.7-0.1c0,2.6,0,5.2,0,7.9c-2.8,1.9-6.2,2.7-8.7,5.4c-2.2,2.3-5.5,2.3-8.6,1.9c-2.4-0.3-4.7,0.2-7.4,0.8
		c-0.3,2.2,3.1,3.9,1.1,6.2C785.5,547.1,782.8,544.6,780.8,541.4z"/>
	<path class="st131" d="M788.6,549.2c0.1-3.2-3.5-4.2-4.4-7.3c4.5-0.3,8.4-2.7,13.1-1c1.8,0.6,5.1-0.2,5.8-2c1.8-4.9,5.5-3.9,9-4
		c0,3.9,0,7.8,0,11.6C804.6,557,795.7,558.1,788.6,549.2z"/>
	<path class="st132" d="M834.5,441.8c2.5-0.2,4.5-1.4,6.3-3.1c1.1-1,2.2-2.2,3.9-2c9,1.4,17.3,0.1,24.8-5.4c1.6-1.2,3.6-0.9,5.6-0.3
		c5.5,1.5,10.1-3.4,15.7-2.9c0.7,0.1,1.8-3.1,2.7-4.7c-0.1,5.3-0.1,10.6-0.2,15.8c-0.6,1.6-0.9,3.6-3.3,3.4
		c-5.4-0.4-10.5,2.6-16.1,1.5c-3.4-0.7-6.8,1.4-9.9,3c-4.9,2.6-10.1,3.9-15.7,3.7c-2.5-0.1-4.7,0.5-6.9,1.5c-2.4,1.1-5,1.8-7.4,0
		c-0.4-0.6-0.8-1.2-1-2C832.7,447.4,832.2,444.3,834.5,441.8z"/>
	<path class="st133" d="M887,462.7c-1.2,2.3-2.8,4.1-5.2,5.2c-3.1-4-5.5-5.1-9.9-0.5c-3.4,3.6-9.8,3.6-14.6,3.8
		c-4.8,0.1-9.4,3.2-14.3,1c-1.4-0.6-3.2,1.1-4.2,2.5c-1.2,1.6-2.5,3-4.5,3.5c-4.7-0.5-9.4,0.8-14.1,0.1c-2.4-0.3-3.9,1.4-5.6,2.7
		c-2.9,2.2-5.9,3.8-9.2,0.8c-1.3-2.6-4.3-4.4-4-7.8c1.6-3,4.5-4.2,7.5-4.5c6.5-0.7,12.6-3.3,19.2-3.2c3,0,5.4-1.5,7.4-3.5
		c7.8-1.6,15.6-5.6,23.5-0.1c1.9,1.3,2.7-0.8,3.8-1.5c7.2-4.9,14.8-4.2,22.5-1.9C886.8,459.5,888.5,460.3,887,462.7z"/>
	<path class="st134" d="M834.5,452.3c1.3-0.1,3,0.4,3.8-0.3c6.2-4.9,13.8-2,20.5-3.9c2.7-0.8,4.1-2.9,6.6-3.8
		c7.7-3.1,15.9-1.4,23.7-3.1c1.8-0.4,3-0.9,4.2-1.9c0,4.3,0,8.6,0,13c-11.8-3.3-21.9,2.1-31.9,6.7c-4,1.8-8,0.7-12,1.4
		c-4.5,0.7-9.3,2-14,1.2c-2.3,0-4.1-0.7-4.5-3.3C831,455.5,831.8,453.3,834.5,452.3z"/>
	<path class="st135" d="M834.5,477.2c3.3-4.5,6.2-9.8,13.2-5.5c1,0.6,1.9-0.5,2.7-1.4c0.7-0.8,2.3-2,2.3-1.9c5,4.9,9.5-2.9,14.6-0.6
		c1.6,0.7,4-0.5,4.9-2.5c1-2.2,2-5.4,4.6-4.5s5,3.4,4.9,7c-3.3,4.6-7.2,8.6-11.8,11.9c0.3-4.9-3-7.1-8.2-4.6c-3.3,1.6-6.5,2.5-9.9,2
		c-7.1-1-11.4,4.7-17.2,6.6C833.1,481.6,833.6,479.4,834.5,477.2z"/>
	<path class="st136" d="M835.9,460.1c7.6-0.5,16.4,1.2,22.5-2.1c6.9-3.7,14.7-3.3,20.7-7s9.9-3.4,14.3,1.2c1.1,5.5-2.7,7.9-6.4,10.4
		c-3.7-3.7-14.3-5-19.7-2.4c-4.4,2.1-8.3,6.6-13.7,1c-0.6-0.6-7-0.2-10.6,1c-2.2,0.7-4.7,0.4-7.1,0.5
		C835.2,461.9,835.1,461,835.9,460.1z"/>
	<path class="st137" d="M671.8,390.8c5.7-5.4,11.4-10.8,17-16.1c2.4,2.7,0.3,4.8-1,7s-0.3,3.8,1.8,3.6c10.2-1,20.4,3.5,30.5-0.2
		c2.9,3.2,6.5,5.7,8.4,9.7c-2.5,3.4-6.5,4.3-10.3,5c-3.4,0.7-6.9,1.1-10,2.8c-1.2,0.6-2.7,1-3.7,0.1c-7.5-6.8-15.5-1.5-23.2-1
		c-2.7,0.2-5.1,0-7.6-0.8c-2.4-1.2-3.5-3.5-5.1-5.5c-0.7-1-1.3-2.1-1-3.5C668.8,390.8,670.6,391.8,671.8,390.8z"/>
	<path class="st138" d="M720.4,385.4c-5.2,6-11.8,2-17.7,2.2c-3.7,0.2-7.5-1.4-11.5-0.3c-2.3,0.6-5.1-0.2-6.5-2.1
		c-1.9-2.6,1.2-3.8,2.5-5.2c1.4-1.6,2-3.3,1.7-5.4c0.4-0.4,0.8-0.8,1.2-1.1c5.5-1,11-1.4,16.6-1.3c6.6,0.1,13.3-0.6,19,4
		C728,382.5,727,384.3,720.4,385.4z"/>
	<path class="st139" d="M671.8,390.8c-1,1.4-2.5,1.1-3.9,1.2c-1.8,1.9-4.3,2-6.6,2c-15.1,0-30.2,0.3-45.3-0.2
		c-7.5,0.8-11.5-4.6-16.1-9c-5.6-7.8-13.2-10.4-22.7-9.6c-5,0.4-10.5,1.6-15.3-1.6c1.9-2.7,4.8-1.4,7.2-1.4c8.4,0,16.9,0.2,25.3,0.3
		c1.4,2.1,3.1,3.9,5.3,5.2c2.6,3.5,5.6,6.7,9.2,9.1c1.6,3.6,4.8,3.9,8.2,3.9C635.3,390.6,653.6,390.7,671.8,390.8z"/>
	<path class="st140" d="M891,472.3c3.5-3.6,7-7.2,10.5-10.8c2.2-1.1,4.6-4.7,6.7-1.9c2.5,3.4,2.3,8.1-0.4,11.6
		c-2.5,3.2-5.3,6.4-9,8.5c0-3.1,3.3-4.3,4.4-6.9C899.1,470,894.9,474.3,891,472.3z"/>
	<path class="st141" d="M622,674c0,5.7,0,11.4,0.1,17.2c-0.9,1.7-2,3.2-3.9,3.9c-15-4.9-30.2-2.2-45.3-0.4c-2.9,0.3-6.1,1.5-8.3-1.8
		c-0.7-6.1-0.2-12.2-0.3-18.3c0.1-1.5-0.1-3,0.7-4.4c0.8-0.8,1.9-1.7,2.8-1.4c8.3,2.7,17.3-1,25.6,2.9c4.5,2.1,9.2,2.1,14.1,0.6
		C612.5,670.7,617.4,671.3,622,674z"/>
	<path class="st142" d="M565.6,693.6c7.8-1.8,16.2,0.3,23.5-3.9c1.6-0.9,2.7-0.2,4.2,0.5c2.1,1,4.5,2.8,6.7,1.2
		c6.2-4.5,11.2,1.5,16.9,1.5c0.4,0,0.8,1.4,1.2,2.1l0,0c-2.3,1.2-4.1,3-5.3,5.4c-3.5,4.4-7.4,8.3-11.8,11.7
		c-6.8,3.7-14.8,3.3-20.9,1.3c-6.6-2.2-12.4-8.3-15.6-15.5C564,696.4,564.3,694.8,565.6,693.6z"/>
	<path class="st143" d="M565.6,670c0,1.3,0,2.6,0,3.9c-1.5,6-0.3,12-0.7,18c-0.2,2.3,0.7,4.8-0.7,7c-2.1-7.6-0.5-15.4-0.9-23.1
		c-0.3-5.4-0.3-10.8-0.5-16.2c-3-4.9-7.8-8.2-11.5-12.5c-1.7-1.9-4.2-3.3-4.8-6.1c0-0.9-0.1-1.9,0.6-2.6c9.9,2.7,20.9-0.8,30.2,5.2
		c6-0.4,11.2,2,15.8,5.5c3.7,2.9,7,5.7,12.2,3.8c2.1-0.7,4.9-0.6,5.4,2.8c-5.2,6-11.9,4.2-18.1,3.2c-7.7-1.2-15,1.9-22.6,1.6
		c-3.4-0.2-2.1,4.1-2.8,6.5C566.9,668.3,566.3,669.2,565.6,670z"/>
	<path class="st144" d="M564.3,699c0.9-8.3-1.5-16.8,1.4-25c0,6.6,0,13.1,0,19.7c-0.5,4,1.3,6.7,3.7,9.8
		c8.5,11.5,19.7,11.3,31.8,8.6c-2.9,4.6-7.5,1.9-11.3,2.6C576.7,717,570.6,707.7,564.3,699z"/>
	<path class="st81" d="M547.2,641.2c4,4.2,8.1,8.4,12.1,12.7c1.6,1.7,3.8,3,3.6,5.8c-0.8-0.5-1.6-1-2.4-1.6
		c-4.2-6.2-11.6-9.6-14.8-16.8l0.4-0.3C546.6,640.6,546.9,640.6,547.2,641.2z"/>
	<path class="st141" d="M612.9,700.3c0.2-3.3,2-5.1,5.3-5.4C616.9,697.2,615.2,699.1,612.9,700.3z"/>
	<path class="st145" d="M486.9,580.7c-8.6-5.5-15-12.1-13.3-23.6c0.8-5.5,0.3-11.3,0.4-16.9c0.8-0.3,1.5-0.1,1.9,0.6
		c2,5.8,0.8,11.7,1,17.6c-0.5,4.5,1.1,5.7,5.6,4.3c6.3-1.9,12.6-4.4,19.4-4.6c3.4-0.1,5.6-3.1,8.4-4.5c4.3-2.5,8.9-4.2,13.6-5.7
		c0.7,0.8,1.1,1.7,1.2,2.7c0.5,3.2-0.8,6.2-1.1,9.2c-0.2,1-0.5,2-1.1,2.9c-3.2,3.7-8.3,2.2-12,4.6c-4.8,3.1-9.9,5.1-15.8,5.1
		C490.2,572.5,488.7,577,486.9,580.7z"/>
	<path class="st146" d="M486.9,580.7c-0.9-4.9,1.9-9.4,6.8-10.1c5.1-0.8,10.3,0.6,14.7-4c3.5-3.7,9.4-2,13.9-4.1
		c1.7-0.2,3.2,0,4.3,1.4c0.3,3.3-1.7,5.3-3.8,7.4c-8.8,2.4-15.8,9.5-25.7,9.2c-3.7-0.1-4.4,2.3-1.8,5.1c2.7,2.7,5,5.7,7.2,8.9
		c0.1,0.3,0.1,0.6,0.2,0.9c0.4,0.8,0.8,1.7,1.2,2.5c-3,0.1-3.9-3.2-6.3-4.1C494.8,588.8,488.6,586.5,486.9,580.7z"/>
	<path class="st84" d="M475.1,540.2c-0.4,0-0.7,0-1.1,0c-0.6-7.1-1.6-14.3,6.2-18.5l0.2,0.2c1.1,1.5,0.5,3-0.5,4.1
		c-3,3.3-3.2,7.4-3.4,11.5C476.4,538.6,476,539.5,475.1,540.2z"/>
	<path class="st147" d="M637.8,671.3c0-0.4-0.1-0.9-0.1-1.3c1.5-3.6,0.4-7.3,0.7-10.9c0.4-6.4,6.8-10.6,12.6-8.3
		c3.3,1.3,4.6,8.1,2.1,12.2c-2.5,4.2-6.3,7.3-9.7,10.6C640.7,676.1,639.3,673.2,637.8,671.3z"/>
	<path class="st148" d="M637.8,671.3c2.4,1.9,4.4,3.1,6.6-0.6c1.5-2.5,4.1-4.5,6.3-6.5c3.5-3.1,3.6-6.8,1.6-10.6
		c-2.1-4-6.1-1.3-8.7-1.1c-3,0.2-4.7,3.7-4.8,7.5c0,3.3,1.4,6.9-1.2,10c-1.3-9-0.6-17.2,7.9-22.9c2.2-1.5,4-2.4,6.5-1.6
		c2.7,0.9,2.3,3.2,2.6,5.3c1.5,9.5-1.7,16.9-9.5,22.5C642.1,675.6,639,677.1,637.8,671.3z"/>
	<path class="st149" d="M560.4,468c0.2-1.8-0.6-3.9,1.3-5.2c6.8-3,14.1-3.1,21.3-3.5c2.8,5.5,9.3,8.5,10.1,15.3c0,0.9,0,1.7,0,2.6
		c-2.8,0-5.6,0.3-8.3,0c-4.1-0.4-7.5,0.6-10,4C565.6,481.6,559.2,475.9,560.4,468z"/>
	<path class="st150" d="M560.4,468c0.6,9,8.5,10,14.5,13.1c-8.7,10.6-19.1,9.7-28.9-2.7C549.6,473.5,554.9,470.6,560.4,468z"/>
	<path class="st151" d="M865.2,587.3c1.8,0,2.5-0.1,3.1,0c3.7,0.6,8.9-2,10.2,4c0.8,3.6-6.3,10.2-10.9,10.4c-4.3,0.2-8.7,0.3-13-0.1
		c-5.4-0.5-6.8-4.1-3.8-8.6C854.7,587.3,860.2,586.6,865.2,587.3z"/>
	<path class="st152" d="M560.4,595.2c0.1,4.8-2,7.2-7,6.5c-3.1-0.4-5.9,0.7-8.8,1.3c-8.9-2.5-18.1-1.1-27.1-1.2
		c-5-0.1-9.5,0.1-12-5.4c-0.3-0.7-1.8-0.8-2.8-1.2l-0.1-0.1c1.4-4.5,4.9-4.7,8.8-4.3c11.7,1.3,23.4,1.6,35.1,0.6
		C551.6,591,556.5,591.2,560.4,595.2z"/>
	<path class="st153" d="M547.2,641.2c-0.4,0-0.8-0.1-1.1-0.1c0-3.9,0-7.8,0-11.7c1.3-2-0.3-4.6,1.2-6.6c11.9-1.3,23.8-1.8,35.7,0.6
		c2.8,0.6,6-0.3,8.9-0.6c-0.4,2.2-0.9,4.4-1.3,6.6c-1.9,2.2-4.5,1.3-6.8,1.3c-9.4-0.1-18.9-0.3-28.3-0.7c-6.4-0.3-9.2,2.2-8.2,8.7
		C547.3,639.4,547.3,640.3,547.2,641.2z"/>
	<path class="st81" d="M547.3,622.8c-0.3,2.2,0.8,4.7-1.2,6.6c0-5.2,0-10.5,0-15.7c0.4,0,0.8,0,1.2,0
		C547.3,616.7,547.3,619.7,547.3,622.8z"/>
	<path class="st154" d="M311.2,667.4c-0.1-12.2,4.1-16.3,16.9-16.5c1.6,0,3.2-0.3,3.7-1.9c0.8-2.3,3.5-1.9,4.1-2.4
		c8-6.7,20.7-5.6,26.4-15.9c0.7,0,1.4,0.2,1.9,0c4.2-1.9,1.9,6.8,6.1,3.9c2.2-1.5,3.1-4.7,5.8-6c0.9-0.4,2.1-0.3,3.2-0.5
		c-5.5,3.1-3.7,8.4-4,13c-0.6,1-1.5,1.4-2.6,1.4s-2,0.3-2.6,1.3c-3.4-3.1-6.4-2.8-10.4-0.3c-5,3.2-9.7,7.2-16.5,7.1
		c-3.6,0-5.4,4.2-8.6,6c-3.4,1.8-6.4,2.9-10.1,2.9c-3.2,0-6,0.4-7.2,4.1C316.4,666.4,314.1,667.7,311.2,667.4z"/>
	<path class="st155" d="M372.8,642.5c0.9-0.5,1.8-0.9,2.6-1.4c0.5,0.1,1,0.1,1.5,0.2c-1.3,1.7-2.7,3.4-4,5.2
		c-0.4,0.1-0.8,0.1-1.2,0.1C372,645.2,372.4,643.8,372.8,642.5z"/>
	<path class="st156" d="M837.1,570.2c-3.7,1-8.1,3.4-9.8-2.2c-2.1-6.9,1.9-15.5,7-16.1c2.8-0.4,5.3,0.4,5.4,4
		C839.9,560.8,840.6,565.9,837.1,570.2L837.1,570.2z"/>
	<path class="st157" d="M561.8,373.6c6.1,0,12.2,0.6,18.2-0.2c9.8-1.4,16,3.2,21,10.7c1.1,1.3,0.6,2.6-0.6,3.3
		c-5.2,3-10,7.1-16.6,6.9c-2.2,0.1-4.4-0.2-6.4-1c-2.4-3.9-6-5.4-10.5-5.2c-3.9-2.3-8.3-3.6-12.5-5.3c1.1-3.8,4.9-5.3,7.1-8.2
		C561.5,374.2,561.6,373.9,561.8,373.6z"/>
	<path class="st158" d="M555.1,382.7c5.3-1.4,8.9,1.2,11.8,5.3c-1.3,1.8-2.6,3.5-3.9,5.3c-4.6,6.6-11,11.5-16.6,17.3
		c-1.2,1.2-2.8,1-4.3,0.9c-1.2-1.4-2.5-2.7-3.7-4.1c0-3.8,0-7.6,0-11.4c2.9-2.7,5.9-5.4,8.8-8.1
		C550.3,386.9,551.3,382.7,555.1,382.7z"/>
	<path class="st40" d="M555.1,382.7c-3,1.2-4.1,5.3-8,5.2c4.4-4.9,8.5-10.2,14.4-13.5C560.5,378.1,556.6,379.5,555.1,382.7z"/>
	<path class="st159" d="M577.4,393.2c1.8-1.2,3.5-1.2,5.2,0c3,3.4,6.1,6.7,10.2,8.7c4.3,2,8.4,5,13.6,1c3.4-2.7,5-0.3,4.5,3.5
		c-2.8,3.5-3.4,8.2-6,11.8c-12.3-2.3-25-2.9-36.8-7.9c2.1-3.2,4.7-5.8,7.9-7.9C580.9,400,578.4,396.5,577.4,393.2z"/>
	<path class="st160" d="M744,524.4c0,0.5,0,0.9,0,1.4c-6.6,7-13.1,14-19.7,20.9c-1.4,1.2-2.7,2.4-4.1,3.6
		c-6.3-2.6-10.1-7.9-14.3-12.8c-0.1-0.4-0.2-0.9-0.2-1.3c-0.1-2.9-6.1-3.9-3.2-7.1c4.6-5.2,12.2-5.8,16.9-3.4
		c4.3,2.3,9.1,2.1,13.6-0.1C736.5,523.9,740,521.9,744,524.4z"/>
	<path class="st161" d="M414.8,418.2c-1.9,0-3.9,0.2-5.8,0c-4.6-0.5-7.6-2.6-7.3-7.8c0.2-2.6-0.2-5.2,0.1-7.8
		c0.6-6.8-2-11.6-8.2-14.5c-3.6-2.4-6.3-5.7-8.9-9.1c0-0.5,0.1-1,0.1-1.5c2.5-0.1,4.8,1.4,7.7-0.7c2.7-1.9,5.9,0.2,8.3,2.2
		c2.8,2.4,5.3,3.1,8.8,0.9c3.3-2.1,6.7-1.8,9,2c0.7,2.2,0.7,4.2-1,6c1.1,4.8-2.3,8.6-2.7,13.1C414.2,406.8,414.1,412.5,414.8,418.2z
		"/>
	<path class="st162" d="M894.9,386.7c5.7,0,11.3,0,17,0c0.4,0,0.8,0.1,1.8,0.3c-2.3,4.5-5.1,7.6-10.4,5.7c-3.9-1.4-5.7,0.5-6.9,3.7
		c-1.3,3.5-3.2,4.2-7.4,4.1c-10.7-0.4-21.1,1.7-31.3,5.9c-5.9,2.5-12.7,2.7-19.2,3.9c-4.6,1.9-9.4,2.9-14.1,4.6
		c-3.7,1.3-7.2,1.1-10.1-1.9c-1.3-7.1-0.2-9.3,5.8-11.9c4.6-0.1,9,0.6,13-3.8c2.8-3.1,7.8-0.4,11.5,1.1c4.1,1.7,7.7,2,11-0.8
		c2.7-2.3,5.8-1.7,8.7-2.1c8.9-1.3,16.9-6.8,26.4-5C893.1,391,894.7,389.4,894.9,386.7z"/>
	<path class="st163" d="M820.1,401.1c-4.2,2.9-5.4,7-5.2,11.8c-1.5,4.5-5.4,4.3-8.9,4.3c-8.8,0.2-17.6-0.2-26.3,1.3
		c-2.2,0.4-4.8,1.5-6.2-1.6c0-3.2-0.3-6.5,2-9.3c3.7-4.2,7-8.6,13.9-5.5c2.7,1.2,6.5,0.8,7.2-4c0.4-3.2,3.2-2.1,5.1-2.4
		c0.4,0.2,0.9,0.4,1.1,0.7c3.1,7.5,7.9,8.9,14.5,4C818.3,399.8,819.4,400,820.1,401.1z"/>
	<path class="st164" d="M720.4,385.4c4.2-1.7,6.2-4.6,5.2-9.2c7,4.5,15.1-0.4,22.3,2.6c2.4,3.5,5.2,6.2,10,5.3
		c3.1-0.6,4.7,1.3,5.7,3.9c3.2,3.8,1.8,9,3.9,13.1c-8.9,4.2-18.2,2.2-27.3,1.2c-3-0.3-6-1-8.9-1.6c-2.6-1.3-3.3-3.5-3.1-6.2
		C724.3,392.7,721.4,389.9,720.4,385.4z"/>
	<path class="st165" d="M730.9,399.8c4.2-1.8,7.8,1.1,11.7,1.2c8.3,0.3,16.7,0.1,25,0.1c2.5,2.3,6.1,3.3,7.9,6.6
		c-0.1,3.1,0.5,6.3-1.3,9.2c-0.6,0.4-1.2,0.5-1.9,0.3c-7.2-2.1-14.6-1.3-21.9-1.3c-7.7,0-15-1-22.4-2.8c-0.9-1.2-1.2-2.6-1.2-4.1
		C727.9,405.8,726.2,401.4,730.9,399.8z"/>
	<path class="st166" d="M582.7,540.2c-0.4,4.8-0.9,9.6-1.3,14.4c-1.7,3.4-4.9,3.2-7.9,2.9c-4.1-0.5-8.2-0.8-12.2-1.5
		c-2.5-0.6-3.4-2.5-3.8-4.8c-0.7-4.5-3.4-7.9-6.5-10.9c-0.6-2.3,0-4.3,1.6-5.9c8.3,0.9,16.7-3.1,24.9,0.6
		C579.3,536.5,582.3,537.1,582.7,540.2z"/>
	<path class="st167" d="M577.4,534.9c-8.3-0.5-16.6,2.7-24.9,0c-2.5,1.3-5.1,2.9-6.6-1.3c1.2-2.1,3.2-3.8,2.6-6.6
		c4.5-1.9,9-3.3,13.7-0.9c3.5,1.8,6.1-1.4,9.1-2c6-1.3,12,1.3,17.8-1c2.4,1.7,0.7,3.5,0,5.2c-1.3,2.3-3.1,3.7-5.8,3
		C580.2,530.5,578.8,532.7,577.4,534.9z"/>
	<path class="st168" d="M581.4,579.5c-12.2,0-24.5,0.7-36.7-1.1c-4.4-0.6-8.7-1.7-13.2-1.6c-1.6-1.7-1.5-3.7-0.5-5.6
		c2.2-2.7,5.2-4.4,8.5-3.9c11.5,1.9,23,0.6,34.4,1c2.7,0.1,5.2,0.4,7.4,1.9l0,0C581.4,573.4,581.4,576.4,581.4,579.5z"/>
	<path class="st169" d="M581.4,570.3c-11.8,0-23.6,0.1-35.3-0.1c-4.9-0.1-10-2.5-14.5,1.4c-3.2,0.6-6.4,1.1-9.2-1.3
		c1.3-2.2,2.6-4.4,3.9-6.6c5.4-1.7,11.5-1.1,16.4-4.7c1-0.7,2.8-0.4,3.7,0.4c6.7,5.6,14,2,21.1,1.7c4.2-0.2,8.6-1.7,12.5,1.3
		c0.4,0.9,0.9,1.7,1.3,2.6C580.2,566.8,580.2,568.6,581.4,570.3z"/>
	<path class="st170" d="M580,562.5c-8,0-15.9,0.1-23.6,2.3c-2.4,0.7-4.9,0.7-7.1-1.7c-2.6-3-6.3-4.2-9.6-0.7
		c-4.2,4.4-9,1.3-13.5,1.4c-1.4,0-3,0.2-3.9-1.3c0-0.9,0-1.8,0-2.6c7.3-5.8,15.8-7.3,24.7-6.8c4.4,0.2,8.9,1.3,13.4,1.5
		c7-1.5,14,3.6,21,0c0.4,0.4,0.9,0.9,1.3,1.3C581.8,558.1,580.9,560.3,580,562.5z"/>
	<path class="st171" d="M252.1,377.7c6.7-0.1,13.5,0,20.2-0.2c3.8-0.1,5.2,1.5,4.7,5c-1,7,3.1,13.9,0.1,20.9
		c-0.8,1.8,0.3,3.8,1.2,5.6c-0.2,2.4-1.7,4.2-3.8,3c-4-2.3-7.3-0.6-11.1,0c-4.6,0.7-8-3.7-12.1-5.6c-0.8-1-1.8-2.3-1.5-3.5
		C251.9,394.6,251.4,386.1,252.1,377.7z"/>
	<path class="st172" d="M240.3,433.9c-3-2.5-5.6-5.1-5.7-9.6c0-4.7-3-7.4-7.5-8.6c-2.8-0.7-5.6-1.5-5.2-5.4c-0.1-11-1.5-21.9-4-32.6
		c5.3,0,10.5,0,15.8,0c1.4,1.1,2.6,2.5,2.7,4.3c0.6,9.7,1.7,19.2,9.1,26.5c0.1,1-0.1,2-0.6,3c-2.5,2.3-3.1,5-2.2,8.3
		c0.8,3.2,1.2,6.4,0.7,9.7C242.9,431.3,243.3,433.9,240.3,433.9z"/>
	<path class="st173" d="M244.2,411.6c0-0.9,0-1.8,0-2.6c2.4-1.7,4.7-3.3,7.9-2.6c1.8-0.1,3.7,0,4.9,1.2c3.6,3.5,7,4.2,11.1,0.7
		c1.8-1.5,3.8-0.2,5.1,1.4c2.2,2.7,3.6,0.7,5.2-0.8c2.4,2.8,5.2,4.4,9,4c2.3-0.2,4.3,0.2,5.4,2.6c0.4,0.5,0.6,1.1,0.4,1.8
		c-1.6,4.8-4.5,8.3-9.8,9.1c-2,0.3-3.4,1.8-5,2.9c-3.7,0.9-7.5-0.5-11.3,1.4c-2.8,1.4-5.3-0.8-6.8-3.5c-0.7-5.6-2.6-9.1-9.6-8
		C245.8,420,244.3,417.7,244.2,411.6z"/>
	<path class="st174" d="M252.1,406.4c-2.3,1.8-4.8,3.2-7.9,2.6c-0.1-0.6-0.1-1.7-0.4-1.8c-9.6-4.9-7.9-14.2-8.8-22.5
		c-0.3-2.3-0.9-4.7-1.3-7c6.1,0,12.2,0,18.3,0c1.9,7.6,2.7,15.1-0.8,22.5C250.2,402.4,252.1,404.2,252.1,406.4z"/>
	<path class="st95" d="M292.7,416.9c0-0.4,0-0.9,0-1.3c2.7-0.2,4.9,3.2,7.9,1.3c3,2.6,6.1,5.2,9.1,7.9c5.9,2.8,12.3,0.6,18.4,1.4
		c1.7,2.4,1.7,5.6-1.1,5.8c-7.5,0.8-13.5,6.3-21.2,5.9C291.8,437.3,287.8,431,292.7,416.9z"/>
	<path class="st175" d="M240.3,433.9c1.9-1.4,1.1-3.4,1.3-5.2c8.6-0.6,18.6,6,20.4,14.7c1.3,6,3.1,10,9.9,10.6
		c3.1,0.3,5.3,3.7,8.4,4.8c2.7,1.4,6.1,0.4,8.4,2.7c-0.5,6.7,0,13.3,2.6,19.7c-3.2-2.7-6.3-5.3-10.8-2c-1.7,1.3-3.4,0.5-3.6-1.9
		c-0.3-2.9-2.6-4.8-3-7.8c-0.4-2.8-3.8-6.2-5.7-5.4c-7.2,3-7.6-2.8-9.7-6.5c-2.4-8.8-12.8-8.9-17.1-15.7
		C242.1,439,240.7,436.5,240.3,433.9z"/>
	<path class="st176" d="M241.6,441.8c5,1.9,9.1,5.6,14.1,7.6c2.6,1,1.9,5.4,2.9,8.2c-1.3,1.8-0.8,3.6-0.1,5.6
		c3.6,10.8-1.5,15.6-13,12.8c-5.6-0.5-4.1-7.1-7.9-9.2c-4.6-7.6-4.3-15.6-1.3-23.6C238,442.2,239.7,441.6,241.6,441.8z"/>
	<path class="st177" d="M662.7,481.1c-6.2,2-10.7-1.9-15.4-4.6c-2.1-1.2-4.4-3-6.5-2.4c-6.1,2-8-1.5-9.6-6.1c0-2.2,0-4.4,0-6.6
		c-1.1-3.3,0.7-6.1,1.9-8.9c0.4-0.5,0.9-0.9,1.5-1.1c0.9-0.2,2-0.5,2.5,0.1c5.1,5.8,12.9,4.6,19.2,7.2c1,0.4,2.3,0.4,2.9,1.3
		c2.7,4.3,7.2,4.2,11.3,5c1.5,2.7-0.4,4.6-1.9,6.4c-1.7,2.1-2.8,4.4-3.3,7C664.8,479.7,664.1,480.7,662.7,481.1z"/>
	<path class="st178" d="M633.8,452.3c0,3.3-1.4,6.2-2.6,9.2c-3.3,0-6.6,0.3-9.8-0.1c-6.1-0.6-11.6,0.4-15.7,5.3
		c-1.7,2-3.8,2.6-6.3,2.9c-3,0.4-4.8,2.4-6.2,4.9c-1.5-2.3-3-4.6-5.4-6.2c-2.9-1.9-4.3-4.6-3.8-8.2c-3-2.3-3.5-4.4,0.4-6.2
		c4.5,0.3,8.4,2.7,13.1,2.8c5.1,0.1,7.5-1.8,9.2-6.2c2.6-7,3.3-7.2,9.6-3.2c2.9,1.8,5.4,3.2,8.9,1.1
		C629.4,446,631.1,450.7,633.8,452.3z"/>
	<path class="st179" d="M662.7,481.1c0.4-0.9,0.9-1.7,1.3-2.6c5.5-6.3,12.8-3.4,19.5-3.8c2.3-0.1,4.7,0.8,7,0.1
		c5,0.2,10,0.5,14.7,2.6c1,1.6,1.2,3.4,1.1,5.2c-0.5,2,0.4,4.8-3,5c-13.6,0.4-27.1,0.9-40.7,1.3
		C663.8,486.4,662.6,483.7,662.7,481.1z"/>
	<path class="st180" d="M748,496.9c-6.6-1.5-13,2.7-19.5,1.2c-7.9-1.8-16-0.4-23.8-2.5c0-2.2,0-4.4,0-6.6c2.8-2.5,6.4-1.7,9.4-1.4
		c13,1.3,26-1,39,0.2c1.5,0.6,2.4,1.8,2.7,3.4c0.2,1.2,0.1,2.3-0.3,3.4C753.7,497.9,751.4,499.2,748,496.9z"/>
	<path class="st181" d="M753.2,489c-8,0.5-16.3,1.9-23.8,1.4c-8.2-0.5-16.6,0-24.7-1.4c-0.4-0.4-0.9-0.9-1.3-1.3
		c1.9-1.4,1.1-3.4,1.3-5.2c4.2-3.1,9-3.5,13.7-2.6c9.6,1.8,18.9,1.7,28.2-1.3c2.3-0.7,4.7-0.9,7.1-0.7c0.7,0.2,1.2,0.6,1.6,1.2
		C756.3,482.8,755.6,486.1,753.2,489z"/>
	<path class="st182" d="M585.3,454.9c-4.3,0.8-2,3.2-1.3,5.3c-7.4,1.5-14.7,2.9-22.3,2.6c-1.9-5.1-3.2-10.8-10.5-10.5
		c3.2-2.9,4.3-7.9,9.2-9.2c7.1,0.5,14-0.7,21-1.3C587.7,444.6,585.8,450,585.3,454.9z"/>
	<path class="st183" d="M772.9,416.9c0.4,0,0.9,0,1.3,0c5.9,1.4,11.5-1.3,17.4-1.4c7.7-0.2,16,2.1,23.3-2.5
		c6.5,3.3,11.9-1.4,17.8-2.4c2-0.4,3.8-2.7,5.8-0.2c-0.4,1.3-0.9,2.6-1.3,3.9c-6.8,1.2-10.4,9.7-18.7,8c-2.8-0.6-4.3,2.5-6.2,4.1
		c-2.7,2.4-4.3,6.1-8.6,6.5c-7.6,1.5-15-1.3-22.5-1.2c-4.6,0.1-7.6-4.5-10.5-8C769.9,420.9,770.4,418.6,772.9,416.9z"/>
	<path class="st184" d="M804.4,431.3c4.2-2.1,6.4-6.3,9.8-9.2c2.1-1.8,3.9-3.6,6.7-1.2c1.1,1,2.8,1.4,3.4,0
		c2.4-6.1,8.1-5.4,12.9-6.6c2.8,2.4,3.9,5.9,5.2,9.2c-1.9,4-3.6,8.2-9.2,7.9c-1.7,1.6-3.9,1.9-6,1.8c-7.2-0.3-14.2,0.3-21,2.6
		C804.1,434.8,803.1,433.6,804.4,431.3z"/>
	<path class="st185" d="M805.7,435.2c8.5-6.4,18.3-3.1,27.5-3.9c0.4,3.1,0.9,6.1,1.3,9.2c-2.3,2.3-5.4,3.6-8.3,2.7
		c-5.7-1.7-10.6-0.5-15.5,2.2c-1.3,0.7-2.9,0.8-4.4,0.8c-7.8-0.2-15.5,0.6-23,2.6c-1.5,0.4-3,0.7-4.3-0.4c-1.7-2.5-1.4-5.3-1.1-8.1
		c0.9-3.8,3.6-5.3,7.1-5.4C791.9,434.6,798.8,434,805.7,435.2z"/>
	<path class="st186" d="M807,444.4c2.5,0.2,4.7-0.9,6.7-2.2c3.2-2.1,6.1-3.4,10.1-0.9c3.4,2.1,7.1-0.8,10.8-0.8c0,0.4,0,0.9,0,1.3
		c0,3.1,0,6.1,0,9.2c-3,2.5-6.6,3.9-10.2,3.7c-11.3-0.6-22.4,2.4-33.7,0.8c-1.5-0.2-3-0.1-4.5-0.6c-2.6-1.3-2-2.9,0.2-3.4
		c3.7-0.9,6.9-2.6,9.8-5c1.3-1.1,2.9-1.1,4.4-0.3C803.2,447.3,805,445.7,807,444.4z"/>
	<path class="st71" d="M286.2,609.7c0-1.7,0-3.5,0-5.2c2.5-0.4,5.2-0.4,7.5-0.7c4-0.6,9.3-1.3,9.7-7.6c0.2-2.8,1.6-5.4,3.8-7.4
		c4.9-1.5,8.9-1.3,13.9,1.8c3.3,2,10,1.3,15-0.5c1.3,3.4,7.8,2.4,6.6,7.9c-0.9,1.3-1.7,2.6-2.6,3.9c-2,10.8-13,17.2-23.3,13.4
		c-1.7-0.6-3.7-1.7-5-0.8c-6,4.2-12.7,0.6-18.9,1.8C290.1,614.6,287.9,612.4,286.2,609.7z"/>
	<path class="st187" d="M871.3,676.6c-8.7,0-17.4,0-26.1,0c-2.4,0-4.8-0.2-6.9-1.5c-2.3-1.3-2.7-3.4-2.2-5.6
		c0.7-2.8,2.8-1.7,4.7-1.6c9.3,0.2,18.4,0.1,25.7-7.1c2.5-2.5,5.8-0.7,8.7-1.2c1.4,4.8-2.4,8.6-2.6,13.1
		C872.1,673.9,871.7,675.2,871.3,676.6z"/>
	<path class="st35" d="M560.4,595.2c-8.1-3.5-16.5-1.2-24.7-1.6c-8.6-0.4-17.2,1.2-25.7-1.6c-2.6-0.9-4.9,1.9-7.3,3.1
		c-3.8-1.4-4.6-5.8-7.8-7.9c-0.2-1.3,0.6-2.3,1.7-2.3c6.8-0.5,13.6-2.3,20.5-1.5c2.9,3.1,6.7,1.7,9.7,1.1c5.1-1.1,9.7-0.5,14.5,1
		c1.4,0.5,3.2,0.8,4.5,0.4c6.8-2.3,11.4,0.8,15.3,6c5.2-7.3,13.1-1.2,18.9-4.6c0.4,2.2,0.9,4.4,1.3,6.6c-2.4,0-4.6-0.1-6.4,2.2
		c-3.3,4.4-7.1,4.9-10.2-0.2C563.3,593.7,562,594.5,560.4,595.2z"/>
	<path class="st188" d="M517.1,583.4c-6.9,4.5-15.1,1-22.3,3.9c-1-1.1-1.9-2.3-2.9-3.4c-2.8-2.8-1.6-3.9,1.7-4.4
		c2.1-0.3,4.2-0.9,6.3-1.2c4.7-0.8,9.6,0,12.8-5.5c1.6-2.8,6.7,0,9.7-2.4c3.1,0.5,6.4-1.2,9.2,1.3c0,1.7,0,3.5,0,5.2
		c-0.7,3.7-3.4,2.8-5.6,2.3C521.6,578,518.8,579.4,517.1,583.4z"/>
	<path class="st189" d="M475.1,537.5c-1.7-6.4,2.5-10.8,5.4-15.6c5.8,1.9,11.5-0.3,17.3-0.2c4.1,0,8-0.3,8,5.5
		c0,0.4,1.4,0.8,2.1,1.2c1.8,2.8,0.3,5.4-0.5,8.1c-3.1,4.8-6.2,9.6-13.3,7.4C488.3,540.3,482.5,536.4,475.1,537.5z"/>
	<path class="st190" d="M506.6,536.2c-0.5-2.8,0.9-5.2,1.3-7.9c4.7,2.6,7.5-3.3,11.8-2.6c-0.2,5.9,3.3,10.5,5.2,15.7
		c0.5,2.4,0.6,4.7-1.3,6.6c-2.7,5.5-8.8,4.2-13.1,6.6C504.7,549.2,503.6,543.6,506.6,536.2z"/>
	<path class="st191" d="M523.6,548c0.3-2.2-0.9-4.7,1.3-6.6c1.8-0.9,3.6-1.7,5.6-1c4.2,1.5,7.6,0.9,9.4-3.8c1-2.8,4-2.1,6-3.1
		c1.8,2.2,4.3,1,6.6,1.3c0.2,1.9-0.4,3.6-1.3,5.2c0.6,1.1,0.1,2.7-0.7,2.8c-6.2,1-9.6,8.3-16.7,7.4c-3.3-0.4-6.7,1.5-10.1,0.2
		C523.6,549.8,523.6,548.9,523.6,548z"/>
	<path class="st192" d="M748,496.9c2.5,0,5.2,0.4,6.6-2.6c9.2-3.4,18.5-2.6,27.7,0.1c3.5,4.2-0.6,5.6-2.8,7.8
		c-5.7,1.3-11.4,3.5-17.2,3.7s-9.7,2.6-13,6.8c-1.9-1.6-1.5-5.5-5.2-5.2C746.2,504.2,742.8,498.9,748,496.9z"/>
	<path class="st120" d="M292.8,616.2c8-2.2,16.3-4.1,24.3-2.6c6.3,1.2,16.1-0.7,19.5-6.3c1.1-1.9,2.3-3.7,3.4-5.5
		c4.5,3.4,1.2,9.2,3.9,13.1c-0.9,1.5-1.6,4-2.8,4.2c-5.9,1.2-10.2,2.6-11.9,10c-0.8,3.7-7.3,0.2-11.3,0.2c-1.4,0-3-1.5-4.3-1.2
		C303,630.6,298.3,622.6,292.8,616.2z"/>
	<path class="st96" d="M305.9,436.5c3.7-0.6,7.6-0.7,10.4-4.1c1.7-2,4.5-1.3,6.8-1.1c4,0.3,5.6-1.3,5.1-5.2c1.9-0.1,4,0.2,5.8-0.2
		c8.6-1.7,8.6-1.8,8.6,7.4c0,0.6,0,1.3,0,1.9c0,1.3,0,2.6,0,3.9c-4.5-0.6-8.9-2.8-13,2.2c-2.5,3-7,0.2-10.6,0.5
		c-0.9-1.9-2.5-3.3-4.6-2.2c-3.1,1.7-5.7,0-8.6-0.4C305.2,438.3,305.1,437.4,305.9,436.5z"/>
	<path class="st193" d="M417.4,388c0-2.2,0-4.4,0-6.6c-2.2-3.2-1.1-6.2,0.6-9.2c4.2-3.2,8.3-3.6,12.1,0.5c1.6,1.8,3.4,2.4,5.8,2.3
		s4.7,0.5,6.4,2.5c0,1.4-0.2,3,1.3,3.9c0,5-1.2,8.8-7.4,9.3c-5.4,0.4-2.2,5.1-3.1,7.7C426.3,397.4,423.6,390.1,417.4,388z"/>
	<path class="st194" d="M418.7,372.3c-0.4,3.1-0.9,6.1-1.3,9.2c-3-1.4-5.9-2.5-8.6,1c-1.9,2.5-4.4,1.9-6.8,0
		c-3.6-2.9-6.6-8.1-12.2-2.2c-1.6,1.7-3.1-2.3-5.2-2.7c-2.4-3.2-1.3-5.3,1-8.6c8.2-12.1,20.2-9.8,31.7-9.7
		C420,363.3,419.7,367.7,418.7,372.3z"/>
	<path class="st195" d="M418.7,372.3c-2.3-4.2-0.9-8.7-1.4-13c5.6,0,11.3-0.1,16.9-0.1c9.8,0,9.8,0,16.6,8.7c-4.7,1.7-7.3,5-8.5,9.7
		c-3.1,0.2-6.1-2.2-9.4-0.3c-0.9,0.5-2.5-0.1-2.8-1.1C428.1,369.4,423.2,371.6,418.7,372.3z"/>
	<path class="st196" d="M610.2,655.6c-1.5-1.9-4-1.9-5.3-1c-4.4,3.1-7.9,1-10.4-2c-4.6-5.5-11.7-5.4-17.1-8.9
		c6.2-5.9,13.9-4.1,20.8-2.9c4.1,0.7,7.7,1.5,11.8,0.4c4-1.1,8.1-0.5,11.9,1.2c0,3.9,0,7.9,0,11.8
		C618.5,658.7,614.3,656.5,610.2,655.6z"/>
	<path class="st144" d="M565.6,670c0-0.9,0-1.8,0-2.6c8.6-3.4,17.4-4.9,26.6-2.7c5.7,1.4,11.1,1.3,16.4-1.8
		c4.3-2.6,8.8-3.9,13.5-0.8c0,1.3,0,2.6,0,3.9c0,2.6,0,5.3,0,7.9c-8.7-2.7-17.3,3-25.9,0.3c-6.7-2.1-13.1-4.9-20.6-1.4
		C573.8,673.6,569.7,669,565.6,670z"/>
	<path class="st106" d="M622,662.1c-5.5-0.3-10.9-0.3-15.2,4c-1.6,1.5-3.6,1.4-5.5,1.3c-6.9-0.7-13.8-2.1-20.7-2
		c-4.9,0.1-9.8,2.8-15,2c0-8.6,0-8,8.8-8.6c3.9-0.2,8.3,0.6,11.9-2.2c1.6-1.3,3-0.6,4.8,0.1c6.5,2.5,13,2.7,19.1-1.1
		c3.9-1.2,8.1,1.1,11.8-1.3C622,656.9,622,659.5,622,662.1z"/>
	<path class="st197" d="M273.1,492.9c0,1.3,0,2.6,0,3.9c-0.3,5,1.8,10.7-4.7,13.8c-1.7,0.8-1.5,3.8-2.1,5.9
		c-0.9,3.1-2.3,6.1-6.3,6.5c1.5-8.1-5.7-13.7-6.2-21.3c0-0.6-1.5-1.6-1.7-1.5c-7.3,4.5-8.3-3.1-11.7-6c0.5-3.2,3.7-5.6,2.6-9.2
		c2.5-0.2,4.5,1.1,6.7,2.2c4.4,2.1,8.7,4.4,14.1,2.7C267.1,488.8,270.4,490.4,273.1,492.9z"/>
	<path class="st198" d="M288.8,461.5c-3-0.5-6.4,1.2-9.2-1.3c-1.6-3.3-4.3-5.2-7.5-6.6c-8.6-3.8-14-17-10.8-26.2
		c2.9,2.5,5.8,3.5,9,0.3c3-3.1,5.1,2.5,8.1,1c0.5,0.4,1,0.9,1.1,1.5c1.4,12.2,9.5,18,20.2,21.2c0.4,0.1,0.7,0.5,1,0.8
		c0,2.2,0,4.4,0,6.6C296.7,459.7,292.8,460.6,288.8,461.5z"/>
	<path class="st199" d="M300.6,452.3c-12.8,0-22.2-10.1-22.3-23.6c0.1-1.6,0.7-3.5,2.2-3.5c6.4,0.4,9.1-4.1,12.2-8.3
		c0,1.3-0.1,2.6,0,3.9c0.3,3.2-3.2,7.1-0.6,9.2c3.8,3.2,8,6.9,13.7,6.6c0,0.9,0,1.7,0,2.6c-1.8,2.3-3.2,4.8-2.6,7.9
		C302.4,448.8,301.5,450.5,300.6,452.3z"/>
	<path class="st200" d="M602.3,430c0.4-3.6,1.2-7.1,2.6-10.5c4.1-4.6,9.5-2.7,13.9-1.5c4.4,1.1,8.8,2.3,13.2,3.1
		c2,0.9,3.3,2.4,4.1,4.3c0.9,3.7,1.6,7.4,1.3,11.3c-0.6,1.6-1.9,2.5-3.5,3c-8.2,0.4-16.3-0.1-24.3-2.6c-1.7-1.3-3.5-2.5-5.5-3.2
		C602.5,433.2,600.9,432.2,602.3,430z"/>
	<path class="st201" d="M632.5,422.1c-4.7-0.1-9-0.4-13.6-2.4c-3.9-1.7-9.3-2.1-13.9-0.2c0-0.4,0-0.9,0-1.3
		c0.2-4.6,0.6-9.2,5.2-11.8c2.1-1.9,4.7-2.4,7.5-2.2c6.2,1.8,11.5,5.3,16.5,9.2C634,416.3,633.2,419.2,632.5,422.1z"/>
	<path class="st202" d="M602.3,430c0.8,4.3,7.7,1.4,7.9,6.6c-3.7,3.4-7.8,6.4-12.7,7.7c-5.8,1.5-11.7,1.4-16.2-3.7
		c0.6-3.9-1.4-6.6-3.9-9.2c0.2-1.1,0.3-2.4,1.7-2.3C586.9,429.2,594.6,429.6,602.3,430z"/>
	<path class="st203" d="M581.4,440.5c8.3,4.1,16.2,4.1,23.5-2.1c1.6-1.3,3.3-2.1,5.3-1.9c5.1,0.8,10.5-0.2,15.4,2.3
		c2.6,1.3,5.6-4.3,8.2,0.4c3.4,4.4,2.4,8.7,0,13.1l0,0c-4.6,3.6-3.8-5.2-7.1-3.3c-2.5,1.5-4.2,4.6-7.6,1.8
		c-5.8-4.8-10.4-6.9-12.3,3.6c-0.6,3.1-4.1,4.6-8.4,4.1c-4.7-0.5-9.2-0.5-13.1-3.6c-2.8-3.9,0.5-9.7-3.9-13.1
		C581.4,441.3,581.4,440.9,581.4,440.5z"/>
	<path class="st204" d="M779.4,502.1c1.1-2.3,1.7-4.9,3.9-6.6c2.1-3.8,5.9-2.4,8.8-2.2c6.6,0.5,12.9-0.2,19-3
		c4.2-1.9,8.8-2.1,13.3-2.6c1.9-0.2,4.6-0.8,4.8,2.6c-1.8,2.9-1.2,6.1-1.3,9.2c-3.5-0.2-6.9,0.5-10.4-0.6c-2.5-0.8-5.6,0-6.5,1.7
		c-3.6,6.8-10.3,5.3-15.8,6.8c-0.1-1.9-1.3-4.3-2.8-3.6C787.5,506.1,783.8,502.2,779.4,502.1z"/>
	<path class="st205" d="M829.3,490.3c-5.9-2.8-11.9-0.6-16.8,1.6c-8.9,3.9-17.6,3.6-26.7,2.8c-0.8-0.1-1.6,0.6-2.4,0.9
		c-9.6-1.8-19.2-1.3-28.9-1.3c0-0.9,0-1.7,0-2.6c3.6-2.9,7.6-3.3,12.1-3.8c11.4-1,23.2,0,33.6-6.6c1.7-1.1,3.6-1.7,5.5-0.2
		c2.3,1.7,5.3,1.1,6.6-0.5c6.5-7.9,14.7-3.3,22.3-3.5c1.8,2.2,0.2,4.4,0,6.6C834.3,487.1,832.3,489.1,829.3,490.3z"/>
	<path class="st206" d="M784.7,453.6c16.7,0.3,33.3,0.1,49.8-2.6c0,0.4,0,0.9,0,1.3c-0.9,1.7-1.7,3.5-2.6,5.2
		c-7.5,4.5-16,5-24.3,5.6c-5.8,0.4-11.7,1.5-17.6,0.6c-1.8-0.3-3.4,0.4-4.8,1.6c-7.7,6.7-18,7.1-27,10.7c-1,0.4-2.1-0.1-3.2-0.5
		c-2.2-1.4-3-3.8-3.7-6.1c0-1.1,0.7-1.9,1.5-2.5c7.4-3.9,14.3-8.8,23.3-8.8C779.6,458.1,781.2,453.8,784.7,453.6z"/>
	<path class="st207" d="M754.5,474.6c10.2-3.4,21.9-3.1,30-11.9c1-1.1,2.3-1.2,3.6-1.2c13.1,0.8,26.2,0.4,38.8-3.7
		c1.5-0.5,3.4,0.9,5-0.2c0.1,2.7,2,2.6,3.9,2.6c0,0.9,0,1.7,0,2.6c-0.4,6-5.2,4.6-8.7,5.2c-8.6,1.6-17.7,1.2-25.4,6.6
		c-5.5,4.3-11.9,4.8-18.5,4.5c-6.9-0.3-13.7-0.6-20.6,1.3c-2.7,0.7-6.1,1.8-8.2-1.8l0,0C753.4,477.2,753.4,475.9,754.5,474.6z"/>
	<path class="st208" d="M754.5,478.5c3.4,2.1,7.5,0.8,9.9-0.4c6.2-2.9,12.3-1.2,18.2-0.8c6.7,0.5,12.7-2.3,19.1-2.8
		c0.9,2.4,4.8,3,3.9,6.6c-0.2,0-0.5-0.1-0.6,0c-9.8,7.4-21.8,6.9-33.1,8.6c-5.7,0.8-11.7,0.6-17.4,1.9c0-1.1-0.3-2.1-1.3-2.6
		C753.6,485.5,754.1,482,754.5,478.5z"/>
	<path class="st209" d="M730.9,399.8c-2.1,2.7-1.2,6.3-2.6,9.2c-3.5,1.5-7.8,1.7-9.3,6.1c-0.1,0.4-0.6,0.6-1,0.8
		c-3.5,2.3-16.5,1.5-20.3-1.3c-5.3-6-12.5-8.4-20.1-10c-2.8-0.6-5.9-0.5-4.4-4.9c8.3-0.1,16.7,0.2,24.5-3.5c2.5-1.2,4,0.2,5.2,2.5
		c0.8,1.6,1.7,4.5,4.1,2.9c6.5-4.5,14.9-2.7,21.3-7.1C729.2,396.3,730,398,730.9,399.8z"/>
	<path class="st210" d="M614.1,392c17.9,0,35.8,0,53.8,0c0.4,0.9,0.9,1.7,1.3,2.6c-0.7,3.3-3.9,4.7-5.6,7.3
		c-1.6,3.7-4.3,4.1-8.2,4.5c-9.4,0.9-17.9-5.5-27.6-2c-3,1.1-6.6-1.5-10-2.2C614.5,399.5,614.4,395.7,614.1,392z"/>
	<path class="st139" d="M662.7,399.8c2.2-1.7,4.4-3.5,6.6-5.2c2.4,1,2.8,3.3,3.9,5.2c0.1,1.6,0.9,3.8,2.3,3.4
		c6.4-2.1,10.4,2.5,15.3,4.7c1.2,0.5,2.4,1.1,3.7,1.1c4-0.1,3.7,2.7,3.7,5.3c-0.8,2.8-2.9,4-5.6,4.5c-7-2.3-13.8-5.5-21.6-2.5
		c-2.4,0.9-5.5,0.2-8.3-0.3c-0.6-0.5-0.9-1-1.2-1.7C659.9,409.2,661.9,404.5,662.7,399.8z"/>
	<path class="st40" d="M614.1,392c4.2,1.8,1.3,6.7,3.9,9.1c1,1.3,1.1,2.6,0,3.9c-2.6,0.4-5.1,1.8-7.9,1.3c-0.3-1.5-0.7-4.9-2.2-2.9
		c-4.2,5.8-8.8,3.5-13,1.4c-5.1-2.6-11.4-4.4-12.4-11.6c7.1-1.1,13.3-4.1,18.4-9.2C605.6,386.3,607.5,393.1,614.1,392z"/>
	<path class="st211" d="M506.6,536.2c-0.8,6.6,1,12.6,3.9,18.4c-3.1,3.9-6.7,5.3-12,5.6c-5.6,0.2-11,3-16.5,4.6
		c-4.4,1.3-8.2,1.7-6.9-5c7.7-4,12.9-10.7,18.3-17C499.9,544.7,502.8,539.5,506.6,536.2z"/>
	<path class="st212" d="M523.6,550.7c3.2-2.1,7.3-2.1,10.6-2.1c4.3,0,7-0.1,8.1-4.8c0.3-1.5,1.5-2,3-1c3.4,2.4,4.4-0.7,5.9-2.6
		c5.9,0.5,6.2,5.7,7.8,9.7c0.6,1.5-0.3,3.5,1.4,4.8c-2.6,2.4-6.1,1.9-8.6,1.1c-10.7-3.6-19.8,1.9-29.4,4.1
		C522.8,556.8,523.2,553.7,523.6,550.7z"/>
	<path class="st213" d="M493.5,542.8c-3.7,8.3-8.4,15.5-18.3,17c0-6.5,0-13.1,0-19.6c0-0.9,0-1.8,0-2.6
		C480.5,534.3,488.3,536.5,493.5,542.8z"/>
	<path class="st214" d="M692.9,418.2c1.7-1.3,3.5-2.6,5.2-3.9c5.6,4,11.7-0.7,17.4,1.2c1.2,0.4,2.9-0.7,3-2c0.8-7.1,5.6-4.9,9.7-4.4
		c0,1.3,0,2.6,0,3.9c1.3,1.5,1.5,3.2,0.7,5c-4.4,1.9-8,4.1-9.1,9.6c-0.6,3.3-4.6,3.7-7.7,3.3c-3.5-0.4-7-0.6-10.2,1.3
		c-2.1,0.6-4,0.7-5.6-1.1C697.1,426.2,691.4,423.2,692.9,418.2z"/>
	<path class="st215" d="M728.3,418.2c0-1.7,0-3.5,0-5.2c1.7-0.2,3.5-1.1,5-0.6c11,3.3,22.2,1.2,33.2,2c2.3,0.2,5.5-1.4,6.3,2.6
		c-0.4,2.2-0.9,4.4-1.3,6.6c-9.4,2.4-18.9-0.1-28.3,0.6c-3.6,0.3-7.4,1.2-11,0.2C730.1,422.8,726.7,422.1,728.3,418.2z"/>
	<path class="st216" d="M261.3,427.3c0.3,6.2,1.3,12.1,4.2,17.7c2,3.8,4.4,7,8.8,7.8c4.2,0.7,5.9,3.1,5.3,7.3
		c-4.8-2-8.7-6.1-14.5-6.1c-2.1,0-3.9-1.9-3.8-4.6c0.4-9.6-5.2-14.7-13.2-18c-2.2-0.9-4.3-1.9-6.5-2.8c1.1-3.7-0.5-7.2-1.1-10.7
		c-0.5-2.8-1.4-6.5,3.7-6.3c1.4,5,3.5,7.7,9.6,5.6C259.1,415.4,261.2,418.8,261.3,427.3z"/>
	<path class="st217" d="M633.8,452.3c0-4.4,0-8.7,0-13.1c0.9-0.9,1.7-1.8,2.6-2.6c1.8-1.7,4-1.7,6.1-1c6.7,2.3,14,1.9,20.6,4.6
		c3.4,1.4,7.3,1,10.9,1.7c3,1,4,4.2,6.3,5.9c3.4,3.8,0,7.2-0.5,10.8c-0.8,5.4-5.9,5-9.3,6.9c-4.9,1.5-8.2,0.2-12.3-3.5
		c-2.8-2.4-8-5.9-13.4-3.5c-2,0.9-3.7,0.7-4.6-1.9C639.3,453.5,637.1,452,633.8,452.3z"/>
	<path class="st218" d="M670.6,465.4c0.3-2,0.9-4.2,3.4-3.4c3.3,1.1,3.4-1.6,4.4-3.2c6,0.2,11.8,0.9,17.5,3c0.8,5.8-2,10.1-5.7,14.1
		c-1.2,1.4-2.4,2.2-4.4,1.5c-7.4-2.6-14.7-1.3-21.8,1.1C662.7,472.4,669.4,470.3,670.6,465.4z"/>
	<path class="st219" d="M690.2,475.9c0.9-5.1,4.8-9.2,5.2-14.4c2.2-2.1,4.6-1.1,7-0.5c4,1.7,7.3-1.7,11.2-1.6
		c2.9,0.1,5.6-0.4,7.6,2.3c2.3,3.1,5,2.4,8.1,1.4c5.9-2,11.8-4.7,18.3-2.5c1.9,2.4,4.9,4,5.5,7.3c-0.4,0.4-0.9,0.9-1.3,1.3
		c-6.2,3.1-12.9,5-19.3,7.6c-2.2,0.9-5,1.3-7.1,0.5c-7-2.7-13.9-1.3-20.9-0.2C699.6,479.3,695.1,475.8,690.2,475.9z"/>
	<path class="st220" d="M704.7,477.2c3.4-3,8.1-2.6,12.1-4.4c2.8-1.3,3.8,3,7.1,3.3c6.8,0.6,12.6-2.2,18.3-4.7
		c3.4-1.5,6.4-1.9,9.8-2.1c2.4,1,2.7,3,2.6,5.2c0,1.3,0,2.6,0,3.9c-11.9,3.4-23.8,6.6-36.3,2.8c-4.5-1.4-9,1.3-13.5,1.2
		C704.7,480.7,704.7,478.9,704.7,477.2z"/>
	<path class="st221" d="M732.2,423.4c9.1-0.9,18-2.4,27.2-0.2c3.9,1,8.1-3.2,12.2,0.2c2.1,1.7,4.8,2.5,6.3,5.2
		c0.9,1.6,3.2,3.4,5.5,1.4c2.1-1.8,3.6-0.9,5.7,0.2c4.8,2.4,10.2,0.6,15.3,1.1c0.4,1.3,0.9,2.6,1.3,3.9c-6.6,2.9-13.4,0.7-20.2,1.3
		c-2.9,0.3-5.7,0.1-6.1,4c-0.9,1.7-2.2,1.9-3.9,1.4c-4.1-1.3-8.1-1.3-11.9,1.2c-1.3,0.9-3.1,1.4-4.3,0.2c-5.1-5.1-11.6-3.8-17.7-4.5
		c-3.1-0.3-6.7,0.9-9-2.5c-0.8-1.7-1.5-3.4-2.6-4.9C729.7,428.4,728.3,425.2,732.2,423.4z"/>
	<path class="st222" d="M733.5,435.2c2.1,4,6.1,1.7,8.7,1.7c4,0.1,8,1.4,12.1,0.9c0.4-0.1,1.1-0.2,1.3,0c4.1,7.1,9.4,2.1,14.1,1.1
		c3.6-0.8,6.3,2.9,9.8,1.4c0,2.6,0,5.2,0,7.9c-9.6,2.9-18.5,9.3-29.3,6.9c-7.9-2.4-14.9-6.1-17.8-14.6
		C731.6,438.5,729.8,436.3,733.5,435.2z"/>
	<path class="st223" d="M749.3,453.6c7.1-0.4,14.5,1.7,20.7-4.6c1.7-1.7,6.2-0.5,9.5-0.7c8.8-4.2,18.2-4,27.5-3.9
		c-1.6,3.5-3.1,7.4-7.5,2.5c-0.6-0.7-1.8-0.6-2.2,0.2c-2.8,4.8-8.2,4.7-12.5,6.5c-3.2,4.4-6.9,6.9-12.8,6.8c-4-0.1-8.5,1.1-11.6,4.8
		c-1.7,2-4.6,2.2-7.1,2.8c-2.4-1.7-5.3-2.9-5.3-6.6C748.5,458.8,747.4,456,749.3,453.6z"/>
	<path class="st224" d="M674.5,443.1c-6.8,0.1-13.1-2.3-19.6-3.4c-6.1-1-12.1-3.3-18.5-3.2c-0.4-3.5-0.9-7-1.3-10.5
		c7.8-0.3,15.6,0.5,23.4-0.4c2.8,1.4,5.6,2.7,7.5,5.4c1,2.3,2.9,3.7,4.9,5.1C673.3,437.7,675.6,439.6,674.5,443.1z"/>
	<path class="st225" d="M658.8,426c-3,2.2-6.2,4.2-9.8,1.3c-2-1.6-3.6-0.5-5.3,0.4c-3.3,1.7-6.1,1.3-8.5-1.6
		c-0.9-1.3-1.7-2.6-2.6-3.9c-1.9-3-1.3-5.6,1.3-7.9c0.3-0.3,0.6-0.8,1-0.8c9.4-0.5,18.7,0.4,27.9,2.1c0.4,0,0.9,0,1.3,0
		C665.5,420.7,660.7,422.7,658.8,426z"/>
	<path class="st226" d="M662.7,415.5c-9.7,2.1-19.2-0.9-28.9-1.3c-5.2-3.1-10.5-6.1-15.7-9.2c0-1.3,0-2.6,0-3.9
		c6.2,1.1,12.3,1.8,18.5,0.1c2.2-0.6,4.8-0.3,6.3,2.2c0.9,1.5,2.6,2.2,3.9,1.4c3.5-2,6.5-1.5,10.1,0c4.5,2,3.9-3.2,5.8-5
		C662.7,405,662.7,410.3,662.7,415.5z"/>
	<path class="st227" d="M658.8,426c-1-4.9,5.2-6.2,5.2-10.5c9.9-2,19.8-4.7,28.9,2.6c0.5,4.2,6.5,6.6,3.9,11.8
		c-2,0.8-3.3-0.7-4.7-1.6c-2.6-1.8-5.1-3.8-7.8-0.2c-0.4,0.5-1.2,1.1-1.7,0.9c-6.4-3.8-11.5,1.9-17.3,2.2
		C663.5,429.1,659.5,429.6,658.8,426z"/>
	<path class="st228" d="M665.3,431.3c5.2-1.8,9.2-8.7,16-3.8c0.4,0.3,1.5,0.4,1.7,0.2c6.5-10.5,9.2,1.6,13.8,2.2
		c1.4,1.9,3.4,1.1,5.2,1.3c5.2,1.3,7.6,4.2,6.1,9.7c-1.4,2.3-3.8,3.1-6.1,3.2c-7.6,0.4-15,2.2-22.3,4.2c-3.8,0.3-3.3-3.7-5.2-5.2
		c-1.4-2.9-2.6-5.9-6.3-6.7C665.5,435.8,665.3,433.5,665.3,431.3z"/>
	<path class="st229" d="M707.3,440.5c1.5-4.9-3.3-6.2-5.2-9.2c2.5-5,6.7-2.1,10.1-2c3.4,0.1,7,0.3,7-4.3c0-6.8,3.9-7.5,9.2-6.8
		c-0.1,2.8,3.4,2.9,3.9,5.2c-1.3,2.5-1.3,5.2-1.3,7.9c-6.3,1.4-7.9,7.8-12.1,11.4C714.5,444.6,710.3,445.6,707.3,440.5z"/>
	<path class="st230" d="M707.3,440.5c3.6,3.1,7.7,2.1,11.8,1.3c3,4.6,1.8,9.7,1.2,14.6c-0.3,2.6-2.4,4.1-4.7,2.3
		c-3.6-2.8-6.1-2.4-8.5,1.4c-1.1,1.7-3.2,2.2-5.1,2.8c-2-1.2-4.3-1.5-6.6-1.3c-6,1.3-11.6-0.1-17.1-2.6c-0.9-3.7,4.1-6.6,1.3-10.5
		c4.6-3.8,9.8-5.4,15.7-5.3C699.6,443.2,703.6,442.7,707.3,440.5z"/>
	<path class="st231" d="M702,462.8c1.5-2.8,4.7-4,6.1-7.3c1.3-3.2,4.7-2.4,6.8,0.4c0.8,1,1.3,2.6,2.8,2.3c2-0.5,1.3-2.5,1.3-3.9
		c0.1-4.1,0-8.3,0-12.4c0.2-4.8,5.1-6.6,6.6-10.7c0.8-2.1,3.4-0.6,5.2,0.2c2.7,0.1,2.6,2,2.6,3.9c-3.2,3.5,1.5,4.6,2,6.9
		c1.5,7.8,8.8,8.1,13.8,11.4c-0.8,2.6,3.2,5.9-1.3,7.9c-7.1-0.5-13.7,1.3-20.1,4.1c-2.2,1-4.6,2.2-6.3-0.6c-3.9-6.8-9.4-4.1-14.2-2
		C705.2,463.9,703.8,463.5,702,462.8z"/>
</g>
</svg>
