<?xml version="1.0" encoding="utf-8"?>
<!-- Generator: Adobe Illustrator 25.1.0, SVG Export Plug-In . SVG Version: 6.00 Build 0)  -->
<svg version="1.1" id="Camada_1" xmlns="http://www.w3.org/2000/svg" xmlns:xlink="http://www.w3.org/1999/xlink" x="0px" y="0px"
	 viewBox="0 0 1080 1080" style="enable-background:new 0 0 1080 1080;" xml:space="preserve">
<style type="text/css">
	.st0{fill:#A568A2;}
	.st1{fill:#DC9B93;}
	.st2{fill:#593F8D;}
	.st3{fill:#5E418E;}
	.st4{fill:#64408D;}
	.st5{fill:#C44A6F;}
	.st6{fill:#C03C76;}
	.st7{fill:#C85E7D;}
	.st8{fill:#C23F7B;}
	.st9{fill:#C2418B;}
	.st10{fill:#C65071;}
	.st11{fill:#C85D78;}
	.st12{fill:#C24873;}
	.st13{fill:#C75F81;}
	.st14{fill:#CD7078;}
	.st15{fill:#C24569;}
	.st16{fill:#C03A74;}
	.st17{fill:#8A468F;}
	.st18{fill:#C75A73;}
	.st19{fill:#A1629E;}
	.st20{fill:#C24777;}
	.st21{fill:#7F4D92;}
	.st22{fill:#613F8D;}
	.st23{fill:#C65361;}
	.st24{fill:#C24288;}
	.st25{fill:#A4649F;}
	.st26{fill:#CE7169;}
	.st27{fill:#C9648E;}
	.st28{fill:#C34260;}
	.st29{fill:#CA616A;}
	.st30{fill:#C9778F;}
	.st31{fill:#C85F7B;}
	.st32{fill:#C7525A;}
	.st33{fill:#734890;}
	.st34{fill:#C34366;}
	.st35{fill:#774A90;}
	.st36{fill:#6B458F;}
	.st37{fill:#6E458F;}
	.st38{fill:#BE408D;}
	.st39{fill:#C44E70;}
	.st40{fill:#653E8C;}
	.st41{fill:#CA648A;}
	.st42{fill:#D07479;}
	.st43{fill:#C65365;}
	.st44{fill:#CC6E8D;}
	.st45{fill:#C24479;}
	.st46{fill:#CC798D;}
	.st47{fill:#C86281;}
	.st48{fill:#6B3E8C;}
	.st49{fill:#C24284;}
	.st50{fill:#C86283;}
	.st51{fill:#A166A0;}
	.st52{fill:#C03F81;}
	.st53{fill:#C65771;}
	.st54{fill:#B9428D;}
	.st55{fill:#91448E;}
	.st56{fill:#915697;}
	.st57{fill:#693F8D;}
	.st58{fill:#7B418C;}
	.st59{fill:#73408C;}
	.st60{fill:#CB6B76;}
	.st61{fill:#B5428E;}
	.st62{fill:#723F8B;}
	.st63{fill:#99438E;}
	.st64{fill:#C7545D;}
	.st65{fill:#C16593;}
	.st66{fill:#77408C;}
	.st67{fill:#9F5E9D;}
	.st68{fill:#6E3F8C;}
	.st69{fill:#8D5496;}
	.st70{fill:#845095;}
	.st71{fill:#A1448F;}
	.st72{fill:#C56591;}
	.st73{fill:#A8438E;}
	.st74{fill:#80428E;}
	.st75{fill:#875396;}
	.st76{fill:#CB6587;}
	.st77{fill:#D07B7A;}
	.st78{fill:#A9629C;}
	.st79{fill:#AD438E;}
	.st80{fill:#B1428D;}
	.st81{fill:#794A92;}
	.st82{fill:#CC6F8B;}
	.st83{fill:#B3649A;}
	.st84{fill:#7B4D94;}
	.st85{fill:#CC7A91;}
	.st86{fill:#B96698;}
	.st87{fill:#975C9C;}
	.st88{fill:#A6639E;}
	.st89{fill:#9A5D9C;}
	.st90{fill:#AF669C;}
	.st91{fill:#644590;}
	.st92{fill:#CB7390;}
	.st93{fill:#D3817C;}
	.st94{fill:#CA7E98;}
	.st95{fill:#C34B72;}
	.st96{fill:#C7587B;}
	.st97{fill:#C65C80;}
	.st98{fill:#C6597F;}
	.st99{fill:#C2417D;}
	.st100{fill:#C2447E;}
	.st101{fill:#C0448E;}
	.st102{fill:#C2438B;}
	.st103{fill:#C65473;}
	.st104{fill:#C55274;}
	.st105{fill:#C44E73;}
	.st106{fill:#C75777;}
	.st107{fill:#C34B75;}
	.st108{fill:#C85F85;}
	.st109{fill:#8B4990;}
	.st110{fill:#91468F;}
	.st111{fill:#844990;}
	.st112{fill:#85468F;}
	.st113{fill:#77448F;}
	.st114{fill:#72438F;}
	.st115{fill:#81458F;}
	.st116{fill:#7E438E;}
	.st117{fill:#C75575;}
	.st118{fill:#C2487A;}
	.st119{fill:#C1467C;}
	.st120{fill:#824D92;}
	.st121{fill:#7A4B91;}
	.st122{fill:#7E4790;}
	.st123{fill:#C34587;}
	.st124{fill:#CD6C69;}
	.st125{fill:#CB6469;}
	.st126{fill:#CC6968;}
	.st127{fill:#C85F8F;}
	.st128{fill:#C85F89;}
	.st129{fill:#C66293;}
	.st130{fill:#7B4690;}
	.st131{fill:#BB448F;}
	.st132{fill:#C24784;}
	.st133{fill:#C24281;}
	.st134{fill:#964790;}
	.st135{fill:#975898;}
	.st136{fill:#975496;}
	.st137{fill:#935395;}
	.st138{fill:#AF468F;}
	.st139{fill:#B64690;}
	.st140{fill:#9B468F;}
	.st141{fill:#BE6395;}
	.st142{fill:#C15E97;}
	.st143{fill:#A45A9A;}
	.st144{fill:#A05A9A;}
	.st145{fill:#8F4F93;}
	.st146{fill:#8A5094;}
	.st147{fill:#874E93;}
	.st148{fill:#A4468F;}
	.st149{fill:#9F468F;}
	.st150{fill:#A95B9A;}
	.st151{fill:#B05D9A;}
	.st152{fill:#AD5B99;}
	.st153{fill:#A9468F;}
	.st154{fill:#B96197;}
	.st155{fill:#B45E99;}
	.st156{fill:#9B5898;}
	.st157{fill:#C7587F;}
	.st158{fill:#C65C85;}
	.st159{fill:#C2487F;}
	.st160{fill:#C5468C;}
	.st161{fill:#C55378;}
	.st162{fill:#C44F76;}
	.st163{fill:#C34C7A;}
	.st164{fill:#904A90;}
	.st165{fill:#8C4E92;}
	.st166{fill:#C24A7C;}
	.st167{fill:#C54789;}
	.st168{fill:#C7598E;}
	.st169{fill:#C65D94;}
	.st170{fill:#C65B8A;}
	.st171{fill:#C64A8A;}
	.st172{fill:#C24782;}
	.st173{fill:#C54D88;}
	.st174{fill:#974B91;}
	.st175{fill:#9C5596;}
	.st176{fill:#944F93;}
	.st177{fill:#994F94;}
	.st178{fill:#9C4B91;}
	.st179{fill:#BE5B98;}
	.st180{fill:#C45995;}
	.st181{fill:#A35797;}
	.st182{fill:#A75597;}
	.st183{fill:#AC5698;}
	.st184{fill:#B85A98;}
	.st185{fill:#B25798;}
	.st186{fill:#C55685;}
	.st187{fill:#C84D8E;}
	.st188{fill:#C55484;}
	.st189{fill:#C64C91;}
	.st190{fill:#C65792;}
	.st191{fill:#C35595;}
	.st192{fill:#A54B92;}
	.st193{fill:#C34E7D;}
	.st194{fill:#A65094;}
	.st195{fill:#C4527B;}
	.st196{fill:#BF5495;}
	.st197{fill:#C75689;}
	.st198{fill:#B75295;}
	.st199{fill:#AC5095;}
	.st200{fill:#BB5395;}
	.st201{fill:#B15195;}
	.st202{fill:#C34F83;}
	.st203{fill:#A04B92;}
	.st204{fill:#AD5196;}
	.st205{fill:#9F4F94;}
	.st206{fill:#A15396;}
</style>
<g>
	<path class="st0" d="M992.9,523.6c10-0.2,20.2,0.3,30.1-0.7c12.3-1.2,22.3,2.1,30.2,11.6c0,5.5,0,11,0,16.5c-0.9,0-1.8,0-2.8,0
		c-3.7-5.8-8.5-8.1-15.9-7.7c-9.9,0.6-19.9,1.5-29.9,1.2C996.3,540.1,990.7,534,992.9,523.6z"/>
	<path class="st1" d="M548.2,29.5c0.1,0.8,0.2,1.7,0.3,2.5c-4.8,4.3-9.6,4.3-14.4,0c0.1-0.8,0.2-1.7,0.4-2.5
		C539.1,29.5,543.7,29.5,548.2,29.5z"/>
	<path class="st2" d="M475.1,998.7c44.5,0,88,0,131.8,0c-7.4,26.8-34.8,47.7-63.1,48.8C514.6,1048.6,485.9,1028.7,475.1,998.7z"/>
	<path class="st3" d="M603.1,943.8c17.3-0.2,34.7-0.7,52-0.4c12.8,0.2,21.4,9.1,20.9,20.4c-0.4,10.8-8.6,18.8-21,18.8
		c-34.7,0.1-69.3-0.3-104-0.5c-2.4-3-1.3-6,0.4-8.8c1.1-2,3.5-3.5,3.9-5.5c5.6-23.7,22.8-25.5,42.5-22.9
		C599.6,945.1,601.4,944.8,603.1,943.8z"/>
	<path class="st4" d="M668.2,894.1c11.5,17.3,9.7,23.4-9.5,33.1c-32.3,2.5-64.7,0.5-97,1.1c-4.9-1.1-5-5.3-4-8.6
		c2.8-9.7,0.4-21.1,9.2-28.9c1.5-0.6,3.1-0.9,4.8-0.9c20.6,0,41.1,0.2,61.7-0.1C645.2,889.8,656.9,890.4,668.2,894.1z"/>
	<path class="st5" d="M301,399.6c16.9-30.7,39.5-56.3,67.7-77c7.6-0.4,8.1,6,9.6,10.7c5.1,15.7,4.4,31.8,2.8,48
		c-7.9,12.3-20.7,17.3-33.4,22.5c-12.2,8.6-25.7,7.1-39.1,5C303.8,408,298.1,407.1,301,399.6z"/>
	<path class="st6" d="M120,523.6c19.1-0.2,38.2-0.7,57.3-0.4c12.3,0.2,20,8.4,19.9,19.7c-0.1,11.2-7.8,19.4-20.1,19.4
		c-37.3,0.2-74.6-0.2-111.9-0.4c-4.7-6-2.3-11,2.5-15.3c4.6-4.1,9.3-2.4,13.4,0.9c7.8,6.4,14.2,3.4,19.9-3
		C107.3,537.4,112.3,529.3,120,523.6z"/>
	<path class="st7" d="M682.7,301.7c6.9,2.7,14.2,4.9,17,12.9c-4.5,9.8-11.6,17.9-16.2,27.8c-5.6,11.8-13.1,3.9-19.5-0.9
		c-16.2-7-20.3-4.8-21.5,12.4c-0.6,7.9-2,15.2-7.1,21.4c-5.9,7.2-12.3,10.8-20.7,3.5c-9.3-11.6-13-24.9-12.7-39.6
		c-0.3-9.8,1-19.4,3.5-28.9c0.8-2.8,2.2-5.3,4.3-7.3c14.9-7.1,14.9-7.1,25,19c2.2-1.8,2.5-4.6,3.5-7c7.9-18.2,13.1-19.9,28.7-7.3
		C677.1,316,677.4,303.2,682.7,301.7z"/>
	<path class="st8" d="M274,625.1c-11.6-34.8-16.1-70.4-11.2-107c11.8-1.1,24.3-7.9,34.3,4.6c0.7,1.3,1.3,2.7,1.6,4.1
		c1.7,21.1,8.4,41.7,4.7,63.3c-1.5,8.4-3.4,15.8-9.9,21.6C286.3,615.1,283.6,625.2,274,625.1z"/>
	<path class="st9" d="M336.4,733.1C322.5,720,311.3,704.7,302,688c2.1-7.7,7.8-9,13.9-6.2c12.8,5.8,19.6,0.8,23.9-11.2
		c1.8-5.1,4.4-10.1,10.3-12c11.2-1.7,13.5,5.6,15.2,14.3c2.9,14.3,3.2,14.3,14.2,5.9c5.2-4,10.4-6,14.5,1.5c1.1,3.5,1.1,7,0,10.5
		c-4,7-11.7,10.3-15.5,18.1c-10.7,21.8-19,23.1-37.5,9.4C343.6,723.8,343.4,729.2,336.4,733.1z"/>
	<path class="st10" d="M386.7,309.6c13.9-10.9,29.5-18.9,46.1-24.8c9.9-2.2,7.9,5,8.3,10.3c-2.7,9.2-0.6,18.8-2.3,28.1
		c-6.2,13.7-2.6,29.1-7.2,43.1c-10.9,4.1-21.8,8.1-31.4-2.7c-5.6-11.7-10.6-23.7-9.4-37.1C391.3,320.3,388.5,315.1,386.7,309.6z"/>
	<path class="st11" d="M611.4,303.9c-0.9,1.8-1.8,3.7-2.7,5.5c-8.7,4.1-16.2,10.5-25.6,13c-7.5,2-15.3,3-22.5-1.8
		c-5.4-6.4-5.1-14.1-5.3-21.7c-1.5-11.9-4.8-23.8-1.5-35.9c21.6,0,42.7,3.1,63.1,10.7C622.7,285.2,615.7,294.3,611.4,303.9z"/>
	<path class="st12" d="M301,399.6c0.7,6.5,5.7,5.6,10.2,6c12.7,1.1,25.4,2.5,36.7-5.5c5.1,7.2,6.2,15.2,5.1,23.6
		c-1.6,5.1-3.9,9.8-7.6,13.9c-2.3,2.2-5,4.8-8,5c-16.3,1.2-29.7,5.9-40.3,20.3c-6.2,8.4-19.3,2-20.9-8.7
		C281.1,434.4,289.6,416.3,301,399.6z"/>
	<path class="st13" d="M666.3,339.6c9,8.2,14.3,9,17.4-5.5c1.7-7.9,7.8-15.3,16.1-19.5c0.8-0.1,1.5,0,2.2,0.3
		c7.9,9.1,9.1,20.2,9.4,31.6c0.2,10.3-1.3,20.7,3.1,30.6c1.2,5-0.2,9.3-3.8,13c-11.5,3.6-23.8,3.9-34.7,10.4
		c-4.7,2.8-10.6,0.4-14.3-4.7C657.4,376.5,659.5,357.9,666.3,339.6z"/>
	<path class="st14" d="M721.7,191.5c10.6-18.4,21.3-36.9,31.9-55.3c9.2,1,7.9,9.2,8.7,14.6c1.5,10.3,5.2,19.2,11.8,27.1
		c-10.5,18.7-20.9,37.4-31.6,56c-2.4,4.1-3.8,9.7-10.4,9.5c-8.2-11.2-5.4-24.9-8.7-37.2C722.2,201.4,722.8,196.4,721.7,191.5z"/>
	<path class="st15" d="M218.6,378.2c-15.8-6.1-29.3-16.2-43.6-24.8c0.4-13.3-1.2-27,8.2-38.3c22.4,9.2,43.2,20.8,60.5,38
		c2,5,1.5,10.1,0.2,15.2c-3.5,3.4-7,6.8-10.6,10.2C228.4,379.8,223.5,380.2,218.6,378.2z"/>
	<path class="st16" d="M120,523.6c-5.3,11.6-13.4,21-23.1,29c-4.1,3.4-9.1,5.6-14.6,0.7c-3.2-3-5.5-9.5-11.9-5.8
		c-5.5,3.2-5.7,8.8-5.3,14.3c-5.4,0.2-10.9,0.8-16.3,0.4c-11.7-0.8-18.4-7.4-19.2-19.1c-0.7-11,7.5-19.8,19.5-20
		C72.7,522.9,96.4,523.4,120,523.6z"/>
	<path class="st17" d="M674.6,855.8c-2.2,3.4-5.8,2.1-8.7,2.1c-74,0-148,0-221.9-0.1c-1.8,0-3.6-0.4-5.4-0.7
		c-4.3-5.6-0.5-10.7,0.8-16c3.4-8.4,10.2-10.8,18.6-11c17.5-0.5,31.1-8.6,41.7-22.2c4.3-4.1,9.9-6.8,12.9-12.1
		c7.3-12.8,18.5-16.8,32.5-15c1.1,0.9,1.8,2,2,3.4c-0.3,5.8-4.1,9.6-8.8,11c-18.9,5.8-26.8,22-35.9,36.9
		c-5.1,8.4-11.5,14.8-19.2,20.1c4.7,0.5,9.9-0.1,15.1-0.1c5.2-0.2,10.3-0.2,15.4-0.2c7.9-0.2,15.8-0.4,23.7-0.1
		c6.5-0.2,13-0.3,19.5,0c11.6-0.4,23.2-0.2,34.8-0.2c3.4,0.3,6.8,0.2,10.2,0.2c19.1-0.8,38.3-0.4,57.4-0.3
		C664.7,851.5,670.4,851.2,674.6,855.8z"/>
	<path class="st18" d="M553.8,263.1c5,11.3,1.1,24,5.4,35.4c-13.4,7.3-27.5,6.5-41.8,4c-9.5-0.7-20.3,2.6-26.4-8.5
		c-1.4-8.7-4.4-17.4-0.6-26.2C511.2,262.1,532.4,261.7,553.8,263.1z"/>
	<path class="st19" d="M998.4,561.8c-30.5,0.2-61,0.6-91.5,0.4c-14.7-0.1-20.5-6.7-20.8-22.2c13.7-2.6,29-8.5,40.9-5
		c17.2,5,32.9,5.2,49.7,2.4c4.2-0.7,8.9,1.5,13,3.4C996.1,546.3,1001.9,552.2,998.4,561.8z"/>
	<path class="st20" d="M276.2,454.2c8.6,12.1,19.4,12.4,25.2-0.6c4.7-10.6,11.5-14.4,22-12.3c8.3,1.6,14.5-3.6,21.7-5.6
		c7.9,4.2,9.7,11.2,8.8,19.5c-9.3,3.8-10.2,14.7-17.3,20.3c-14.8-2.9-26.4,2.1-35.2,14.2c-11.4-0.9-21.7-6.7-33.2-7.3
		C268.7,472.4,271.8,463.1,276.2,454.2z"/>
	<path class="st21" d="M762.7,713.6c-1.1,3-2.4,5.8-5.8,6.8c-4.7-2.6-9.3-2.8-13.5,1c-5.7,5.2-13.5,6.6-19.6,11.2
		c-13.3,6.6-26.9,12.3-39.3,21.3c-9,6.6-21.9,8.6-33.7,9c-12.9,0.4-24.1,2.9-32.2,14.1c-2.7,3.7-6.9,5.9-11.9,5.5
		c-1.4-0.7-2.3-1.7-2.8-3.1c-0.6-2.1-0.5-4.3,0.2-6.4c6-9.8,14.9-17.1,22.3-25.7c4.7-5.4,11.6-6.6,18.6-7.6
		c17.8-2.3,35.6-2.9,50.9-15.7c8.7-7.3,21.2-10.5,32.5-13.9c4.6-1.4,8.2-3.6,11.2-7.1C753,697.5,759.2,700.4,762.7,713.6z"/>
	<path class="st22" d="M603.1,943.8c-8,5-16.8,1.3-25.2,2.4c-3.4,0.5-9-1.2-9.4,3.1c-1.3,13.6-13,21.1-17.4,32.8
		c-22.9,1.1-45.8,1.1-68.7,0c-1.3-3.2,0.6-6.2,2.9-6.6c16.3-3.1,23.8-17.1,34.6-27.1c1.7-1.6,3.4-3,5.7-3.4
		c11.2-0.7,22.5,1.4,33.6-1.2C573.8,943.8,588.4,943.8,603.1,943.8z"/>
	<path class="st23" d="M333.9,221.7c-11.2-16.8-21.3-34.1-30.1-52.2c10.6-8.5,23.5-10.8,36.1-13.9c9.9,13.7,17.5,28.8,25.3,43.8
		c-1.6,3.1-4.4,4.6-7.5,5.4c-7.4,2-13.2,5.3-15.6,13.3C341,221.6,338.5,224.6,333.9,221.7z"/>
	<path class="st24" d="M350.6,660.8c-6.8,3.4-8.3,10.9-10.2,16.6c-4.5,14.1-13.9,13.2-23,8.3c-7-3.8-10.7-1.5-15.3,2.4
		c-2.4-4.4-4.9-8.7-7.3-13.1c5.1-23.1,23.9-31.5,42.8-39.8c7.6,1.3,15,2.5,22.8,1c5.5-1,11.1-0.1,12.9,6.9
		C366,649.2,358.6,655.4,350.6,660.8z"/>
	<path class="st25" d="M990.2,542.7c-12.2-0.8-24.9-7.2-35.9,4.7c-2.4,2.6-9.5,1.9-12.1-2.9c-5.7-10.2-14.3-7.7-22.8-6.2
		c-11,2-21.9,6.8-33.3,1.6c1.3-11.5,8.6-16.8,19.4-16.8c29.1-0.1,58.3,0.2,87.4,0.4c2.1,7.3,6.2,13.4,11,19.1
		C999.3,546.2,994.7,544,990.2,542.7z"/>
	<path class="st26" d="M534.2,32c4.8,0,9.6,0,14.4,0c8.4,4.5,13,11.3,13,20.9c0.1,41.6,0.1,83.2,0,124.8c0,2.1-1.2,4.3-1.8,6.4
		c-9-13.7-3.4-28.9-4.5-43.4c-0.4-7.4,0-14.9,0-22.3c-0.3-5.3,0-10.6,0.1-15.8c6.5-22.3-13.3-27.7-25.7-39.1
		c-4.4,6.7-1.7,13.9-2.3,20.7c0.4,10.3,0.4,20.5,0.1,30.7c0.4,10.1,0.3,20.2,0,30.3c-1,13.6,3.9,27.8-4,40.8
		c-3.5-3.8-2.4-8.6-2.4-13c-0.1-38.7,0.1-77.4-0.1-116.1C521,45.9,523.8,37.1,534.2,32z"/>
	<path class="st27" d="M784.9,405.3c4,4.5,6.7,9.7,8.1,15.6c2.5,6.4-2.2,8.4-6.3,11.6c-11.9,9.6-26,14.2-40,19.2
		c-9.3-0.1-18.6,1.8-27.8-0.5c-4.2-2.3-6.4-6-8-10.3c-1.1-3.6-1-7.3,0.3-10.8c12.9-16.8,19.6-18.9,38.8-13.1
		c9.2,2.7,18,2.7,23.7-7.3C776.1,405.6,779.4,402.3,784.9,405.3z"/>
	<path class="st28" d="M132.9,329c-9.2-5-18.7-9.5-27.5-15.1c-10.4-6.6-12.9-17.8-7.1-27.3c5.8-9.5,16.7-12.5,27.5-6.8
		c7.5,4,14.5,9.1,21.7,13.7c6.4,13.8-3.3,24-8.3,35.1C138.3,330.6,135.1,330,132.9,329z"/>
	<path class="st29" d="M523.5,185.9c0.1-13.7,0.1-27.4,0.2-41.2c11.4-4.6,23-7.2,35.4-5.5c0.2,15,0.4,29.9,0.7,44.9
		c-1.9,10-9.2,14.3-18.1,14.6C533.1,199,526.1,195,523.5,185.9z"/>
	<path class="st30" d="M976.7,312.3c-26,16.7-52,33.4-79.7,47.1c-8-12.7-2.6-25.2,0.6-37.7c4.8-6.2,11.3-4.1,17.5-3.5
		c10.9,1,20.1-1.8,24.3-12.8c4.1-10.9,10.9-12,20.2-7.3C964.6,303.6,972.9,305.2,976.7,312.3z"/>
	<path class="st31" d="M611.4,303.9c-2.6-10.9,7-19.5,5.5-30.2c21.8,2.7,40,14.2,58.7,24.4c2.3,1.3,4.8,2.4,7.1,3.6
		c-1.5,3.8-2.9,7.6-4.7,11.3c-2.8,5.7-6.3,5.5-10.6,1.2c-17.2-17.2-17.7-17-27,5.2c-1.5,3.6-2.5,7.8-6.9,10.4
		c-4.2-5.2-4.6-11.8-5.8-17.7C625.6,301.6,620,300.4,611.4,303.9z"/>
	<path class="st32" d="M295.8,155.7c-5.8-9.7-12.2-19.1-17.4-29.1c-6.1-11.8-1.7-23.9,9.5-28.4c10.7-4.3,22.4,0.5,26.3,12.3
		c2.6,7.9,9,13.3,11.5,21c0.5,4.1-2.6,5.7-5.5,6.7c-6.9,2.4-11.5,6.5-13.8,13.7C304.8,157.3,300.9,159.2,295.8,155.7z"/>
	<path class="st33" d="M687.9,795.2c0.4,9.3-5.1,16.7-7.9,25c-4.9-4.3-10.1-4.2-16.4-2.7c-10.5,2.5-21.3,4.3-29.9-6.1
		c-4.6-5.5-9.7-2.1-14.3,1.3c-5.8,4.3-9,11.5-16,14.5c-2.1,0.4-4,0.1-5.7-1.1c-2.8-4.9,1.1-9,1.7-13.5c3-14.1,15.5-19.3,25.5-26.7
		c3.5-2.6,7.7-0.5,11.7,1c11.5,4.1,22.3,5.1,33.1-3.4C679.1,776.2,683.5,779.4,687.9,795.2z"/>
	<path class="st34" d="M132.9,329c9.1-10.1,13.4-22.1,14.5-35.5c13.2,5,24.8,12.7,35.7,21.5c-4.4,12.4-1.5,26.4-8.2,38.3
		C160.4,346.2,146.3,338.2,132.9,329z"/>
	<path class="st35" d="M687.9,795.2c-1.5-1.6-4-2.9-4.5-4.8c-2.4-8.7-6.5-11.3-12.7-3.6c-8.9,11-20.5,6.1-31.1,5.7
		c-4.8-0.2-9.2-9.2-14.2-3.6c-7.5,8.4-22.4,10.5-22.2,25.5c-1.8,1.5-3.7,1.7-5.7,0.5c-2-4.3-0.1-8.2,1-12.1
		c5.8-13.5,18.2-21.5,27.6-32c16.1,0.9,31.3,1.8,47.7-4.2c11.5-4.2,25-4.4,36.3-11.3c2.7-1.6,6.2-1,8.7,1.6
		C707.7,769.1,696.9,781.4,687.9,795.2z"/>
	<path class="st36" d="M674.6,855.8c-24.7-0.1-49.4-0.3-74.1-0.4c-2.7-23.1,15.5-38.8,35.6-28.9c9.8,4.8,18.5,5.3,28.3,4.5
		c4.5-0.4,9.1-0.9,12.8,2.7c-0.1,0.9-0.2,1.9-0.3,2.8c-2.9,6.1,1,13.1-2.4,19.1L674.6,855.8z"/>
	<path class="st37" d="M677.1,833.7c-9.3,1-18.5,1.8-27.8,3c-2.2,0.3-3.9,1.1-6.2-0.5c-23.4-15.8-29-14.1-40.1,11.5
		c-1.1,2.5-1.8,5.1-2.6,7.7c-2.7,0-5.5,0-8.2,0c-1-11.7,7.8-19.8,10.9-29.9c4.6-5,8.9-10.3,13.8-15c7.6-7.2,14.3-9.9,22.3,1.1
		c6.4,8.9,16.7,4.4,25.4,2.3c7-1.7,14.7-6.6,15.5,6.3C676,824,678.6,829.3,677.1,833.7z"/>
	<path class="st38" d="M336.4,733.1c4-5.3,2.3-12.1,4.2-18c1.2,0.3,2.2,0.2,2.9,0.7c17.2,12.3,22.6,11.7,31.7-7.6
		c3.9-8.4,8.7-13.8,16.6-17.2c6.2-0.9,7.3,3.5,8.4,8c0.7,5.1-1.5,9.9-1.8,14.9c-0.6,6.2-2.2,11.6-9.2,13.3
		c-8.9,2.2-13.1,8.6-16,16.7c-2,5.6-3.2,12.6-11.5,12.9C351.9,750.4,343.7,742.2,336.4,733.1z"/>
	<path class="st39" d="M386.7,309.6c7.6,0.7,8.4,6.2,7.7,11.8c-1.7,14.4,3,27.3,8.3,40.2c-5.4,10.5-2.5,23-7.7,33.6
		c-11.9,5.2-15.2-2.1-17-11.6c-0.6-16.1,2.1-32.3-3-48.1c-1.5-4.5-1.5-9.9-6.3-12.9C373.9,317,379.9,312.7,386.7,309.6z"/>
	<path class="st40" d="M523.5,946.2c-9.3,12.4-15.6,28.2-34.1,30.3c-3.5,0.4-5.7,2.4-7.1,5.5c-14.6,0-29.3,0-43.9,0
		c-3-12.3,5.7-19.2,14.3-20.8c17.6-3.3,33.2-12.5,50.7-15.4C510.2,944.7,516.9,943.8,523.5,946.2z"/>
	<path class="st41" d="M784.9,405.3c-3.3,0.3-6,1.4-7.9,4.5c-9.1,14.2-20,17-34.3,7.3c-9-6.1-12.8,3.5-19.3,4.8
		c-3.9,0.8-7,5.4-10.5,8.4c-3.7-3.5-3.4-8-3.4-12.5c0.1-2.2,0.6-4.3,1.3-6.3c7-11.6,13.1-24.3,29-26.2c2.8,0.6,4.6,2.7,6.6,4.5
		c11.2,9.8,17.5,10.1,29.8,1.4C781.5,394.5,781.4,400.9,784.9,405.3z"/>
	<path class="st42" d="M774.1,177.9c-12-1.6-12.8-11.4-14.3-20.2c-1.2-7.5-1.2-15.2-6.2-21.5c3.8-6.3,7.5-12.7,11.3-19
		c10.8-7.7,16.9,0.7,22.1,7.6c4.2,5.6,7,12.7,5.8,20.4C787.7,156.8,781.5,167.7,774.1,177.9z"/>
	<path class="st43" d="M333.9,221.7c1.3-0.4,3.6-0.8,3.7-1.3c1.1-17.8,15.4-18.1,27.6-21.1c4,6.5,8.8,12.7,11.8,19.6
		c4.5,10.3,2.5,20.2-7.9,25.7c-10,5.3-19.6,3.1-26.2-6.4C339.3,233.1,336.9,227.2,333.9,221.7z"/>
	<path class="st44" d="M860.9,336.1c8.1-7.1,18.3-10.7,27.5-15.9c4.2-0.4,6.1,2.8,5.9,5.7c-0.5,11.9,2.2,24.1-2.9,35.5
		c-12.9,8.3-23.2,23-41.8,17C856.6,365.2,856.1,349.9,860.9,336.1z"/>
	<path class="st45" d="M268.3,482.4c12.5-7.3,22,3.4,32.9,5.5c7.2,9.4-0.1,19.8,2,29.5c-1,3.9-2.4,7.2-7.5,6.2
		c-5.6-4.2-11.1-7.4-18.5-3.5c-4.9,2.6-9.5-1.8-14.4-2C262.4,505.8,264.2,493.9,268.3,482.4z"/>
	<path class="st46" d="M960,301.2c-9.1-4.2-15.8-5.6-17.3,8.3c-0.9,8.2-17.5,15.4-27.1,12.9c-5.4-1.4-10.6-2-16-2
		c-1.7-2.1-1.7-4.3-0.3-6.5c19.6-12.7,39.6-24.6,60.6-34.7c6.2-2.6,11.6-1.4,11.9,5.8C972,292.6,971.1,301.1,960,301.2z"/>
	<path class="st47" d="M712.9,378.1c-4.2-2-5.7-5.5-5.5-9.9c0.8-18,0-35.9-5.5-53.2c17.4,7.8,29.7,21.6,42.2,35.2
		C742.2,368.9,723.8,369.3,712.9,378.1z"/>
	<path class="st48" d="M523.5,946.2c-14.1-1.6-26.2,4.6-38.8,9.4c-8.4,3.2-16.3,7.5-26,7.4c-12-0.2-16.3,9.7-20.3,19
		c-2.7,0-5.5,0-8.2,0c-6.5-12.5,0.5-22.9,5.7-33.4c2.2-4.4,6.9-3.6,11-3.8c13.6-0.6,27.4,1.5,40.9-1.1c23.8,0,47.6,0,71.4,0
		C547.6,949.2,535.4,944.8,523.5,946.2z"/>
	<path class="st49" d="M336.9,636.1c-1.9,11.1-13.1,7.5-19.4,11.8c-10.5,7.1-14,19.1-22.7,27.1c-3.1-3-4.6-6.9-5.6-10.9
		c4.9-11.8,8.3-24.4,18.1-33.5c5.6-9.2,11-18.6,21.6-23.3c4.1-1.8,7.9-5,12.3-0.7c2.4,4.1,2.3,8.6,2.3,13.2
		C343.1,625.9,343.9,632.6,336.9,636.1z"/>
	<path class="st50" d="M712.9,378.1c5.1-7,10-13.6,20.2-14.2c7.1-0.5,2.9-12.5,11-13.7c5.8,3.5,8.7,9.6,12.5,14.8
		c-0.8,10.7-4.2,19.3-16.3,21.4c-13.2,3.7-18.7,16-27.4,24.7c-5.1-6.8-4.9-14.3-2.7-22C711.1,385.4,712,381.7,712.9,378.1z"/>
	<path class="st51" d="M990.2,542.7c4.6-3.8,9.1-0.5,13.7,0c13.4-5.4,27.6-1.7,41.4-3.7c9.5-1.4,3.1,8,5.2,11.9
		c-3.3,8.3-9.7,11.4-18.2,11.3c-11.3-0.1-22.6-0.3-34-0.5C997.4,554.7,992.8,549.2,990.2,542.7z"/>
	<path class="st52" d="M309.4,633.3c-7.6,4.6-8.9,13.3-12.6,20.4c-2.1,4-2.6,8.8-7.7,10.3c-7.3-12.1-12.1-25.2-15.2-39
		c6.7-3.1,8.5-11.9,16.3-13.7c4.4-2.6,8.3-7.3,14.3-3.4C307.7,616.1,312.7,623.9,309.4,633.3z"/>
	<path class="st53" d="M490.4,267.7c2.9,8.2,3.4,16.7,2.9,25.3c-1.4,1.6-3.3,2.1-5.3,2.1c-7.5-3.9-13.3-5.5-20.5,3.1
		c-6.5,7.7-18.3,3.3-27.7,4c-2.5,0.2-3.4-3.6-1.4-6.4c-0.5-4.4,1.8-10.1-5.5-11C450.8,274.9,470.6,271.3,490.4,267.7z"/>
	<path class="st54" d="M361.7,756.8c4.4-4.7,7.3-9.8,8.9-16.4c2-8,6.6-15.8,16.1-16.3c8.5-0.5,7.9-5.6,7.9-11.2
		c8.9-9.9,14.9-10.4,18.9,0.2c4,10.6,10.3,12.2,19.7,10.3c3.5,7.1,0.5,12.5-5,16.5c-6,4.4-11.2,0.9-15.8-3.2
		c-5.9-5.4-9.6-4.8-15.5,1.6c-8.5,9-18.4,16.8-26.9,26C367.1,761.8,364.4,759.3,361.7,756.8z"/>
	<path class="st55" d="M441.2,841.9c-0.9,5.1-1.8,10.2-2.7,15.2c-10.1,0.3-20.4,3-30.3-1.4c-3.8-25-2.5-27.3,21.1-35.3
		c3.9-1.3,7.2-4.1,11.4-4.6c1.6,0,3.1,0.6,4.3,1.7C450.9,826.8,444,834,441.2,841.9z"/>
	<path class="st56" d="M803.7,639.4c-1.1,7.1-3.9,13.6-8,19.5c-10.9-5.5-20.7-5.7-31.7,1.9c-8.3,5.8-18.1-1.1-27.3-2.6
		c-4-10.7,4.8-13.7,11-18.2c2.6-1.2,5.4-1.8,8.2-2.4c14-10.4,30.8-5.1,46.1-8C806,632.3,805.2,635.8,803.7,639.4z"/>
	<path class="st57" d="M567.4,891.4c-2.7,11.7-5.5,23.4-8.2,35.2c-1,1.6-2.2,1.9-3.8,0.8c-14.4,1.3-28.8,1.5-43.1,0.1
		c-1.6-10.9,5.8-17.3,14-17.9c12.8-0.9,16.5-9.1,20.7-18.1c1.1-0.9,2.3-1.4,3.7-1.5C556.3,890.6,562.1,888.6,567.4,891.4z"/>
	<path class="st58" d="M432.9,927.5c-9,1.5-17.1,0.7-22.1-8.3c-1-3.6,0.6-6.6,3.2-8.3c8.4-5.3,16.9-10.3,22.9-18.7
		c2.4-3.3,6.7-2.1,10.3-2.1c11.3,0,22.7-0.2,34,0.1c4.5,10-1.7,14.6-9.4,18.2c-2.9,1.3-6.2,2.8-9.1,2.1
		C447.2,906.7,439.5,915.9,432.9,927.5z"/>
	<path class="st59" d="M487.8,943.8c-10.9,5.2-22.5,2.7-33.5,2.1c-11.2-0.6-17.1,3.3-19.6,13.6c-1.9,7.5-4.9,14.7-4.4,22.6
		c-14.6,0-23.1-6.6-23.5-18.4c-0.4-11.7,8.5-20.2,22.4-20.3C448.6,943.2,468.2,943.6,487.8,943.8z"/>
	<path class="st60" d="M721.7,191.5c9.4,6.8,3.6,17.8,7.1,26.5c3,7.7,2.4,16.8,3.3,25.3c-7.8,5.7-15.4,5-22.3-1.3
		c-7.3-6.7-8.4-15.1-4-23.7C710.7,209.2,716.4,200.5,721.7,191.5z"/>
	<path class="st61" d="M369.9,764.3c5.3-8.8,12.9-15.9,19.2-23.2c12.4-14.5,17.6-14.4,31.6-2.9c7.5,6.2,9.9-7.5,12.3-14.2
		c-3.3-4.6-3.6-8.7,1.8-12c3.9-0.3,5.4,2.2,6.4,5.3c1.6,9-4,16.7-4.6,25.3c-0.3,2-0.9,4-1.8,5.9c-6.3,8.5-13.9,9.2-22.3,3.3
		c-7.3-5.1-12.8-4-18.3,3.4c-4.8,6.5-12.5,10.2-18.8,15.3C373.5,768.3,371.7,766.3,369.9,764.3z"/>
	<path class="st62" d="M485,927.5c-14.6,1.1-29.2,1.2-43.8,0c-4.2-7-0.5-10.1,5.8-11.6c5.4-1.3,10.9-0.7,16.4-0.8
		c5-0.1,10.8,0.6,14.2-3.5c7.9-9.3,18.9-14,28.6-20.6c2.7-1.5,5.7-0.8,8.6-1c2.8,0.1,5.7-0.3,8.5,0.5c3.9,13.8-6.9,19.1-15.1,25.6
		C501.4,921.6,492,922.1,485,927.5z"/>
	<path class="st63" d="M441.2,817.2c-3.6,3.3-6.8,7-12,8.1c-20.7,4.4-20.9,4.7-20.9,25c0,1.8,0,3.6,0,5.4
		c-1.9-11.8-3.7-23.6-5.6-35.4c-2.9-10.4,5.8-13.5,11.9-16.9c7.4-4.2,14.8-8.6,22.2-12.8c4.2-0.7,7.5,0.4,9.4,4.5
		C448.1,803.3,446.1,810.6,441.2,817.2z"/>
	<path class="st64" d="M295.8,155.7c2.1-0.5,6.2-1,6.2-1.4c-0.4-16.4,14.2-17,23.7-22.7c7.7,6.3,8.3,16.7,14.3,24
		c-10.8,7.8-23.5,10.9-36.1,13.9C300,165.6,297.5,160.8,295.8,155.7z"/>
	<path class="st65" d="M800.1,435.9c2,3.1,3.7,6.4,3.7,10.3c1.5,4.4-1.7,6.6-4.3,9c-2.6,1.8-5.8,3.3-7.7,5.6
		c-16.3,19.7-39.2,18.3-61.3,19.8c-1.4-0.6-2.2-1.6-2.4-3.1c4-10,15.1-12.9,20.7-21.3C768.6,456.1,783.7,444.3,800.1,435.9z"/>
	<path class="st66" d="M507.1,891.3c-0.2,4.8-2.9,7-7.3,8.5c-3.8,1.2-9,2.8-10.5,5.7c-8.2,16.4-22.8,13.4-36.6,13.2
		c-6.2-0.1-12.4-0.4-11.5,8.7c-2.7,0-5.5,0-8.2,0c3.2-17.5,7.3-20.5,24.8-19.9c11.7,0.4,21.1-3.8,24.7-16.2
		C490.6,889.2,498.8,889.2,507.1,891.3z"/>
	<path class="st67" d="M820.2,559.9c0.1,9.2,1,18.4-2.8,27.2c-5.2-9.8-10-10.8-14.6,0.5c-1.4,3.4-3.9,6.2-8.4,5
		c-3.3-2.1-4.5-5.4-5.1-9c-0.6-7.5-0.7-15,0.5-22.5c0.3-1.5,0.8-3,1.5-4.4c1.9-4.1,3.9-8.1,7.3-11.1c5.3-4.8,11.9-8,18.4-4.7
		C825.2,545.1,820.8,553.2,820.2,559.9z"/>
	<path class="st68" d="M485,927.5c2.3-5.5,6.8-7.7,12.2-9.5c13-4.5,22.3-13,26.3-26.6c8.2-2.1,16.5-2.1,24.7,0
		c-2.4,10.5-2,22.4-19.4,20.3c-8.3-1-13.4,8-16.5,15.9C503.2,929.1,494.1,928.5,485,927.5z"/>
	<path class="st69" d="M737.6,658c5.5-0.7,10.7-4.6,16.4,0.7c5,4.7,8.7-0.6,12.7-3.5c11.5-8.5,18.8-7.5,29,3.6
		c-1.6,3.5-3.3,7.1-4.9,10.6c-14.6,3.1-29.2,7.1-44.3,3.4c-5.1-0.8-10.9,2-15.1-3.1c-1.1-1.9-1.3-3.9-0.8-6
		C732,660.7,732.9,657,737.6,658z"/>
	<path class="st70" d="M762.7,713.6c-5.4-8.1-11.4-14.6-22.3-8.9c-7.3,9.1-13.5,4.5-19.6-1.6c-1.5-10.6,10.2-8.7,13.7-14.7
		c2.1-2.6,3.6-5.7,6.6-7.4c3.1-1.3,6.5-1.7,9.2-0.1c7,4.2,13.9,5.6,22,3.3c3.3-1,9.4-1.7,6.4,5.8
		C772.5,697.3,770.7,707.6,762.7,713.6z"/>
	<path class="st71" d="M435.7,792.5c-4.4,11.7-18.2,9.8-25.5,17.8c-2.9,3.2-7.6,4.7-7.6,10.1c-2.7-7.4-5.5-14.8-8.2-22.1
		c0.8-9,9.5-8.6,14.1-8.8c13.9-0.4,20.8-8.1,25.6-19.5c9.5-13.5,22.4-13.3,36.3-9c3.4,5.4-1.7,7-4.4,6.7
		c-16.1-1.8-20.5,9.7-25.2,21.2C439.4,790.4,437.4,791.2,435.7,792.5z"/>
	<path class="st72" d="M800.1,435.9c-13.9,15-30.2,24.4-51.5,21.8c-2.8-2.1-4.5-4.6-2.7-8.2c5.9-4.4,13.5-5.4,19.6-8.7
		c9.8-5.3,21-9.6,27.5-19.8C796.7,425.3,798.6,430.5,800.1,435.9z"/>
	<path class="st73" d="M435.7,773.3c-2.9,20.6-21.2,17-34.2,21.7c-2.5,0.9-5.4,0.5-7.1,3.2c-2.7-4.7-5.4-9.4-8-14.2
		c-3.3-9.9,4.7-10.3,10.4-11.5c12.8-2.8,25.9-3.5,38.5-7.5C437.9,767.7,437.4,770.5,435.7,773.3z"/>
	<path class="st74" d="M507.1,891.3c-8.2,0-16.5,0-24.7,0c-8.2,0-16.4,0.2-24.6-0.1c-10.2-0.3-19.4-0.8-24.6,11.5
		c-3.8,9-18.4,5.9-22.3,16.4c-8.1-17-0.8-30.3,17.6-30.5c29-0.3,57.9,0.2,86.9,0.3c0.9,0.5,1.2,1,0.9,1.6c-0.3,0.5-0.6,0.8-0.9,0.8
		C512.5,891.3,509.8,891.3,507.1,891.3z"/>
	<path class="st75" d="M778.7,690.1c-0.3-0.8-0.6-1.7-0.9-2.5c-13.5,6.5-24.9-3.5-37.4-4.8c-5.1-7.4,0.6-10.4,5.5-13.7
		c11.8,2.1,23.5,4.5,34.9-2c3.5-2,6.8,1.2,10.1,2.4C787.7,676.9,784.7,684.4,778.7,690.1z"/>
	<path class="st76" d="M740.4,386.3c8.3-4.9,11.5-13.7,16.3-21.4c8.7,7.1,14.7,16.3,19.6,26.2c-5,10.7-20.8,12.9-29.6,4
		C744.2,392.6,742.5,389.3,740.4,386.3z"/>
	<path class="st77" d="M792.8,145.3c-5.9-10.4-6.6-24.8-21.5-28.6c-2.5-0.6-4.3,0.1-6.4,0.6c4.6-11.2,9.7-21.8,24.9-19.3
		c6.1,10,15.2,19.1,10.9,32.6C796.7,134.7,798.1,141.8,792.8,145.3z"/>
	<path class="st78" d="M819.8,515.2c0.1,2.7,0.3,5.5,0.4,8.2c-2.1,5.1-7.2,6.8-11.1,9.8c-8.5,6.7-14.1,15.3-16.5,25.9v0
		c-1.3,1-2.5,0.9-3.7-0.3c-3.1-4.9-2.4-10.8-3.8-16.1c-0.6-3.6,0.5-7,0.8-10.6c0.7-7.3,0.6-14.8,5.6-21c3.7-4,8.7-4.5,13.6-5.7
		C813.6,503.3,819.2,505.4,819.8,515.2z"/>
	<path class="st79" d="M435.7,765.1c-9.8,13-25.3,6.5-37.7,10.7c-5.2,1.7-11.1,0.7-11.6,8.3c-1.9-2.6-3.7-5.2-5.6-7.9
		c-2-12.8,8.4-14.1,16.3-16.7c5.9-2,12.5-1.2,18.8-0.9c8.1,0.4,13.9-2.3,17.1-9.9c0-1.8,0-3.7,0-5.5c3.4-4.1,2.3-13.4,11.9-10.6
		c3.4,11.8-7.2,20.2-7.6,31.1C436.7,764.1,436.2,764.6,435.7,765.1z"/>
	<path class="st80" d="M432.9,748.6c1.4,11.2-4.2,14.2-14.6,13.9c-14.1-0.4-29.9-4-37.6,13.6c-2.3-1.5-5-2.6-5.4-5.8
		c4.6-12.4,17.7-16.4,25.5-25.9c3-3.6,7.6,0,10.6,2.8C418.3,753.5,425.4,754.3,432.9,748.6z"/>
	<path class="st81" d="M718.7,756.9c-3.7-0.3-7.4,0.1-10.4,2.3c-9.3,7-18,12.1-31.5,9.5c-8.3-1.6-16.8,8.6-27.7,7.7
		c-8.1-0.7-16-2.6-24-3.1c0.9-7.5,7-5.7,11.4-5.8c23-0.5,44.5-5.1,62.7-20.6c6.8-5.8,15.6-2.3,23.6-2.7c3,1.3,4.7,3.3,3.9,6.8
		C724,753,721.4,755,718.7,756.9z"/>
	<path class="st82" d="M860.9,336.1c0.6,15.3,2.8,31-11.4,42.4c-16-8.4-17.9-23.9-4-34C850.2,341.1,855.7,338.9,860.9,336.1z"/>
	<path class="st83" d="M814,479.5c0.2,1.7,0.4,3.4,0.7,5.1c2.4,4.3,0.3,7.1-3.5,8.5c-7.8,2.8-12,9.2-16.9,15.1
		c-3,2.7-5,7.1-10.2,6.4c-3-0.6-5.3-2.2-6.7-5c-0.6-11.9,0.9-23.1,11.2-31.1C797.2,474.7,806.1,466.5,814,479.5z"/>
	<path class="st84" d="M726.6,751c-0.9-1.7-1.8-3.5-2.7-5.2c-4.6-5.5-3.5-11,0-16.5c6.6-6.2,15.9-7.9,22.6-14.6
		c4.6-4.6,9.1-0.5,10.3,5.6C747.6,731.4,740.2,744.3,726.6,751z"/>
	<path class="st85" d="M960,301.2c8.1-3.5,9.4-11,8.9-18.2c-0.3-4.5-5.5-3.5-9.1-3.8c12.4-6.4,19.6-0.1,25.1,10.4
		c1.6,4.9,1.8,9.8-0.1,14.7c-2.7,2.7-5.4,5.3-8.1,8C970.8,309.2,962.9,308.9,960,301.2z"/>
	<path class="st86" d="M814,479.5c-8.1-9.1-16.2,0.5-24.2,0.1c-2.9,1.3-5.1,5-9,2.5c-3.6-6.9,1.1-11.1,5-15.5
		c4.2-4.7,9.7-8.3,12.3-14.4c2.8-1.1,4.7-3.2,5.8-6C809.2,456.7,812.2,467.9,814,479.5z"/>
	<path class="st87" d="M803.7,639.4c-0.4-3.1,0.4-6.7-3-8.8c-4.8-4.6-5.7-10.9-7.5-16.9c-0.3-2.2,0-4.4,0.8-6.5
		c2.8-4.7,5.3-9.9,10.3-12.4c5.8-2.9,12.1-4.8,10.3,6C813.4,614.4,809.7,627.2,803.7,639.4z"/>
	<path class="st88" d="M792.5,559.2c-1-19.8,12-28.8,27.7-35.7c2.8,12.1,3.2,24.3,0,36.4c-2.2-5.5,4.2-14.8-5.8-16.7
		c-9-1.7-15.1,3.7-18.6,11.9C795.1,556.7,793.6,557.9,792.5,559.2z"/>
	<path class="st89" d="M814.7,600.9c-1.4-7.7-5.3-6.7-10.1-2.9c-3.8,3-4.3,8.8-9.3,10.6c-1.8-1.6-2.7-3.6-3.1-5.9
		c-0.3-3.9-0.1-7.7,3.1-10.5c3-1.4,5.2-3.6,5.3-7.1c0.3-7.9,5.9-11.9,12.2-11.2c7.7,0.8,3,8.7,4.6,13.2
		C817.4,591.9,817.8,596.7,814.7,600.9z"/>
	<path class="st90" d="M792.5,507.1c3.9-8.3,8.3-15.9,18.8-17.1c2.6-0.3,2.9-3.1,3.3-5.3c3.9,9.8,5.5,20.1,5.1,30.6
		c-7.7-14.5-18-3.6-27.2-2.7C791,510.7,791,508.9,792.5,507.1z"/>
	<path class="st91" d="M668.2,894.1c-9.3,6.5-16.5-3.5-25.5-3.1c-24.1,1-48.4,0.3-72.5,0.3c-0.9-0.5-1.2-1-0.9-1.6
		c0.3-0.5,0.6-0.8,0.9-0.8c28.3-0.2,56.7-0.4,85-0.4C660.2,888.6,665.3,889,668.2,894.1z"/>
	<path class="st92" d="M899.2,313.9c0.1,2.2,0.2,4.3,0.3,6.5c-0.2,13-4.5,25.8-2.6,39c-1.4,1.9-3.3,2.8-5.7,2.1
		c-1.7-13.7,3.7-27.9-3-41.3C891.3,317.1,895,315,899.2,313.9z"/>
	<path class="st93" d="M800.7,130.5c-0.4-12-10.7-20.6-10.9-32.6C807.7,102.1,812,115.2,800.7,130.5z"/>
	<path class="st91" d="M555.5,927.3c1.3-0.3,2.5-0.5,3.8-0.8c33.1,0.2,66.3,0.5,99.4,0.7C624.3,929.6,589.9,929.4,555.5,927.3z"/>
	<path class="st66" d="M515.3,891.3c0-0.8,0-1.6,0-2.3c11,0,22,0,32.9,0c0.9,0.5,1.2,1,0.9,1.5c-0.3,0.5-0.6,0.8-0.9,0.8
		c0,0,0,0,0,0c-8.2,0-16.5,0-24.7,0C520.8,891.3,518,891.3,515.3,891.3z"/>
	<path class="st68" d="M548.2,891.3c0-0.8,0-1.5,0-2.3c7.3,0,14.6,0,22,0c0,0.8,0,1.6,0,2.3c-0.9,0-1.8,0-2.7,0
		C561,891.3,554.6,891.3,548.2,891.3z"/>
	<path class="st37" d="M674.5,855.7c0.9-6.4-2.3-13.2,2.4-19.1C676.5,843,678,849.6,674.5,855.7z"/>
	<path class="st94" d="M984.8,304.3c0-4.9,0.1-9.8,0.1-14.7C988.5,294.5,988.5,299.4,984.8,304.3z"/>
	<path class="st5" d="M243.9,368.1c-0.1-5.1-0.1-10.1-0.2-15.2C247.4,358,247.3,363,243.9,368.1z"/>
	<path class="st5" d="M218.6,378.2c4.9,0.1,9.9,0.1,14.8,0.2C228.4,381.9,223.4,381.7,218.6,378.2z"/>
	<path class="st95" d="M378,383.5c4.7,4.9,6.8,13.5,16.5,11c2.6,2.2,3.2,5.1,3.6,8.3c-0.5,19.4-2.1,20.8-21.3,16.8
		c-5.3-1.1-9.6-0.1-14,2.6c-3.7,2.3-7.3,5.7-12.2,2.5c-0.9-8.2-1.8-16.5-2.7-24.7C359.7,397.8,367,387.2,378,383.5z"/>
	<path class="st96" d="M562,320.4c13.7,1,26.8-0.2,37-10.9c3.3-3.5,6.4-1.7,9.7-0.1c0,10.1-4.4,19.9-2.7,30.2
		c-3.6,7-4.6,14.6-4.5,22.3c0.1,8.1-2,15.3-8.3,20.8c-11,6.3-21.7,7.2-32.1-1.4c-3.7-4.5-8.3-8.5-9.5-14.7
		C555.9,351.5,556.1,335.3,562,320.4z"/>
	<path class="st97" d="M666.3,339.6c1,19.3-4.7,38.3-2.7,57.6c-0.4,0.5-0.9,0.9-1.3,1.4c-2.4,1.4-5.2,2-7.8,1.5
		c-8.1-1.4-13.7,1-17.5,8.7c-2.1,4.4-5.6,8.2-11.4,8.3c-1.2-0.7-2.1-1.7-2.7-2.9c-0.3-12.4-10.8-23-6-36.2
		c11.1,3.2,20.4-4,21.9-17.4c0.4-4-0.7-8.5,0.6-12.1c1.7-4.6-2.9-12.6,5-13.6C651.7,333.9,660.6,330.4,666.3,339.6z"/>
	<path class="st98" d="M616.9,378.1c1.5,13.2,10.9,24.8,7.8,38.9c-9.1,2.2-16.5-0.5-22.5-7.6c0-6.4-1.4-12-7.2-16.1
		c-4.3-3-6.5-7.3-2.7-12.5c4.2-6.9,6.9-14.1,5.5-22.5c-1.3-7.9,3.1-13.5,8.2-18.7C604.2,354,610.6,366,616.9,378.1z"/>
	<path class="st99" d="M303.9,608.6c-4.6,0.9-9.1,1.8-13.7,2.7c12.6-14.3,11.2-31.6,9.8-48.6c-1-12.2-4.7-24.1-4.3-36.5
		c12.7,6.4,24.4,13.8,27.3,29.4c-2,12.1-0.4,24.6-3.6,36.6C317.1,600.4,314.4,608.1,303.9,608.6z"/>
	<path class="st100" d="M320.4,553.7c-3.8-13.1-18.1-16.8-24.7-27.4c0-0.9,0-1.8,0-2.7c2.6-1,4.4-2.9,5.5-5.5
		c1.8-4.6,4.8-7.4,10.1-7.2c12.2,0.5,27.7,12.6,31.8,24.8c-0.2,11.2,3,23-6.8,32.1C329.5,564.8,327.4,556.5,320.4,553.7z"/>
	<path class="st101" d="M397.3,699.2c0-4-1.8-6.7-5.5-8.2c0-3.7,0-7.3,0-11c1.3-4.8-1.4-11,4.7-14.2c14.2,6.9,26.4,5.3,36.6-7.9
		c5-6.4,11.1-4.2,16.6,0.3c4.7,2.8,9.9,4.3,14.8,6.5c3.3,1.5,8.5,2,6.8,8c-4.8,5.2-11.3,5.3-17.7,5.4c-8.3,0.1-13.7,2.8-15.1,11.9
		c-1.4,9.2-8.7,15.7-12.6,23.9c-3.2,6.7-9.4,4.5-12.3-1.7C410.2,705,404.6,701.2,397.3,699.2z"/>
	<path class="st102" d="M397.3,666.3c-3.5,3.9-1.1,10.2-5.5,13.7c-8.2-5.9-10.5,1.5-14,6.2c-1.8,2.4-1.9,6.8-6,6.3
		c-3.8-0.5-6.1-3.8-7.1-7.3c-1.3-4.7-2.8-9.5-2.9-14.4c-0.3-7.6-4-10.4-11.1-10c6.5-6.6,8.8-18.8,22-16.5c7.8-0.9,15.3-6.5,23.6-1.6
		C398.6,650.4,399.8,658.3,397.3,666.3z"/>
	<path class="st103" d="M438.4,295.7c0.4,3.9,2.8,6.8,6.2,4.6c5.1-3.4,9.4-4.5,14.9-1.2c3.7,2.2,6.6-1.1,7.6-3.8
		c5.5-15.8,13.1-8.8,20.8-2.3c3.6,16-0.2,31-5.4,45.9c-6.6,7.6-11.1,21.4-22.8,17.8c-11.8-3.7-19.6-15.2-22.6-28.3
		c-0.4-1.8-0.7-3.5-1.4-5.2C436.9,314,432.8,304.4,438.4,295.7z"/>
	<path class="st104" d="M435.7,323.2c7.3,7.1,10.2,17.1,16.8,25c9.1,10.9,13.2,6.8,19.4-1.2c2.1-2.8,5.1-5,7.7-7.4
		c2.8,1.6,4.2,4.1,4.8,7.1c-6.3,12-8.9,25.4-13.3,38.1c-11.7,4.4-23.2,3.1-34.5-1.6c-5.6-4-8.8-9-6.5-16.2
		C430.7,352.3,427.9,337,435.7,323.2z"/>
	<path class="st105" d="M430.2,367.1c1.8,4.6,3.7,9.2,5.5,13.7c1,8.4-0.7,15.8-7.9,21.1c-11.1-0.9-22.2-0.2-33.2,0.9
		c0-2.7,0-5.5,0-8.2c1.3-11.3-4.3-24.4,8.2-32.9c3.4,6.7,9.3,6.5,14.9,4.5C422.3,364.4,426.2,364.7,430.2,367.1z"/>
	<path class="st106" d="M562,320.4c0.7,16.4-3,32-8.4,47.3c-6.9,4.6-14,3.9-21.2,0.8c-7.8-8.8-1.6-21.4-8.3-30.5
		c-4.4-12.8-10.3-25.5-6-39.6c13.7,5.1,27.4-1.2,41.2,0C558.6,306,559.8,313.3,562,320.4z"/>
	<path class="st107" d="M394.5,402.8c10.3-8.8,21.6-5.6,32.9-2.7c6.6,5.3,5.2,11.3,1.5,17.5c-3.8,5.1-8.9,7.8-15.2,7
		c-10.7-1.4-14.7,4.4-15.8,13.9c-0.7,6.7-2.8,12.5-10.7,13.6c-9.3-3.2-18.2-4.7-26.4,3c-2,1.8-5,2.1-7.5-0.1
		c-2.7-6.4-5.5-12.8-8.2-19.2c0.4-4.4,1.9-8.2,5.5-11c5.2,0.1,7.6-4.4,11.3-6.7c4.6-2.9,9.2-5.4,15.2-3.1
		C394.3,421.4,394.4,421.3,394.5,402.8z"/>
	<path class="st108" d="M710.2,389c4.2,6.9,2.3,14.6,2.7,22c0,1.8,0,3.7,0,5.5c-3.7,3.5-8.3,3.8-12.9,3c-11.3-2.1-15.8,3-16.8,13.8
		c-0.8,8.7-4.1,16.2-15.6,12.4c-2.1-16.1-7-31.9-4.1-48.5c0,0,0,0,0,0c7.7,1.3,14.3,1,20.8-5.1C691.5,385.5,701.5,390.2,710.2,389z"
		/>
	<path class="st109" d="M545.5,781.6c-21.4-1.7-28.7,19.2-43.9,27.4c-3.5-4.9-0.7-9.4,0.9-13.9c13.5-23,37.5-33.5,58.1-48
		c6.5-4.6,14.8-6.3,22.3-4c10.4,3.2,18.2,0,25.6-6.6c2.4,0.3,3.8,1.6,4.4,3.9c0.1,7.5-2.8,14.2-5.9,20.7c-5.1,7.2-12.9,8.2-20.6,7.6
		C570.9,767.4,556.7,769.7,545.5,781.6z"/>
	<path class="st110" d="M504.3,795.3c-0.9,4.6-1.8,9.1-2.7,13.7c-8.2,18.2-24.3,23.6-42.2,24.4c-7.8,0.4-14,1.6-18.2,8.5
		c0.6-8.3,4.1-16.2,2.7-24.7c-0.5-8.8,5.8-10.6,12.3-11.3c19.4-2.1,36.9-7.2,47-26c1-1.8,2.9-1.9,4.7-0.8
		C512.3,785.8,507.4,790.3,504.3,795.3z"/>
	<path class="st111" d="M545.5,781.6c3.9-11.1,11.6-16.2,23.5-16.7c12.4-0.5,25.7,4.2,36.9-5.3c1.3-0.8,2.4-0.7,3.4,0.4
		c0.7,4.9-1.9,9-3.4,13.3c0,1.8,0,3.7,0,5.5c-2.1,10-7.9,14.9-18.3,12.3c-12.8-3.1-23.6,4.6-35.4,6.5c-1.5-0.1-2.8-0.6-4-1.4
		c-4-3.3-1.1-8.1-2.6-11.9C545.5,783.4,545.5,782.5,545.5,781.6z"/>
	<path class="st112" d="M545.5,784.3c4,2.9,2.4,7.2,2.7,11c-0.3,8.5-4.3,15.7-12.1,17.9c-12.7,3.6-18.9,13.2-25.3,23
		c-4.4,6.8-8.1,14.1-14.8,19.2c-2.7,0.1-5.5,0.1-8.2,0.2c-7.6,0.5-8.4-4.5-3.9-7.7c10.2-7.2,14.5-18.2,21.2-27.6
		c8.6-12.1,16.3-25.1,32.7-28.6C540.9,791.2,543,786.9,545.5,784.3z"/>
	<path class="st113" d="M597.6,814.5c1.8,0,3.7,0,5.5,0c-1.8,3.7-3.7,7.3-5.5,11c2.6,9.9-6.1,10.9-11,10.7
		c-15.1-0.7-24.3,6.2-30.1,19.3c-6.4,0-12.8,0-19.2,0c-4-7.8,2.1-13.6,4.1-20.2c9.4-13.7,22-20.6,38.9-19
		C586.2,816.8,591.9,815.1,597.6,814.5z"/>
	<path class="st114" d="M556.5,855.4c3.5-20.6,3.5-20.5,24.4-21.8c6.4-0.4,14,0.3,16.8-8.1c1.8,0,3.7,0,5.5,0
		c2.6,12.3-7.9,19.7-10.9,29.9C580.3,855.4,568.4,855.4,556.5,855.4z"/>
	<path class="st115" d="M496.1,855.4c6.4-14.7,15.9-27.4,25.7-39.8c1.1-1.4,2.9-3.3,4.2-3.2c13.2,1.6,16.1-9.8,22.2-17.1
		c0.9,0,1.8,0,2.7,0c4.5,5.6,2.3,11-0.3,16.5c-5.2,9.5-10,19.1-22.5,21.2c-4.3,0.7-6.1,5-7.3,9c-1.6,5.2-3.8,10.1-8.4,13.5
		C507.1,855.4,501.6,855.4,496.1,855.4z"/>
	<path class="st116" d="M512.6,855.4c2-6.4,3.7-12.8,6-19c0.9-2.4,3.1-6,4.8-6c13-0.3,18.6-9.7,24.8-18.7c1.3-1,2.6-0.8,3.7,0.4
		c3.9,10.7-6.9,15.9-9.2,24.3c1.1,7.2-5,12.3-5.5,19C529.1,855.4,520.8,855.4,512.6,855.4z"/>
	<path class="st117" d="M518,298.5c2.7,12.8,5.5,25.6,8.2,38.4c-12.7,16.5-17.1,17.2-32.2,4.2c-7.1-6.1-7.1,4.7-11.7,4
		c-2.2-1.2-2.7-3.2-2.7-5.5c2.7-15.6,5.5-31.1,8.2-46.7c1.8,0,3.7,0,5.5,0C499.8,302.9,509.8,296.7,518,298.5z"/>
	<path class="st118" d="M353.3,454.9c2.4-1.1,5.4-1.5,7.1-3.3c8.1-8.2,16.5-9.8,25.8-2.2c9.1,6,6.1,15,5.8,23.3
		c-3,8.8-8.4,16.7-8.9,26.4c-0.7,3.1-1.3,6.1-2.1,9.2c-1.3,4.8-2.5,10.3-8.4,10.9c-5.8,0.5-8.2-4.4-10.3-9.1
		c-2.3-5.3,0.1-14.8-11-12.3c-1.3,0.2-2.6,0.2-3.9,0c-8.7-5.6-12.4-13.4-10.8-23.7C340.7,466.3,339.2,453.9,353.3,454.9z"/>
	<path class="st119" d="M336.9,474.1c4.6,7.3,3.1,18.4,13.7,22c1.1,10.3-2.2,20.2-2.6,30.4c-0.2,4.4-2.3,8.9-8.4,8.1
		c-6.9-15.4-26.4-23.7-38.4-16.5c-6.4-10.1,2.8-20.1,0-30.2C311.2,469.8,315,468.3,336.9,474.1z"/>
	<path class="st120" d="M605.9,773.3c-0.3-4.8,0.1-9.5,2.7-13.7c2.9-9.7,8.8-17.7,14.5-25.8c3.9-5.6,9.9-7.8,16.7-8
		c7.3-0.3,14.6-0.5,21.9-0.1c11.4,0.7,20.1-2.4,26.8-12.5c7.6-11.4,19.3-14.4,32.6-11.3c6.1,2.8,11.9,8.1,19.2,2.7
		c-0.9,2-1.2,5.4-2.6,5.9c-20.4,6.8-39.8,14.8-57.7,27.9c-5.7,4.1-20,5.4-30.6,4.6c-12.2-0.9-21.2,3.6-27.2,14.2
		C618.3,764.1,610.9,767.5,605.9,773.3z"/>
	<path class="st121" d="M723.9,729.4c0,5.5,0,11,0,16.5c-5.7,0.7-11.1,4.6-17.3,1.3c-1.2-0.6-3.9,0-4.9,1
		c-19.1,19.9-43.5,23.4-69.3,22.4c-2.8-0.1-5.5,0.1-7.3,2.7c-4.6,13.1-18.5,18.5-24.7,30.2c-1.1-0.9-1.7-2.1-2-3.5
		c-0.8-7.5,3.7-12.8,7.5-18.5c5.4-2.5,10.6-5.2,13.7-10.8c3.9-7,11.4-10.9,18.1-10.6c13.6,0.7,25.8-4.5,38.7-6.3
		c2.6-0.4,6-0.9,7.4-2.7C694.1,738.3,710,735.8,723.9,729.4z"/>
	<path class="st122" d="M605.9,781.6c-1.8,6.4-3.7,12.8-5.5,19.2c-1.9,3.6-4.9,5.2-8.9,4.5c-12-2.1-23-0.3-33.1,7.1
		c-2.2,1.6-5.1,1.4-7.5-0.6c-0.9,0-1.8,0-2.7,0c0.9-5.5,3.7-10.7,2.7-16.5c13.8-5.4,27.3-11.6,43.1-6.7c6.2,1.9,7.5-6.8,11.8-9.8
		C605.9,779.7,605.9,780.6,605.9,781.6z"/>
	<path class="st123" d="M394.5,641.6c-7.1,2.3-13.9,8-22,2.7c-3.3-6.7-9.4-6.7-14.8-4.5c-8.1,3.3-14.6,1.3-20.8-3.7
		c3.3-5.1,2.8-10.8,2.7-16.5c12.9-4.3,24.5-14.1,39.8-8.1c5.3,2.1,9.4-2.1,11.7-7.1c1.6-3.3,2.2-6.9,3.5-10.3
		c2.4-6.3,6-12,13.7-10.7c7.2,1.3,10.7,6.4,9.3,14.1c-14.1,8-21.8,19.5-19.8,36.3C397.6,636.8,397,639.6,394.5,641.6z"/>
	<path class="st124" d="M523.7,81.6c0-5-0.2-10.1-0.1-15.1c0.1-3.4-1.2-8.1,3.8-9c3.7-0.6,7.8,1.2,9.1,4.8
		c2.6,7.4,7.1,11.2,15.1,11.2c5.7,0,7.6,4.2,7.6,9.4c0,5.9-0.1,11.9-0.1,17.8c-8.9,7.5-16.5,5.7-22.8-3.3
		C532.4,91.9,527.9,86.9,523.7,81.6z"/>
	<path class="st125" d="M559,139.3c-11.2,5.4-23.2,6.2-35.4,5.5c0-10.1,0-20.1,0-30.2c3.9-3.7,8.6-3.5,12.4-1
		c7.3,4.8,15.1,3.9,23,3.8C559.1,124.7,559.1,132,559,139.3z"/>
	<path class="st126" d="M559.1,117.4c-6.5,5.4-12.8,7.7-20.2,1c-4.1-3.7-9.7-4.3-15.2-3.8c0-11,0-22,0-32.9
		c6.3,0.3,10.7,4.7,12.4,9.5c4.5,12.1,12.9,12.2,23,9.7C559.1,106.4,559.1,111.9,559.1,117.4z"/>
	<path class="st127" d="M712.9,441.2c1.8,2.7,3.7,5.5,5.5,8.2c2.9,8.2-3.1,14.3-5,21.4c-7.6,14.4-23.1,19.6-34.6,29.4
		c-2.4,2-6.1,1-8.9-1c-5.8-6.5-5.4-13.8-2.6-21.4c5.6-5.4,8.8-12.1,11.9-19.3C685.3,444.3,697.8,438.3,712.9,441.2z"/>
	<path class="st128" d="M712.9,441.2c-16.6,3.3-31.6,8-33.4,28.8c-0.5,5.3-6,6.1-10.5,6.9c-0.5-0.6-1.1-1.1-1.6-1.6
		c-3.2-8.2-2.4-16.5-1-24.8c0.5-1.5,1.4-2.7,2.6-3.7c8.5-2.7,11.5-8.3,11.2-17.4c-0.4-12.2,5.1-16,16.7-14.1
		c5.3,0.8,10.7,0.9,16,1.3c0,4.6,0,9.1,0,13.7C712.9,433.9,712.9,437.5,712.9,441.2z"/>
	<path class="st129" d="M710.2,468.6c2.7-6.4,5.5-12.8,8.2-19.2c9.1,0.3,18.3-2.8,27.4,0c0.9,2.7,1.8,5.5,2.7,8.2
		c-1.4,11.5-12.9,12.7-19.2,19.2c-1.8,3-4,5.2-7.9,4.1C716.2,478.2,713.5,473.2,710.2,468.6z"/>
	<path class="st130" d="M551,811.7c14.6-12,32.1-11.1,49.4-11c0,0.9,0,1.8,0,2.7c0.4,4-0.9,7.6-2.7,11c-0.7,5.7-5,5.9-9.1,5.4
		c-18.2-2.4-33.7,2.2-45.8,16.5C539.4,826.2,552.6,821.4,551,811.7z"/>
	<path class="st131" d="M397.3,699.2c8.3-5,13.3-2.7,15.9,6.7c1,3.6,2.2,9,7.1,9c6.4,0,2.7-6.7,4.9-9.3c6.6-7.7,11-15.7,12.1-26.1
		c0.4-4.1,7-5.1,11.7-4.8c7.8,0.5,15.4-0.6,22.8-3c5.1-4.2,9.7-2.3,14.2,1.2c4.9,14.4-4.4,26.9-20.6,25.1
		c-14.2-1.6-23.5,2.6-29.7,15.1c-4,2.9-2.4,7.2-2.7,11c-13.7,8.7-16.3,8.4-20.9-6.8c-4-13.1-10-9.9-17.5-4.2
		C395.4,708.4,396.3,703.8,397.3,699.2z"/>
	<path class="st132" d="M416.5,597.6c-1-6.1-2.9-12.4-10.3-11.9c-6.3,0.5-7.6,6.6-9,12.1c-4.7,18.9-7.6,20.5-25.6,14.6
		c-4.1-1.4-7.6-0.3-10.1,2c-6.5,5.8-14.1,5.3-21.8,5.2c0-4.6,0-9.1,0-13.7c-0.8-1.2-0.8-2.4,0.1-3.6c20.4-8,34.1-21.6,38.3-44
		c1.5-8.1,8.7-14.8,15.7-9c16,13.4,26,0.5,37.9-5.8c2.8-1.5,4.5-6.7,8.7-1.9c2.7,5.7,1.7,11.7,2.1,17.7c0,7,0.3,14-1.2,20.9
		C434.5,597.4,429.9,600.7,416.5,597.6z"/>
	<path class="st133" d="M339.6,603.1c0,0.9,0,1.8,0,2.7c-14.8,4-23.2,15-30.2,27.4c-1.8-8.2-7.4-15.6-5.5-24.7
		c11.1-6.7,13.4-17.6,13.6-29.3c0.2-8.7-0.2-17.3,2.8-25.6c10.4-1.3,15,3.3,13.7,13.7c1.7,1.6,2.7,3.6,3.2,5.8
		C336.4,583.3,345.3,592.7,339.6,603.1z"/>
	<path class="st134" d="M507.1,778.8c-2.2,4.4-4.3,8.9-6.6,13.2c-1.3,2.4-3.1,6.7-4.3,6.5c-13.3-1.6-21.1,14.4-35.2,10.7
		c-7-1.9-13.6,0.6-17,8c-0.9,0-1.8,0-2.7,0c0.9-7.3,1.8-14.6,2.7-22c2.1-5.1,6.7-6.5,11.2-5.9c12.4,1.5,22.6-5.9,34.2-7.5
		c6.8-1,7.4-7.3,9.3-12.2c7-17.5,19.8-28.5,38-33.3c5,2.3,6.5,6.9,7.8,11.7c0.5,11.6-9.2,14.8-16.8,16.7
		C518.4,767.1,512.2,771.6,507.1,778.8z"/>
	<path class="st135" d="M795.3,614.1c4,4.8,5.3,10.4,5.5,16.5c-6.9,3.6-13.4,7.4-21.8,3.3c-9.5-4.6-14,7.1-22.1,7.6
		c-5.4-4-14.5-4.5-13.8-14.4c1.5-1.4,3.4-2.1,5.3-2.6c1.3-0.4,3.1-0.4,3.8-1.3C763.7,606.6,779.2,609.1,795.3,614.1z"/>
	<path class="st136" d="M743.1,627.8c4.6,4.6,9.1,9.1,13.7,13.7c-2.7,0-5.5,0-8.2,0c-1.8,1.5-4,2.1-6.2,2.6
		c-13.7,3.1-27.3,6.3-36.7,18.3c-2.2,2.8-5.7,4.5-9.5,5c-1.5,0-2.7-0.6-3.7-1.6c-1.6-2.6-1.8-5.4-1.1-8.3
		c9.4-18,24.5-28.1,44.2-31.5C738.4,625.5,741,625.7,743.1,627.8z"/>
	<path class="st137" d="M696.5,666.3c3.1-2.6,6.8-4.8,9.2-8c11-14.5,26.5-16.8,43-16.7c-2.7,6.1-13.3,7-11,16.5
		c-1.8,1.8-3.7,3.7-5.5,5.5c-9.1,8.5-20.5,8.9-32,9.4C697.2,671.7,695.3,669.8,696.5,666.3z"/>
	<path class="st138" d="M443.9,732.1c-5.4,1.9-7,7.7-11,11c1.8-8.2,3.7-16.5,5.5-24.7c3.3-7.2,8.5-12.3,16.7-11.5
		c18.6,1.7,34.3-6.3,50.3-13.7c6-2.7,11.1-4.7,14.4,3.3c0.9,3.1,0.7,6-0.8,8.9c-9.2,11.9-18.1,24.7-34.5,26.8
		C471.1,733.8,457.5,734.6,443.9,732.1z"/>
	<path class="st139" d="M517.7,696.5c-2.2-0.8-2.6-5.2-6.4-2.9c-18.2,11-37.1,19.4-59.2,16.8c-6.2-0.7-8.7,6.1-13.7,8.1
		c-0.1-2.3-0.5-4.3-2.7-5.5c1.3-16.3,8.8-21.2,28.4-18.5c13.7,1.9,21.3-5.2,21-19.7c10.4-6.5,21.5-3.2,30.7,1.1
		C524.3,679.9,523.6,688.9,517.7,696.5z"/>
	<path class="st140" d="M537.3,737.6c-16.3,9-32.4,17.9-37.1,38.3c-1.6,6.9-6.1,7.9-13.2,10.6c-14.3,5.3-29.2,3.8-43.1,8.8
		c-2-3.2-5.2-2.7-8.2-2.7c0.9-0.9,1.8-1.8,2.7-2.7c3.8-13.2,13.1-15.8,26-18.4c14.4-3,31.1-6.6,40.3-21.4
		c7.5-3.2,12.1-9.2,15.1-16.6c4.5-5.4,9.7-8.3,16.8-5.2c2.6,2.1,2.9,4.8,1.9,7.9C538.2,736.5,537.7,737.1,537.3,737.6z"/>
	<path class="st141" d="M798,452.2c1,6.8-3.6,10.5-7.7,14.6c-4.4,4.3-9.8,8.1-8.7,15.6c-1.1,4-4.2,6.6-7.7,7
		c-14.4,1.8-28,7.1-42.3,9.6c-3.7-6.1-4.6-12.6-2.2-19.4c5.2-3.6,11.4-3.4,17-3.1C768.2,477.6,782.7,464.3,798,452.2z"/>
	<path class="st142" d="M729.4,479.6c3.8,6,2.5,12.7,2.7,19.2c2.2,2.2,2.5,4.8,1.7,7.6c-0.2,0.4-0.3,0.9-0.6,1.2
		c-11.7,10.5-27.8,12.4-40.5,21c-2.1-3-2.3-6.4-1.8-9.8c7.5-15,14.7-30.3,30.2-39.2c2.7-0.9,5.5-1.8,8.2-2.7
		C729.4,477.8,729.4,478.7,729.4,479.6z"/>
	<path class="st143" d="M789.8,559.2c0.9,0,1.8,0,2.7,0c0,8.2,0,16.5,0,24.7c-3.7,5.8-8.8,4.2-12.8,1.3c-6.7-4.8-10-1.5-14.3,3.4
		c-5,5.7-6.8,15.4-17.2,14.8c-4.3-8.4-10.8-14.8-18.8-19.7c-0.6-6.6,4.2-8.1,8.8-7.3c8,1.3,14.7-1.5,20.2-6.2
		C767.6,562.5,780.3,565.7,789.8,559.2z"/>
	<path class="st144" d="M748.6,603.1c8-5,11.7-13.5,17.2-20.5c4-5.1,7.5-9.6,13.4-1.5c3.1,4.2,8.2,5.2,13.4,2.8
		c0.9,2.7,1.8,5.5,2.7,8.2c0,3.7,0,7.3,0,11c-4.8,4.3-10.6,4.2-15.3,1.3c-7.3-4.5-11.6-1.5-16.5,3.6c-4.7,4.9-9.5,10.5-17.7,6.3
		c-1.7-1.1-3-2.5-3.4-4.5C742.8,606,745.1,604,748.6,603.1z"/>
	<path class="st145" d="M699.2,671.8c11-2.7,22-5.5,32.9-8.2c0,1.8,0,3.7,0,5.5c-10.5,12.1-27.6,15.1-38.1,27.4
		c-12,8.4-25.8,11.1-40.1,11c-13.7-0.1-26.6,0.2-32.7,15.8c-1.1,2.9-4,5-7.8,3.6c-2.1-2.4-2.6-5.2-2.7-8.2
		c3.3-15.2,12.2-25.8,25.6-25.1c22.7,1.3,41.7-4.9,57.7-20.9C695.4,671.2,697.4,671.2,699.2,671.8z"/>
	<path class="st146" d="M693.7,693.7c9.6-13.2,24.9-17.6,38.4-24.7c4.6,3,9.1-0.9,13.7,0c-2.5,4.3-6.6,8-5.5,13.7
		c-0.9,2.7-1.8,5.5-2.7,8.2c-14.6,3-27.9,12.1-43.7,8.9C691.9,697.9,692.1,695.8,693.7,693.7z"/>
	<path class="st147" d="M693.7,699.2c14.6-2.7,28.7-8.8,43.9-8.2c-3.7,6.3-13.5,3.5-16.5,11c-15.7,2.4-29.8,6.8-37.2,23.1
		c-1.8,3.9-7.6,4.5-12.4,4.4c-6.4-0.1-12.9,0.8-19.1-0.2c-17.4-2.6-29.4,3.3-34.8,20.5c-1.5,4.8-6.3,6.3-9.1,9.9c-0.9,0-1.8,0-2.7,0
		c0-6.9,2.9-13,5.5-19.2c6.1-18.3,14.8-25.2,33.4-25.5C662.7,714.5,677.8,705.7,693.7,699.2z"/>
	<path class="st148" d="M435.7,773.3c0-2.7,0-5.5,0-8.2h0c4.5-15.7,13.7-23.3,31.4-23.4c14.3-0.1,28-6.5,38.1-18.1
		c4.2-4.8,8.6-9.3,14.8-11.5c4.6-0.4,8.5,0.6,9.5,6c-1.8,6.5-6,11.3-11.8,14.4c-5.5,3-9.5,7.2-11.9,12.8
		c-6.6,15.8-20.6,16.2-34.4,17.2C458.6,763.1,444,757.9,435.7,773.3z"/>
	<path class="st149" d="M471.4,762.3c7.5-0.9,12.3-10.9,21.8-6.2c2.1,1.1,4.8-2.3,5.6-5c4.7-16,19.6-22.3,30.2-32.7
		c0.7-0.1,1.4-0.1,2.1-0.2c6.6,1.2,10.6,3.8,6.2,11.1c-6.5-1.2-11.6,1.8-16.5,5.5c-4.1,5.9-9.6,10.6-13.7,16.5
		c-6.5,6.8-8.3,21-23.1,14.7c-8.7,11.3-21.3,9.9-33.5,10.4c-8,0.3-5.1,11.5-12,13.3c0.9-3,2.1-6,2.6-9.1c2-11.6,7.7-17.8,20.3-15.7
		C464.8,765.5,468.7,765.8,471.4,762.3z"/>
	<path class="st150" d="M789.8,559.2c-0.5,3.8-0.2,11.3-4.9,8.8c-12-6.4-19.2,2.8-27.3,6.8c-6.6,3.3-11.5,8.2-19.6,4.3
		c-3.9-1.9-6.8,1.2-8.6,4.8c-0.6,0.2-1.3,0.4-1.9,0.6c-2.1-0.5-3.6-1.7-4.5-3.7c-0.4-2.9,0.6-5.4,1.9-7.9c0.7-1.2,1.3-2.7,2.4-3.2
		c19.5-7.5,35.5-22,55.9-27.8c1.3-0.4,2.6,0.1,3.9,0.7C792,547.6,788.9,553.7,789.8,559.2z"/>
	<path class="st151" d="M792.5,507.1c0,1.8,0,3.7,0,5.5c-2.2,7.2-3.4,14.4-2.8,22c-14.9,10.7-31.8,16.2-49.8,18.1
		c-4.1,0.4-7.8,2-11.8,2.7c-1.4,0.1-2.7-0.2-3.9-0.8c-0.9-1-1.3-2.2-1.2-3.6c7.3-15.4,23.9-18.8,36.8-25.6
		c7.9-4.2,16.5-8.2,24.5-12.7C788.6,513,789.7,508.7,792.5,507.1z"/>
	<path class="st152" d="M726.7,553.7c9.3-9.7,23.2-1.4,33.9-9.3c7.9-5.8,19.4-6.8,29.2-9.9c-0.9,2.7-1.8,5.5-2.7,8.2
		c-12.6,8.1-28.2,10.5-39,22.6c-4.9,5.5-17.5-0.4-21.4,10.3c-2,1.5-4,1.8-6.1,0.2C718.7,567.4,718.6,559.4,726.7,553.7z"/>
	<path class="st153" d="M521.2,711.7c-16.4,20.2-35.4,35.8-63.5,34.1c-6.8-0.4-11,2.9-14,8.7c-2.1,3.9-3.2,8.7-8,10.5
		c-4.2-12.7,8.6-21.2,8.2-32.9c9-4.9,18.8-2.3,28.2-2.7c15.6-0.5,29.8-2.9,36.9-19.4c1.5-3.4,4.9-5.3,9-5.4
		C520.7,706.3,521.6,708.7,521.2,711.7z"/>
	<path class="st154" d="M732.1,507.1c0-2.7,0-5.5,0-8.2c8.8-7.2,19.2-10.4,30.1-10.7c7.2-0.2,13.2-2.6,19.3-5.7
		c2.7-0.9,5.5-1.8,8.2-2.7c-8.1,8.4-8.2,19.8-11,30.2c-15.1,4.9-30.6,8.1-46.1,11.7c-1.3-0.8-2.3-2-2.8-3.5
		C728.6,513.9,729.9,510.4,732.1,507.1z"/>
	<path class="st155" d="M732.1,520.8c14.5-8.3,29.9-12.5,46.7-11c1.8,0.9,3.7,1.8,5.5,2.7c-5.3,10.7-16.9,10.9-25.1,15.9
		c-11.6,7.2-26.6,10.6-35.3,22.5C716,538,728.8,530.7,732.1,520.8z"/>
	<path class="st156" d="M745.9,611.4c8.8,5.7,12-2.9,16.4-7c5.8-5.5,10.1-11.7,18.6-2.8c2.6,2.7,9.5,1.2,14.4,1.6c0,1.8,0,3.7,0,5.5
		c0,1.8,0,3.7,0,5.5c-4.8,4.7-10.3,3.5-14.8,0.6c-8.8-5.7-14.6-1.8-19.2,5.2c-3.2,4.9-6.2,8.8-12.6,7.9
		C743.7,623,740.8,617.9,745.9,611.4z"/>
	<path class="st157" d="M602.3,408.8c-10.8-1.3-21.5-2.8-32.3-3.8c-6-0.5-7.5-3.8-7.4-9.1c0.1-5.9-0.2-11.8-0.3-17.7
		c9.2,9.4,19.5,5.6,29.8,2.6c-0.5,5.7,1.8,9.4,7.1,11.9C607.3,396.4,608.5,402,602.3,408.8z"/>
	<path class="st158" d="M619.5,446.4c-0.5-10.2,6.5-19.1,5.1-29.5c2.1-1.7,5.5-3,6.2-5.1c5.5-17.3,18.9-16.3,32.7-14.6
		c4.7,16.1,6.7,32.6,5.5,49.4c0,0.9,0,1.8,0,2.7c-7.6,5.3-16.1,2.3-23.9,1.8c-7.3-0.5-13.8-5.3-21.5,1.3
		C620.4,455.2,617.3,451.1,619.5,446.4z"/>
	<path class="st159" d="M334.1,572.9c0-1.8,0-3.7,0-5.5c8-10,4.8-21.8,5.5-32.9c7-3.2,5.7-9.7,5.4-15.3c-0.5-8.4,1.2-16,5.6-23.1h0
		c11.3-4.7,11.4,4.6,13.7,11c2.4,3.5,2.8,10.2,7.9,9.5c5.7-0.8,5.3-7.1,6-11.9c0.3-2,1.7-3.9,2.6-5.8c8.5-9.8,12.3-1,16.4,4.4
		c7.8,10.2,7.7,10.3,15.1-0.2c7.8-10.9,11.5-10.6,24.6,2.2c1.4,1.5,2.4,3.2,3,5.1c0.4,2,0.2,4-0.8,5.8c-7.9,9-20.6,11.1-28.5,20.5
		c-3.8,4.5-9.1,1.5-13.3-1.9c-10-8.1-10.1-8-15.3,4.2c-3,7.2-7.3,13.7-11.6,20.1c-2.2,3.2-6.1,6.5-9,4.2c-9.8-7.8-11.4-0.1-14.9,6.4
		C344,574.4,339.7,577.2,334.1,572.9z"/>
	<path class="st160" d="M452.5,625.6c-0.1,12.1-7.1,22.9-6.4,35.2c-2.6-2.9-4.7-7.4-9.4-2.4c-2.5,2.6-5.1,5.1-7.7,7.6
		c-12.5,11.9-17.8,11.9-31.7,0.2c-4.6-7.8-2.1-16.4-2.7-24.7c0-2.7,0-5.5,0-8.2c2.2-2.2,1.1-5.2,1.9-7.8c1.4-4.8,2.1-10.5,7.6-12.2
		c6.2-1.9,8.5,3.7,11.6,7.5c8.3,10.4,14.7,10.4,32.1,0.1C450.6,621.2,453.9,621,452.5,625.6z"/>
	<path class="st161" d="M531.8,366.8c-5.1,3.6-8.9,8.3-11.3,14.1c-2.2,6.2-0.8,12.7-1,19c-0.2,5.3-3,9.4-7.2,5.7
		c-12.3-11-27.4-10-41.9-11.6c-2.1-3.8-1.6-7.2,1.1-10.5c-4-15,4.4-26.4,11-38.4c1.3-3.4,2.3-7,4.1-10.1c2.2-3.5,5.6-5.1,8.8-1.1
		c12.3,15.1,12.3,15.2,27,3.8c1-0.8,2.6-0.6,3.9-0.9C536.9,345.3,529.6,356.9,531.8,366.8z"/>
	<path class="st162" d="M471.4,383.5c0,3.7,0,7.3,0,11c4.5,5,4,10.5,1.4,16.1c-12.1,6.6-26.6,4.1-39,10c-2.4,1.2-5-1.4-6.3-4.1
		c1.9-5.5,1.9-11,0-16.5c2.7-6.4,5.5-12.8,8.2-19.2C447.4,383.6,459.4,383.9,471.4,383.5z"/>
	<path class="st163" d="M427.5,416.5c2.9,1.3,5.9,3.5,8.9,0.9c10.5-8.9,23.1-6,35.1-6.4c4.2,4.7,4.2,10.1,2.6,15.7c-3,3-5.9,6-8.9,9
		c-17.8-1.3-28.5,10.2-39.1,21.8c-4.1,2.2-6.7,5.6-8.8,9.8c-3.2,6.5-7.2,11.2-13.6,2.9c-2.6-3.4-4.3-1.8-6.1,0.7
		c-2.1,2.8-3.9,6.5-8.4,3.2c-0.6-8.3,1.8-16.9-2.7-24.7c8.3-0.7,8-6.6,8.3-12.7c0.7-12.9,6.1-17.6,18.3-15.2
		C419.2,422.8,422.9,419.1,427.5,416.5z"/>
	<path class="st164" d="M614.1,718.4c0,2.7,0,5.5,0,8.2c2,5.6-2.8,7.7-5.5,11c-4.5,9.5-9.4,14.3-21.8,9.3
		c-14.4-5.8-26.9,3.3-38.5,11.7c-15.5,11.2-31.9,21.2-43.9,36.6c0.9-5.5,3.7-10.7,2.7-16.5c0.8-9.6,4.7-14.8,15.6-16.1
		c8.1-0.9,17.6-3.6,20.1-14.1c3-15.2,15.4-18.8,27.7-22.2c4.8-1.3,10.1-1.2,15-0.2c9.6,2,17-0.6,22.6-8.6
		C610.2,716.7,612.3,716.8,614.1,718.4z"/>
	<path class="st165" d="M608.6,737.6c-0.4-4.8,3.9-7.2,5.5-11c9.3-20.3,25-25.5,46.5-23c11.1,1.3,22.7-4.3,33.1-10
		c0,1.8,0,3.7,0,5.5c-10.1,13.5-26.7,18.9-40.4,18.1c-20.9-1.2-31.6,8.8-41.9,23.1C610.5,739.5,609.5,738.5,608.6,737.6z"/>
	<path class="st166" d="M389,474.1c3.1-0.3,4.8-1.8,5.7-4.9c1-3.4,1.8-7.8,6.2-8.1c5.7-0.4,3.7,5.1,5.2,8c2.8,5.4,5.5,4,7.3-0.6
		c2.3-5.9,3-12.8,11.3-13.6c12.5,11,17.9,36.7,11,52.2c-14.1-11.2-14.3-11.3-24.3,4.7c-7.1,11.3-10.4,2.8-14.3-2.5
		c-4.1-5.7-4.9-16.2-16.3-10.5C379.3,489.2,383.3,481.4,389,474.1z"/>
	<path class="st119" d="M364.3,507.1c-3.7-4.7-4.7-12.9-13.7-11C363.7,489.1,364.3,497.7,364.3,507.1z"/>
	<path class="st167" d="M446.7,622.3c-6.7,12.3-25.2,14.3-32.5,3.6c-2.6-3.8-2.7-11.3-8.9-10.3c-4.9,0.8-5.4,7.6-7.6,11.9
		c-1,1.9-2.1,3.8-3.1,5.7c0.1-4.5-0.2-9.1,0.5-13.6c1.9-12.3,8.3-20.6,21.5-22.1c11.9,0.6,17.3-7.4,22-16.5c5.1,2,6.2,6.6,6.2,11.2
		C444.6,602.4,446.4,612.3,446.7,622.3z"/>
	<path class="st168" d="M669,476.9c0.4,7.4-1.5,15.1,2.7,22c0.8,1.2,0.7,2.4-0.5,3.3c-7.1-0.8-13.9-1.7-20.6,3
		c-4.9,3.4-10.5,2.5-14.2-3.1c-5.6-8.7-9.4-4.6-12,2c-2.8,7.1-5.6,14.2-7.6,21.7c-0.8,3-0.9,9.9-7.4,4.4c-2.9-7.2-2.1-14.5-1-21.8
		c2.6-12.6,7-24.6,12.8-36c4.2-8.2,9.9-10.9,17.1-3.4c4.7,4.9,10,5.7,16.3,4.8C659.8,473,664.9,473,669,476.9L669,476.9z"/>
	<path class="st169" d="M671.8,501.6c0-0.9,0-1.8,0-2.7c14.4-8,29.5-15.3,38.4-30.2c5.4,1.9,9.1,5.6,11,11
		c-9.7,12.4-19.7,24.6-27.4,38.4c-10.5,5.3-15.8-4.2-23-8.2C669.3,506.9,669.4,504.1,671.8,501.6z"/>
	<path class="st170" d="M669,476.9c-6.7,0.5-13.5-0.9-20.1,1.7c-6.7,2.6-9.8-2.5-12.8-7.1c-4.5-7-8.1-6.2-11,1.3
		c-4.5,11.5-9.1,22.9-13.7,34.3c-3.3-2.9-3.5-6.9-3.7-10.9c0.5-10-1.8-20,1-29.9c10.7-2.7,5.4-14.2,10.8-19.8
		c1.2,4.7,2.9,7.9,5.7,0.9c1.9-4.6,5-7.4,9.2-4c10.6,8.6,23.4,2.5,34.6,6.1C669,458.6,669,467.7,669,476.9z"/>
	<path class="st171" d="M446.7,622.3c-6.1-5-5.4-11.9-5.5-18.7c-0.2-7.6,1.6-15.4-2.7-22.5c0-7.3,0-14.6,0-22
		c9.6-8.2,16.2-8.4,25.6,1c5,4.9,8.7,5.4,15.4,3.5c9.5-2.8,19.8-7.5,29.6,0c1.3,19.8,0.9,39.4-4.1,58.7c-3.2,1.9-6.5,1.6-9.8,0.2
		c-9.7-0.3-18.6-4.1-26.8-8.7c-9-5-12.9-3-13.8,6.9c-0.2,1.7-1.4,3.2-2.2,4.8C451.3,623.1,449.2,622.4,446.7,622.3z"/>
	<path class="st172" d="M334.1,572.9c9.7,1.4,10.8-6.2,13-12.5c2.3-6.6,4.2-14.6,11.1-2.7c3.5,6,7,4.9,9.8-0.5
		c4.6-8.8,11.9-16.2,13-26.7c0.4-3.9,2.9-6.9,6.3-8.3c4.8-1.9,6.1,2.5,7.9,5.4c6.5,10.4,13.4,11.4,20.2,0.4
		c5.3-8.5,16.3-6.8,22.9-12.7c4,3.8,3.5,8.8,3.8,13.6c-0.1,4.1-0.4,8.1-3.8,11.1c-5.3,15-22.7,12.2-32,21.5c-1.9,1.9-6-0.4-8.1-3.2
		c-2.8-3.7-3.8-9.9-10.9-7.7c-6.7,2.2-5.8,8-7.1,13.3c-4.1,17.2-14.1,30.1-30.2,37.7c-3.1,1.5-7,1.1-10.5,1.6
		C339.4,592.8,332.2,583.7,334.1,572.9z"/>
	<path class="st173" d="M438.4,540c0-3.7,0-7.3,0-11c4.8-8.5,11.8-9.6,20.2-5.8c12.4,15,28.9,24.3,45.7,33.2
		c1.5,1.6,4.3,2.5,2.7,5.6c-10.9,5.1-24.9-1-34.6,9.8c-2.5,2.8-5.3-0.2-6.9-3.7c-5.8-12.5-15.3-14.4-27.2-8.8
		C438.4,552.8,438.4,546.4,438.4,540z"/>
	<path class="st174" d="M608.6,718.4c-2.1,10.1-6.7,14.8-18.2,12c-19.5-4.6-35.8,1.5-47.6,18.2c-1.8-3.7-3.7-7.3-5.5-11
		c7.5-12,20.2-18,30.7-26.5c2.5-2,6.3-3,9.1-1.4c13.7,7.3,23.9,2.2,32.8-8.5c1.4,0.2,2.5,0.9,3.2,2.2
		C614.1,709.1,613.9,714.5,608.6,718.4z"/>
	<path class="st175" d="M745.9,611.4c-1,5.8,1.8,11,2.7,16.5c-1.8,0-3.7,0-5.5,0c-21.1,2.4-37.6,12.4-49.4,30.2
		c-3.4,5.1-7.3,6.9-12,1.4c-0.9-3,0.2-5.5,1.9-7.9c9.8-10.6,20.6-20.5,25.7-34.7c9.2-11.4,20.8-12.7,33.9-8.3
		C744,609.5,745,610.5,745.9,611.4z"/>
	<path class="st176" d="M608.6,718.4c3.3-5.1,2.8-10.8,2.7-16.5c6.9-15.2,17.1-25,35.4-23c10.3,1.1,19.6-2.1,27.9-8.4
		c5.6-4.3,12-6.2,19.1-4.4c0.9,0,1.8,0,2.7,0c0.9,1.8,1.8,3.7,2.7,5.5c-16.1,18.2-35.3,28-60.6,25c-12.5-1.5-21.7,8.1-24.5,21.7
		C612.3,718.4,610.5,718.4,608.6,718.4z"/>
	<path class="st177" d="M693.7,666.3c-19.3,8.6-37.5,20.9-60.6,16.7c-6.1-1.1-7.4,5.7-10.7,9c-3.5,3.5-7.4,6.6-11.1,9.9c0,0,0,0,0,0
		c-2.4-2.3-3.1-5.1-3-8.3c0.1-2.3,0.7-4.5,1.7-6.6c8.5-17.6,22.4-25.4,41.8-21.7c11.6,2.2,20.2-6.8,30.9-7.4c3.7,5,7.3,1.4,11,0
		C693.7,660.8,693.7,663.5,693.7,666.3z"/>
	<path class="st178" d="M611.4,693.7c0,2.7,0,5.5,0,8.2c-1.4,1.1-3.7,2.1-4,3.4c-3.2,15.3-14,14.1-23.8,9.4
		c-9.4-4.5-15.4-2-21.5,4.7c-7,7.8-16.9,11.6-24.8,18.2c0-2.7,0-5.5,0-8.2c1.8-7.1-5-7.7-8.2-10.9c13.6,2,26,1.1,32.2-14
		c3.5-3.6,7.5-6.6,12.8-6C586.9,700,599.3,698.5,611.4,693.7z"/>
	<path class="st178" d="M507.1,751.4c-0.9-10,6.7-13,13.7-16.5C520.9,744.2,515.6,749.2,507.1,751.4z"/>
	<path class="st179" d="M732.1,507.1c0,3.7,0,7.3,0,11c-3.4,2.7-4.1,6.9-5.4,10.6c-1.1,3-2.5,7.1-5.2,7.6
		c-14.2,2.5-23.1,12-31.5,22.5c-1.4,1.7-4.1,1.7-5.9-0.4c-2.6-4.6-2.3-9.6-1.6-14.6c1.8-6.4,3.9-12.6,11.2-14.8
		C701.3,512.5,719.9,515.4,732.1,507.1z"/>
	<path class="st180" d="M693.7,529c-2.7,4.6-5.5,9.1-8.2,13.7c-1.6,1.5-3.5,1.8-5.5,1.2c-7.8-6.6-11.3-15.7-14.8-24.9
		c0.8-4,2.9-7.2,6.6-9.2c9.1-2.1,12.8,10.4,22,8.2C693.7,521.7,693.7,525.4,693.7,529z"/>
	<path class="st181" d="M743.1,608.6c-11.3,2.6-24.7-1-32.9,11c-3.9,4.2-6.3,11-14.2,8.4c-3.1-10.7,4.5-17.2,10.4-23.4
		c7-7.4,14.7-14.5,23.1-20.7c0,0,0,0,0,0c12.5,0.4,18,7.6,19.2,19.2C747.6,605.8,745.7,607.6,743.1,608.6z"/>
	<path class="st182" d="M729.4,583.9c-3.1,7.2-7.8,12.6-14.4,17c-9.5,6.4-15.6,15.7-18.5,26.9c-0.4,9.6-5.6,11.8-14,9.1
		c-2.2-2.3-2.8-5.3-3-8.3c-0.1-2.9,0.4-5.8,1.7-8.4c8.3-8.4,17-16.2,22.3-27.4c3.6-7.6,11.9-10.9,20.5-11.6
		C725.7,582.1,727.6,583,729.4,583.9z"/>
	<path class="st183" d="M723.9,581.2c-9.7,6.3-19.5,11.7-24,24.2c-2.3,6.2-8.5,13.1-17.2,14.3c-3.1-2.9-2.9-6.5-2-10.2
		c0.8-2.1,2-3.9,3.4-5.6c6.3-6.1,10.5-13.5,14.5-21.2c4.9-9.3,12.4-13.1,22.5-6.9c1.8,0,3.7,0,5.5,0
		C725.7,577.5,724.8,579.3,723.9,581.2z"/>
	<path class="st184" d="M685.5,559.2c4.3-2.1,7-5.6,9.1-9.9c1.4-2.8,2.9-7.4,5-7.8c14.5-3,23.6-13.1,32.6-23.5c0,0.9,0,1.8,0,2.7
		c3.1,11.7-11.8,18.4-8.2,30.2c0,0.9,0,1.8,0,2.7c-10.4,4.2-21.7,6.9-24.9,20.5c-1,4.1-6.8,5.2-11.5,5.3c-1.5-0.1-2.7-0.8-3.5-2.1
		c-2.1-4-2-8.3-1.6-12.7C682.8,562.6,683.7,560.7,685.5,559.2z"/>
	<path class="st185" d="M685.5,578.4c7.1-2.8,13-4.7,14.6-15c1.9-12.3,14.6-9.3,23.8-9.7c0.9,0,1.8,0,2.7,0
		c-1.8,7.3-3.7,14.6-5.5,22c-11.3-1.5-18.9,2.2-22.3,14c-2,7-6.8,12.6-13.4,16.2c-3.5-2.1-4.8-5.4-5.4-9.1
		C680,590.1,680.6,583.6,685.5,578.4z"/>
	<path class="st186" d="M608.7,466.3c5.1,9.6,1.7,19.9,2.7,29.8c-10.1,9.7-20.2,18.8-36,11.2c-5.8-2.8-10.8,4.8-17,2.9l-1,0
		l-0.9-0.5c-6.4-8.3-4.5-18.2-3.8-27.3c1-13.4-1.6-23.6-15.8-27.7C562.3,448.9,585.9,455.2,608.7,466.3z"/>
	<path class="st187" d="M507.1,562c-0.9-1.9-1.8-3.7-2.7-5.6c20.1,7.4,41.8,11.1,58,26.7c1.8,5.8-0.8,10.9-5.6,12.4
		c-9.6,3.1-17.6,9.9-26.3,12.9c-9.8,3.4-17.7,8.8-26.1,13.8C502.8,602.1,506.2,582.1,507.1,562z"/>
	<path class="st188" d="M536.8,454.7c19.6,0.4,19.6,0.4,19.6,19.8c0,11.7,0,23.5,0,35.2c-10.4-2.1-19.4-7.6-28.3-12.8
		c-9.1-5.3-16.7-12.4-14.1-24.1C516.7,461.3,525,455.5,536.8,454.7z"/>
	<path class="st189" d="M504.3,622.3c5.5-6.9,6.4-20.7,21-14.1c8.4-11.6,23.4-11.4,33.9-19.2c1.6-1.2,2.2-3.9,3.2-6
		c14,15,11.1,32.6-7.5,40.1c-19.7,8-39.8,6-59.6-0.6C498.3,622.5,501.3,622.4,504.3,622.3z"/>
	<path class="st190" d="M671.8,509.8c0,4-1.8,6.7-5.5,8.2c-4.6,2.8-8.6,6.3-11.9,10.7c-3.2,4.3-8.5,7.7-12.8,4.9
		c-11-7.3-15-0.3-19.4,7.6c-0.6,1.2-1.8,1.9-3,2.5c-3.6-3.1-7.1-6.1-10.7-9.2c0.3-1.5,1.3-2.4,2.8-2.8c3.2-10.1,6.3-20.3,9.8-30.3
		c1.7-4.7,4.3-9.6,9.9-10.3c5.5-0.7,6.1,4.5,7.5,8.1c2.8,7,8.1,6.2,11.8,2.4c7.5-7.8,14.2-6.3,21.3-0.2
		C671.8,504.3,671.8,507.1,671.8,509.8z"/>
	<path class="st191" d="M619.3,543.7c0.8-6,3.6-11,7.8-15.4c2.8-2.9,5.3-4.5,9-0.9c7.6,7.4,13.2,4.8,18.2-3.6
		c2.4-4,4.7-10.9,12.1-5.8c4.6,8.2,9.1,16.5,13.7,24.7c-2.6,6.2-7.8,5.3-12.7,4.5c-7.3-1.2-12.4,1.5-15.4,8.1
		c-3.3,7.4-9.1,12.2-16.2,15.6C630.2,561.9,624.7,552.8,619.3,543.7z"/>
	<path class="st192" d="M561.8,696.5c-3.3-14.2-0.4-24,16.4-25.6c4.7-0.4,9.2-3,13.7-4.6c8.7-0.9,15.4-4.8,19.4-12.8
		c1.7-1.5,3.5-3,5.2-4.4c4.4,3.6,4.3,8.8,5,13.7c-0.4,5.2-3.6,9.2-6,13.6C600.9,701.5,596.3,700.3,561.8,696.5z"/>
	<path class="st193" d="M435.7,507.1c1.5-18.5-3.6-35.5-11-52.2c1.8-1.8,4.1-3.4,5.5-5.6c8.4-12.9,19.1-19.7,34.8-13.7
		c-10.8,13.7-16.6,29.4-18.4,46.7c-7,7.9-1.5,19.5-8.1,27.4C437.5,508.9,436.6,508,435.7,507.1z"/>
	<path class="st194" d="M619.6,663.5c-2.8-4.5-2.9-9.5-3-14.6c3.5-4.4,7-8.8,10.5-13.2c3.8-2.7,8.2-3.7,12.8-3.7
		c10.8,0.1,21.6,0.2,31.5-5.7c3.7-2.2,7.9-1.5,11.4,1.4c0,2.7,0,5.5,0,8.2c1.4,3.1-0.3,5.4-1.9,7.7c-11,10.1-23.9,16.1-38.7,12.8
		C632.4,654.4,627.8,663.9,619.6,663.5z"/>
	<path class="st195" d="M473.9,426.7c-3.4-4.8-2.4-10.4-2.6-15.7c0-5.5,0-11,0-16.5c13.2-4.7,26-6.9,36.9,5.2c2,2.2,4,5.9,7.7,4.1
		c3.5-1.7,1.7-5.6,2.1-8.6c0.7-4.8-1.7-10.1,2.4-14.3c0.1,2.3,0,4.5,0.3,6.8c1.7,13.1-0.7,22.1-16.6,24.2
		C493,413.3,483.8,421.3,473.9,426.7z"/>
	<path class="st196" d="M635.7,571c5.5-8.5,12.8-15.5,17.7-24.5c2.7-4.9,8.8-4.8,13.6-2.9c4.7,1.8,8.8,1.7,13-0.8c1.8,0,3.7,0,5.5,0
		c0,5.5,0,11,0,16.5c0,1.8,0,3.7,0,5.5c-3.4,3.5-8.2,5.5-12.4,4.9c-16.1-2.6-25,7.9-34.5,17.7C635.8,582.2,636.2,576.5,635.7,571z"
		/>
	<path class="st197" d="M611.4,531.8c-0.9,0.9-1.8,1.8-2.8,2.8c-15.7-10.2-33.5-16.2-50.2-24.3c7.8-5.8,15.5-11.3,25.4-3.4
		c5.4,4.4,8.8-2.3,13.2-3.6c5.2-1.5,8.5-7,14.4-7.2c0,3.7,0,7.3,0,11C611.4,515.3,611.4,523.5,611.4,531.8z"/>
	<path class="st198" d="M685.5,578.4c-0.9,6.4-1.8,12.8-2.7,19.2c-7.4,1.9-14.1,4.9-20.2,9.8c-7.5,6-16.2,9.5-26.2,6.6
		c0.8-6.4,1.6-12.8,2.5-19.2c9.2-7.2,16.5-17.1,29-19.8C674.5,573.6,680.3,573.3,685.5,578.4L685.5,578.4z"/>
	<path class="st199" d="M682.7,627.8c-17.6,9.2-36.6,9-55.6,8c2.2-4.5,4.4-8.9,6.6-13.4c12.8-0.8,25.1-1.9,34.2-13.2
		c3.3-4.1,9.7-5.2,14.8-0.6c0,3.7,0,7.3,0,11C682.7,622.3,682.7,625.1,682.7,627.8z"/>
	<path class="st200" d="M685.5,578.4c-13.6-2.4-25.7-0.2-34.7,11.4c-3,3.8-7,5.6-12,5.1c-0.1-2.5-0.1-5.1-0.2-7.6
		c3.6-13,15.4-20.9,28.5-20.3c6.1,0.3,12.3-1.4,18.4-2.2C685.5,569.3,685.5,573.9,685.5,578.4z"/>
	<path class="st201" d="M682.7,608.6c-6.5-0.2-12.8,0.2-16.8,6.4c-8.4,12.8-19.8,12.2-32.2,7.4c0.9-2.8,1.7-5.6,2.6-8.4
		c12.1-3.1,24-6.1,32.9-16.1c3.7-4.2,8.9-3.2,13.5-0.3c0.9,2.7,1.8,5.5,2.7,8.2C684.6,606.8,683.6,607.7,682.7,608.6z"/>
	<path class="st202" d="M438.4,509.8c1.2-9.6-4.2-21.2,8.1-27.4c2.2,14.1,2.1,29,12.1,40.8c-7.4-0.5-13.9,2.2-20.2,5.8
		c0-4.6,0-9.1,0-13.7C438.4,513.5,438.4,511.6,438.4,509.8z"/>
	<path class="st203" d="M561.8,696.5c7-1.5,13.5-2.9,21.2-1.1c16.6,3.8,22.4-11.3,31.1-20.9c4.9,5.7-0.5,9.4-2.7,13.7
		c0,1.8,0,3.7,0,5.5c-7.6,7.7-15.6,12.1-27.4,8.6c-7.1-2.1-15.4-1.3-22.7,2.1C561.4,701.8,561.6,699.1,561.8,696.5z"/>
	<path class="st204" d="M611.4,653.4c-1.5,11.9-7.4,16.9-19.4,12.8C598.5,661.9,604.9,657.7,611.4,653.4z"/>
	<path class="st205" d="M611.4,688.2c0.9-4.6,1.8-9.2,2.7-13.7c-0.4-4.8,3.9-7.2,5.5-11c7-9.5,15-11.9,27.4-9.5
		c11.7,2.3,23.1-5,33-12.5c3.4,2.9,4.9,6.7,5.5,11c-0.9,1.8-1.8,3.7-2.7,5.5c-10,10.8-22.8,12.3-36.4,10.9
		c-12.6-1.2-23.5,0.3-28.9,14C616.6,685.2,613.5,686.5,611.4,688.2z"/>
	<path class="st206" d="M685.5,652.5c-5-2.1-5.7-6.3-5.5-11c0.9-1.8,1.8-3.7,2.7-5.5c6.6,0.7,10.9-2.6,13.7-8.2
		c4.6-2.7,9.1-5.5,13.7-8.2C707.1,634.4,696.4,643.6,685.5,652.5z"/>
</g>
</svg>
