<?xml version="1.0" encoding="utf-8"?>
<!-- Generator: Adobe Illustrator 25.1.0, SVG Export Plug-In . SVG Version: 6.00 Build 0)  -->
<svg version="1.1" id="Camada_1" xmlns="http://www.w3.org/2000/svg" xmlns:xlink="http://www.w3.org/1999/xlink" x="0px" y="0px"
	 viewBox="0 0 1080 1080" style="enable-background:new 0 0 1080 1080;" xml:space="preserve">
<style type="text/css">
	.st0{fill:#FEFEFE;}
	.st1{fill:#784A91;}
	.st2{fill:#745297;}
	.st3{fill:#754990;}
	.st4{fill:#744D92;}
	.st5{fill:#744F94;}
	.st6{fill:#744B92;}
	.st7{fill:#9C468F;}
	.st8{fill:#AB428D;}
	.st9{fill:#714C92;}
	.st10{fill:#824890;}
	.st11{fill:#97468F;}
	.st12{fill:#A7428D;}
	.st13{fill:#A2438E;}
	.st14{fill:#8C488F;}
	.st15{fill:#7E4790;}
	.st16{fill:#87478F;}
	.st17{fill:#914890;}
	.st18{fill:#94488F;}
	.st19{fill:#D58561;}
	.st20{fill:#765397;}
	.st21{fill:#D4877A;}
	.st22{fill:#D5886B;}
	.st23{fill:#935B9A;}
	.st24{fill:#C65476;}
	.st25{fill:#C45382;}
	.st26{fill:#BF5495;}
	.st27{fill:#CF7669;}
	.st28{fill:#D27C7E;}
	.st29{fill:#C75B65;}
	.st30{fill:#A15598;}
	.st31{fill:#C5478B;}
	.st32{fill:#CB6E7B;}
	.st33{fill:#C75D61;}
	.st34{fill:#C85F6B;}
	.st35{fill:#C75876;}
	.st36{fill:#D58968;}
	.st37{fill:#D17C6A;}
	.st38{fill:#D37E68;}
	.st39{fill:#CD6E68;}
	.st40{fill:#C5547F;}
	.st41{fill:#C5547A;}
	.st42{fill:#D3827D;}
	.st43{fill:#CA5F63;}
	.st44{fill:#CD7373;}
	.st45{fill:#B0418D;}
	.st46{fill:#D58776;}
	.st47{fill:#D4857D;}
	.st48{fill:#C96069;}
	.st49{fill:#D48579;}
	.st50{fill:#BB6297;}
	.st51{fill:#CA6363;}
	.st52{fill:#C75A71;}
	.st53{fill:#D48770;}
	.st54{fill:#C75A74;}
	.st55{fill:#C8548B;}
	.st56{fill:#CF7968;}
	.st57{fill:#BA4890;}
	.st58{fill:#D58565;}
	.st59{fill:#C75488;}
	.st60{fill:#D17E82;}
	.st61{fill:#CB6A81;}
	.st62{fill:#D58861;}
	.st63{fill:#C75D6E;}
	.st64{fill:#C65594;}
	.st65{fill:#B7418D;}
	.st66{fill:#CA636A;}
	.st67{fill:#D58965;}
	.st68{fill:#CF726A;}
	.st69{fill:#AD4B92;}
	.st70{fill:#C44A90;}
	.st71{fill:#B24C93;}
	.st72{fill:#9B5697;}
	.st73{fill:#CE6F7A;}
	.st74{fill:#875697;}
	.st75{fill:#B55A9A;}
	.st76{fill:#CC6F6E;}
	.st77{fill:#CB6B68;}
	.st78{fill:#B94D93;}
	.st79{fill:#BD458F;}
	.st80{fill:#9E4F94;}
	.st81{fill:#CC6A87;}
	.st82{fill:#CF727A;}
	.st83{fill:#985898;}
	.st84{fill:#785698;}
	.st85{fill:#CB6A6C;}
	.st86{fill:#C35495;}
	.st87{fill:#984F94;}
	.st88{fill:#875296;}
	.st89{fill:#C7548E;}
	.st90{fill:#C0458E;}
	.st91{fill:#CC6766;}
	.st92{fill:#CE7377;}
	.st93{fill:#CB6C7E;}
	.st94{fill:#CE7372;}
	.st95{fill:#A74B92;}
	.st96{fill:#AC5094;}
	.st97{fill:#D27F7E;}
	.st98{fill:#BF4D93;}
	.st99{fill:#B34891;}
	.st100{fill:#D48166;}
	.st101{fill:#CB688D;}
	.st102{fill:#D28383;}
	.st103{fill:#B94D94;}
	.st104{fill:#D58974;}
	.st105{fill:#CE7776;}
	.st106{fill:#8C5094;}
	.st107{fill:#D48674;}
	.st108{fill:#B05094;}
	.st109{fill:#C76892;}
	.st110{fill:#D58B6F;}
	.st111{fill:#925094;}
	.st112{fill:#C26696;}
	.st113{fill:#B4619B;}
	.st114{fill:#B5619A;}
	.st115{fill:#A35497;}
	.st116{fill:#D3827E;}
	.st117{fill:#D58A7F;}
	.st118{fill:#CA5F68;}
	.st119{fill:#BC408C;}
	.st120{fill:#A85497;}
	.st121{fill:#A04D93;}
	.st122{fill:#BC5797;}
	.st123{fill:#BA5A9A;}
	.st124{fill:#C7588A;}
	.st125{fill:#765195;}
	.st126{fill:#7D4B91;}
	.st127{fill:#A1468F;}
	.st128{fill:#9E4990;}
	.st129{fill:#864990;}
	.st130{fill:#8B4A90;}
	.st131{fill:#8E5999;}
	.st132{fill:#8A5898;}
	.st133{fill:#925697;}
	.st134{fill:#C65679;}
	.st135{fill:#C65686;}
	.st136{fill:#C55683;}
	.st137{fill:#BF5C98;}
	.st138{fill:#C45A96;}
	.st139{fill:#874D92;}
	.st140{fill:#C3458D;}
	.st141{fill:#C2488E;}
	.st142{fill:#CD7078;}
	.st143{fill:#CA697C;}
	.st144{fill:#CC6D75;}
	.st145{fill:#CC6C7D;}
	.st146{fill:#C75E6E;}
	.st147{fill:#CA636E;}
	.st148{fill:#C7597B;}
	.st149{fill:#C85C78;}
	.st150{fill:#C6577D;}
	.st151{fill:#CD6F75;}
	.st152{fill:#CC6F73;}
	.st153{fill:#C26492;}
	.st154{fill:#C16096;}
	.st155{fill:#B95B98;}
	.st156{fill:#C85E75;}
	.st157{fill:#C75892;}
	.st158{fill:#C75C8E;}
	.st159{fill:#BF4991;}
	.st160{fill:#C96783;}
	.st161{fill:#C96880;}
	.st162{fill:#C85F71;}
	.st163{fill:#CC656D;}
	.st164{fill:#A75094;}
	.st165{fill:#945496;}
	.st166{fill:#995295;}
	.st167{fill:#9F5295;}
	.st168{fill:#8B5396;}
	.st169{fill:#CD6C6F;}
	.st170{fill:#A34F94;}
	.st171{fill:#CA6485;}
	.st172{fill:#CB6688;}
	.st173{fill:#CC686F;}
	.st174{fill:#CA6489;}
	.st175{fill:#C8658E;}
	.st176{fill:#A94A92;}
	.st177{fill:#905395;}
	.st178{fill:#8D5597;}
	.st179{fill:#C45D96;}
	.st180{fill:#C75D93;}
	.st181{fill:#C85F85;}
	.st182{fill:#C86380;}
	.st183{fill:#C96483;}
	.st184{fill:#C75C80;}
	.st185{fill:#C96477;}
	.st186{fill:#CA6371;}
	.st187{fill:#CC6C73;}
	.st188{fill:#C65B83;}
	.st189{fill:#C9627B;}
	.st190{fill:#C85E7E;}
	.st191{fill:#C86184;}
	.st192{fill:#CA6279;}
	.st193{fill:#C85D7F;}
	.st194{fill:#C96390;}
	.st195{fill:#C9638C;}
	.st196{fill:#C8607D;}
	.st197{fill:#CB6977;}
	.st198{fill:#C96089;}
	.st199{fill:#CA6478;}
	.st200{fill:#C85F8A;}
	.st201{fill:#C76094;}
	.st202{fill:#CE6E76;}
	.st203{fill:#C9657D;}
	.st204{fill:#C56294;}
</style>
<g>
	<g>
		<path class="st0" d="M105.02,993.93c-20.1,4.42-24.14-3.4-24.09-23.5c0.83-295.06,0.57-590.12,0.57-885.18
			c300.48,0,600.96,0.11,901.44-0.38c13.42-0.02,16.08,2.63,16.06,16.04c-0.5,291.14-0.55,582.29,0.07,873.43
			c0.04,16.58-3.47,23.1-20.05,19.58c-4.81-7.81-4.43-16.65-5.04-25.3c-0.16-6.76-0.15-13.52-0.08-20.28
			c-1.03-6.6,4.73-15.17-5.75-18.98c-133.28-1.01-266.45-0.18-399.62-0.38c-82.25-0.13-164.51-0.06-246.75,0.02
			c-68.89,0.27-137.79-0.96-206.57,0.72c-10.04,5.28-3.81,14.48-5.14,21.83c0.11,4.68,0.03,9.35,0.02,14.01
			c-0.01,4.58-0.21,9.15-0.94,13.68C107.65,984.09,107.62,989.38,105.02,993.93z"/>
		<path class="st1" d="M469.51,993.93c-3.92,0-7.84,0-11.76,0c-1.37-1.89-1.62-3.93-0.79-6.11c16.62-21.49,36.61-36.04,65.67-34.64
			c42.69,2.06,81.44-14.14,120.73-27.53c15.22-0.43,30.44-0.14,45.66-0.17c2.37-0.03,4.06,1.03,5.09,3.16
			c-0.35,8.63-6.6,12.73-12.9,16.8c-17.87,2.38-33.21,10.75-48.01,20.43c-9.47,2.1-19.18,3.39-27.44,9.16
			c-2.12,1.48-4.96,3.22-7.19,2.55c-30.18-9.08-58.69,13.4-89.29,4.04C494.78,977.2,483.52,991.89,469.51,993.93z"/>
		<path class="st2" d="M979.53,970.42c0.67,7.86,3.06,15.75-0.51,23.51c-32.66,0-65.32,0-97.98,0
			c-7.82-8.24-14.01-17.57-18.54-28.01c0.86-16.9,13.84-13.43,24.2-14.43c22.32,2.47,43.87,10.18,67.2,6.52
			C962.81,956.62,971.95,964.12,979.53,970.42z"/>
		<path class="st3" d="M469.51,993.93c15.79-12.42,30.7-23.38,53.91-16.52c14.09,4.16,31.29,3.78,44.29-8.43
			c1.3-1.22,4.42-2.56,5.23-1.93c21.8,16.81,40.44-8.56,61.18-4.45c7.22,9.71,7.03,20.34,3.92,31.33
			C581.87,993.93,525.69,993.93,469.51,993.93z"/>
		<path class="st4" d="M681.15,943.01c2.55-5.28,6.47-9.2,11.76-11.75c9.93,1.65,19.66,4,29.63-1.05
			c6.63-3.36,12.25-0.35,15.92,6.02c1.95,4.83,3.89,9.67,8.77,12.49c4.4,3.72,7.21,8.54,9.68,13.62
			c3.35,14.09,12.45,19.17,26.63,19.06c8.09-0.06,19.06-1.15,19.13,12.52c-22.21,0-44.42,0-66.63,0
			c-8.88-6.86-4.88-22.35-16.88-26.55c-12.33-4.32-19.45,7.48-29.2,11.34c-3.34,1.33-6.21,0.42-8.79-1.96
			C674.14,965.49,673.51,954.25,681.15,943.01z"/>
		<path class="st5" d="M802.65,993.93c-3.62-8.09-10.92-8.88-17.99-7.67c-19.35,3.31-30.79-3.5-32.96-23.66
			c23.92-0.92,47.79-7.33,71.59,3.04c13.28,5.79,28.03-1.3,42.06,0.87c8.14,7.47,13.93,16.29,15.68,27.42
			C854.91,993.93,828.78,993.93,802.65,993.93z"/>
		<path class="st6" d="M681.15,943.01c0.89,11.8-2.61,24.08,3.92,35.25c3.84,11.03-5.52,12.18-11.76,15.67c-11.76,0-23.52,0-35.27,0
			c-6.05-9.85-3.31-20.8-3.92-31.33C646.4,947.9,662.14,941.54,681.15,943.01z"/>
		<path class="st7" d="M218.68,993.93c-3.92,0-7.84,0-11.76,0c-3.08-13.24,8.23-19.05,14.21-27.62
			c7.93-11.76,19.89-12.28,32.62-13.07c19.03-1.19,39.08,3.4,56.64-8.2c5.42-2.95,10.81-6.08,17.3-3.21
			c4.26,9.96-4.85,13.86-9.02,20.02c-7.6,7.32-17.45,10.41-26.33,14.9C268.43,988.83,241.51,982,218.68,993.93z"/>
		<path class="st8" d="M105.02,993.93c-2.89-3.79-2.3-7.75-0.54-11.76c23.15-16.74,46.58-32.31,77.44-28.88
			c13.57,1.51,23.85-3.8,28.32-17.78c1.19-3.71,3.63-6.8,7.21-8.73c4.72-2.15,9.72-1.12,14.62-1.23c8.17,5.5,0.84,9.89-1.51,13.94
			c-3.81,6.56-8.56,12.59-12.46,19.15c-1.03,1.62-2.23,3.11-3.55,4.51c-12.04,12.43-29.51,10.33-43.79,12.55
			c-19.66,3.06-36.32,11.31-53.98,18.23C112.86,993.93,108.94,993.93,105.02,993.93z"/>
		<path class="st9" d="M673.32,993.93c4.55-4.75,9.69-9.06,11.76-15.67c1.12-0.62,2.39-1.07,3.32-1.9
			c9.4-8.39,18.11-19.94,32.7-14.91c15.19,5.24,11.94,20.67,14.93,32.47C715.12,993.93,694.22,993.93,673.32,993.93z"/>
		<path class="st10" d="M387.21,993.93c-5.23,0-10.45,0-15.68,0c-2.21-4.16,0.34-7.1,2.57-10.15c1.32-1.42,2.81-2.63,4.42-3.72
			c1.68-1.02,3.44-1.88,5.24-2.64c25.86-16.55,53.52-19.67,82.75-11.08c3.09,9.26-3.09,13.88-9.24,18.52
			c-16.31,5.25-33.31,1.05-49.79,3.62C400.61,989.55,393.46,990.25,387.21,993.93z"/>
		<path class="st11" d="M218.68,993.93c4.26-8.45,10.92-12.04,20.56-11.89c15.82,0.23,32.84,3.88,44.3-12.32
			c0.91-1.29,4.46-2.49,5.2-1.86c14.5,12.33,18.8-5.73,27.92-9.17c3.24,2.8,3.42,6.4,2.72,10.24c-0.53,1.78-1.35,3.43-2.38,4.96
			c-6.99,9-15.13,15.06-27.65,13.8c-6.99-0.7-13.39,3.31-19.72,6.24C252.65,993.93,235.66,993.93,218.68,993.93z"/>
		<path class="st12" d="M116.78,993.93c19.15-22.8,47.87-20.57,73.04-26.82c8.74-2.17,17.6-2.55,24.94-8.43
			c1.49,16.91-4.73,25.72-20.97,27.91c-12.28,1.65-24.77,1.42-37.15,1.66c-7.51,0.14-14.17,1.42-20.26,5.68
			C129.84,993.93,123.31,993.93,116.78,993.93z"/>
		<path class="st13" d="M136.37,993.93c11.63-20.32,31.34-10.47,47.19-11.06c17.96-0.67,28.3-6.39,31.2-24.19c0,0,0,0,0,0
			c2.87-2.35,5.8-2.22,8.78-0.23c2.6,4.22,1.78,8.17-0.94,11.98c-5.23,7.83-10.45,15.67-15.68,23.5
			C183.4,993.93,159.89,993.93,136.37,993.93z"/>
		<path class="st14" d="M328.42,993.93c-5.23,0-10.45,0-15.68,0c5.23-20.14,24.13-26.91,37.9-38.75c8.6-1.98,17.1-2.73,25.11,2.18
			c3.2,3.51,3.88,7.7,3.35,12.23c-3.27,12.89-13.02,16.69-24.82,17.6C345.25,987.88,336.07,987.96,328.42,993.93z"/>
		<path class="st15" d="M387.21,993.93c20.91-19.54,46.82-9.11,70.55-11.75c2.51,2.61,2.18,5.22,0,7.84c0,1.3,0,2.61,0,3.91
			C434.24,993.93,410.72,993.93,387.21,993.93z"/>
		<path class="st16" d="M328.42,993.93c4.74-10.11,13.19-12.8,23.52-11.75c10.32,1.05,18.78-1.64,23.52-11.75
			c1.93-1.36,3.68-1.17,5.27,0.58c2.16,4.04,1.7,7.76-1.35,11.17h0c-1.38,1.23-2.55,2.68-3.92,3.92c-1.31,2.61-2.61,5.22-3.92,7.83
			C357.16,993.93,342.79,993.93,328.42,993.93z"/>
		<path class="st17" d="M348.01,958.68c-7.98,15.53-25.87,21.15-35.27,35.25c-2.61,0-5.23,0-7.84,0
			c-2.17-10.88,9.54-14.82,11.76-23.5C322.76,951.14,329.23,948.72,348.01,958.68z"/>
		<path class="st18" d="M316.66,970.43c2.21,10.89-7.88,15.65-11.76,23.5c-11.76,0-23.52,0-35.27,0
			c6.59-7.32,13.05-14.62,24.69-10.98C305.97,986.6,308.07,972.6,316.66,970.43z"/>
		<path class="st19" d="M473.43,140.09c8.03-7.9,16.93-14.6,27-19.7c1.54-1.04,2.88-2.36,4.47-3.33l0.38-0.23
			c32.35-6,46.69-0.75,55,20.11c0.64,12.39-3.53,22.6-13.86,29.95c-0.95,0.42-1.9,0.82-2.86,1.23c-6.34,3.75-12.67,7.49-19.01,11.24
			c-11.84-1.6-22.84-6.61-34.33-9.53C477.98,166.7,469.46,155.42,473.43,140.09z"/>
		<path class="st20" d="M979.53,970.42c-30.58-10.93-64.28-3-94.58-15.65c-4.71-1.74-8.44-7.55-13.86-5.58
			c-18.97,6.91-36-8.39-54.87-4.11c-6.72,1.52-12.22-3.52-14.66-10.18c-1.8-4.9-0.85-8.95,5.54-9.47
			c34.75,0.05,69.47,0.03,104.17,0.01c20.87,13.07,44.17,18.54,68.26,21.48C979.54,954.74,979.54,962.58,979.53,970.42z"/>
		<path class="st21" d="M771.74,257.21c14.03,7.78,26.86,17.21,38.72,28c1.5,1.25,2.9,2.65,4.7,3.49c1.3,0.92,2.6,1.84,3.9,2.75
			c2.4,4.91,0.42,8.99-2.38,12.93c-8.55,6.8-21.65,5.78-28.07,16.25c-0.85,1.34-1.77,2.64-2.67,3.94c-1.16,2.03-2.14,4.15-2.92,6.36
			c-0.75,2.29-1.75,4.43-3.65,6.03c-1.63,0.53-3.07,0.24-4.3-0.98c-11.72-6.22-22.25-14.08-31.88-23.18
			c1.78-14.32-10.14-26.74-5.74-41.42C759.47,267.49,759.47,267.49,771.74,257.21z"/>
		<path class="st22" d="M649.58,168.16c7.49,3.73,14.47,8.14,19.9,14.65c1.29,1.83,2.81,3.36,5.11,3.89
			c1.11-0.01,1.97,0.44,2.6,1.35c6.23,11.4,1.35,19.93-7.11,27.53c-19.2-6.86-37.58,1.33-56.31,3.14
			c-11.24-6.27-21.86-13.4-31.09-22.45c-4.75-9.94,1.7-15.85,9.27-17.08C611.27,176.03,629.14,165.16,649.58,168.16z"/>
		<path class="st23" d="M759.58,817.51c37.03-0.27,74.07-0.58,111.1-0.76c5.64-0.03,13.19-1.14,12.85,7.58
			c-0.77,19.75,3.86,39.75-2.51,59.25c-3.02-3.05-4.37-6.8-4.75-10.99c-0.32-2.95-0.37-5.92-0.39-8.88
			c1.25-12.53-4.9-17.48-17-18.02c-32.79-1.47-65.51-4.88-98.42-3.12c-3.97-1.91-5.98-5.37-7.45-9.29
			C751.02,826.3,753.49,821.15,759.58,817.51z"/>
		<path class="st24" d="M309.29,602.25c-6.07-20.58-5.92-41.56-4.03-62.66c25.28-11.34,42.92-5.4,54.39,18.28
			c2.1,11.76-1.05,22.7-5.26,33.5C339.02,609.14,329.75,611.37,309.29,602.25z"/>
		<path class="st25" d="M360.75,708.17c-11.27-11.62-20.24-24.83-27.32-39.36c15.09-23.12,36.62-24.18,60.39-17.61
			c5.51,5.17,1.75,11.86,2.94,17.76c2.24,15.01,0.77,29.83-2.5,44.54c-2.76,5.75-7.84,8.74-13.37,11.2
			c-2.01,0.72-3.83,0.38-5.44-1.02l0.01,0.01c-1.26-1.35-2.57-2.66-3.91-3.93l0,0c-1.28-1.28-2.5-2.62-3.67-4l-0.16-0.18
			c-1.39-1.06-2.55-2.34-3.52-3.8l-0.34-0.39C362.47,710.64,361.46,709.55,360.75,708.17z"/>
		<path class="st26" d="M575.31,789.8c-3.58,0.26-7.16,0.52-10.74,0.78c-15.01,2.54-30.02,2.57-45.03-0.02
			c-3.67-0.28-7.35-0.56-11.02-0.84c-4.93-3.28-11.22,0.35-16.11-3.16l-1.71,0.19l-1.58-0.69c-4.47-10.98,3.54-15.59,11.04-15.16
			c19.53,1.11,29.14-10.95,38.3-24.71c5.16-3.87,11.53-4.22,17.42-5.99c11.63-0.93,22.55,0.8,31.85,8.55
			c1.3,1.59,2.23,3.39,2.85,5.35c2.8,12.8-0.35,23.62-10.76,31.99C578.27,787.26,576.76,788.49,575.31,789.8z"/>
		<path class="st27" d="M312.51,256.96c8.05-8.02,17.08-14.69,27.24-19.81c8.4-0.37,16.78-1.26,25-2.79
			c10.69-2,21.91-7.45,30.04,4.36c7.68,11.15,7.18,23.03,0.3,34.63c-6.56,4.87-13.12,9.74-19.68,14.61
			c-9.24-7.42-16.28-14.68-31.77-9.58C322.98,285.18,310.29,274.02,312.51,256.96z"/>
		<path class="st28" d="M877.29,410.3c-9.97-5.58-19.43-11.86-27.53-20.01c-1.44-1.1-2.87-2.21-4.29-3.33l0.1,0.15
			c-3.46-6.24-0.11-10.08,5.31-11.54c11.5-3.09,23.28-7.98,34.7,0.46c7.27,11.86,16.68,15.48,31.59,15.74
			c20.02,0.36,40.31,5.89,59.22,14.15c1.16,0.06,2.1,0.54,2.84,1.44c1.37,0.79,2.56,1.8,3.57,3.02l0.1,0.07
			c1.46,1.38,2.86,2.82,4.8,3.54c1.07-0.08,1.96,0.28,2.67,1.07c0.12,3.12-1.51,4.9-4.51,4.83c-32.37-0.78-64.8,2.42-97.11-1.65
			l0.08,0.05c-1.39-1.73-2.98-3.17-5.25-3.62c-1.14-0.02-2.06-0.47-2.76-1.36C879.45,412.54,878.27,411.54,877.29,410.3z"/>
		<path class="st29" d="M93.55,415.03c0.63-0.89,1.49-1.26,2.57-1.11c2.1-0.58,3.56-2.05,4.99-3.57l0.01-0.01
			c1.11-1.18,2.36-2.2,3.75-3.04c2.43-1.67,4.86-3.34,7.28-5.02c1.79-0.83,3.18-2.22,4.73-3.39l0.3-0.19c0.8-1.3,1.9-2.24,3.31-2.83
			c0.7-1.12,1.72-1.67,3.04-1.67c1.88-0.92,3.85-1.29,5.93-1.11c30.34-10.02,62.47-3.29,93.18-10.02
			c5.34,1.38,11.14,2.45,7.73,10.35c-11.09,9.1-22.06,18.38-35.06,24.8c-32.34,4.11-64.81,0.88-97.21,1.66
			C95.11,419.96,93.47,418.13,93.55,415.03z"/>
		<path class="st30" d="M916.39,927.73c-37.93,0.03-75.85,0.05-113.78,0.08c-14.87,9.87-31.6,4.86-47.53,5.64
			c-15.27,0.75-30.36-5.56-45.97-0.72c-5.58,1.73-11.49-1.19-16.32-4.92c-16.99,0-33.98,0.01-50.97,0.01
			c-18.33,6.65-37.41,5.32-56.36,5.41c-4.69-0.37-9.39-0.51-14.1-0.19c-5.91,0.19-11.82,0.29-17.73-0.1
			c-24.14-0.69-48.26,0.49-72.4,0.25c-23.1,0.24-46.2,0.38-69.3,0.19c-14.04-1.51-28.1,0.42-42.14-0.18
			c-13.19-1.33-26.49,0.4-39.7-0.97c-2.18-0.27-4.27-0.9-6.26-1.83c-2.1-1.08-3.17-2.81-3.24-5.17c6.49-0.36,12.98-1.04,19.47-1.05
			c206.74-0.06,413.48-0.07,620.22,0.08c6.17,0,13.09-2.66,18.51,2.92C958.09,937.71,937.26,935.52,916.39,927.73z"/>
		<path class="st31" d="M203,883.49c-6.14-19.53-1.72-39.53-2.46-59.3c-0.33-8.77,7.3-7.51,12.89-7.48
			c34.41,0.17,68.82,0.51,103.23,0.8c5.74,7.97,4.24,14.99-2.76,21.31c-10.59,5.9-21.24,1.23-31.86,0.14
			c-21.41,0.09-41.41,9.46-63.39,8.38c-12.19-0.6-9.68,12.97-10.49,21.72C208.05,874.45,207.03,879.52,203,883.49z"/>
		<path class="st32" d="M754.91,449.68c0.79,0.87,1.09,1.88,0.91,3.04c0.93,1.48,1.88,2.95,2.82,4.42
			c3.15,4.49,5.52,9.27,5.38,14.95c1.73,9.42-6.09,9.14-10.79,8.69c-12.34-1.17-22.06,4.2-31.86,10.11
			c-6.66,0.95-13.14-1.22-19.75-1.05c-5.53-0.18-10.97,0.12-15.9,3.11c-12.98,6.21-24.09,3.88-33.26-7.25
			c-1.82-2.81-2.9-6.04-4.68-8.87c-2.04-2.49-4.9-3.75-7.73-5.11c-1.49-0.88-2.62-2.07-3.39-3.63c-0.23-1.8,0.07-3.49,0.8-5.13
			c4.37-6.03,8.97-11.69,17.44-11.46c3.25,0.89,5.74,2.96,7.88,5.41c8.42,9.65,15.84,9.36,23.41-1.35
			c7.65-10.84,17.09-13.39,27.86-3.75c12.36,18.5,13.42,18.65,29.67,3.47C746.92,452.28,749.49,448.18,754.91,449.68z"/>
		<path class="st33" d="M222.6,386.84c-13.22,4.54-25.73,9.32-40.81,4.59c-9.92-3.12-21.62-1.73-31.91,4.05
			c-6.82,3.83-14.49,5.93-21.35-0.81c-0.97-0.88-1.31-1.78-1.02-2.7c0.3-0.92,0.6-1.39,0.92-1.39l-0.12,0.08
			c1.32-1.1,2.66-2.16,4.03-3.18c2.34-1.62,4.67-3.23,7.01-4.85c1.96-0.73,3.46-2.09,4.88-3.56l0.05-0.04
			c1.06-1.21,2.29-2.21,3.68-3.01c15.28-10.93,30.55-21.86,45.83-32.79c7.05-3.05,11.79,0.08,13.38,6.59
			C210.41,363.02,218.66,374.01,222.6,386.84z"/>
		<path class="st34" d="M340.3,430.27c3.19-9.44,9.7-16.58,16.34-23.64c18.39,12.52,39.78,3.67,59.45,8.15
			c10.32,2.35,19.92,5.51,29.17,10.33c1.74,0.69,3.37,1.57,4.96,2.57c2.38,1.72,4.15,3.88,4.98,6.74c-0.01,2.01-0.8,3.64-2.37,4.9
			c-1.77,0.76-3.63,1.14-5.56,1.18c-22.05-0.18-45.37-5.73-61.04,17.6c-4.03,6-11.47,8.35-19.14,4.64
			c-8.27-7.73-14.42-17.66-25.06-23C338.59,438.01,336.83,434.17,340.3,430.27z"/>
		<path class="st35" d="M355.85,559.17c-9.3-26.05-31.67-18.38-50.59-19.58c0.08-2.67,0.15-5.34,0.23-8.02
			c1.26-8.71,3.47-16.86,14.65-16.39c24.85,1.03,49.77,0.37,74.57,2.99c6.84,6.77,8.61,15.21,8.11,24.42
			c-0.36,2.22-1.14,4.28-2.26,6.23C387.45,559.92,373.45,567.33,355.85,559.17z"/>
		<path class="st36" d="M649.58,168.16c-17.02,2.56-31.6,13.57-49.79,13.19c-7.84-0.16-17.04,3.53-17.12,14.92
			c-1.22-0.78-2.44-1.57-3.67-2.35c-1.36-0.77-2.54-1.75-3.52-2.97l-0.12-0.09c-1.45-1.38-2.93-2.72-4.79-3.54
			c-9.91-5.13-18.94-11.51-27.02-19.22c0,0,0.63-0.92,0.63-0.92c14.76-10.37,59.4-23.73,73.89-22.11
			c6.64,4.95,13.27,9.9,19.91,14.85c1.54,1.17,2.87,2.64,4.68,3.45C644.98,164.97,647.28,166.57,649.58,168.16z"/>
		<path class="st37" d="M461.67,225.32c-18.33,13.21-36.65,26.41-54.98,39.62c-13.81-19.02-14.77-41.78-2.55-60.68
			c14.85-5.76,30.28-4.6,45.28-2.07C461.84,204.28,469.27,211.44,461.67,225.32z"/>
		<path class="st38" d="M461.67,225.32c1.74-14.95-5.75-19.6-19.67-18.81c-13,0.74-26.07,0.16-39.11,0.16
			c-6.93,0.58-10.11-2.24-8.51-9.39c9.47-8.63,19.52-16.45,30.98-22.33c27.21-9.76,27.18-9.74,45.59,12.34
			c2.07,2.48,5.32,3.62,7.78,5.74c5.26,5.24,7.15,10.97,2.58,17.64C474.76,215.55,468.21,220.44,461.67,225.32z"/>
		<path class="st39" d="M269.33,288.28c2.61-3.86,6.07-6.52,10.66-7.6c2.33-0.46,3.96-1.89,5.22-3.82l-0.21,0.18
			c1.61-0.91,2.75-2.42,4.36-3.33l0.46-0.3c0.63-1.34,1.67-2.22,3.06-2.7c1.26-0.76,2.53-1.53,3.79-2.29
			c14.45,13,32.09,17.4,50.81,19.63c5.92,0.71,15.3,0.09,12.19,11.44c-0.62,1.03-1.54,1.52-2.74,1.5c-2.08,0.66-3.62,2.04-4.97,3.68
			l0.07-0.05c-1.2,1.14-2.49,2.17-3.85,3.1c-5.3,3.85-10.6,7.71-15.9,11.56c-7.92-2.91-14.91,2.24-22.55,2.65
			C286.25,323.19,273.34,312.82,269.33,288.28z"/>
		<path class="st40" d="M395.05,653.17c-22.55-2.68-43.47,1.01-61.62,15.63c-3.96-6.06-8-12.08-8.97-19.52
			c15.33-16.45,28.53-36.23,55.07-35.19c10.74,3.04,22.02,5.35,25.63,18.34C404.62,640.73,401.2,647.61,395.05,653.17z"/>
		<path class="st41" d="M379.37,617.92c-12.09-1.81-20.44,4.62-28.84,12.12c-8.04,7.18-15.28,15.71-26.08,19.25
			c0,0,0.01,0.02,0.01,0.02c-2.13-2.16-1.47-5.53-3.38-7.78c-6.58-12.3-9.95-25.56-11.79-39.29c15.43,0.5,31.14,1.99,42.64-11.74
			c10.07,10.3,24.5,6.92,36.38,11.63C391.38,610.83,386.26,614.88,379.37,617.92z"/>
		<path class="st42" d="M779.11,335.91c0.01-2.61,0.02-5.22,0.03-7.83c1.44-1.17,2.61-2.61,3.92-3.91l0,0
			c20.65-11.67,24.87-11.59,38.27,5.58c9.67,12.39,24.21,5.88,35.46,11.29c7.24,4.34,11.14,10.5,10.51,19.15
			c-5.21,10.37-15.23,7.48-23.78,8.51c-7.01,0.84-14.15,0.28-21.1,1.83c-11.49-6.31-21.99-13.97-31.5-23
			c-1.48-1.31-2.89-2.72-4.74-3.55c-2.34-1.6-4.69-3.19-7.03-4.79c-1.04-0.72-1.4-1.44-1.06-2.17
			C778.42,336.28,778.76,335.91,779.11,335.91z"/>
		<path class="st43" d="M222.6,386.84c-12.96-4.79-13.79-17.28-17.85-27.81c-2.34-6.07-0.39-15.35-10.95-15.8
			c1.57-1.18,3.14-2.37,4.71-3.55c1.66-0.94,3.02-2.29,4.61-3.32l0.27-0.16c19.39,1.83,36.98,11.8,56.86,12.15
			c6.64,0.12,9.37,6.29,8.1,13.16c-0.52,2.09-1.39,4.03-2.61,5.81c-11.79,8.7-23.58,17.41-35.37,26.11
			C229.93,388.7,226.96,386.94,222.6,386.84z"/>
		<path class="st44" d="M595.24,324.06c1.33-0.33,2.57-0.14,3.74,0.58c14.64,4.84,21.42,18.9,32.68,27.7
			c5.78,4.43,12.97,5.12,19.48,7.58c7.4,2.79,14.39,6.18,12.62,16.24c-10.17,12.57-21.65,7.37-32.86,2.14
			c-7.07-3.3-11.77-9.97-18.37-14c-4.86-2.27-9.95-2.95-15.21-1.98c-15.84,2.94-27.94-2.61-36.69-15.96
			c-2.22-7.99-2.49-15.47,5.47-20.77C575.81,325.07,585.29,320.14,595.24,324.06z"/>
		<path class="st45" d="M218.7,927.86c-12.8,30.8-12.88,32.23-46.43,30.29c-20.2-1.17-34.14,10.06-50.01,17.87
			c-5.82,2.87-10.79,7.05-17.78,6.15c0-5.22,0-10.43,0-15.65c13.86-19.85,39.91-20.41,56.78-35.72c3.31-3,9.2-1.3,12.98,1.22
			c14.22,9.47,25.64,3.65,36.62-5.89C213.76,925.46,216.6,925,218.7,927.86z"/>
		<path class="st46" d="M771.74,257.21c-0.93,1.71-2.11,3.33-2.74,5.14c-6.08,17.46-15.47,20.83-29.05,6.99
			c-15.84-5.99-34.81,1.14-49.06-11.64c-2.89-7.46-0.73-13.92,3.91-19.89c12.59-8.95,27.42-4.78,41.19-6.94
			c9.25,6.65,18.5,13.31,27.75,19.96c1.36,0.71,2.48,1.68,3.37,2.93l0.22,0.16c1.52,1.09,2.57,2.75,4.36,3.51
			C771.68,257.42,771.74,257.21,771.74,257.21z"/>
		<path class="st47" d="M857.52,343.75c-7.8,0-15.61-0.08-23.41,0.01c-5.35,0.06-12.66,0.06-13.92-4.83
			c-5.86-22.65-21.9-17.16-37.13-14.76c3.93-16.95,16.84-19.54,31.35-19.58c10.43,4.35,22.01,3.65,32.59,7.35
			c12.21,6.56,23.3,14.67,33.4,24.15C874.47,343.68,866.87,346.32,857.52,343.75z"/>
		<path class="st48" d="M446,429.92c-20.45-7.11-39.61-18.48-63.32-9.08c-10.24,4.06-17.6-8.69-26.03-14.21
			c7.07-10.93,15.6-20.45,26.54-27.66c12.36-6.8,20.19-0.03,25.04,9.97c4.42,9.11,10.31,13.23,20.23,15.42
			C440.96,407.11,448.49,415.68,446,429.92z"/>
		<path class="st49" d="M692.92,257.58c4.24,1.23,9.67,4.77,12.53,3.3c14.44-7.41,23.89,2.27,34.5,8.45
			c-0.78,8,1.6,15.16,5.04,22.32c3.41,7.1,5.67,14.68-1.78,21.14c-2.46-1.68-4.91-3.35-7.37-5.03c-1.37-0.95-2.66-2-3.87-3.15
			c-20.71-12.84-40.37-27.13-58.98-42.86C678.65,255.72,684.97,252.78,692.92,257.58z"/>
		<path class="st50" d="M745.17,677.02c-9.06,18-20.97,33.77-36.57,46.66c-16.35-8.6-32.02,1.74-48.08,1.74
			c-3.02-0.93-4.89-3.02-6.05-5.87c-0.98-2.98-1.21-6.02-0.87-9.13c2.57-15.66,16.05-17.76,27.62-22.28
			c10.72-4.89,22.16-5.12,33.62-5.13C725.77,685.2,733.11,669.07,745.17,677.02z"/>
		<path class="st51" d="M265.71,363.33c0.85-9.84-4.65-12.55-13.24-11.73c-18.53,1.77-34.03-6.1-49.08-15.41
			c6.31-6.96,13.99-12.02,22.31-16.19c1.84-0.82,3.31-2.16,4.79-3.48l0.18-0.12c0.92-1.25,2.08-2.22,3.48-2.9
			c0.63-1.05,1.56-1.58,2.79-1.6c16.04-6.08,27.14,1.36,31.64,15.45c3.28,10.27,14.08,18.97,8.7,31.63l-0.39,0.25
			c-0.65,1.33-1.66,2.24-3.08,2.68c-0.8,1.16-1.91,1.74-3.32,1.75C268.8,364.82,267.21,364.64,265.71,363.33z"/>
		<path class="st52" d="M312.55,496.01c0.92-12.75,5.32-24.33,11.76-35.23c22.68,7.02,44.78,15.88,68.01,21.21
			c1.9,2.83,2.52,5.95,2.27,9.3c-1.84,9.15-8.37,14.17-16.72,13.47c-15.91-1.34-30.97,2.77-46.43,4.21
			C323.72,509.68,309.57,513.56,312.55,496.01z"/>
		<path class="st53" d="M613.77,218.72c17.8-11.11,35.89-18.54,55.62-4.22c7.22-0.97,14.42-1.79,20.69,3.28
			c2.62,3.63,3.03,7.65,2.16,11.91c-8.32,12.73-20.06,19.59-35.29,20.42c-2.44-1.65-4.88-3.31-7.33-4.96
			c-1.38-0.99-2.7-2.05-3.97-3.18C633.98,235.67,623.35,227.92,613.77,218.72z"/>
		<path class="st54" d="M312.55,496.01c5.97,14.87,19.83,10.1,27.55,6.67c10.91-4.84,19.89-5.3,30.95-2.78
			c8.63,1.97,18.78,2.04,20.09-11.23c15.1,3.63,8.22,14.88,8.29,23.75c-0.66,2.98-1.87,5.66-4.37,7.58
			c-23.48,4.36-47.01,2.09-70.43-0.21c-10.2-1-15.37,3.61-19.12,11.78C305.83,519.32,307.17,507.26,312.55,496.01z"/>
		<path class="st55" d="M437.89,767.72c-1.27-0.53-2.54-1.07-3.8-1.6c-1.54-1.17-2.99-2.52-4.99-2.91
			c-13.26-4.86-24.55-12.74-34.52-22.62c-1.89-19.81,14.36-15.14,22.16-12.98c21.33,5.92,38.27-1.28,55.03-12.35
			c1.97-0.88,3.95-0.91,5.96-0.14c2.3,2.28,3.36,5.12,3.83,8.25c0.45,4.1-0.02,8.1-1.26,12.02
			C473.58,755.86,451.38,756.09,437.89,767.72z"/>
		<path class="st56" d="M394.38,197.28c1.49,4.35,4.19,7.6,8.51,9.39c-3.83,19.76-1.43,39.11,3.81,58.27
			c-2.89,4.16-6.87,6.81-11.61,8.41c-0.02-6.48,0.25-12.97-0.1-19.42c-0.93-17.2-6.83-19.81-23.09-15.31
			c-10.06,2.78-21.9,7.66-32.15-1.46c14.83-12.79,30.42-24.53,47.35-34.43c1.18-1.16,2.48-2.19,3.86-3.1
			C392.1,198.84,393.24,198.06,394.38,197.28z"/>
		<path class="st57" d="M324.49,884.32c-14.37,0-28.74-0.01-43.11-0.01c-2.58-10.29,3.8-13.94,12.04-16.1
			c5.62-1.47,11.7-0.52,17.1-3.14c25.3-23.14,60.07-16.5,89-28.29c2.99,3.38,3.49,7.39,3,11.66c-0.76,4.25-2.84,7.83-5.59,11.08
			c-10.01,11.76-24.69,10.71-37.83,12.84C346.67,874.38,335,877.34,324.49,884.32z"/>
		<path class="st58" d="M481.31,210.67c0.56-5.72-1.25-10.85-3.95-15.75c-4.8-15.28-14.06-28.51-20-43.26
			c4.18-5.5,9.8-9,16.08-11.57c6.59,14.55,9.9,32.36,33.64,26.13c8.44-2.21,10.05,10.65,17.48,13.13
			C511.06,191.05,496.89,201.83,481.31,210.67z"/>
		<path class="st59" d="M473.43,715.84c-10.89,15.19-31.15,21.74-47.29,18.12c-10.64-2.39-24.29-10.45-31.57,6.62
			c-1.23-0.84-2.47-1.68-3.7-2.52c-1.39-0.51-2.37-1.45-2.94-2.82l-0.57-0.49c-1.5-0.82-2.71-1.94-3.64-3.38l-0.32-0.28
			c-1.43-1.02-2.71-2.21-3.83-3.57l-0.12-0.1c-1.05-0.81-1.42-1.65-1.1-2.5c0.32-0.86,0.65-1.29,1-1.29
			c2.23-5.16,6.14-7.79,11.78-7.8C414.22,703.09,456.91,703.09,473.43,715.84z"/>
		<path class="st60" d="M976.4,405.93c-16.88-2.01-34.39-0.57-49.97-9.57c-4.16-2.4-8.69-1.78-13.05-0.1
			c-16.93,6.52-25.67-0.44-28.42-17.25c-2.14-2.87-2.45-5.75-0.02-8.64c14.48-0.79,28.99-3.29,43.41,0.6l-0.17-0.09
			c1.26,1.89,2.87,3.31,5.15,3.81c1.14,0.02,2.08,0.47,2.8,1.35c1.37,0.79,2.56,1.8,3.56,3.02l0.11,0.08
			c1.44,1.39,2.92,2.73,4.78,3.54C956.09,389.19,967.15,396.32,976.4,405.93z"/>
		<path class="st61" d="M771.62,496.4c6.65,16.4,8.6,33.48,7.37,51.02c-4.07,3.79-8.86,4.69-14.16,3.58
			c-11.71-3.85-11.39-17.59-19.87-24.11c-7.2-8.57-23.55-8.93-22.48-24.94c0.84-2.08,2.26-3.6,4.25-4.62
			C741.62,493.48,756.45,486.49,771.62,496.4z"/>
		<path class="st62" d="M555.74,140.08c0.59-15.79-10.44-19.06-22.48-19.31c-9.61-0.19-18.79-1.63-27.97-3.95
			c5.57-4.43,11.91-8.17,16.58-13.41c15.21-17.09,28.7-12.79,41.9,2.23c1.36,0.9,2.61,1.93,3.74,3.1l-0.01,0
			c1.39,1.55,2.91,2.92,4.92,3.62c1.34,0.07,2.41,0.64,3.22,1.71c1.38,0.46,2.39,1.33,2.97,2.67l0.52,0.35
			c1.47,1.04,2.9,2.14,4.28,3.3l-0.09-0.12C582.99,139.22,567.06,136.45,555.74,140.08z"/>
		<path class="st63" d="M391.13,480.84c-11.28,5.05-21.88,7.61-31.08-4.43c-3.94-5.16-10.82-3.03-16.53-3.42
			c-8.61-0.59-17.17-1.27-19.2-12.21c3.05-11.36,8.12-21.67,15.99-30.51c7.42,11.81,25.82,13.96,27.31,30.99
			c6.12,8.47,15.93,4.64,23.86,7.14c2.8,3.11,3.01,6.61,1.55,10.36C392.4,479.45,391.76,480.14,391.13,480.84z"/>
		<path class="st64" d="M485.19,785.42c-7.19-0.93-14.35-1.94-20.33-6.59c8.78-12.01,7.16-27.78,14.57-40.3
			c7.27-7.81,10.52-19.83,22.97-22.19c13.44-2.55,26.26,7.29,31.8,24.18c0.07,1.02,0.12,2.04,0.19,3.05
			c-0.16,2.04-0.93,3.85-2.23,5.42c-3.3,3.15-7.4,5.84-11.76,5.64C498.56,753.62,491.24,768.68,485.19,785.42z"/>
		<path class="st65" d="M210.86,927.84c-7.9,18.46-20.34,19.89-35.75,9.34c-6.02-4.12-12.9-5.89-17.7-0.17
			c-14.02,16.73-36.69,17.24-52.93,29.52c0-5.22,0.01-10.45,0.02-15.67c9.51-8.99,13.22-24.79,29.88-25.42
			C159.87,926.87,185.52,922.53,210.86,927.84z"/>
		<path class="st66" d="M446,429.92c-6.09-11.73-9.51-26.17-28.83-21.27c-5.12,1.3-9.69-4.41-10.67-11.45
			c-1.81-13.08-10.61-18.44-23.31-18.23c4.8-7.32,11.66-12.1,19.41-15.79c12.04-0.4,17.91,12.01,28.89,13.84
			c10.49,8.49,13.69,22.86,24.94,30.78c2.53,8.76,3.44,17.05-6.51,22.12C448.61,429.92,447.3,429.92,446,429.92z"/>
		<path class="st67" d="M555.74,140.08c6.77-9.97,22.25-7.83,27.58-19.8c10.23,5.03,19.16,11.87,27.29,19.8
			c1.45,1.44,2.82,2.99,4.88,3.64c1.15-0.08,2.01,0.38,2.6,1.36c-24.61,7.44-48.31,17.93-73.89,22.11
			C546.99,157.71,558.1,151.76,555.74,140.08z"/>
		<path class="st68" d="M359.67,299.49c-8.36-13.59-23.15-6.3-34.56-9.44c-13.61-3.75-23.69-8.06-28.45-21.63
			c4.19-5.32,9.75-8.77,15.84-11.46c2.9,12.85,22.83,25.42,32.62,17.44c22.14-18.06,23.34,2.4,30.27,13.57
			C370.16,291.81,364.92,295.65,359.67,299.49z"/>
		<path class="st69" d="M398.95,884.32c-9.15,0.01-18.3,0.02-27.44,0.03c-3.46-18.63,14.78-13.06,22.01-19.76
			c2.2-1.36,4.43-2.97,6.92-3.37c32.04-5.13,64.11-10.08,91.9-28.79c2.83,2.05,3.68,4.97,3.67,8.29c-0.46,4.44-2.7,7.98-5.64,11.16
			c-14.76,20.26-34.55,28.39-59.52,26.06C419.95,876.92,408.52,876.94,398.95,884.32z"/>
		<path class="st70" d="M312.74,837.26c3.77-6.1,4.33-12.83,3.93-19.75c27.45-0.01,54.9-0.02,82.34-0.03
			c2.67,5.39,0.74,10.19-1.91,14.9c-5.15,5.41-11.19,8.95-18.92,7.57c-20.36-3.65-39.71-0.51-58.36,8.07
			C313.55,847.01,309.02,844.83,312.74,837.26z"/>
		<path class="st71" d="M493.03,833.35c-21.48,17.64-44,31.49-73.97,28.01c-7.62-0.88-15.99,4.65-24.01,7.24
			c-3.5-3.92-2.76-7.83,0-11.75c1.31-2.61,2.61-5.22,3.92-7.84c5.77-5.97,13.28-9.04,21.06-7.97c27.18,3.74,48.24-9.4,69.12-23.54
			c2.6,0,5.21,0.01,7.81,0.01c3.02,3.02,3.57,6.6,2.44,10.58C498.17,830.92,496.08,832.72,493.03,833.35z"/>
		<path class="st72" d="M626.29,817.51c23.52,0.01,47.03,0.01,70.55,0.02c4.35,19.31-10.46,18.73-22.16,21.4
			c-15.29,4.06-30.35,9.67-46.65,7.4c-4.17-0.18-8.24-0.79-11.95-2.87c-5.15-4.23-2.35-8.86-0.71-13.45
			C617.7,824.73,622.56,821.61,626.29,817.51z"/>
		<path class="st73" d="M754.91,449.68c-4.37,2.08-6.07,6.31-8.56,10.04c-4.84,7.26-11.91,13.07-20.51,12.37
			c-10.12-0.82-11.49-10.52-13.33-18.68c-4.09-10.08-7.11-20.22-1.75-30.83c13.21-7.41,21.21,8.11,32.89,7.48l0.11,0.18
			c1.25,0.78,2.1,1.87,2.56,3.27c0.53,1.24,1.06,2.48,1.59,3.73c1.02,1.4,2.01,2.82,2.97,4.25
			C752.23,444.23,753.57,446.96,754.91,449.68z"/>
		<path class="st74" d="M880.52,872.57c0.16,3.67,0.33,7.34,0.49,11.01c-40.47,3.02-80.97,1.68-121.47,0.72
			c-3.14-4.2-8.15-8.05-2.57-13.88c1.89-1.21,3.93-2.03,6.11-2.52c27.34-0.91,54.7-3.44,81.9,2.15
			C856.67,872.47,869.36,861.8,880.52,872.57z"/>
		<path class="st75" d="M665.73,757.62c-0.92,1.04-2.08,1.54-3.47,1.51c-1.53,0.94-3.02,1.94-4.48,2.98
			c-0.73,0.88-1.66,1.25-2.8,1.12c-2.02,0.43-3.51,1.76-5.08,2.97c-0.76,0.82-1.69,1.13-2.79,0.93c-1.98,0.44-3.46,1.76-5.03,2.92
			c-10.84,6.39-22.2,11.33-34.9,12.55c-3.26,2.36-6.97,1.61-10.57,1.55c-1.82-0.61-2.95-1.83-3.28-3.74
			c0.09-1.79,0.61-3.48,1.45-5.05c0.47-0.72,0.98-1.43,1.44-2.16c4.19-4.34,6.27-9.93,8.8-15.26c0.99-1.47,2.18-2.75,3.53-3.89
			c1.46-1.02,3.05-1.77,4.74-2.33c17.76,1.57,31.46-7.34,44.74-17.37c1.89-0.24,3.61,0.17,5.2,1.21c4.05,4,7.39,8.39,8.07,14.28
			c-0.03,1.92-0.7,3.59-2,5l-0.18,0.09C668.27,756.17,667.14,757.07,665.73,757.62z"/>
		<path class="st76" d="M469.35,328.83c1.29-0.27,2.59-0.54,3.88-0.82c3.33-3.29,8.42-0.4,11.84-3.38c1.16-0.73,2.4-0.93,3.73-0.58
			c4.72-3.78,11.07,0.15,15.86-3.33c1.35-0.13,2.71-0.26,4.06-0.39c6.96,3.32,10.23,9.24,11.71,16.46c0.73,5,0.56,9.87-2.38,14.26
			c-24.52-3.52-48.85-2.57-72.96,3.43c-7.44,1.22-14,0.04-18.52-6.73c4.09-4.74,9.5-6.91,15.49-7.92c2.05-2.38,5.68-1.4,7.78-3.65
			c0.76-0.77,1.66-0.99,2.7-0.66c1.99-0.26,3.34-1.76,5.03-2.6c1.34-0.32,2.68-0.63,4.02-0.95
			C463.69,329.7,467.02,330.51,469.35,328.83z"/>
		<path class="st77" d="M269.33,288.28c11.08,25.87,29.25,35.91,56.78,25.7c4.21-1.56,5.38,2.04,6.17,5.31
			c-0.51,1.01-1.33,1.46-2.46,1.37c-2.33,0.47-3.95,1.9-5.21,3.83l0.21-0.18c-1.61,0.91-2.76,2.42-4.36,3.33l-0.45,0.3
			c-0.65,1.33-1.68,2.23-3.08,2.72c-0.72,1.09-1.74,1.66-3.05,1.68c-2.12,0.62-3.67,2.01-5.03,3.68l0.07-0.05
			c-1.21,1.14-2.5,2.17-3.87,3.11c-5.3,3.84-10.6,7.68-15.89,11.52c-19.52-15.1-24.42-36.15-24.13-59.3
			C266.46,290.29,267.9,289.28,269.33,288.28z"/>
		<path class="st78" d="M489.14,817.5c-9.38,17.08-42.11,32.78-61.51,28.3c-10.34-2.39-18.95,3.98-28.67,3.21c0-3.92,0-7.83,0-11.75
			c-1.5-1.78-1.45-3.53,0.12-5.24c8.13-5.14,17.4-4.5,26.04-3.43c13.1,1.63,23.73-1.63,32.67-11.09
			C468.24,817.5,478.69,817.5,489.14,817.5z"/>
		<path class="st79" d="M312.74,868.59c-8.45,9.24-27.93-3.5-31.37,15.72c-22.21,0-44.41,0.01-66.62,0.01
			c-4.37-16.75,8.91-16.73,18.13-16.62c17.82,0.21,34.21-4.57,50.67-9.99c5.36-1.47,10.75-1.6,16.18-0.39
			C305.12,859.85,312.96,859.6,312.74,868.59z"/>
		<path class="st80" d="M489.1,884.32c-2.61,0-5.23,0.01-7.84,0.01c-3.02-6.34,1.04-10.91,3.9-15.8c1.11-1.6,2.36-3.07,3.69-4.49
			c1.3-1.46,2.73-2.79,4.22-4.06c4.06-3.36,8.61-6.69,13.95-5.63c21.71,4.33,42.18-1.17,62.68-7.09c5.68,1.2,9.15,4.79,10.94,10.18
			c0.04,4.66-2.19,8.18-5.58,11.13c-14.33,9.16-30.5,8.97-46.66,9.4C515.06,878.32,501.1,875.5,489.1,884.32z"/>
		<path class="st81" d="M763.46,547.42c5.18,0,10.35,0,15.53,0c1.42,18.5,1.41,36.88-4.26,54.83c-4.75,4.29-10.16,4.8-16.01,2.77
			c-11.6-7.82-7.59-19.91-8.43-30.68c-0.03-2.17,0.06-4.35,0.16-6.52C751.14,558.71,753.83,550.85,763.46,547.42z"/>
		<path class="st82" d="M743.65,430.07c-13.91,11.09-19.98-8.37-31.14-7.99c-18.14-6.06-18.47-22.69-22.19-37.33
			c0.81-4.07,2.73-7.4,6.47-9.48C716.63,389.94,732.09,408.34,743.65,430.07z"/>
		<path class="st83" d="M673.32,833.35c11.86,0.69,21.62-1.72,23.52-15.82c20.91-0.01,41.83-0.01,62.74-0.02
			c-2.62,4.95-4.59,10.07-3.96,15.83c-3.67,4.25-8.8,5.45-13.85,5.14c-17.41-1.07-33.97,3.6-50.78,6.77
			C683.71,843.37,674.6,844.13,673.32,833.35z"/>
		<path class="st84" d="M916.39,927.73c20.8-0.18,41.6-0.36,62.41-0.54c4.08,6.42,1.1,13.12,0.74,19.71
			C955.61,949.98,931.85,952.52,916.39,927.73z"/>
		<path class="st85" d="M426.58,347.75c6.47,1.28,12.95,2.55,19.42,3.83c7.61,0.19,12.36,3.92,14.12,11.37
			c0.15,4.85-1.66,8.97-4.69,12.65c-7.71,5.95-16.29,5.58-25.11,3.39c-13.53,2.23-18.97-9.69-27.72-15.82
			c2.75-4.17,6.4-7.02,11.44-7.85c1.47-0.98,2.93-1.97,4.37-2.98c0.64-0.91,1.52-1.31,2.63-1.19c2.25-0.39,3.87-1.81,5.4-3.35
			C426.45,347.81,426.58,347.75,426.58,347.75z"/>
		<path class="st86" d="M485.19,785.42c2.4-28.48,4.57-30.71,32.1-34.54c5.04-0.7,9.94-2.44,14.91-3.71
			c2.68-2.36,5.3-2.04,7.88,0.17c-4.73,18.72-13.77,31.34-36.1,27.45c-7.9-1.38-14.07,2.03-14.86,11.27
			C487.81,785.84,486.5,785.63,485.19,785.42z"/>
		<path class="st87" d="M489.1,884.32c4.8-10.38,13.51-12.18,23.96-11.94c21.08,0.48,42.38,1.77,62.28-7.7
			c6.88-0.88,13.77-1.84,19.74,3.08c-1.56,14.54-17.85,8.08-23.67,16.56C543.97,884.32,516.53,884.32,489.1,884.32z"/>
		<path class="st88" d="M755.62,872.51c1.31,3.93,2.62,7.86,3.92,11.8c-31.36,0.01-62.72,0.01-94.08,0.02
			c-2.34-6.22,0.13-10.71,5.13-14.31c21.4-2.47,43.08-1.26,64.42-5.63C742.34,862.89,750.27,865.93,755.62,872.51z"/>
		<path class="st89" d="M481.27,739.34c-1.35,9.27-2.92,18.51-3.97,27.82c-0.86,7.67-5.33,10.94-12.44,11.66
			c-10.02-1.22-18.96-5.02-26.97-11.1c0.77-9.42,8.96-14.47,15.32-15.19c12.15-1.38,17.47-9.56,24.14-17.11
			C480.93,734.46,482.25,735.76,481.27,739.34z"/>
		<path class="st90" d="M285.31,860.76c-15.94,10.1-33.5,12.83-52.01,11.8c-8.78-0.49-17.55-0.31-18.54,11.76
			c-3.92-0.28-7.83-0.56-11.75-0.84c0.15-4.97,0.3-9.94,0.44-14.91c2.72-2.76,4.66-7.58,8.35-7.86
			c22.25-1.66,43.15-9.26,64.73-13.87C281.68,850.09,284.62,854.72,285.31,860.76z"/>
		<path class="st91" d="M265.03,291.3c7.26,20.08,12.15,41.13,24.13,59.3c-0.5,1.02-1.31,1.49-2.44,1.4c-2.4,0.45-3.96,2-5.21,3.96
			c-1.41,1.02-2.83,2.03-4.24,3.05c-2.55-11.56-11.92-19.66-13.84-32.47c-1.64-11-15.11-14.03-26.5-14.62
			c4.33-5.17,9.38-9.38,15.87-11.59c2.11-0.62,3.66-2.01,5.03-3.66l-0.06,0.05c1.19-1.14,2.47-2.16,3.85-3.06
			C262.76,292.87,263.9,292.09,265.03,291.3z"/>
		<path class="st92" d="M696.78,375.28c-0.05,3.17-0.76,6.01-3.87,7.64c-7.4,2.99-15.14,0.93-22.72,1.61
			c-4.85-1.35-6.8-5.35-8.64-9.44c-1.48-9.69-9.32-10.19-16.65-11.96c-6.53-1.57-13.55-2.34-18.62-7.63
			c9.22-7.38,19.8-9.26,31.22-7.72l0.09,0.04c1.56,1.48,3.12,2.95,5.35,3.36c1.12-0.11,2.02,0.28,2.71,1.16
			c1.43,1.02,2.87,2.02,4.32,3C680.59,359.74,689.3,366.69,696.78,375.28z"/>
		<path class="st93" d="M771.62,496.4c-16.09-2.29-31.38,4.9-47.35,4.03c-5.26-2.6-8-6.04-3.92-11.75
			c7.35-10.39,16.46-15.8,29.83-12.12c4.89,1.35,10.55,1.11,13.84-4.45C769.38,479.31,771.69,487.48,771.62,496.4z"/>
		<path class="st94" d="M516.55,335.92c-2.61-5.2-5.22-10.39-7.82-15.58c1.01-0.71,2.08-0.82,3.21-0.33
			c18.64-2.77,37.29-2.61,55.94-0.07l0.03-0.31c1.92,2.92,1.93,5.75-0.41,8.47c-6.54,5.48-2.96,12.98-3.92,19.58
			C547.06,347.11,530.52,346.64,516.55,335.92z"/>
		<path class="st95" d="M398.95,884.32c3.93-7.48,9.57-12.74,18.55-11.72c27.56,3.13,52.52-1.21,71.6-23.59
			c1.27,1.33,1.98,2.92,2.23,4.74c-0.27,6.62-4.09,11.55-7.9,16.47c-4.61,6.38-12.25,8.94-17.84,14.1
			C443.38,884.31,421.17,884.32,398.95,884.32z"/>
		<path class="st96" d="M493.03,833.35c1.31-1.31,2.61-2.61,3.92-3.92c8.78-7.48,19.45-4.94,29.51-5.5
			c11.38-0.64,23.3,1.57,33.24-6.43c7.83,0,15.65,0,23.48,0c3.1,3.93,3.54,8.09,1.05,12.49c-28.92,15.66-59.31,19.53-91.2,11.2
			C493.03,838.57,493.03,835.96,493.03,833.35z"/>
		<path class="st97" d="M884.96,371.17c0,2.61,0,5.22,0,7.83c-14.57-4.27-28.32-4.58-39.39,8.11c-8.85-3.96-16.15-10.06-23.15-16.59
			c4.65-8.89,13.08-6.63,20.7-7.29c7.49-0.65,15.81,2.99,22.25-3.82c7.68-5.94,14.44-4.35,20.56,2.51
			C887.49,365.2,887.57,368.32,884.96,371.17z"/>
		<path class="st98" d="M457.79,817.51c-3.05,14.79-10.33,20.63-26.48,16.36c-10.12-2.68-21.52-0.51-32.34-0.52
			c-2.37-0.24-2.77-2.46-3.92-3.92c1.32-3.98,2.64-7.96,3.97-11.94C418.61,817.49,438.2,817.5,457.79,817.51z"/>
		<path class="st99" d="M395.05,856.85c0,3.92,0,7.83,0,11.75c-6.99,6.52-21.54,1.77-23.54,15.75c-15.67-0.01-31.35-0.01-47.02-0.02
			c9.6-21.56,31.15-14.69,47.58-18.91C380.27,863.31,388.17,861.93,395.05,856.85z"/>
		<path class="st100" d="M457.35,151.65c13.47,11.28,23.06,24.35,20,43.26c-5.99,0.05-13.53-0.04-14.34-6.92
			c-2.18-18.61-12.34-18.28-26.09-13.29c-3.43,1.24-7.68,0.22-11.56,0.24C435.04,165.83,445.66,158.01,457.35,151.65z"/>
		<path class="st101" d="M759.54,602.26c5.06,0,10.12,0,15.19-0.01c-0.42,9.72-3.03,18.84-7.58,27.42
			c-1.64,1.46-3.41,2.73-5.31,3.84c-25.84,8.1-30.46,6.96-37.35-9.15c0.15-2.07,0.75-4.04,1.74-5.87
			C736.55,611.53,749.67,610.22,759.54,602.26z"/>
		<path class="st102" d="M884.96,371.17c0-2.61,0-5.22,0-7.83c-4.71-7.96-7.32-15.92,0.1-23.83c15.38,9.18,30.09,19.28,43.28,31.46
			C913.9,375.08,899.46,378.45,884.96,371.17z"/>
		<path class="st103" d="M210.86,927.84c-27.49-0.03-54.97-0.05-82.46-0.08c-7.81,3.92-15.59,6.62-23.22-0.39
			c2.22-1.04,4.44-3,6.65-3c69.59,0.17,139.17,0.53,208.76,0.86c-0.01,0.68-0.02,1.36-0.03,2.04c-4.08,4.72-9.71,4.94-15.3,5.37
			c-5.53-0.03-11.07,0-16.62,0.03c-5.65,0.05-11.29-0.01-16.94,0.28c-12.65-0.7-25.95,3.33-37.53-5.12
			c-5.16,0-10.32,0.01-15.48,0.01C216.09,927.85,213.47,927.85,210.86,927.84z"/>
		<path class="st104" d="M689,230.17c0-3.92,0-7.83,0-11.75c4.71-7.06,11.75-8.03,19.4-7.4c9.19,6.61,18.39,13.23,27.58,19.84
			c-11.72,9.68-25.97,5.44-39.15,7.14C692.21,237.4,690.92,233.47,689,230.17z"/>
		<path class="st105" d="M657.51,347.78c-10.02,4.16-19.95,8.64-31.22,7.72c-9.1-10.29-18.2-20.58-27.31-30.87
			C620.19,328.05,639.74,335.66,657.51,347.78z"/>
		<path class="st106" d="M669.4,872.51c-1.31,3.94-2.62,7.88-3.94,11.82c-20.9,0-41.81,0-62.71,0c0.11-10.49,8.71-12.28,15.89-15.58
			c16.67-0.84,33.17-8.57,50.08-1.4C670.53,868.86,670.76,870.58,669.4,872.51z"/>
		<path class="st107" d="M689,230.17c3.74,1.49,6.35,4.1,7.84,7.83c-1.31,6.53-2.61,13.05-3.92,19.58
			c-6.64,1.39-13.28,2.78-19.93,4.18c0,0,0.23,0.06,0.23,0.06c-1.21-2-2.91-3.34-5.23-3.82c-4.78-1.08-8.3-3.92-11.02-7.88
			C667.64,243.47,678.32,236.82,689,230.17z"/>
		<path class="st108" d="M559.7,817.49c-4.42,9.4-11.98,12.45-22.08,12.07c-13.54-0.52-27.11-0.13-40.67-0.13
			c0-3.97,0.01-7.95,0.01-11.92C517.87,817.5,538.78,817.49,559.7,817.49z"/>
		<path class="st109" d="M763.92,637.9c-1.19,10.36-5.76,19.23-12.02,27.36c-9.92,3.35-19.88,6.09-30.31,2.01
			c-1.76-1.03-2.98-2.51-3.69-4.41c-1.62-6.82,1.24-12.24,7.23-14.32c12.16-4.21,23.18-11.79,36.5-12.58
			C762.39,636.6,763.16,637.25,763.92,637.9z"/>
		<path class="st110" d="M708.4,211.02c-5.61,4.7-12.58,5.86-19.4,7.4c-6.6-0.95-14.11,2.62-19.6-3.92
			c3.51-8.55,7.64-16.92,7.8-26.46c6.55,4.88,13.1,9.77,19.65,14.65c1.41,1.53,2.87,2.99,4.9,3.68c1.31,0.09,2.39,0.63,3.24,1.64
			c1.33,0.55,2.35,1.43,3.02,2.72L708.4,211.02z"/>
		<path class="st111" d="M618.45,872.51c-5.23,3.94-10.46,7.87-15.7,11.81c-10.45,0-20.9-0.01-31.35-0.01
			c2.01-13.96,16.54-9.19,23.53-15.72c2.62-7.03,8.69-7.92,14.98-8.45c4.14-0.08,8.12,0.53,11.64,2.93
			C625.59,867.88,621.59,870.05,618.45,872.51z"/>
		<path class="st112" d="M720.35,664.93c10.48,3.16,21.09-5.52,31.55,0.33c-0.39,4.98-2.99,8.7-6.74,11.77
			c-11.74-1.64-16.36,14.62-28.73,11.4C710.54,679.39,713.46,671.83,720.35,664.93z"/>
		<path class="st113" d="M669.39,751.09c-2.2-5.43-8.41-8.85-7.83-15.67c6.94-12.42,20.57-10.91,31.53-14.26
			c5.15-1.57,11.85,1.43,7.47,9.94l-0.3,0.28c-0.89,1.43-2.07,2.56-3.58,3.35l-0.61,0.53c-0.55,1.35-1.51,2.29-2.87,2.8
			c-2.52,1.78-5.04,3.56-7.56,5.34c-1.66,0.97-3.04,2.3-4.56,3.45l-0.3,0.21c-0.82,1.28-1.92,2.25-3.28,2.92
			c-0.76,1.04-1.79,1.55-3.07,1.53C672.64,752.53,670.96,752.44,669.39,751.09z"/>
		<path class="st114" d="M700.56,731.1c-0.73-7.11-4.76-7.99-10.67-5.82c-9.41,3.46-18.88,6.77-28.32,10.14c0,0-0.01,0-0.01,0
			c-3.31-3.92-3.31-7.84,0.01-11.75c14.73-10.39,37.96-10.38,47.04,0.01l0,0c-1.29,1.26-2.61,2.49-3.97,3.67
			C703.27,728.6,701.91,729.85,700.56,731.1z"/>
		<path class="st115" d="M626.29,817.51c0.02,5.7-2.56,9.7-7.84,11.92c-9.28,13.59-22.22,18.85-38.37,16.84
			c-2.68-1.9-3.32-4.58-2.96-7.65c0.8-2.82,2.52-4.93,5.09-6.32c8.24-4.8,16.49-9.61,24.52-14.79
			C613.24,817.5,619.76,817.5,626.29,817.51z"/>
		<path class="st116" d="M885.06,339.51c-0.03,7.94-0.07,15.89-0.1,23.83c-6.05-3.72-12.72-4.34-19.59-3.92
			c-2.61-5.22-5.23-10.44-7.84-15.66c7.63-2.56,15.25-5.11,22.88-7.67C881.95,337.23,883.51,338.37,885.06,339.51z"/>
		<path class="st117" d="M847,311.94c-11.68,1.15-24.63,7.98-32.59-7.35c1.55-4.38,3.09-8.75,4.64-13.14
			C829.33,296.97,839.04,303.26,847,311.94z"/>
		<path class="st60" d="M888.76,418.25c27.71-0.04,55.42,0.05,83.13-0.2c6.23-0.06,13,2.04,18.49-2.98c2.7,1.41,3.96,5.33,1.15,5.32
			C957.27,420.23,922.88,424.92,888.76,418.25z"/>
		<path class="st118" d="M93.55,415.03c25.3,6.77,51.08,1.51,76.6,3.03c8.36,0.5,16.77,0.14,25.16,0.17
			c-34.3,6.04-68.83,2.02-103.26,2.18c-0.39,0-1.31-2.15-1.05-3.02C91.28,416.43,92.65,415.8,93.55,415.03z"/>
		<path class="st119" d="M105.19,927.37c7.74,0.13,15.48,0.25,23.22,0.38c-8.49,7.16-10.14,21.39-23.91,23.1
			C103.86,943,101.77,935.11,105.19,927.37z"/>
		<path class="st120" d="M606.72,817.5c-5.53,8.72-11.47,16.84-23.55,15.84c-1-0.87-1.34-1.74-1.01-2.61c0.33-0.87,0.67-1.31,1-1.31
			c0-3.98,0.01-7.96,0.01-11.93C591.03,817.49,598.87,817.5,606.72,817.5z"/>
		<path class="st121" d="M465.59,884.31c1.17-9.28,10.01-10.93,15.68-15.72c2.61-2.18,5.23-2.51,7.84,0
			c-2.62,5.25-5.24,10.49-7.86,15.74C476.03,884.33,470.81,884.32,465.59,884.31z"/>
		<path class="st105" d="M567.88,319.93c-18.65,0.03-37.29,0.05-55.94,0.08C530.57,315.04,549.22,314.59,567.88,319.93z"/>
		<path class="st122" d="M519.54,790.56c15.01,0.01,30.01,0.01,45.03,0.02C549.56,795,534.55,795.01,519.54,790.56z"/>
		<path class="st105" d="M567.49,328.09c0.14-2.82,0.27-5.64,0.41-8.46c9.28,0.44,18.88-1.1,27.33,4.43
			C585.99,325.4,576.74,326.74,567.49,328.09z"/>
		<path class="st123" d="M594.92,782.43c4.09,0.06,8.17,0.12,12.26,0.18c-10.01,5.1-20.66,7.39-31.87,7.2
			c0.01-1.15,0.02-2.31,0.03-3.46C581.58,783.63,587.02,776.84,594.92,782.43z"/>
		<path class="st94" d="M504.66,320.73c-4.43,5.19-10.4,3.01-15.86,3.33C493.45,319.93,499.05,320.32,504.66,320.73z"/>
		<path class="st86" d="M492.41,786.56c5.53,0.26,11.55-1.99,16.11,3.16C502.9,789.97,497.21,790.51,492.41,786.56z"/>
		<path class="st94" d="M485.07,324.63c-3.06,4.22-7.57,3.38-11.84,3.38C476.54,324.66,480.7,324.26,485.07,324.63z"/>
		<path class="st94" d="M469.35,328.83c-2.58,1.05-5.16,2.1-7.74,3.15C464.19,330.93,466.77,329.88,469.35,328.83z"/>
		<path class="st109" d="M763.46,629.68c1.23,0,2.46,0,3.69-0.01c0.23,3.25-0.39,6.17-3.23,8.22c0,0-0.78-0.69-0.78-0.69
			C761.11,634.6,761.16,632.09,763.46,629.68z"/>
		<path class="st94" d="M449.86,336.18c-1.75,3.01-4.62,3.64-7.78,3.65C444.01,337.23,446.57,335.92,449.86,336.18z"/>
		<path class="st40" d="M321.08,641.54c2.87,1.83,3.39,4.69,3.38,7.78C321.8,647.39,320.72,644.78,321.08,641.54z"/>
		<path class="st82" d="M750.9,441.5c-0.99-1.42-1.98-2.83-2.97-4.25C748.91,438.67,749.9,440.09,750.9,441.5z"/>
		<path class="st82" d="M746.33,433.53c-0.85-1.09-1.71-2.18-2.56-3.27C744.62,431.34,745.47,432.44,746.33,433.53z"/>
		<path class="st60" d="M987.71,414c-1.6-1.18-3.2-2.36-4.8-3.54C984.51,411.64,986.11,412.82,987.71,414z"/>
		<path class="st60" d="M877.29,410.3c1.18,1.01,2.36,2.01,3.54,3.01C879.65,412.31,878.47,411.3,877.29,410.3z"/>
		<path class="st118" d="M101.1,410.35c-1.66,1.19-3.32,2.38-4.98,3.57C97.78,412.73,99.44,411.54,101.1,410.35z"/>
		<path class="st118" d="M104.86,407.3c-1.25,1.01-2.5,2.02-3.75,3.04C102.36,409.33,103.61,408.32,104.86,407.3z"/>
		<path class="st60" d="M883.59,414.67c1.75,1.21,3.5,2.41,5.25,3.62C887.09,417.09,885.34,415.88,883.59,414.67z"/>
		<path class="st118" d="M116.87,398.9c-1.58,1.13-3.15,2.26-4.73,3.39C113.72,401.16,115.3,400.03,116.87,398.9z"/>
		<path class="st60" d="M982.8,410.38c-1.19-1.01-2.38-2.02-3.57-3.02C980.42,408.37,981.61,409.38,982.8,410.38z"/>
		<path class="st118" d="M120.48,395.88c-1.1,0.94-2.21,1.89-3.31,2.83C118.27,397.77,119.38,396.82,120.48,395.88z"/>
		<path class="st124" d="M360.75,708.17c1.03,1.07,2.07,2.15,3.1,3.22C362.81,710.31,361.78,709.24,360.75,708.17z"/>
		<path class="st124" d="M364.18,711.78c1.17,1.27,2.34,2.53,3.52,3.8C366.53,714.31,365.36,713.04,364.18,711.78z"/>
		<path class="st118" d="M128.43,390.58c0.03,1.36,0.07,2.73,0.1,4.09c-1.67-0.15-3.33-0.3-5.01-0.45
			C125.16,393,126.79,391.79,128.43,390.58z"/>
		<path class="st124" d="M367.86,715.76c1.22,1.33,2.45,2.67,3.67,4C370.31,718.42,369.08,717.09,367.86,715.76z"/>
		<path class="st97" d="M845.47,386.96c1.43,1.11,2.86,2.22,4.29,3.33C848.33,389.18,846.9,388.07,845.47,386.96z"/>
		<path class="st91" d="M273.81,361.94c1.03-0.89,2.06-1.79,3.08-2.68C275.86,360.15,274.83,361.05,273.81,361.94z"/>
		<path class="st105" d="M669.98,355.34c-1.44-1-2.88-2-4.32-3C667.1,353.34,668.54,354.34,669.98,355.34z"/>
		<path class="st76" d="M418.41,352.35c-1.46,0.99-2.91,1.99-4.37,2.98C415.5,354.33,416.95,353.34,418.41,352.35z"/>
		<path class="st77" d="M281.52,355.95c1.74-1.32,3.47-2.64,5.21-3.96C284.99,353.32,283.25,354.63,281.52,355.95z"/>
		<path class="st105" d="M662.95,351.18c-1.78-1.12-3.57-2.24-5.35-3.36C659.38,348.94,661.17,350.06,662.95,351.18z"/>
		<path class="st76" d="M426.45,347.81c-1.8,1.12-3.6,2.23-5.4,3.35C422.84,350.05,424.64,348.93,426.45,347.81z"/>
		<path class="st113" d="M642.09,770.05c1.67-0.97,3.35-1.95,5.03-2.92C645.44,768.11,643.77,769.08,642.09,770.05z"/>
		<path class="st113" d="M649.91,766.2c1.69-0.99,3.38-1.98,5.07-2.98C653.3,764.22,651.6,765.21,649.91,766.2z"/>
		<path class="st47" d="M786.18,343.98c1.58,1.18,3.16,2.36,4.74,3.55C789.34,346.35,787.76,345.16,786.18,343.98z"/>
		<path class="st113" d="M657.78,762.11c1.49-0.99,2.98-1.99,4.48-2.98C660.77,760.12,659.28,761.12,657.78,762.11z"/>
		<path class="st47" d="M779.11,335.91c0.03,1.1,0.04,2.19,0.04,3.29c-1.36-1.08-2.72-2.15-4.08-3.22
			C776.42,335.95,777.76,335.93,779.11,335.91z"/>
		<path class="st39" d="M305.06,339.07c1.29-1.04,2.58-2.08,3.87-3.11C307.64,337,306.35,338.04,305.06,339.07z"/>
		<path class="st113" d="M665.73,757.62c1.13-0.9,2.27-1.8,3.4-2.7C667.99,755.82,666.86,756.72,665.73,757.62z"/>
		<path class="st51" d="M203.12,336.35c-1.54,1.11-3.07,2.21-4.61,3.32C200.05,338.57,201.59,337.46,203.12,336.35z"/>
		<path class="st94" d="M457.58,332.93c-1.67,0.87-3.34,1.73-5.02,2.6C454.23,334.66,455.91,333.79,457.58,332.93z"/>
		<path class="st39" d="M308.86,336.02c1.67-1.23,3.35-2.45,5.02-3.68C312.21,333.57,310.53,334.79,308.86,336.02z"/>
		<path class="st124" d="M387.93,735.25c0.98,0.94,1.96,1.88,2.94,2.82C389.89,737.13,388.91,736.19,387.93,735.25z"/>
		<path class="st39" d="M316.93,330.66c1.03-0.91,2.05-1.81,3.08-2.72C318.98,328.84,317.96,329.75,316.93,330.66z"/>
		<path class="st39" d="M320.46,327.64c1.45-1.11,2.91-2.22,4.36-3.33C323.37,325.42,321.91,326.53,320.46,327.64z"/>
		<path class="st114" d="M669.39,751.09c1.67,0.14,3.34,0.29,5.01,0.43c-1.69,1.1-3.39,2.21-5.09,3.31
			C669.36,753.59,669.39,752.34,669.39,751.09z"/>
		<path class="st114" d="M677.48,749.99c1.1-0.97,2.19-1.95,3.29-2.92C679.67,748.05,678.58,749.02,677.48,749.99z"/>
		<path class="st39" d="M324.61,324.48c1.73-1.28,3.47-2.55,5.21-3.83C328.08,321.93,326.35,323.21,324.61,324.48z"/>
		<path class="st114" d="M681.07,746.86c1.52-1.15,3.04-2.3,4.56-3.45C684.11,744.56,682.59,745.71,681.07,746.86z"/>
		<path class="st91" d="M230.5,316.53c-1.6,1.16-3.19,2.32-4.79,3.48C227.3,318.85,228.9,317.69,230.5,316.53z"/>
		<path class="st91" d="M234.15,313.52c-1.16,0.97-2.32,1.93-3.48,2.9C231.83,315.45,232.99,314.48,234.15,313.52z"/>
		<path class="st21" d="M731.97,304.62c1.29,1.05,2.58,2.1,3.87,3.15C734.54,306.72,733.25,305.67,731.97,304.62z"/>
		<path class="st68" d="M348.18,307.72c1.28-1.03,2.57-2.07,3.85-3.1C350.75,305.66,349.46,306.69,348.18,307.72z"/>
		<path class="st68" d="M351.96,304.67c1.66-1.23,3.31-2.45,4.97-3.68C355.28,302.22,353.62,303.45,351.96,304.67z"/>
		<path class="st77" d="M257.84,296.67c-1.67,1.22-3.35,2.44-5.02,3.66C254.49,299.11,256.17,297.89,257.84,296.67z"/>
		<path class="st117" d="M815.16,288.69c-1.57-1.16-3.14-2.33-4.7-3.49C812.02,286.37,813.59,287.53,815.16,288.69z"/>
		<path class="st102" d="M933.32,374.69c-1.72-1.27-3.43-2.54-5.15-3.81C929.89,372.15,931.6,373.42,933.32,374.69z"/>
		<path class="st114" d="M693.19,738.07c0.96-0.93,1.92-1.87,2.87-2.8C695.11,736.2,694.15,737.14,693.19,738.07z"/>
		<path class="st77" d="M261.63,293.66c-1.28,1.02-2.57,2.04-3.85,3.06C259.06,295.7,260.34,294.68,261.63,293.66z"/>
		<path class="st68" d="M285.2,276.86c-1.74,1.27-3.47,2.54-5.21,3.82C281.72,279.4,283.46,278.13,285.2,276.86z"/>
		<path class="st68" d="M289.35,273.71c-1.45,1.11-2.91,2.22-4.36,3.33C286.44,275.92,287.9,274.81,289.35,273.71z"/>
		<path class="st68" d="M292.87,270.71c-1.02,0.9-2.04,1.8-3.06,2.7C290.83,272.51,291.85,271.61,292.87,270.71z"/>
		<path class="st118" d="M147.97,376.02c-1.23,1-2.45,2.01-3.68,3.01C145.51,378.03,146.74,377.02,147.97,376.02z"/>
		<path class="st49" d="M667.98,258c1.74,1.27,3.49,2.55,5.23,3.82C671.47,260.55,669.72,259.27,667.98,258z"/>
		<path class="st21" d="M771.68,257.42c-1.45-1.17-2.9-2.34-4.36-3.51C768.77,255.08,770.22,256.25,771.68,257.42z"/>
		<path class="st21" d="M767.1,253.75c-1.12-0.98-2.25-1.96-3.37-2.93C764.85,251.8,765.97,252.77,767.1,253.75z"/>
		<path class="st102" d="M939.68,379.05c-1.19-1.01-2.38-2.02-3.56-3.02C937.31,377.04,938.5,378.05,939.68,379.05z"/>
		<path class="st107" d="M645.67,241.97c1.32,1.06,2.65,2.13,3.97,3.19C648.31,244.09,646.99,243.03,645.67,241.97z"/>
		<path class="st104" d="M708,210.73c-1.01-0.91-2.02-1.82-3.02-2.72C705.99,208.92,707,209.83,708,210.73z"/>
		<path class="st114" d="M696.68,734.73c1.19-1.12,2.39-2.23,3.58-3.35C699.07,732.5,697.87,733.62,696.68,734.73z"/>
		<path class="st104" d="M701.75,206.37c-1.63-1.23-3.27-2.46-4.9-3.68C698.48,203.92,700.11,205.14,701.75,206.37z"/>
		<path class="st37" d="M390.96,199.62c-1.29,1.03-2.58,2.07-3.86,3.1C388.38,201.69,389.67,200.66,390.96,199.62z"/>
		<path class="st22" d="M575.5,190.95c1.17,0.99,2.35,1.99,3.52,2.97C577.84,192.93,576.67,191.94,575.5,190.95z"/>
		<path class="st124" d="M383.72,731.38c1.21,1.13,2.42,2.25,3.64,3.38C386.15,733.63,384.94,732.51,383.72,731.38z"/>
		<path class="st22" d="M570.58,187.32c1.6,1.18,3.19,2.36,4.79,3.54C573.77,189.68,572.18,188.5,570.58,187.32z"/>
		<path class="st110" d="M674.59,186.7c-1.7-1.29-3.4-2.59-5.11-3.89C671.19,184.1,672.89,185.4,674.59,186.7z"/>
		<path class="st22" d="M642.68,163.38c-1.56-1.15-3.12-2.3-4.68-3.45C639.56,161.08,641.12,162.23,642.68,163.38z"/>
		<path class="st36" d="M615.49,143.72c-1.63-1.21-3.25-2.42-4.88-3.64C612.23,141.29,613.86,142.5,615.49,143.72z"/>
		<path class="st124" d="M379.57,727.53c1.28,1.19,2.55,2.38,3.83,3.57C382.12,729.91,380.85,728.72,379.57,727.53z"/>
		<path class="st67" d="M583.42,120.4c-1.43-1.1-2.86-2.2-4.28-3.3C580.56,118.2,581.99,119.3,583.42,120.4z"/>
		<path class="st62" d="M504.91,117.06c-1.49,1.11-2.98,2.22-4.47,3.33C501.92,119.28,503.42,118.17,504.91,117.06z"/>
		<path class="st67" d="M578.61,116.74c-0.99-0.89-1.98-1.79-2.97-2.68C576.63,114.96,577.62,115.85,578.61,116.74z"/>
		<path class="st67" d="M572.42,112.36c-1.64-1.21-3.28-2.41-4.92-3.62C569.14,109.95,570.78,111.16,572.42,112.36z"/>
		<path class="st67" d="M567.5,108.75c-1.25-1.04-2.5-2.07-3.74-3.1C565.01,106.68,566.26,107.71,567.5,108.75z"/>
		<path class="st50" d="M704.63,727.35c1.32-1.22,2.65-2.44,3.97-3.67C707.27,724.9,705.95,726.13,704.63,727.35z"/>
		<path class="st124" d="M379.35,723.64c0.03,1.26,0.06,2.53,0.1,3.79c-1.34-1.25-2.67-2.5-4.01-3.75
			C376.74,723.66,378.04,723.64,379.35,723.64z"/>
		<path class="st91" d="M265.71,363.33c1.59,0.12,3.18,0.24,4.77,0.36c-1.58,1.21-3.16,2.42-4.75,3.63
			C265.73,365.99,265.72,364.66,265.71,363.33z"/>
		<path class="st118" d="M144.23,379.07c-1.63,1.19-3.25,2.37-4.88,3.56C140.98,381.44,142.61,380.25,144.23,379.07z"/>
		<path class="st102" d="M944.58,382.67c-1.59-1.18-3.19-2.36-4.78-3.54C941.39,380.31,942.98,381.49,944.58,382.67z"/>
		<path class="st73" d="M758.64,457.15c-0.94-1.47-1.88-2.95-2.82-4.42C756.76,454.2,757.7,455.67,758.64,457.15z"/>
		<path class="st124" d="M371.53,719.76c1.3,1.31,2.61,2.62,3.91,3.93C374.14,722.38,372.84,721.07,371.53,719.76z"/>
		<path class="st118" d="M132.34,387.48c-1.34,1.06-2.69,2.12-4.03,3.18C129.65,389.6,131,388.54,132.34,387.48z"/>
		<path class="st89" d="M429.1,763.21c1.66,0.97,3.33,1.94,4.99,2.91C432.42,765.15,430.76,764.18,429.1,763.21z"/>
		<path class="st125" d="M692.8,927.81c36.61,0,73.21-0.01,109.82-0.01c2.53,11.92,8.69,16.55,20.99,11.64
			c4.87-1.95,10.13-5.3,15.82,0.98c6.8,7.51,15.52,6.88,25.18,3.74c8.89-2.89,18.77-2.83,20.35,10.6
			c-5.53,5.59-20.27-4.18-19.6,11.75c-12.56,12.14-32.55,10.28-41.64,5.38c-14.22-7.67-26.09-6.61-39.69-5.4
			c-11.03,0.98-21.79-0.59-32.32-3.89c-2.61-3.92-5.23-7.83-7.84-11.75c-3.94-3.03-3.8-8.78-7.84-11.75
			c-3.61-7.35-7.67-7.69-15-3.44c-9.66,5.61-20.39,7.43-28.11-4.39C692.91,930.11,692.87,928.96,692.8,927.81z"/>
		<path class="st126" d="M555.63,927.82c5.31-0.01,10.62-0.02,15.92-0.03c3.83,2.3,7.66,2.29,11.48,0
			c19.6,0.01,39.2,0.02,58.79,0.04c-19.72,7.74-36.71,20.43-59.08,23.9c-26.89,4.18-54,4.41-80.43,8.42
			c-16.29,2.47-31.22,17.42-44.57,29.88c0-2.61,0-5.22,0-7.84c2.2-5.43,8.41-8.85,7.84-15.67c-0.2-11.24,11.39-10.93,16.53-16.97
			c14.28-17.93,32.74-23.86,54.91-19.11C543.56,931.84,549.82,931.44,555.63,927.82z"/>
		<path class="st1" d="M736.02,939.1c7.95,0.36,7.89,6.06,7.84,11.75C735.91,950.48,735.97,944.79,736.02,939.1z"/>
		<path class="st127" d="M304.63,927.8c5.31-0.17,10.63-0.35,15.94-0.52c1.25,0.19,2.51,0.36,3.77,0.5
			c2.02,9.94-5.91,13.86-11.59,19.15c-13.47,21.44-34.97,7.34-52.4,11.07c-13.3,2.84-28.14-1.21-37.75,12.43c0-3.92,0-7.83,0-11.75
			c0.48-16.39,12.31-19.58,25.03-20.53C267.03,936.7,285.83,932.39,304.63,927.8z"/>
		<path class="st18" d="M367.48,927.77c14.36,0.02,28.72,0.05,43.08,0.07c1.43,4.55-1.15,8.05-4.63,9.1
			c-12.73,3.84-20.61,14.11-30.48,21.73c-9.14,0-18.29,0-27.43,0.01c-12.73-2.15-25.32-3.93-31.35,11.75c0-3.92,0-7.83,0-11.75
			c3.92-5.22,7.84-10.44,11.76-15.66C339.41,932.74,353.75,931.04,367.48,927.77z"/>
		<path class="st128" d="M367.48,927.77c-12.91,5.36-24.26,14.72-39.06,15.24c-5.22,1.3-10.45,2.61-15.67,3.91
			c3.87-6.38,7.73-12.77,11.59-19.15C338.72,927.78,353.1,927.77,367.48,927.77z"/>
		<path class="st12" d="M304.63,927.8c-15.38,10.99-33.25,14.78-51.4,14.81c-13.88,0.03-24.08,3.7-30.64,16.06
			c-2.61,0-5.22,0-7.84,0c2.48-12.79,12.78-20.67,19.43-30.84c13.13-0.04,26.27-0.08,39.4-0.12c5.2,2.54,10.41,2.55,15.61,0
			C294.34,927.75,299.48,927.77,304.63,927.8z"/>
		<path class="st129" d="M485.18,954.76c-5.51,5.62-15.61,3.58-19.59,11.75c-8.09,1.7-15.56,3.73-24.49,0.84
			c-15.74-5.1-30.59,1.47-43.78,9.53c-5.98,3.65-11.35,5.57-17.96,5.3c0-3.92,0-7.83,0-11.75c-1.51-15.31,9.38-15.97,20-16.81
			c21.02-1.66,42.08-2.55,63.12-3.88C470.89,947.61,479.09,946.47,485.18,954.76z"/>
		<path class="st129" d="M375.45,986.1c1.31-1.31,2.61-2.61,3.92-3.92C378.06,983.48,376.76,984.79,375.45,986.1z"/>
		<path class="st130" d="M465.59,954.76c-21.45,4.36-43.28,2.44-64.91,3.62c-9.84,0.54-18.04,1.17-21.31,12.05
			c-1.31,0-2.61,0-3.92,0c0-3.92,0-7.84,0-11.76c3.65-12.61,11.34-21.13,24.63-23.49c4.85-0.86,8.3-3.04,10.48-7.35
			c23.5,0,47.01,0,70.52-0.01C485.06,942.06,470.49,945.63,465.59,954.76z"/>
		<path class="st47" d="M783.05,324.17c-1.31,1.3-2.61,2.61-3.92,3.91C780.44,326.78,781.75,325.48,783.05,324.17z"/>
		<path class="st131" d="M759.54,841.17c17.89-3.34,35.48-11.31,54-1.33c4.1,2.21,11.57,2.88,15.12,0.6
			c15.59-10.04,29.88,2.23,44.89,1.99c12.73-0.2,5.59,14.26,7.01,22.31c-10.16,5.47-22.76,6.22-31.78,3.27
			c-27.17-8.89-53.77-4.72-80.71-2.02c-3.39,0.34-6.35-0.85-9-2.91c-3.89-3.87-5.98-8.57-6.5-14
			C753.16,844.94,753.28,840.35,759.54,841.17z"/>
		<path class="st132" d="M759.54,860.76c16.06-1.3,32.2-4.27,48.17-3.52c24.35,1.15,48.58,4.87,72.86,7.5
			c-0.01,2.61-0.02,5.22-0.04,7.83c-40.33-0.02-80.66-0.04-120.99-0.06c-1.31-1.27-2.19-2.8-2.72-4.54
			C756.58,865.14,757.27,862.65,759.54,860.76z"/>
		<path class="st133" d="M759.54,841.17c-3.15,1.69-3.84,4.61-3.92,7.84c-2.3,2.38-5.2,4.54-8.34,4.16
			c-18.87-2.29-36.28,3.66-53.85,8.99c-5.46-2.36-7.7-6.81-8.09-12.46c0.11-3.31,1.29-6.17,3.65-8.52
			c21.32-10.14,44.13-7.67,66.63-7.84C758.78,835.03,759.46,837.95,759.54,841.17z"/>
		<path class="st134" d="M387.21,602.26c-13.91,2.53-28.67,7.63-35.27-11.75c1.31-10.44,2.61-20.89,3.92-31.33
			c15.38-0.21,29.64-4.54,43.11-11.75c14.39,9.66,8.16,23.96,8.35,36.83C403.91,593.9,399.93,602.98,387.21,602.26z"/>
		<path class="st135" d="M473.43,715.84c-27.43-8.21-54.87-1.37-82.31,0c-1.55-15.67,4.38-31.33,0-47
			c4.43-7.88,11.48-8.84,18.47-5.17c13.5,7.09,26.44,5.08,39.57-0.41c14.76,1.78,20.71,15.06,30.55,23.32
			c1.21,1.51,2.17,3.16,2.95,4.92c0.21,0.94,0.39,1.88,0.6,2.82c-0.71,7.51,0.07,15.45-5.92,21.51
			C476.04,715.84,474.74,715.84,473.43,715.84z"/>
		<path class="st136" d="M450.63,663.43c-10.17,12.1-22.7,13.32-36.22,7.04c-7.78-3.62-15.05-7.62-23.28-1.63
			c-0.61-5.7,1.25-10.79,3.92-15.67c-1.63-8.23,4.3-13.42,7.84-19.58c8.87-13.72,23.1-7.94,35.27-9.72
			C451.27,634.22,451.74,648.58,450.63,663.43z"/>
		<path class="st137" d="M657.64,711.93c0,2.61,0,5.22,0,7.83c-7.87,21.05-25.47,27.36-45.48,30.04c-4.54,1.59-6.84,6.36-11.32,8.03
			c-5.1,1.58-9.74,0.92-13.74-2.82c0-1.31,0-2.61,0-3.92c-2.31-6.81,2.93-10.53,6.11-15.12c10.93-12.99,23.75-22.89,41.3-24.99
			C642.21,711.35,650.06,708.4,657.64,711.93z"/>
		<path class="st138" d="M594.93,739.34c-2.61,3.92-5.22,7.83-7.84,11.75c-10.02-4.3-20.54-6.64-31.34-7.81
			c-0.78-0.81-1.55-1.62-2.34-2.42c-3.66-8.9-5.65-19.9,2.74-24.85c11.25-6.65,23.72-1.61,34.58,5.1
			C595.73,726.34,597.2,732.41,594.93,739.34z"/>
		<path class="st122" d="M587.09,755.01c5.22,0,10.45,0,15.67,0c5.02,7.79-0.39,13.5-3.91,19.58l-0.01,0.01
			c-1.38,1.23-2.54,2.67-3.91,3.91c0,1.31-0.01,2.61-0.01,3.92c-6.53,1.31-13.06,2.61-19.59,3.92
			C583.15,777.36,589.79,767.93,587.09,755.01z"/>
		<path class="st138" d="M540.08,747.34c-2.62-0.06-5.25-0.11-7.87-0.17c0.07-1.39,0.15-2.78,0.22-4.17
			c5.29-5.04,11.52-4.78,18-3.23c1.92,0.92,3.69,2.09,5.31,3.48c0,0,0.02,0.03,0.02,0.03C551.66,749.01,545.46,746.59,540.08,747.34
			z"/>
		<path class="st139" d="M465.59,954.76c1.14-11.29,13.03-16.41,15.49-26.93c24.85,0,49.7-0.01,74.55-0.01
			c-3.59,6.78-9.54,8.92-16.27,6.44c-24.2-8.92-40.59,1.91-54.19,20.51C478.65,954.11,472.12,949.28,465.59,954.76z"/>
		<path class="st139" d="M583.04,927.78c-3.83,4.47-7.66,4.48-11.48,0C575.39,927.78,579.21,927.78,583.04,927.78z"/>
		<path class="st140" d="M277.47,849.01c-22.52,14.67-49.93,10.86-74.02,19.57c-0.8-26.67,1-29.79,27.61-26.89
			c18.19,1.98,32.58-12.13,50.33-8.35C285.88,840.02,282.83,844.8,277.47,849.01z"/>
		<path class="st141" d="M277.47,849.01c1.31-5.22,2.61-10.44,3.92-15.67c10.59,0.2,20.49,5.88,31.35,3.92
			c0.13,5.09,2.75,7.7,7.84,7.83c0.07,13.47-8.39,16.28-19.6,15.67c-5.23,0-10.45,0-15.68,0
			C280.1,858.57,277.48,854.66,277.47,849.01z"/>
		<path class="st0" d="M551.77,743.23c-6.45-0.08-12.9-0.16-19.35-0.24c0,0,0.08,0.2,0.08,0.2c-2.04-1.98-2.17-4.53-2.16-7.14
			c0.06-19.1-8.8-30.38-28.38-32.2c-7.5-2.76-15.62-4.42-20.52-11.71l0.06,0.08c-1.19-1.13-2.53-2.06-3.98-2.81
			c-8.96-8.66-17.93-17.32-26.89-25.98c-4.01-12.78-8.02-25.57-12.03-38.35c-6.27-6.34-5.58-13.05-1.08-19.97
			c12.28-6.6,24.96-5.13,37.72-1.85c9.92,7.32,6.2,19.04,9.22,28.58c1.47,10.8,8.97,17.71,16.17,24.78c1.68,1.5,3.4,2.98,5.3,4.19
			c1.28,0.64,2.53,1.34,3.79,2c2.55,1.15,5.24,1.84,8.02,2.19c2.04,0.21,4.06,0.55,6.06,0.58c2.22-0.73,2.96-2.5,3.23-4.69
			c-0.07-1.83-0.06-3.54-0.08-5.34c-0.29-27.29-0.11-54.49-0.19-81.65c0.13-4.54-1.04-8.57-4.89-11.45
			c-14.61-5.44-29.95-8.95-43.41-17.17c-1.56-0.73-3.04-1.6-4.48-2.53c-2.14-1.38-4.09-3.02-5.95-4.76
			c-1.28-1.09-2.47-2.28-3.65-3.47c-0.62-0.57-1.2-1.19-1.82-1.77c-1.29-1.14-2.5-2.35-3.72-3.58c-0.64-0.61-1.22-1.25-1.86-1.87
			c-1.29-1.28-2.45-2.65-3.56-4.09c-5.62-7.77-8.64-16.65-11.27-25.73c-2.08-10.81-1.23-21.72-1.17-32.6
			c0.05-1.94,0.3-3.87,0.64-5.78c1.26-5.53,2.95-10.94,5.53-16.03c1.43-2.51,4.31-3.37,6.2-5.36c0.97-0.95,1.54-2.09,1.73-3.43
			c2.38-11.79,9.87-19.94,19.09-26.89c4.34-2.75,8.52-5.77,12.92-8.45c1.46-0.95,2.98-1.76,4.55-2.54c1.58-0.82,3.21-1.49,4.88-2.1
			c9.15-6.51,24.07,1.36,30.29-12.3c0.79-5.86,0.76-11.97,5.5-16.48c14.11-5.84,22.42-1.5,24.45,13.84
			c0.25,1.76,0.45,3.59,0.67,5.34c1.2,5.11,5.54,5.1,9.51,5.65c2.46,0.21,4.87,0.68,7.23,1.39c3.08,0.99,6.12,2.12,9.23,3.03
			c1.59,0.42,3.12,0.99,4.63,1.62c3.04,1.32,6.03,2.75,9,4.21c6.01,3.19,12.26,5.96,17.66,10.21c2.03,1.59,3.89,3.37,5.7,5.21
			c1.87,1.79,3.61,3.69,5.25,5.69c5.22,6.99,9,14.73,12.07,22.86c1.19,3.33,2.38,6.66,3.15,10.13c0.62,3.76-0.56,7.12-2.37,10.32
			c0.1,1.35,0.21,2.69,0.31,4.04c-10.81,11.83-21.12,12.46-39.12,2.43c-1.3-1.48-2.38-3.16-3.27-4.92
			c-5.47-16.47-13.29-30.8-32.25-34.76c-2.46,0.65-4.46,1.95-5.88,4.13c-2.53,25.7-0.58,51.36-0.96,76.95
			c0.2,7.07,5.04,10.03,10.89,12.06c9.79,3.89,20.13,6.23,29.61,10.94c2.43,1.14,4.81,2.38,7.22,3.58c1.7,0.72,3.33,1.56,4.96,2.41
			c18.85,7.73,30.05,22.26,36.54,41.01c2.64,7.49,4.36,15.16,4.38,23.14c0.09,5.91,0.07,11.81-0.57,17.69
			c-0.2,1.91-0.6,3.78-1.08,5.64c-3.61,11.38-5.58,23.33-11.34,34c-2.57,4.44-6.25,7.95-9.84,11.52c-1.05,1.13-2.21,2.18-3.37,3.19
			c-1.05,1.04-2.18,2.02-3.29,2.99c-0.51,0.5-1.07,0.98-1.58,1.48c-0.97,1.03-2.01,2-3.04,2.97c-0.49,0.49-1.02,0.96-1.51,1.45
			c-0.99,0.97-2.09,1.82-3.23,2.61c-1.15,0.75-2.37,1.38-3.62,1.94c-1.83,0.92-3.66,1.85-5.48,2.83c-1.24,0.71-2.51,1.32-3.8,1.93
			c-1.98,1.05-3.97,2.07-6.04,2.97c-1.48,0.68-2.99,1.22-4.52,1.74c-3.24,1.18-6.46,2.39-9.8,3.27
			C550.73,704.05,554.32,725.77,551.77,743.23z"/>
		<path class="st142" d="M669.4,382.92c7.84-4.91,15.68-4.91,23.52,0c4.5,14.07,8.73,28.28,19.6,39.17
			c-1.93,10.44,3.45,20.89,0,31.33c-7.07-3.07-13.21-6.76-20.53,1.45c-18.78,21.07-20.3,20.66-38.25-1.45
			c-5.86-9.42,1.85-15.73,5.22-23.05c5.52-8.56,4.81-18.26,5.17-27.79C664.38,395.67,663.52,388.36,669.4,382.92z"/>
		<path class="st143" d="M720.35,488.67c1.31,3.92,2.61,7.83,3.92,11.75c0,1.31,0,2.61,0,3.92c-2.75,3.11-6.7,5-10.28,3.97
			c-15.87-4.56-26.87,2.71-36.53,13.92c-12.02,4.65-22.31,1.58-29.25-8.76c-6.24-9.29-15.42-13.7-24.6-18.57
			c-5.11-9.66,4.92-12.25,8.38-17.91c4.01-1.75,7.72-3.9,9.98-7.89c3.23,0.07,6.14,0.75,7.83,3.9c2.41,2.06,1.39,5.83,3.92,7.83
			c8.2,11.59,18.51,14.79,31.35,7.83c5.57,0.05,11.18,0.29,15.68-3.92C707.63,484.33,714.3,484.95,720.35,488.67z"/>
		<path class="st144" d="M661.56,433.84c-2.61,6.53-5.22,13.05-7.84,19.58c-5.07,3.88-10.14,7.76-15.2,11.64
			c-0.31-3.47-0.62-6.94-0.93-10.41c-1.39-2.87-0.96-6.39-3.15-8.98c-4.34-7.68-8.68-15.37-13.03-23.05
			c1.85-12.91-7.68-25.56-0.9-38.6c7.44-5.33,14.3-0.85,15.37,5.01C639.22,407.33,654.31,418.23,661.56,433.84z"/>
		<path class="st145" d="M641.97,469.1c-0.13,5.16-2.9,7.71-7.94,7.99c-8.25,6.61-17.74,6.68-27.22,4.26
			c-8.78-2.24-13.6-7.2-7.59-16.63c11.71,15,25.63,9.97,39.61,4.37C639.88,469.09,640.92,469.09,641.97,469.1z"/>
		<path class="st93" d="M700.75,484.76c-3.96,6.36-8.22,11.55-15.68,3.92C689.19,482.94,695.34,485.31,700.75,484.76z"/>
		<path class="st145" d="M653.72,480.84c-3.16-1.69-3.84-4.61-3.92-7.83C652.96,474.69,653.64,477.61,653.72,480.84z"/>
		<path class="st146" d="M450.34,442.71c-1.56,4.9-3.12,9.79-4.68,14.69c-1.85,2.14-1.65,4.95-2.45,7.43
			c-1.36,1.25-2.96,1.83-4.81,1.77c-16.27-8.86-32.29-12.95-47.28,2.49c-10.2,4.47-20.24,8.46-23.51-7.83
			c8.01,1.04,14.39-2.52,18.3-8.79c16.54-26.54,40.82-17.89,63.99-14.71c0.96,1.02,1.34,2.1,1.15,3.22
			C450.86,442.13,450.62,442.71,450.34,442.71z"/>
		<path class="st147" d="M477.09,409.33c-7.33,8.32-14.66,16.65-21.99,24.97c-1.72-1.46-3.45-2.92-5.18-4.38
			c4.68-7.27,4-15.43,3.92-23.5c-1.22-7.85,3.68-10.48,9.94-9.81C470.88,397.38,477.32,400.24,477.09,409.33z"/>
		<path class="st147" d="M450.34,442.71c-0.15-1.65-0.29-3.3-0.44-4.95c1.16-0.01,2.31-0.02,3.46-0.02
			C452.36,439.39,451.35,441.05,450.34,442.71z"/>
		<path class="st148" d="M470.21,535.46c1.29,0.95,2.59,1.9,3.88,2.86c3.12,10.33-4.3,19-4.49,28.82
			c-3.03,8.47-5.07,17.43-11.8,24.08c-11.23-5.5-22.63-6.86-34.93-3.2c-6.44,1.92-13.73,4.39-19.99-1.43
			c-1.12-13.07,3-26.67-3.92-39.17c0-1.31,0-2.61,0-3.92c5.77-5.53,13.14-5.22,20.25-5.19c13.47,0.06,25.67-3.66,36.77-11.23
			c2.07-0.85,4.01-0.62,5.82,0.67l-0.05-0.11c1.1,1.55,2.49,2.82,3.87,4.1l-0.02-0.01C466.93,533.24,468.41,534.54,470.21,535.46z"
			/>
		<path class="st149" d="M457.76,527.84c-4.98,14.83-18.58,13.74-30.02,15.36c-9.42,1.33-19.16,0.29-28.77,0.3
			c-1.31-7.83-2.61-15.67-3.92-23.5c0-2.61,0-5.22,0-7.83c14.62-14.43,34.42-7.5,51.35-12.42c3.86,7.88,7.72,15.75,11.59,23.63
			c0.94,1.04,1.22,2.05,0.84,3.03C458.45,527.36,458.1,527.84,457.76,527.84z"/>
		<path class="st150" d="M402.89,586.59c10.08-1.82,20.52-2.57,30.16-5.73c11.67-3.82,19.79-2.1,24.71,9.65
			c5.66,2.81,7.66,6.79,4.06,12.57c-7.57,3.26-16.29-1.78-23.63,3.25c0.14,6.25,0.28,12.51,0.42,18.76
			c-10.17,10.09-25.18-0.08-35.72,8.51c-4.12-10.8-15.09-11.33-23.51-15.67c2.2-5.43,8.41-8.85,7.84-15.67
			C393.9,598.5,399.13,593.28,402.89,586.59z"/>
		<path class="st151" d="M661.56,433.84c-13.12-10.41-27.11-20.17-27.59-39.47c-0.18-7.33-6.7-8.67-11.6-11.45
			c-4.02-1.08-6.08-4.12-7.7-7.63c-1.67-5.27-4.6-10.55-0.13-15.87c14.28,9.42,25.41,28.27,47.03,15.67
			c3.74,1.49,6.35,4.1,7.84,7.83c0,10.95-0.08,21.91,0.03,32.86C669.49,423.03,669.67,430.2,661.56,433.84z"/>
		<path class="st152" d="M614.53,359.42c1.31,5.22,2.61,10.44,3.92,15.67c-5.49,3.5-13.85-0.02-17.84,5.71
			c-13.26,19.02-21.41,11.82-29.18-4.49c-2.5-5.26-9.27-6.61-13.7-10.28c-6.5-7.02-13.88-9.88-23.74-7.39
			c-6.78,1.71-14.09,1.34-17.44-7.05c0-5.22,0-10.44,0-15.67c15.76,3.57,32.72,2.37,47.03,11.75c12.58,7.65,24.98,15.41,40.77,8.1
			C607.62,354.26,612,355.75,614.53,359.42z"/>
		<path class="st153" d="M720.35,664.93c-1.31,7.83-2.61,15.66-3.92,23.5c-11.97-0.58-23.81,0.02-35.28,3.92
			c-4.54-0.2-9.27,0.2-12.65-3.85c-1.16-10.86,5.82-17.79,12.09-25.11c1.75-1.17,3.64-1.99,5.66-2.53
			C697.92,659.68,709.79,656.91,720.35,664.93L720.35,664.93z"/>
		<path class="st154" d="M669.39,688.42c4.31,0.14,8.94-0.69,11.76,3.92c-7.99,6.35-23.02,4.25-23.52,19.58
			c-7.28,4.67-15.44,4-23.51,3.92c-6.47-8.2-4.92-16.4-0.02-24.61C645.21,682.32,656.98,681.25,669.39,688.42z"/>
		<path class="st155" d="M610.61,747.17c1.62-1.98,3.83-5.92,4.76-5.64c21.34,6.52,28.81-13.43,42.27-21.78
			c1.31,1.31,2.62,2.61,3.92,3.92c0,3.92,0,7.83-0.01,11.75c-13.73,14.98-29.93,23.53-50.95,19.58
			C608.53,752.4,608.24,749.79,610.61,747.17z"/>
		<path class="st156" d="M446.4,499.75c-7.37,9.94-18.19,7.98-28.48,8.67c-7.67,0.51-15.25,2.45-22.86,3.76
			c-0.95-7.89,6.05-17.11-3.92-23.5c0-2.61,0-5.22,0-7.83l0,0c6.32-13.29,17.87-14.03,29.89-11.43c8.02,1.74,15.27,3.66,20.95-4.3
			c0.05-1.29,0.09-2.57,0.13-3.86c1.03-1.1,2.06-1.15,3.09,0C445.59,474.08,445.99,486.92,446.4,499.75z"/>
		<path class="st157" d="M501.49,699.94c0.65-0.01,1.31-0.1,1.95-0.02c28.96,3.5,28.95,3.51,28.96,31.61
			c0,3.89,0.07,7.78,0.11,11.67c-3.1-1.86-3.64-4.94-4.41-8.19c-2.57-10.93-12.66-12.19-20.96-14.65c-8.61-2.55-12.81,4-15.97,10.9
			c-1.96,4.27-4.41,8.05-9.88,8.08c-1.31-1.31-2.62-2.61-3.92-3.92c0-3.92,0-7.83,0.01-11.75
			C485.25,715.61,481.64,695.86,501.49,699.94z"/>
		<path class="st158" d="M501.49,699.94c-15.79,0.05-11,20.99-24.13,23.74c0-2.61-0.01-5.22-0.01-7.83
			c-0.09-8.15-0.74-16.39,4.09-23.69C488.13,694.75,494.81,697.34,501.49,699.94z"/>
		<path class="st159" d="M300.98,860.76c7.74-3.72,15.73-7.11,19.6-15.67c16.25-15,36.11-13.26,55.42-10.51
			c8,1.14,13.87,1.01,19.05-5.16c1.31,1.31,2.61,2.61,3.92,3.92c0,1.31,0,2.61,0,3.92c-14.09,13.44-31.88,15.68-49.68,13.65
			c-8.11-0.92-12.23,2.92-16.96,6.49c-6.12,4.63-11.02,10.95-19.59,11.19C308.82,865.98,304.9,863.37,300.98,860.76z"/>
		<path class="st160" d="M763.46,547.42c-3.54,6.16-9.47,11.36-7.84,19.58c-14.5-3.81-28.35-9.76-43.02-13.08
			c-7.74-6.19-17.97-10.06-20.09-21.5c17.09-11.53,35.02-17.57,55.28-8.5C758.38,528.18,756.52,540.73,763.46,547.42z"/>
		<path class="st161" d="M747.78,523.92c-19.48-1.66-37.39,4.04-54.87,11.75c-2.34,2.6-5.35,3.54-8.74,3.62
			c-3.41-0.23-6.44-1.29-8.65-4.07c-2.88-5.45-2.25-10.52,1.71-15.21c6.04-14.33,13.88-24.47,31.9-16.46
			c4.31,1.91,10.05,0.62,15.13,0.8C727.34,516.58,743.32,513.35,747.78,523.92z"/>
		<path class="st162" d="M441.97,465.11c0.18,11.05,0.46,20.54-15.42,11c-12-7.21-24.56-4.05-35.42,4.73c0-3.92,0-7.83,0-11.75
			c7.35-15.96,23.76-21.32,38.26-12.4C433.68,459.33,437.78,462.29,441.97,465.11z"/>
		<path class="st163" d="M477.09,409.33c-7.07-6.36-13.61-17.01-23.25-2.91c-18.25-0.22-14.61-19.19-23.51-27.42
			c7.24-4.87,15.78-2.01,23.51-3.92c29.13-5.59,37.66-0.43,39.8,24.11l-0.03-0.29c-1.5,0.86-2.95,1.8-4.35,2.82
			C485.2,404.26,481.14,406.8,477.09,409.33z"/>
		<path class="st164" d="M583.17,829.42c0,1.31,0,2.61,0,3.92c-1.31,1.31-2.61,2.61-3.92,3.92c-12.87,12.23-28.37,17.27-45.92,17.08
			c-14.75-0.16-29.39-3.86-44.22-1.42c0-1.31,0-2.61,0-3.92c1.31-2.61,2.61-5.22,3.92-7.83c18.4-8.3,37.71,3.91,56.89-3.24
			C560.28,834.08,570.77,826.78,583.17,829.42z"/>
		<path class="st165" d="M688.99,841.18c0,2.61,0,5.22,0,7.83c-21.47,8.35-42.38,19.08-66.63,15.66c-3.92,0-7.84,0-11.76,0
			c-1.55-12.35,9.59-16.24,15.68-23.5c16.55,2.62,31.71-3.11,47.03-7.83C678.54,835.96,683.77,838.57,688.99,841.18z"/>
		<path class="st166" d="M626.29,841.18c-0.22,11.17-12.15,14.53-15.68,23.5c-5.71-0.61-10.79,1.25-15.68,3.92
			c-6.6-0.96-14.11,2.62-19.6-3.92c1.31-2.61,2.61-5.22,3.92-7.84c11.18-6.53,21.8-14.29,35.27-15.67
			C618.45,841.18,622.37,841.18,626.29,841.18z"/>
		<path class="st167" d="M614.53,841.18c-11.37,6.08-20.12,18.08-35.27,15.67c-3.74-1.49-6.35-4.1-7.84-7.83
			c1.5-3.54,3.5-6.07,7.84-3.92c13.44-4.27,27.6-6.76,39.19-15.66C617.14,833.35,615.83,837.26,614.53,841.18z"/>
		<path class="st168" d="M759.54,868.59c0,1.31,0,2.61,0,3.92c-1.31,0-2.62,0-3.92,0c-14.36-3.77-29.02-4.93-42.96,0.33
			c-14.79,5.58-28.86-2.74-43.26-0.33c0-1.31,0-2.61,0-3.92c2.97-12.06,11.78-8.01,19.47-7.07c15.92,3.42,31.14-5.21,47.15-2.56
			C744.78,860.41,754.32,858.89,759.54,868.59z"/>
		<path class="st123" d="M610.61,747.17c0,2.61,0,5.22,0,7.84l0,0c-1.44,1.17-2.59,2.63-3.92,3.92c0.36,6.71-0.7,12.7-7.84,15.66
			c1.3-6.53,2.61-13.05,3.91-19.58C602.9,749.92,605.52,747.31,610.61,747.17z"/>
		<path class="st123" d="M594.94,778.5c1.3-1.3,2.61-2.61,3.91-3.91C597.54,775.9,596.24,777.2,594.94,778.5z"/>
		<path class="st155" d="M606.69,758.93c1.31-1.31,2.61-2.61,3.92-3.92C609.3,756.32,608,757.62,606.69,758.93z"/>
		<path class="st169" d="M516.54,351.59c5.72,2.98,11.64,5.5,18.06,2.53c11.57-5.35,19.42-1.23,25.05,9.22
			c1.02,3.95-1.25,4.91-4.52,4.97c-6.73-5.18-14.53-2.43-21.88-2.94c-1.76,0.58-3.54,1.14-5.31,1.71
			c-23.64,3.48-46.74-3.41-70.19-3.74c-3.92-3.92-7.84-7.83-11.76-11.75C469.51,344.95,493.03,335.36,516.54,351.59z"/>
		<path class="st170" d="M579.26,845.09c-2.61,1.31-5.23,2.61-7.84,3.92c-19.12,11.14-39.72,15.38-61.16,9.94
			c-8.24-2.09-11.64,3.55-17.22,5.73c-1.2,1.41-2.79,2.43-3.92,3.91c-2.61,0-5.23,0-7.84,0c2.61-5.22,5.23-10.44,7.84-15.66
			c9.13-4.75,17.44-7.86,29.03-4.85c21.26,5.52,41.51-2.59,61.11-10.81C579.25,839.87,579.25,842.48,579.26,845.09z"/>
		<path class="st121" d="M489.11,868.59c1.31-1.3,2.61-2.61,3.92-3.91C491.72,865.98,490.42,867.29,489.11,868.59z"/>
		<path class="st171" d="M712.51,551.34c16.09,0.5,31.47,2.93,43.11,15.66c0,1.31,0,2.61,0,3.92
			c-9.19,10.03-25.01,13.12-29.42,28.17c-8.31,20.88-26.4,16-42.48,15.93c-7.03-0.03-13.86-1.85-19.96-5.65
			c-8.19-11.04,2.21-15.44,8.29-19.65C687.59,578.95,702.51,567.83,712.51,551.34z"/>
		<path class="st172" d="M724.27,594.42c3.68-16.85,18.39-19.01,31.35-23.5c1.73,10.39-3.92,21.71,3.92,31.33
			c-5.36,15.39-17.88,16.48-31.35,15.66C719.16,611.37,721.68,602.9,724.27,594.42z"/>
		<path class="st173" d="M457.76,363.34c23.51-11.62,47.03,3.3,70.54,0c4.73,7.27-0.66,16.02,3.43,23.37
			c-9.11,15.1-26.27,5.67-38.1,12.48c-4.7-22.15-22.93-22-39.8-24.11C455.14,371.17,456.45,367.25,457.76,363.34z"/>
		<path class="st174" d="M724.27,594.42c-1.39,8.28,2.62,15.66,3.92,23.5c0,1.31,0,2.61,0,3.92c-4.1,5.61-4.94,14.06-13.64,15.7
			c-24.52,5.15-45.78-8.79-68.92-11.79c0.21-6.53,0.41-13.06,0.62-19.59c5.11-3.81,10.21-2.32,15.31,0
			c11.47,0.81,22.54,3.91,34.22,4.41C709.71,611.18,719.14,607.55,724.27,594.42z"/>
		<path class="st175" d="M716.43,633.59c3.92-3.92,7.84-7.83,11.76-11.75c-0.83,9.46,4.17,12.79,12.78,11.65
			c7.53-1,14.99-2.52,22.49-3.81c-0.1,2.51-0.21,5.02-0.32,7.52c-11.33,3.78-20.42,12.5-33.13,13.66
			c-7.11,0.64-10.53,6.54-9.66,14.06c-13.06,0-26.13,0-39.19,0c-4.58-4.31-4.6-9.61-3.35-15.2
			C685.98,633.15,703.25,638.25,716.43,633.59z"/>
		<path class="st176" d="M289.2,927.72c-5.21,4.97-10.41,4.98-15.61,0C278.79,927.72,283.99,927.72,289.2,927.72z"/>
		<path class="st177" d="M688.99,864.68c-6.6,0.95-14.11-2.62-19.6,3.91c-16.98,1.31-33.97,2.61-50.95,3.92
			c1.31-2.61,2.61-5.22,3.92-7.83c22.34-4.68,43.26-15.36,66.63-15.66c1.31,3.92,2.61,7.83,3.92,11.75
			C693.78,864.23,693.15,866.22,688.99,864.68z"/>
		<path class="st178" d="M688.99,864.68c1.31-1.31,2.61-2.61,3.92-3.92c18.52-16.59,41.13-11.45,62.71-11.75
			c1.31,3.92,2.61,7.83,3.92,11.75c0,2.61,0,5.22,0,7.83c-17.35-6.99-35.26-4.23-52.94-2.38
			C700.39,866.86,694.42,870.97,688.99,864.68z"/>
		<path class="st158" d="M477.52,689.42c1.33,0.94,2.65,1.88,3.98,2.81C480.18,691.29,478.85,690.35,477.52,689.42z"/>
		<path class="st179" d="M638.04,692.34c-4.67,7.27-4,15.44-3.92,23.5c-17.16,1.01-27.4,13.55-39.19,23.5
			c-2.67-4.88-4.53-9.96-3.92-15.66c4.94-17.59,21.4-23.37,33.99-33.15c2.66-1.18,5.43-1.59,8.31-1.15
			C635.14,689.95,636.72,690.95,638.04,692.34z"/>
		<path class="st180" d="M626.28,692.34c-11.76,10.44-23.52,20.89-35.27,31.33c-2.48-0.58-4.98-1.11-7.44-1.75
			c-27.8-7.28-27.8-7.28-27.84,21.33c-1.32-0.01-2.64-0.01-3.96-0.02c0.07-3.84,0.19-7.69,0.2-11.53
			c0.05-29.44,0.04-29.44,29.9-31.99c2.93-1.37,6.51-0.92,9.09-3.26c0.78-0.74,1.67-0.93,2.69-0.57c2-0.29,3.36-1.76,5.02-2.69
			c0.96-0.85,2.07-1.21,3.34-1.07c1.54-0.92,3.05-1.89,4.51-2.92c0.76-0.86,1.7-1.24,2.84-1.14c2.19-0.56,3.76-1.97,5.13-3.68
			l-0.09,0.07c1.33-1.22,2.72-2.37,4.16-3.47l0.34-0.29c0.95-1.42,2.15-2.58,3.61-3.48l0.26-0.23
			C632.81,680.08,629.87,686.14,626.28,692.34z"/>
		<path class="st181" d="M601.61,594.45c0.4,1.26,0.8,2.51,1.21,3.77c2.23,2.11,1.46,5.42,3.1,7.77c1.94,7.91,2.15,15.84,0.29,23.79
			c-11.71,9.78-24.23,18.95-26.61,35.68l0.13-0.27c-1.41,0.92-2.83,1.84-4.23,2.77c-2.27,0.44-4.55,0.87-6.82,1.31
			c-11.45,4.2-15.22-0.52-14.96-11.83c0.43-18.81,0.15-37.64,0.09-56.41c0.06-3.12,0.7-8.53,3.83-7.09
			c13.64,6.3,26.12,2.09,38.93-1.97C598.17,591.44,600.1,593.21,601.61,594.45z"/>
		<path class="st182" d="M677.23,535.67c2.61,0,5.23,0,7.84,0c0.48,19.14-8.94,34.24-21.28,47.25c-5.62,5.93-14.27,5.73-21.33-0.26
			c-7.23-17.33-19.83-29.76-35.81-39.1c-3.34-8.42-1.52-16.28,2.54-23.91c10.52-6.97,22.46-6.63,29.65,2.32
			C649.55,535.28,661.89,538.25,677.23,535.67z"/>
		<path class="st183" d="M642.47,582.66c15.93,2.27,26.68-3.73,28.92-20.17c1.48-10.87,12.9-16.01,13.69-26.82c2.61,0,5.23,0,7.84,0
			c9.95,0.96,14.71,8.38,19.59,15.67c-0.25,24.79-23.39,29.41-37.46,41.84c-4.71,4.17-10.62,6.93-13.49,12.99
			c-5.11,3.74-10.21,0.31-15.31,0C644.99,598.33,643.73,590.5,642.47,582.66z"/>
		<path class="st184" d="M461.56,601.75c-1.27-3.75-2.54-7.5-3.8-11.24c-1.01-9.04,4.48-15.92,7.84-23.5
			c12.58,1.44,13.04,14.31,19.84,21.21c4.72,4.79,9.11,9.52,16.49,7.59c7.62-1.99,9.53-7.88,9.06-15.02
			c2.65-8.61-4.64-23.65,14.07-21.88c6.17-0.44,7.85,2.75,6.68,8.24c-3.25,12.17-0.63,24.6-1.65,36.86
			c-7.9,9.33-17.76,16.69-25.74,26.06c-5.51,6.47-13.18,10.77-22.61,7.33c-5.24-9.4-5.38-19.58-4.61-29.91
			C473.79,600.56,465.4,607.3,461.56,601.75z"/>
		<path class="st185" d="M599.22,464.73c-0.92,7.56,1.24,12.41,10.01,12.23c8.26-0.17,16.53,0.07,24.8,0.14
			c0.89,8.75-7.94,10.21-11.66,15.49c-3.34,4.37-8.2,5.74-13.27,6.71c-11.25-1.19-22.13-3.41-33.86-0.34
			c-8.18,2.14-18.18,0.96-21.41-10.48c1.18-20.77-2.36-41.66,1.92-62.3c2.67,0.21,5.33,0.42,8,0.62
			c13.14,5.78,2.01,21.86,9.68,26.64c7.53,4.7,20.3,0,25.8,11.54L599.22,464.73z"/>
		<path class="st186" d="M484.92,460.52c-0.35-1.2-0.15-2.28,0.62-3.27c2.16-2.15,1.2-5.72,3.56-7.77
			c12.36-21.27,26.48-27.7,42.64-19.41c-3.44,15.84-0.94,31.88-1.46,47.82c-0.62,18.86-1.13,19.44-20.07,14.67
			c-7.19-8.01-18.64-9.22-26.39-16.36C483.32,470.92,482.28,465.59,484.92,460.52z"/>
		<path class="st187" d="M555.76,367.25c1.3-1.3,2.6-2.61,3.89-3.91c8.69,4.26,20.86,4.63,20.28,19.05
			c-0.13,3.18,2.45,6.15,5.91,6.6c4.31,0.56,4.43-3.47,5.75-6.23c6.02-12.61,15.31-14.16,26.84-7.67c1.31,2.61,2.61,5.22,3.92,7.83
			c-4.46,13.13,11.4,26.75-0.94,39.7c-1.06-1.24-2.11-2.48-3.17-3.72c-1-2.03-2.5-3.54-4.63-4.38c-6.22-4.06-12.45-8.12-18.67-12.17
			c-2.23-2.24-5.82-1.48-8.07-3.68c-1.3-0.26-2.61-0.51-3.91-0.77c-2.55-1.7-5.85-1.24-8.39-2.95c-2.41-0.26-4.83-0.52-7.24-0.78
			c-4.17-3.47-10.2,0.69-14.2-3.46c-0.2-1.36-0.4-2.73-0.6-4.09C555.93,380.54,551.36,373.15,555.76,367.25z"/>
		<path class="st188" d="M481.74,637.4c12.55-3.78,22.68-10.35,28.94-22.51c3.46-6.71,9.9-9.52,17.61-8.72
			c5.26,19.3-1.16,39.27,3.4,58.61c-0.12,1.34-0.25,2.67-0.37,4.01c-2.53,2.43-5.23,1.78-7.98,0.46c-2.3-0.3-4.61-0.59-6.91-0.89
			c-2.34-2.01-5.8-1.24-8.13-3.28c-1.23-0.35-2.46-0.69-3.68-1.04c-1.48-0.94-2.95-1.88-4.43-2.81
			C490.47,656.04,483.73,648.56,481.74,637.4z"/>
		<path class="st189" d="M555.79,492.58c17.86,7.08,37.39-9.18,54.82,3.93c5.17,5.06,4.86,11.01,2.84,17.23
			c-0.56,1.18-1.46,2.97-2.33,2.85c-16.52-2.27-29.62,8.26-44.58,11.73c-5.91-0.8-13.34,0.85-13.92-8.58
			C556.18,510.98,551.04,501.2,555.79,492.58z"/>
		<path class="st190" d="M525.05,558.91c-15.48,5.34-5.72,18.44-8.51,27.68c-21.75,9.5-32.15,5.25-37.02-16.41
			c-2.17-9.64-9.12-19.34-2.19-29.79C493.24,546.56,509.15,552.74,525.05,558.91z"/>
		<path class="st191" d="M601.61,594.45c-3.1,0.53-7.29-0.03-9.12,1.78c-13.12,12.95-24.96,8.36-36.71-1.8
			c-4.6-7.28,0.35-15.88-3.24-23.3c-0.64-2.91,0.4-5.94,3.36-5.14C573.93,570.86,592.41,575.31,601.61,594.45z"/>
		<path class="st192" d="M485.32,476.86c9.26,1.06,21.53-3.86,23.39,11.81c5.95,7.19,15.96,6.47,22.89,11.75
			c1.13,22.17-1.12,23.9-21.24,14.04c-12.14-5.95-24.15-12.74-25.55-28.6C483.25,482.77,482.87,479.74,485.32,476.86z"/>
		<path class="st193" d="M477.34,540.38c0.29,13.02,7.11,24.39,9.35,37.21c2.8,16.05,19.48,6.42,29.85,8.99
			c-9.37,20.26-22.56,21.93-35.01,4.28c-5.51-7.81-10.64-15.9-15.94-23.86c-1.63-10.88,3.94-19.63,8.49-28.69
			C475.43,538.6,476.51,539.29,477.34,540.38z"/>
		<path class="st194" d="M681.15,649.26c0,5.22,0,10.44,0,15.66v0c-11.54,8.38-25.04,4.87-37.75,6.29
			c-4.52-0.8-8.47-2.53-10.82-6.78c4.24-11.97,8.49-23.94,12.73-35.9c4.76,3.52,7.43,9.96,15.83,7.63
			C671.83,633.21,677.54,640.18,681.15,649.26z"/>
		<path class="st195" d="M681.15,649.26c-8.08-4.04-12.37-14.32-26.22-6.26c-11.85,6.89-6.87-8.88-9.61-14.46
			c-0.46-0.99-0.36-1.92,0.3-2.78c24.93-9.43,46.16,14.57,70.8,7.83C704.94,639.43,690.99,639.71,681.15,649.26z"/>
		<path class="st196" d="M566.54,528.32c12.71-11.18,25.27-22.95,44.07-12.23c1,0.87,1.34,1.74,1.01,2.61s-0.67,1.31-1,1.31
			c0.09,8.09,0.74,16.27-3.95,23.56c-1.38-0.43-2.77-0.85-4.15-1.28c-1.48-0.71-2.88-1.56-4.21-2.53
			C587.71,535.94,577.12,532.13,566.54,528.32z"/>
		<path class="st197" d="M599.22,464.98c-7.56,0.06-11.74-10.43-23.33-2.57c-9.5,6.45-11.01-8.78-10.15-15.52
			c0.93-7.26,2.17-13.69-2-20.09C584.51,431.22,596.77,443.55,599.22,464.98z"/>
		<path class="st198" d="M579.6,665.45c-6.61-23.42,8.16-30.92,26.61-35.68C603.95,646.6,596.54,659.57,579.6,665.45z"/>
		<path class="st198" d="M552.53,571.13c5.95,7.09,2.08,15.55,3.24,23.3c-0.01,20.13,0.36,40.27-0.18,60.38
			c-0.26,9.74,2.91,14.86,13.08,14.44c-12.4,6.93-17.21,3.35-16.86-10.82C552.53,629.34,552.34,600.23,552.53,571.13z"/>
		<path class="st199" d="M531.6,500.42c-10.21,1.1-18.3-1.91-22.89-11.75c14.67,5.89,20.61,2.32,20.07-14.75
			c-0.47-14.49-4.47-29.72,2.97-43.85C531.7,453.52,531.65,476.97,531.6,500.42z"/>
		<path class="st200" d="M531.69,664.79c-7.38-19.18-1.5-39.12-3.4-58.61c1.57-12.97-3.52-26.52,3.44-39.02
			C531.72,599.7,531.7,632.24,531.69,664.79z"/>
		<path class="st197" d="M555.79,492.58c-1.37,9.02,2.96,18.7-3.18,27.16c-0.22-27.9-0.49-55.8-0.61-83.7
			c-0.02-3.62-1.22-8,3.74-9.87C555.76,448.31,555.77,470.44,555.79,492.58z"/>
		<path class="st201" d="M632.59,664.43c3.61,0.44,7.27,0.78,9.37,4.41c8.6,11.57-4.23,16-7.84,23.5c-2.61,0-5.23,0-7.84,0
			c-0.59-5.25,1.84-11.19-3.52-15.34C626.04,672.81,629.31,668.62,632.59,664.43z"/>
		<path class="st202" d="M555.76,367.25c-0.88,6.49,2.27,13.64-3.21,19.37c1.22-14.85-2.52-24.5-20.35-19.41
			c-1.11-0.85-1.48-1.69-1.11-2.54c0.37-0.85,0.73-1.27,1.1-1.27C540.09,364.48,548.86,360.13,555.76,367.25z"/>
		<path class="st193" d="M461.56,601.75c5.35,1.47,12.48-1.89,15.57,5.74c-12.86-4.27-25.9-2.75-38.94-1.16
			C444.78,598.71,453.88,603.88,461.56,601.75z"/>
		<path class="st199" d="M485.32,476.86c-0.17,3-0.34,5.99-0.5,8.99c-4.71-8.46-4.79-16.91,0.11-25.34
			C485.05,465.97,485.18,471.42,485.32,476.86z"/>
		<path class="st152" d="M532.2,363.39c0,1.27,0,2.54,0.01,3.81c-0.16,6.5-0.31,13.01-0.47,19.51c-6.31-7.03-2.28-15.58-3.43-23.37
			C529.6,363.34,530.9,363.36,532.2,363.39z"/>
		<path class="st202" d="M553.15,390.71c4.9,0.46,10.38-1.44,14.2,3.46C562.37,394.01,556.84,396.11,553.15,390.71z"/>
		<path class="st199" d="M489.1,449.48c-0.01,3.13-0.6,5.99-3.56,7.77C485.18,453.96,486.46,451.41,489.1,449.48z"/>
		<path class="st32" d="M634.45,445.67c3.39,2.17,3.54,5.48,3.15,8.98C634.74,452.29,634.09,449.16,634.45,445.67z"/>
		<path class="st201" d="M590.96,696.45c-2.16,3.5-5.51,3.66-9.08,3.26C584.31,696.98,587.46,696.22,590.96,696.45z"/>
		<path class="st191" d="M605.92,605.99c-1.03-2.59-2.07-5.18-3.1-7.77C603.85,600.81,604.88,603.4,605.92,605.99z"/>
		<path class="st200" d="M508.3,665.08c3.22-0.16,6.18,0.31,8.13,3.28C513.11,668.78,510.4,667.69,508.3,665.08z"/>
		<path class="st152" d="M586.88,398.66c3.26-0.03,6.23,0.59,8.07,3.68C592.27,401.11,589.57,399.89,586.88,398.66z"/>
		<path class="st200" d="M523.34,669.25c2.66-0.15,5.32-0.3,7.98-0.46C528.96,674.22,526.12,671.27,523.34,669.25z"/>
		<path class="st152" d="M574.59,394.94c3.22-0.23,6.27,0.04,8.39,2.95C580.18,396.91,577.38,395.93,574.59,394.94z"/>
		<path class="st144" d="M613.62,414.52c1.54,1.46,3.08,2.92,4.63,4.38C616.71,417.44,615.17,415.98,613.62,414.52z"/>
		<path class="st200" d="M500.19,661.22c1.48,0.94,2.95,1.88,4.43,2.82C503.14,663.1,501.67,662.16,500.19,661.22z"/>
		<path class="st198" d="M575.5,667.95c1.41-0.92,2.82-1.85,4.23-2.77C578.32,666.1,576.91,667.03,575.5,667.95z"/>
		<path class="st173" d="M489.25,401.73c1.45-0.94,2.89-1.88,4.34-2.82C492.15,399.85,490.7,400.79,489.25,401.73z"/>
		<path class="st201" d="M622.5,677.23c-1.21,1.16-2.41,2.32-3.61,3.48C620.1,679.55,621.3,678.39,622.5,677.23z"/>
		<path class="st201" d="M618.55,680.99c-1.38,1.16-2.77,2.31-4.16,3.47C615.78,683.3,617.17,682.15,618.55,680.99z"/>
		<path class="st201" d="M614.49,684.39c-1.71,1.23-3.41,2.45-5.12,3.68C611.07,686.84,612.78,685.62,614.49,684.39z"/>
		<path class="st201" d="M606.52,689.2c-1.5,0.97-3,1.95-4.51,2.92C603.51,691.15,605.01,690.18,606.52,689.2z"/>
		<path class="st201" d="M598.66,693.19c-1.67,0.9-3.34,1.79-5.01,2.69C595.32,694.99,596.99,694.09,598.66,693.19z"/>
		<path class="st193" d="M470.21,535.46c-1.54-1.24-3.07-2.49-4.61-3.73C467.14,532.97,468.67,534.22,470.21,535.46z"/>
		<path class="st193" d="M465.62,531.74c-1.29-1.37-2.58-2.73-3.87-4.1C463.04,529.01,464.33,530.38,465.62,531.74z"/>
		<path class="st193" d="M457.76,527.84c0.07-1.49,0.15-2.97,0.22-4.46c1.28,1.46,2.55,2.92,3.83,4.38
			C460.46,527.79,459.11,527.81,457.76,527.84z"/>
		<path class="st182" d="M598.3,539.75c1.4,0.85,2.81,1.69,4.21,2.54C601.1,541.44,599.7,540.6,598.3,539.75z"/>
		<path class="st162" d="M445.18,461.25c-1.03,0-2.06,0-3.09,0c1.19-1.29,2.38-2.57,3.57-3.86
			C445.5,458.68,445.34,459.97,445.18,461.25z"/>
		<path class="st203" d="M610.61,520.01c0-1.31,0-2.61,0-3.92c0-6.53,0-13.05,0-19.58c2.82-4.61,7.45-3.78,11.76-3.92
			c12.17,0.72,22.73,3.4,28.12,16.51c4.92,11.98,16.12,11.41,26.75,10.9c0,5.22,0,10.45,0,15.67c-13.9,10.62-26.48,12.63-36.09-5.43
			C634.22,517.24,621.85,520.27,610.61,520.01z"/>
		<path class="st204" d="M634.12,692.34c0.08-8.68,10.24-13.99,7.84-23.5c12.5-6.92,26.11-2.81,39.19-3.92
			c-0.77,9.41-9.36,14.9-11.76,23.5c-10.62-0.05-21.22,0.04-31.35,3.92C636.74,692.34,635.43,692.34,634.12,692.34z"/>
	</g>
</g>
</svg>
